<?xml version="1.0" encoding="UTF-8"?>
<svg id="_图层_1" data-name="图层 1" xmlns="http://www.w3.org/2000/svg" viewBox="0 0 1280 720">
  <defs>
    <style>
      .cls-1 {
        letter-spacing: -.02em;
      }

      .cls-2 {
        font-size: 32px;
      }

      .cls-2, .cls-3 {
        font-family: HelveticaRounded-Black, 'Helvetica Rounded Black';
        font-weight: 800;
      }

      .cls-2, .cls-4, .cls-5 {
        fill: #fff;
      }

      .cls-6 {
        font-family: AdobeSongStd-Light-GBpc-EUC-H, 'Adobe Song Std';
        font-weight: 300;
        letter-spacing: 0em;
      }

      .cls-7 {
        fill: #f9fbfc;
      }

      .cls-7, .cls-8, .cls-9, .cls-10, .cls-11, .cls-4, .cls-12 {
        stroke-width: 0px;
      }

      .cls-8 {
        fill: #5cabeb;
      }

      .cls-9 {
        fill: #063cd8;
      }

      .cls-10 {
        fill: #041391;
      }

      .cls-11 {
        fill: #92ccf0;
      }

      .cls-12 {
        fill: #f1d5e0;
      }

      .cls-5 {
        font-size: 53.5px;
      }
    </style>
  </defs>
  <g>
    <path class="cls-11" d="m1280,720H0V0h1280v720Z"/>
    <path class="cls-10" d="m1049.83,143.72c13.98,5.25,16.44,18.75,13.63,31.84-1.62,7.56-5.06,14.3-9.23,20.69-1.62,2.49-2.01,4.57-.57,7.34,3.46,6.66,2.16,13.48.5,20.43-5.55,23.26-19.97,40.38-37.64,55.36-2.15,1.82-4.12,3.88-6,5.98-1.72,1.92-1.67,3.89.55,5.53,1.48,2.59-.31,4.15-2,5.43-7.14,5.44-14.13,11.05-20.76,17.11-2.37,2.17-5.2,3.64-8.66,2.76-6.13-3.84-9.17-9.62-9.48-16.62-.33-7.43,2.64-13.99,6.95-19.91,2.08-2.86,5.34-3.86,8.6-4.69,7.27-1.84,13.68-5.07,18.68-10.87,8.21-9.54,6.43-24.43-3.9-31.7-6.25-4.39-11.35-4.14-17.28.73-4.53,3.72-7.24,8.6-9.37,13.93-1.4,3.52-2.54,8.09-7.4,7.41-4.68-.66-5.2-5.09-5.29-9.03-.06-2.35-1.16-3.54-3.13-4.55-12.22-6.23-17.17-17.59-20.63-29.86-.98-3.47.1-6.83,1.73-10.1,5.14-10.35,12.16-19.49,18.47-29.08,2.28-3.47,4.39-7.04,6.73-10.46.22-.23.45-.45.68-.68.23-.23.44-.47.67-.7-.06.16-.18.24-.39.27-.35.38-.7.7-1.03,1.05-.34.42-.64.87-.93,1.32-.18.32-.4.61-.63.9-.32.46-.67.89-1.01,1.34-.32.5-.65.99-.97,1.5-.31.59-.64,1.15-1,1.7-9.06,11.09-17.37,22.75-26.1,34.09-1.83,2.37-3.86,4.62-6.5,6.13-2.33,1.33-4.8,1.72-6.92-.34-1.92-1.86-1.08-3.97-.05-5.98.15-.3.34-.57.49-.87.63-1.26,2.22-2.65.41-3.88-1.68-1.14-2.69.71-3.69,1.66-2.42,2.29-4.98,4.42-7.58,6.5-17.55,14.05-36.44,17.82-57.19,7.53-.59-.29-1.19-.63-2.2-.38,1.24,5.85,3.35,11.39,5.74,16.84.71,1.62,1.95,2.1,3.64,1.92,1.49-.15,3-.19,4.46.26,2.99.92,5.05,2.76,4.93,6.06-.12,3.25-2.7,3.82-5.29,4.17-1.13.15-2.36,0-3.81,1.4,1.03,7.03,3.78,14,6.26,20.96,2.73,7.68,5.92,15.2,8.33,22.99,3.48,11.26,11.05,18.36,22,22.02,10.01,3.34,20.23,5.25,30.87,3.97,4.61-.55,9.29-.28,13.94-.77,4.83-.5,7.39,2.2,8.29,7.95.62,3.91.52,7.97,2.7,11.52-.48,6.38-3.8,10.69-9.59,13.22-5.45,5.68-6.66,13.28-8.93,20.31-4.62,14.32-5.31,29.4-7.93,44.12-6.15,34.53-11.12,69.26-17.67,103.72-.43,2.26-.91,4.55-.63,6.89q3.79-.23,5.47-9.62c.3-1.25.64-2.49.89-3.76.22-.99.61-1.9,1.33-2.63,2.54-.99,2.98,1.13,3.1,2.56.4,4.83,2.81,7.15,7.63,7.02,2.02,3.17,3.97,2.76,6.19.1,2.52-3.01,6-4.7,9.56-6.15,1.88-.77,3.84-1.33,5.52.52,1.75,3.97-1.01,6.56-2.81,9.02,13.82,9.85,20.3,23.74,23.22,39.61.56,3.04,1.85,4.38,4.55,4.95,9.28,1.96,18.6,3.76,27.1,8.37,2.54,1.38,5.21-.11,7.69-.99,15.77-5.59,29.3-14.84,39.72-27.69,18.18-22.41,34.78-45.96,44.86-73.38,3-8.15,3.89-16.86,6.45-25.14.59-1.91,1.06-3.87,2.18-5.56.65-.99,1.43-1.92,2.8-1.73,1.36.18,1.88,1.27,2.24,2.4.52,1.62.47,3.3.22,4.95-2.58,17.29-5,34.61-9.5,51.55-1.62,4.19-3.72,8.2-4.89,12.58-8.47,15.9-17.79,31.13-30.31,44.35-13.11,13.85-28.84,23.45-46.04,31.05-6.7,2.96-13.4,5.92-20.15,8.76-2.27.96-4.2,2.13-3.99,5.03-.61,2.84-.91,6.02-5.24,4.8-2.75-3.97-1.76-8.36-1.09-12.55,1.49-9.43,1.62-9.49-8-9.4-14.98.14-29.92,1.52-44.92,1.03-2-.07-4.08.05-5.48,1.82-3.98,5.04-9.74,6.26-15.55,6.89-4.45.48-8.97,1.11-13.41,1.06-14.5-.19-28.93,1.81-43.41,1.15-6.36-.29-12.59.99-18.92,1.11-17.54.33-34.84-.53-51.98-5-21.55-5.63-43.72-8.69-65.13-15.05-2.09-.62-4.1-1.39-6.07-2.27-2.55-1.14-4.7-2.73-4.77-5.82-.08-3.29,2.08-5.2,4.77-6.42,4.55-2.07,9.37-3.45,14.13-4.94,10.63-3.32,21.43-6.08,32.15-9.08,7.39-.64,14.57,1.06,21.76,2.27,2.52.42,4.91.62,7.39.28,5.37.51,10.7,1.43,16.06,2.07,6.27.75,8.06,2.85,7.58,7.7-2.13,2.38-4.86,1.66-7.43,1.29-12.75-1.8-25.52-3.5-35.26-4.94,8.14.98,19.24,2.74,30.36,4.3,4.09.58,8.29.42,12.28,1.75,4.69,2.98,5.23,4.96,2.51,9.1-12.36-.83-24.72-1.79-36.88-4.35-4.19-.88-8.48-1.25-12.59-2.53,16.35,4.22,33.17,5.28,49.84,7.45,3.76,1.2,4.32,3.78,3.1,7.13-3.89,3.73-8.8,2.56-13.23,2.19-8.5-.72-16.97-2.06-25.15-4.78,14.35,4.96,29.22,5.03,44.1,4.95.62-.04,1.24-.12,1.78-.42.47-.5.35-1.04.06-1.61-5.19-13.23-8.45-27.02-12.13-40.67-5.11-18.97-10.1-37.97-15.24-56.93-.74-2.74-1.96-5.3-3.17-7.87-3.1-6.61-8.13-10.24-15.48-10.87-25.02-2.15-49.93-5.39-74.97-7.26-6.96-.52-13.88-1.68-20.86-1.77-5.85-.08-7.87,2.42-6.64,8.22,2.4,11.25,6.32,22.05,9.87,32.96,5.83,17.89,11.18,35.94,18.96,53.13,1.09,2.42,2.38,5.25-.63,7.16-2.83,1.8-5.46.39-7.72-1.57-2.46-2.14-3.8-5.05-4.96-8-.95-2.43-2.5-3.05-4.69-1.81-9.56,5.43-19.86,7.4-30.76,7.01-3.84-.14-6.74,2.5-10.68,4.81,7.46-.52,13.99.57,20.58.93,2,.11,3.99.12,5.95.65,8.41,2.28,10.37,8.62,4.38,14.83-7.4,7.67-14.82,15.34-23.1,22.11-5.23,4.28-11.2,6.3-17.95,6.56-16.88.65-33.57-1.54-50.26-3.37-14.55-1.59-29.1-3.07-43.65-4.64-28.62-3.1-57.17-6.81-85.38-12.62-8.72-1.79-15.22.05-21.06,6.36-3.84,4.15-7.95,8.04-12.42,11.58-4.92,3.89-10.26,5.7-16.59,5.76-21.66.2-43.22-1.32-64.8-2.82-12.6-.88-25.22-1.71-37.84-2.46-13.1-.77-26.28-.72-39.29-2.84-3.81-.62-7.56-1.37-10.83-3.55-4.89-3.27-5.84-7.96-2.49-12.96,2.44-3.63,5.93-6.28,9.19-9.13,4.5-3.91,8.96-7.87,13.54-12.12-2.46-2.44-5.45-2.41-8.04-3.06-6.59-1.65-12.59-4.25-17.51-9.09-4.22-4.16-9.87-3.78-15.06-3.95-11.49-.37-23-.07-34.5-.14-7.5-.05-9.02-1.58-9.04-9.17-.03-6.99-.31-13.98.98-20.93,1.11-5.97,2.91-7.8,8.83-7.99,9-.28,17.97.08,26.86,1.59,4.06.92,5.7,4.34,7.52,7.47,4.93,8.5,10.21,16.72,17.07,23.84,8.23,8.54,19.01,11.11,30.1,12.86,3.1.49,5.83-1.36,8.28-3.02,5.34-3.61,11.22-4.81,17.51-4.71,1.66.02,3.33.04,4.99-.03,9.44-.4,11.21-2.03,12.97-11.05.63-3.22.44-7.39,5.58-7.31,2.34,1.94.83,4.26.66,6.47-.27,3.65-2.46,7.34.58,12.06,4.41-9.25,6.12-19.54,15.54-24.54-2.99-.84-5.9-.56-8.78.72-1.22.54-2.57.78-3.77-.23-1.33-3.53,1.32-4.78,3.65-5.92,7.41-3.66,8.79-6.07,7.79-14.38-.08-.69.15-1.3.56-1.86,3.53-1.8,5.68.83,7.8,2.72,4.09,3.64,7.83,7.66,12.24,10.96,2.17,1.62,3.96,1.89,6.28.31,5.5-3.74,10.93-7.59,16.66-10.95,2.54-1.49,2.78-3.45,2.11-5.91-1.36-4.97-2.82-9.91-4.36-14.83-7.35-23.46-13.79-47.27-26.36-68.73-.93-1.58-1.62-3.31-.85-5.22,2.24-1.87,5.19-1.02,7.67-2.01,2.22.35,3.24,2.12,4.39,3.73,4.13,5.81,7.71,11.92,10.45,18.54,2.37,5.73,4.25,6.09,8.89,2.04.74-.65,1.24-1.55,1.99-2.21,2.04-1.16,3.91-2.67,6.32-3.06,1.92.05,3.11,1.84,4.8,2.22,2.24-1.1,2.39-3.27,3.07-5.06,6.6-17.56,12.14-35.55,21.23-52.09,1.46-2.65,2.46-6.05,6.52-6,3.86,4.62,8.89,8.2,11.27,14.13,3.09,7.72,6.47,15.37,8.84,23.31,2.17,7.28,3.01,14.96,4.64,22.43.49,2.25,1.53,3.65,3.1,5.3,7.76,8.13,17.09,9.78,28.01,9.67,16.24-.16,32.49,1.94,48.76,2.51,9.81.34,19.61.87,29.41,1.1,8.36.19,16.61,1.19,24.79,2.5,12.78,2.05,21.88,12.12,24.35,26.23.66,3.77,1.35,7.53,2.29,11.24.51,2,1.32,3.9,3.81,4.01,11.61.53,22.93,4.31,34.7,3.15,1.32-.13,2.66-.08,3.97-.35,9.25-1.88,11.07-4.83,8.5-13.82-.91-3.2-1.9-6.39-2.63-9.63-1.09-4.83-.35-9.46,3.1-13.07,2.65-2.77,4.75-5.42,4.05-9.53-.16-.95.49-1.91,1.43-2.47,1.39,7.58,6.66,8,13.1,8.07,10.45.12,20.89,1.29,31.94,2.06,1.29-30.9,9.1-60.23,21.97-88.37-7.02-2.34-13.86-4.62-21.04-7.02-.62,1.51-1.34,3.32-2.1,5.11-6.12,14.43-23.83,20.94-37.67,13.67-1.95-1.02-3.35-3.07-5.01-4.64-.17-.23-.34-.45-.51-.68.28.03.56.05.84.08l.29.25c4.72-.94,9.5-.51,14.25-.74,7.69-.37,14.84-2.28,19.14-9.63,2.34-4,3.16-8.02.34-12.16-10.22-14.97-9.82-30.5-2.49-46.44,1.81-3.93,3.36-8.04,5.75-11.61,2.87-4.27,2.11-7.95-.24-12.03-5.39-9.37-10.62-18.83-15.16-28.65-2.94-6.35-5.5-12.83-6.19-19.9-.09-1.29-.81-2.45-.82-3.76-2.59-16.24,9.73-36.4,25.75-42.82,12.45-4.99,24.2-2.83,35.72,2.62,4.7,2.22,5.16,5.9,1.47,9.58-3.37,3.35-7.63,5.3-11.9,7.21-6.41,2.86-13.08,5.15-19.89,6.59-18.14,3.83-20.67,20.19-15.14,34.44,2.46-2.37,4.9-4.62,8.24-5.29,2.72-.55,5.54-.94,6.95,2.14,1.41,3.09-.61,4.99-2.99,6.55-.98.64-2.03,1.14-3.05,1.7-5.89,3.22-6.36,3.88-3.18,9.58,6.81,12.22,13.04,24.74,19.98,36.9,8.98,15.74,25.26,19.89,41.37,17.61,19.12-2.71,24.31-3.73,34.51-20.04,1.68-2.68,3.18-5.54,6.06-7.17,1.97-1.11,4.11-1.75,6.06-.09,2.01,1.71,1.49,3.87.61,5.97-.52,1.23-1.08,2.48-1.91,3.5-4.43,5.48-3.97,10.83-.05,16.4,2.39,3.4,4.33,7.12,6.17,10.85,3.23,6.52,1.85,1.74-1.52,8.34-1.59,3.11-3.25,6.2-4.47,9.49-1.13,3.05-1.13,5.67,1.74,8.04,2.24,1.86,5.13,4.35,2.99,7.56-2.29,3.43-5.74,1.52-8.57.23-6.99-3.17-9.43-8.39-7.66-15.9.77-3.28,2.38-6.21,4.23-10.05-10.78,7.71-11.22,10.7-23.03,8.18-1.57-.34-2.98.05-4.34.71-5.54,2.7-11.15,5.24-16.68,7.97-8.23,4.06-13.99,10.41-17.89,18.75-10.26,21.91-16.43,44.98-20.03,68.81-.55,3.62-1.13,7.24-1.82,10.83-.6,3.1-.02,5.35,3.84,5.24.82-.02,1.65.22,2.47.35,7.03,1.11,6.93.78,7.04-6.26.33-20.46.59-40.95,4.88-61.11.66-3.09,1.42-6.19,2.82-9.05,1.15-2.33,2.67-4.56,5.68-3.84,2.86.68,3.05,3.37,2.94,5.69-.3,6.32-1.43,12.56-2.14,18.84-1.25,11.08-1.56,22.22-2.63,33.31-.65,6.77-.43,13.63-2.8,20.16-1.07,2.93.96,3.38,3.11,3.71,6.58,1.01,13.24,1.28,19.85,1.99,4.96.54,9.95.8,14.91,1.32,11.08,1.16,18.92,6.88,22.71,17.6,4.22,11.92,8.29,23.89,11.64,36.09,1.39,4.23,2.21,8.64,3.94,12.77-2.47-6.35-4.07-12.89-4.2-19.74-.06-1.74.32-3.43.56-5.14.04-.5.14-.99.25-1.47,1.59-7.32,3.06-14.62,6.27-21.52,4.57-9.84,12.18-16.46,21.93-20.09,10.7-3.98,17.01-11.34,21.58-21.4,4.15-9.15,7.3-18.61,10.67-28.01,6.32-17.58,16.19-32.8,29.6-45.76.84-.81,1.65-1.65,2.37-2.57.31-.4.55-.83.47-1.92-1.82-2.33-4.9-3.69-7.69-5.38-2.73-1.65-4.38.44-5.95,2.1-6.48,6.85-14.58,10.34-23.76,11.68-5.38.78-10.28-.47-14.59-3.75-1.61-1.22-3.09-2.88-2.38-5.1.75-2.32,3.02-2.48,5.01-2.44,3.98.08,7.93.55,11.93-.21,6.74-1.29,12.51-4.22,17.29-9.01-.54-2.22-2.36-2.57-3.75-3.32-15.52-8.41-25.37-21.44-30.09-38.18-4.07-14.44-8.07-28.87-13.22-42.97-.52-1.43-1.2-2.73-1.98-4.01-1.52-2.61-2.74-5.34-3.29-8.34-1.26-7.83-4.58-9.69-11.7-6.79-3.95,1.61-6.23,4.85-8.73,7.97-1.47,1.83-3.05,3.8-5.75,3.24-2.81-.59-4.35-2.96-4.47-5.44-.25-5.29-3.71-6.65-7.87-8.1-15.75-5.5-26.38-16.34-32.32-31.86-1.27-3.32-1.83-6.75-1.36-10.3.28-2.06.9-4.05,3.26-4.52,2.13-.43,3.42,1.06,4.4,2.65,2.09,3.41,3.91,6.99,5.31,10.74,3.85,10.31,11.74,16.59,21.11,21.46-3.57-4.3-7.99-7.83-9.5-13.69-2.2-8.51-.84-16.45,2.42-24.36,4.7-11.41,12.75-20.24,21.71-28.31,3.41-3.07,4.56-5.74,1.53-9.67-1.27-1.65-2.39-3.73-.99-6.01,1.41-4.41,2.47-8.97,4.3-13.2,4.84-11.15,9.5-13.26,21.51-11.66,7.52,1,15.16,1.19,22.76,1.45,8.68.3,15.73-3.96,22.55-8.69,1.06-.73,2.21-1.32,3.32-1.98,1.94.49,2.88,2.19,4.07,3.52,5.05,5.65,10.86,9.31,18.84,9.75,15.98.87,29.44,8.77,42.58,16.89,6.91,4.27,13.76,8.66,20.87,12.6,4.12,2.28,8.48,2.92,12.88.76,3.27-1.6,6.97-2,10.16-3.48.77-2.37-2.54-4.51.04-6.64,2.34-.88,4.32.25,6.08,1.44,8.25,5.56,17.62,6.62,27.17,6.93,3.38.11,6.7.14,9.21,2.9Z"/>
    <path class="cls-9" d="m1094.31,494.75c1.96-10.1,4.03-20.19,5.86-30.31,1.36-7.51,2.46-15.07,3.57-22.63.24-1.61.03-3.28.03-4.92-.37-.12-.73-.25-1.1-.37-.58,1.51-1.32,2.98-1.73,4.54-1.81,6.91-3.1,13.98-5.37,20.73-2.94,8.79-5.86,17.72-10.15,25.89-10.05,19.16-21.97,37.26-35.81,53.86-12.22,14.67-27.46,25.59-46.26,30.83-2.45.68-4.21.36-6.45-1.02-7.04-4.38-15.25-5.42-23.16-7.25-1.46-.34-2.91-.75-4.38-.92-2.46-.29-3.38-1.68-3.47-4.03-.39-9.57-3.71-18.03-9.63-25.55-1.1-1.4-1.58-3.29-2.4-4.92-2-3.94-4.26-7.52-9.34-7.94-1.41-.12-2.77-.84-4.72-1.47,2.17-4.17,7.78-6.04,6.88-11.47,0-.24,0-.47,0-.71.08-.47.24-.92.43-1.35,1.83-2.65.18-3.89-2-4.91-5.56-2.61-12.16.35-15.11,6.69-1.02,2.19-.97,5-3.57,6.3-5.15,3.04-9.11.9-9.54-5.08-.11-1.59-.51-3.16-.77-4.75-.96-.6-.89-1.51-.77-2.45.3-1.27.42-2.56.34-3.87.05-1.1.28-2.13,1.23-2.82,1.91-1.25-.89-1.83-.44-2.88.25-9.36,2.35-18.44,4.04-27.58,3.44-18.65,6.87-37.3,10.03-55.99.88-5.22,1.55-10.51,2.35-15.76,1.23-8.08,5.09-14.06,12.05-18.56,12.7-8.22,25.52-16.28,37.4-25.74,8.33-6.63,16.64-13.27,24.62-20.32.54-.48,1.13-.89,1.72-1.29,1.75-.94,2.95-2.53,4.32-3.77-.07.07-.32.22-.38.28-18.8,14.1-37.62,28-61.27,32.89-1.14.24-2.28.47-3.44.51-4.97.19-6.8-1.77-5.87-6.62.47-2.47,1.08-4.85.13-7.3,3.83-.72,6.35-2.6,7.08-6.78.28-1.62,1.77-3.04,2.71-4.55.25-2.17,2.03-2.93,3.61-3.76,7.04-3.71,14.46-6.74,20.76-11.74.96-.76,2.16-.77,3.33-.75,2.89-1.37,6.13-2.29,8.62-4.19,6.68-5.08,13.08-10.54,19.49-15.96,1.31-1.11,2.19-2.72,3.27-4.09,12.53-2.51,20.75,2.63,25.93,14.04,3.04,6.7,8.59,11.3,14.78,15.2,14.5,9.14,27.18,20.34,37.68,33.96,11.61,15.06,18.18,32.45,23.17,50.47,8.52,30.76,14.54,62.04,18.37,93.74,1.79,14.87,3.87,29.71,5.61,44.58,1,8.54,1.52,17.14,2.41,25.7.97,9.34,1.4,18.81,3.32,27.95,4.3,20.47-8.95,28.39-23.65,28.5-29.66.23-59.32-.02-88.99-.03-91.32-.03-182.64-.02-273.96-.04-95.65-.03-191.31-.07-286.96-.12-99.65-.05-199.31-.06-298.96-.23-10.3-.02-20.63-.65-30.88-1.64-6.19-.6-11.77-3.53-16.66-7.51-4.08-3.32-4.15-4.09-1.17-8.59.36-.54.56-1.19.83-1.79,1.87-2.09,4.14-1.34,6.38-.93,4.67,2.09,9.58,2.53,14.64,2.41,6.49-.15,13,.04,19.49-.05,46.8-.63,93.58,1.18,140.38,1.31,15.44.04,30.94.24,46.41.72,33.9,1.07,67.76-2.56,101.66-.98,24.46,1.15,48.93.94,73.4.95,56.74.02,113.48.07,170.22-.08,5.29-.01,10.58-1.03,15.81-2.07.98-.15,1.96-.14,2.95-.04,6.05,1.62,12.24,1.02,18.39,1.22,12.79.43,25.64.52,38.39.44,14.77-.1,29.6.05,44.39-.5,1.91-.07,3.56-.75,5.14-1.72,3.15-1.24,6.41-.77,9.66-.66,4.37,1.2,8.81,1.45,13.34,1.44,41.29-.06,82.59-.05,123.88,0,4.21,0,8.3-.41,12.25-1.82.44-.24.92-.46,1.38-.68.79-.38,1.64-.67,2.41-1.1.46-.32.94-.63,1.4-.97.42-.36.87-.66,1.37-.89.35-.1.7-.1,1.05-.01,1-2.18,2.01-4.36,3.01-6.54,9.51-4.42,19.29-8.22,28.88-12.45,26.15-11.54,47.62-28.58,62.2-53.51,3.69-6.31,6.29-13.22,9.6-19.75,1.51-4.66,4.46-8.88,4.32-14.05Z"/>
    <path class="cls-7" d="m984.96,603.02c-.34.29-.69.59-1.03.88-.46.71-1.43.5-1.95,1.09h-.01c-5.1,1.68-10.34,2.07-15.7,2.05-30.95-.08-61.9-.28-92.85.06-14.79.16-29.58.48-44.38.24-3.03.05-6.06.1-9.1.15-2.09.8-4.27.5-6.41.49-20.56-.02-41.13-.19-61.68.12-12.94.2-25.86.42-38.8.28-.73,0-1.46,0-2.19,0-10.82.31-21.63.75-32.45.63-32.32-.36-64.64.62-96.95.37-13.82-.11-27.64-.38-41.46-.37-23.31.01-46.63.39-69.92-.14-22.49-.51-44.97-.1-67.46-.37-10.32-.12-20.64,1.03-30.92.82-21.97-.46-43.96.2-65.93-.76-9.31-.41-18.64-.36-27.96-.43-34.13-.26-68.25-.78-102.38-.89-11.94-.04-23.87.05-35.81-.21-4.16-.09-8.29-.42-12.42-.84-1.76-.38-3.51-.75-5.27-1.13-2.21-3.26-2.99-6.82-2.94-10.79.18-12.17-.02-24.34.18-36.51.06-3.62.48-7.38,1.55-10.81,2.62-8.35,8.87-12.77,18.23-12.75,11.65.02,23.29.59,34.94.81,6.79.13,6.73.02,7.19-6.74.54-7.96,1.06-15.93,1.91-23.87.41-3.8-1.18-4.58-4.5-4.49-4.99.14-10-.01-15-.1-1.99-.03-4.32.18-4.15-2.89.15-2.69,1.3-4.2,4.41-4.06,5.32.23,10.67-.08,15.99.2,3.43.18,4.84-1.21,5.17-4.44,3.57-34.68,12.68-67.99,24.94-100.51,2.45-6.5,5.34-12.83,7.95-19.05-7.33-1.92-14.56-3.12-21.27-5.69-21.98-8.41-36.4-23.73-40.11-47.5-1.67-10.68,1.48-20.88,6.56-30.27,8.04-14.88,18.95-27.75,29.68-40.7,16.58-20.01,32.5-40.51,47.42-61.8,7.63-10.88,16.05-21.24,24.68-31.35,7.65-8.96,18.26-13.56,28.95-18.09,13.27-5.62,27.06-6.09,40.98-5.48,14.08.63,26.76,5.86,39.07,12.59,16.64,9.1,31.89,19.91,44.95,33.67,2.46,2.59,5.92,4.93,5.2,9.41-3.49.96-5.15-1.81-7-3.71-15.58-15.95-33.97-27.8-54.12-37.01-10.85-4.96-22.28-8.53-34.23-8.1-20.14.72-38.83,6-53.44,21.06-4.88,5.03-8.97,10.75-13.1,16.38-25.63,34.91-51.96,69.29-78.72,103.34-6.29,8-11.28,16.85-14.63,26.58-7.4,21.5,7.98,42.86,22.47,49.16,9.79,4.26,20.01,7.35,29.82,11.51,7.75,3.29,8.17,5.16,4.82,12.87-8.71,20.01-14.7,40.94-19.78,62.11-3.69,15.38-6.38,30.98-9.43,46.5-1.13,5.75-.56,6.34,5.34,6.41,4,.05,8-.04,11.99.05,3.36.07,6.65.5,9.63,2.25,2.31,2.84,5.05,5.59,2.18,9.61-9.49-.42-18.99-.66-28.46-1.34-3.54-.25-4.9,1.15-5.14,4.28-.65,8.63-1.18,17.28-1.91,25.9-.3,3.51,1.46,4.24,4.47,4.23,9.33-.02,18.67.05,28,.22,6.16.11,12.35.22,18.47.84,2.45.25,5.35,1.28,7.04,2.96,5.73,5.7,12.79,8.23,20.37,9.9,2.91.64,5.81,1.33,9.75,2.24-3.32,3.27-5.92,6-8.71,8.53-4.82,4.36-9.76,8.59-14.63,12.89-2.81,2.48-5.58,5.18-4.4,9.35,1.15,4.07,4.84,5.53,8.48,6.06,8.07,1.16,16.18,2.16,24.31,2.71,30.76,2.07,61.52,4,92.3,5.82,9.48.56,18.99.53,28.48.88,7.29.28,13.27-2.46,18.47-7.38,4.48-4.24,9.05-8.38,13.6-12.53,4.51-4.1,9.2-5.79,15.82-4.72,30.91,4.99,61.88,9.65,92.93,13.66,23.62,3.05,47.38,5.09,71.1,7.3,6.45.6,12.99.35,19.48.27,6.03-.07,11.52-1.97,15.98-6.12,8.05-7.49,16.08-15.01,23.87-22.77,1.42-1.41,2.82-4.64,2.14-5.94-1.01-1.94-3.76-3.84-5.98-4.13-7.75-1.03-15.59-1.36-23.4-1.96-2.74-.21-5.49-.42-9.13-.7,7.54-5.32,14.08-9.63,23.04-8.75,7.61.75,14.77-1.88,21.43-5.65,2.28-1.29,4.62-2.47,7.1-3.78,3.21,5.48,3.36,12.6,10.04,15.18,1.03.4,2.34.06,4,.06-10.84-22.06-16.5-45.04-24.46-67.18-2.67-7.43-4.49-15.17-6.55-22.81-.51-1.9-.76-3.96-.64-5.91.32-5.19,3.01-7.53,8.15-7.06,24.55,2.28,49.1,4.63,73.65,6.99,8.29.8,16.56,1.94,24.87,2.47,6.7.43,11.43,3.71,14.44,9.25,2.36,4.34,4.32,9.03,5.62,13.8,7.18,26.16,14.04,52.41,21.18,78.58,1.7,6.24,4.08,12.3,6.15,18.44.23.98-.22,1.45-1.16,1.54-.6-.07-1.2-.13-1.8-.2-3.02-.93-7.12.94-8.81-3.42-.74-2.2-1.47-4.39-2.21-6.59-.63-.38-.75-.87-.29-1.47.44-2.9,1.38-6.01-2.87-6.99-.84-1.27-4.03-2.51-.03-3.82.75-3.24-.97-4.57-3.86-5.02-6.38-1-12.76-2-19.14-3-1.39-.89-3.82-.26-4.07-2.8.18-2.87-1.72-3.81-4.03-4.04-14.59-1.49-28.89-4.94-43.45-6.55-2.81-.31-5.39-1.77-9.47-1.38,10.78,2.98,20.74,4.53,30.45,7.14.96.32,1.72.93,2.44,1.61.31.39.5.83.58,1.33-.09.83-.69,1.22-1.36,1.56-7.26,2.34-14.51,4.72-21.78,7.01-6.66,2.1-13.35,4.09-20.01,6.19-1.74.55-3.55,1.11-5.06,2.08-1.29.82-3.22,2.41-3.06,3.35.24,1.45,1.8,3.06,3.22,3.83,2.31,1.24,4.9,2.08,7.47,2.7,15.51,3.75,31.04,7.43,46.58,11.05,8.59,2,17.25,3.65,25.81,5.77,12.75,3.16,25.68,3.52,38.69,3.05,25.95-.94,51.9-1.87,77.85-2.89,3.14-.12,6.32-.55,9.37-1.32,3.82-.96,7.22-2.74,7.72-7.17,21.08-.61,41.96-1.22,62.97-1.83-.51,8.62-.98,16.49-1.45,24.36-.34.19-.45.47-.34.85-.31.4-.67.75-1.01,1.12Z"/>
    <path class="cls-10" d="m222.93,494.19c-7.31-.4-14.61-.81-21.92-1.21-2.29-.13-4.58-.27-7.71-.45,3.54-21.73,7.59-42.74,12.87-63.49,5.24-20.56,11.68-40.74,21.25-60.46-2.65-1.28-5.06-2.62-7.59-3.65-9.71-3.92-19.53-7.59-29.19-11.63-17.58-7.36-31.16-29.82-24.07-51.54,3.52-10.79,9.53-20.15,16.33-29.03,19.43-25.41,39.05-50.68,58.49-76.08,7.99-10.45,15.85-21,23.54-31.67,16.63-23.1,39.84-32.5,67.44-31.83,15.97.39,30.46,6.57,44.24,14.34,16.92,9.54,32.77,20.48,45.67,35.24.42.48,1.09.75,1.64,1.12,3.11,4.65,6.21,9.31,9.32,13.96,2.6,1.74,4.38,4.06,5.06,7.16-.04,2.29,1.27,4.36,1.1,6.67.01.75.02,1.49.04,2.24-.03,1.21-.04,2.43-.03,3.64-.39,7.26-4.63,12.4-9.31,17.41-1.76,1.89-5.02,2.84-4.65,6.33,6.31,9.1,13.56,17.41,21.05,25.53,1.07,1.16,2.46,1.59,3.69,2.4,6.57,6.91,14.8,8.89,24.05,8.78,16.91-.19,15.37-1.28,24.66,12.72,2.85,4.3,6.8,7.38,11.34,9.54,23.65,11.25,47.43,9.96,67.81-8.09,4.87-4.31,8.69-9.62,11.15-15.79,1.29-3.24,2.24-6.7,4.43-9.47,1.74-2.2,3.73-4.67,6.92-1.77,2.96,6.28,1.44,12.53-1.06,18.28-5.63,12.93-15.41,22.1-27.83,28.55.12,3.47,1.83,6.54,2.51,9.88-.51,9.24-6,14.93-13.87,18.48-8.23,3.71-16.83,3.88-25.22.45-6.44-2.64-11.36-7.13-12.69-14.29-.66-3.54-2.19-3.95-5.15-3-2.19.71-4.48,1.46-6.76.17-1.56-.92-.27-2.8-1.25-3.9-3.12-.29-6.98,1.8-8.61-2.85,2.28-3.46,6.27-3.36,9.67-4.71-7.16-3.44-14.08-7.21-19.8-13.75-1.59,9.05-5.07,16.95-10.14,24.14-.21.44-.47.84-.78,1.22-.31.38-.66.71-1.03,1.03-7.42,6.69-15.39,12.65-24.06,17.62-3.31,1.9-6.7,3.73-10.76,3.24-6.55-2.95-10.78-8.77-16.11-13.23-3.35-2.8-.43-5.3,1.67-7.47,3.45-2.84,7.12-5.35,10.16-8.78,6.21-7.02,7.97-14.72,5.13-23.61-1.07-3.34-2.28-6.61-3.71-9.57,4.68,16.16-.07,31.6-12.56,40.41-4.66,1.74-5.46,5.25-5.44,9.88.1,25-14.04,42.11-38.49,47.08-2.3.47-4.58.71-6.89.1-4.36.05-7.62-3.45-11.9-3.68-2.19-1.15-2.7-2.94-1.97-5.19,3.55-5.53,8.28-10.25,10.78-15.41-2.13,3.42-5.49,7.03-8.65,10.78-1.29,1.52-2.8,2.82-4.92,3.07-1.98.06-3.39-1.05-4.7-2.32-4.54-4.42-9.93-7.43-15.84-9.59-5.19-.94-9.93-3.87-15.43-3.39-2.41-.03-4.69-.52-6.73-1.87-2.7-2.42-.42-5.18-.55-7.78-.04-.5-.02-1,.02-1.5.02-.77.12-1.53.27-2.28.67-5.33,2.2-10.44,4.21-15.39,2.03-5.01,5.01-6.47,10.33-5.33,2.61.56,5.04,1.74,7.61,2.43,18.63,4.98,36.71,5.15,52.54-7.81,10.09-8.27,15.96-19.07,16.34-32.39.6-20.9-1.52-41.53-5.89-61.97-.86-4.01-2.61-6.78-6.25-8.95-9.95-5.93-16.81-15.16-21.94-28.58,1.04,14.53-1.52,27.95-9.78,39.75-8.95,12.79-22.16,19.39-36.69,23.54-10.61,3.04-10.39,1.79-10.36,13.77.06,22.68-1.04,45.26-6.08,67.47-1.14,5.02-2.12,10.11-4.45,14.77-.55,1.65-1.42,3.16-2.09,4.76-1.94,3.95-4.38,7.62-6.57,11.45-6.59,8.52-15.34,13.89-25.34,17.5-3.04,1.1-6.15,1.1-9.29,1.14-9.56-3.51-19.77-1.61-29.53-3.48-3.43-.66-4.54,2.02-5.79,4.38-5.43,10.33-7.93,21.53-8.64,32.99-.54,8.83-2.45,17.4-3.54,26.12-1.55,12.31-.05,24.15,3.47,35.87,1.43,4.77,2.96,9.52,4.04,14.38.51,2.28.95,4.63-1.22,6.44Z"/>
    <path class="cls-7" d="m823.5,133.11c2.08,3.94,4.16,7.87,6.42,12.16-1.46,1.2-2.98,2.45-4.48,3.71-9.3,7.79-17.16,16.75-22.04,27.98-6.36,14.64-6.16,25.56,6.89,37.23,1.21,1.08,2.08,2.53,2.69,4.24-9.02-2.35-15.67-7.66-21.88-14.37-6.25-6.76-6.89-16.3-12.97-23.32-3.38,3.46-2.66,7.22-1.52,10.8,5.1,16.01,15.16,27.48,31.18,33.29,2.94,1.07,5.96,1.93,8.98,2.91.77,4.23-.41,8.96,4.22,12.37,1.84-2.13,4.04-4,5.37-6.36,2.43-4.32,6.54-6.03,10.73-7.4,7.11-2.32,10.69,1.05,10.65,9.56-.55.41-1.18.55-1.86.58-8.5.4-14.92,7.96-13.81,16.27.51,3.83,4.28,5.9,7.69,4.07,3.78-2.02,6.38-5.13,7.96-9.16.65-1.66.57-4.15,3.45-3.91,4.26,12.2,8.59,24.38,12.76,36.62,2.3,6.75,3.64,13.91,6.6,20.34,5.65,12.25,14.53,21.81,26.81,27.9,1.64.81,3.24,1.7,4.83,2.6.25.14.36.51.72,1.05-4.64,5.02-9.99,9.36-16.79,10.74-6.57,1.33-13.38,1.47-20.35,2.17.37,2.8,2.87,4.02,5.58,4.89,10.69,3.39,19.99.05,28.47-6.33,3.12-2.35,5.83-5.25,8.93-8.08,4.78,3.04,9.36,5.95,14.43,9.19-2.4,2.68-4.43,5.3-6.81,7.54-14.05,13.2-23.01,29.41-29.47,47.42-4.13,11.5-9.51,22.57-14.48,33.76-2.03,4.57-5.4,7.92-10.31,9.55-1.73.57-3.31,1.56-5.02,2.22-16.12,6.19-24.78,18.34-27.97,34.89-.44,2.29-.86,4.58-1.29,6.87-.18.18-.26.37-.23.57.03.21.08.31.13.31l-.76,5.15c-1.07,2.02-.31,4.19-.51,6.29-.15,1.65-.72,2.54-2.5,1.59-3.06-9.3-6.11-18.6-9.17-27.9-.62-1.9-1.34-3.77-1.92-5.68-3.78-12.59-12.25-18.68-25.35-19.36-10.96-.57-21.89-1.95-32.82-3.03-5.28-.52-6.26-2.75-3.35-6.99.8-1.16,1.32-2.7,1.43-4.11,1.11-13.62,2.01-27.25,3.16-40.86.7-8.29,1.78-16.56,2.59-24.84.2-2.05.03-4.13.03-6.45-3.56.05-4.29,2.5-4.76,4.59-1.72,7.61-3.88,15.22-4.59,22.95-1.34,14.59-1.88,29.25-2.51,43.89-.14,3.25.69,6.53,1.2,10.89-6.79-.37-13.29-.72-19.92-1.08,4.39-31.13,9.95-61.49,23.97-89.61,3.46-6.94,8.26-12.54,15.12-16.12,7.08-3.7,14.32-7.09,21.54-10.52.94-.45,2.3-.64,3.26-.33,13.3,4.36,16.02-2.61,16.58-2.95.13-.08-4.71-29.42-12.95-23.45-14.44,10.45-21.26,8.38-38.65,4.61-8.6-1.86-16.19-6.3-20.6-13.93-9.05-15.68-17.31-31.81-25.87-47.76-.23-.43-.29-.95-.5-1.67,4.2-2.07,8.43-4.07,12.56-6.28.77-.41,1.72-2.13,1.49-2.46-.66-.92-1.86-1.94-2.9-2-5-.3-9.21,3.33-11.34,9.4-7.46-9.62-6.45-27.96-.33-33.94,3.09-3.02,7.19-5.34,11.24-6.95,7.1-2.82,14.6-4.62,21.76-7.28,3.86-1.43,7.5-3.59,11.01-5.78,1.86-1.16,3.23-3.09,4.9-4.74-11.62-8.47-28.76-10.15-39.79-4.92-15.18,7.2-25.39,27.03-23.56,40.41-2.94,3.36-6.77,1.29-10.19,1.57-1.91.16-3.85-.61-5.79-.9-14.86-4.05-22.28-22.95-14.14-35.77,4.13-6.51,10.01-11.05,16.29-15.2,2.42-1.6,4.78-3.23,3.94-6.73,1-2.64,2-5.28,3.01-7.92,15.53-33.26,50.54-42.9,76.97-35.9,4.23,1.12,8.05,3.07,11.74,5.38,1.18.74,2.79,1.99,3.86.08.95-1.68-.51-2.76-1.79-3.59-10.04-6.55-21.19-8.62-32.89-7.45-13.89,1.39-27.14,4.88-38.55,13.55-1.79,1.36-3.9,2.78-6.38,1.17,1.79-4.96,6.32-7.07,10.29-9.68,14.95-9.81,31.66-13.53,49.26-13.19,18.99.37,36.33,6.03,51.01,18.4,4.39,3.7,7.97,8.35,11.92,12.56Z"/>
    <path class="cls-9" d="m501.02,317.08c2.31.14,4.62.28,6.92.41,1.53.09,3.07.16,4.6.25-.56,1.36-1.12,2.72-1.69,4.08-.19.45-.41.89-.62,1.33-.24.38-.54.68-.91.93-1.33.35-2.16,1.33-2.96,2.36-1.27,1.56-3.4,2.13-4.52,3.94.24,2.1,1.9,3.06,3.44,3.95,11.26,6.44,22.48,12.92,34.64,17.64,6.51,2.52,12.47,2.26,18.73-.89,9.24-4.65,18.49-9.21,26.96-15.2,1.58-1.12,3.57-1.88,4.34-4.29-4.71-5.04-12.31-5.63-17.08-10.63-2.07-2.77-4.36-5.52-1.23-9.01,1,.48,1.96,1.27,3,1.41,17.42,2.32,32,11.05,45.8,21.01,7.5,5.41,14.63,11.65,20.75,18.57,5.09,5.75,9.41,12.62,12.42,19.69,8.13,19.13,15.39,38.63,22.97,58,.29.75.31,1.62.45,2.43.18,1.31.23,2.66.56,3.93.88,3.37.6,5.89-2.96,7.94-4.18,2.41-5.51,7.99-4.01,13.35,1.03,3.68,2.23,7.32,3.21,11.01,2.53,9.57,1.83,10.31-7.08,13.15-7.56,2.41-16.38,1.32-24.62,1.04-6.03-.2-12-2.04-18.04-2.3-3.75-.16-5.34-1.35-5.99-4.86-1.06-5.7-2.8-11.31-3.51-17.04-1.28-10.32-8.84-14.63-16.9-18.35-3.05-1.41-6.68-1.73-10.09-2.17-5.74-.75-11.51-1.47-17.29-1.72-18.91-.81-37.88-.69-56.71-2.34-12.11-1.06-24.17-1.77-36.28-1.56-3.85.07-6.14-2.18-8.77-4.05-2.28-1.63-4.16-3.81-6.46-5.41-1.18-.82-2.88-.9-4.11-1.24-1.07-5.83-2.03-11.72-3.28-17.56-1.23-5.75-2.43-11.55-4.26-17.13-1.91-5.82-4.92-11.29-6.78-17.13-1.84-5.79-8.68-7.67-9.93-13.71.03-5.47,4.93-11.18,10.29-11.99,13.11-4.44,23.43-13.2,33.79-21.89.42.28.8.22,1.13-.15l-.12.08c5.04-4.97,11.79-5.63,18.18-7.16,1.47-.35,2.99-.17,3.99,1.29Z"/>
    <path class="cls-10" d="m437,195.81c-.62-6.09.14-11.94,2.91-17.47,2.06-4.1,5.02-6.93,9.82-7.59,2.96-.41,5.9-1.09,8.76-1.96,1.62-.49,3.05-1.62,4.56-2.46-.03-.42-.07-.85-.1-1.27-1.96-.42-3.98-.69-5.88-1.3-4.56-1.45-9.24-2.68-13.53-4.71-4-1.9-4.28-3.83-1.15-7.42,4.67-5.35,10.41-9.49,17.27-11.53,6.93-2.06,14.07-3.4,21.03-5.36,11.02-3.1,20.92-8.56,30.37-14.91.37-.25.57-.74.5-2.07-1.62.47-3.3.82-4.86,1.44-10.19,4.08-20.22,8.59-30.57,12.18-5.2,1.8-10.97,1.96-16.66,2.32,2.47-6.07,7.62-9.01,12.17-12.5,10.12-7.77,21.38-13.71,33.4-17.59,12.94-4.17,26.31-6.03,40.17-4.11,19.31,2.67,35.95,10.93,50.97,22.74,11.93,9.38,21.46,20.78,25.68,35.81,3.36,11.95,3.69,23.9-1.27,35.49-2.87,6.72-6.33,13.18-9.69,19.68-1.52,2.94-3.43,5.68-5.16,8.52.58,5.37-2.75,9.11-5.81,12.7-1.95,2.29-3.97.59-5.05-1.6-1.19-2.41-1.58-5.08-1.95-7.72-1.69-12.15-8.93-21.61-14.67-31.62-2.5.23-3.18,1.92-4.2,3.16-3.63,4.4-7.76,8.24-12.54,11.35-1.82,1.19-3.71,2.24-5.82,2.83-3.06.86-5.71.29-7.21-2.75-1.55-3.13-.19-5.5,2.48-7.22,3.63-2.34,7.51-4.23,10.77-7.18,11.31-10.25,16.33-23.65,19.13-38.12.59-3.07,1.37-6.2.91-10.13-2.87,9.7-6.14,18.5-10.72,26.88-11.64,21.29-30.09,32.87-53.12,37.7-10.72,2.25-21.52,1.04-31.99-2.56-6.3-2.17-6.52-2.02-7.47,4.69-1.15,8.13-.82,16.26.99,24.3.73,3.25,1.48,6.5,1.77,9.82.18,2.02.3,4.2-1.99,5.16-2.21.93-3.81-.5-5.23-1.97-2.54-2.64-4.82-5.51-6.97-8.48-.87-2.74-3.33-4.03-5.34-5.68-7.14-5.84-12.29-13.31-17.31-20.89-1.62-3.39-3.23-6.79-5.37-9.89-1.84-2.67-2.58-5.56-2.03-8.76Z"/>
    <path class="cls-7" d="m468.2,239.74c3.38,3.8,6.77,7.61,10.15,11.41.34-.07.69-.14,1.03-.22-.34-2.86-.42-5.79-1.08-8.58-2.74-11.65-3.79-23.34-1.32-35.17.3-1.45.69-2.89,1.11-4.65,3.95,1.3,7.63,2.75,11.43,3.71,15.15,3.85,30.12,3.1,44.57-2.88,18.95-7.83,32.02-21.73,39.82-40.54,2.98-7.2,5.25-14.69,8.03-22.6,2.23,2.69,1.91,5.66,1.7,8.43-.92,12.3-4.58,23.78-10.74,34.45-4.88,8.45-11.58,14.93-20.65,18.89-4.1,1.79-4.82,4.41-1.93,6.6,1.12.85,3.73,1.05,4.85.32,5.11-3.33,10.16-6.84,14.77-10.81,2.94-2.54,5.08-6,7.91-9.46,4.41,7.63,9.36,14.64,12.66,22.35,3.2,7.49,4.7,15.7,7.21,24.54,2.92-5.03,5.45-9.41,7.98-13.78,1.43.12,2.88.47,4.29.34,7.66-.72,13.81,3.51,15.64,10.89,2.86,11.51-3.69,23.72-14.99,28.03-3.4,1.3-6.75,2.72-10.12,4.08-3.17-.43-5.01,1.17-6.09,3.98-.42,1.09-.97,2.13-1.32,3.23-9.68,29.89-48.84,50.73-87.47,27.78-5.75-3.42-9.57-8.75-12.64-14.54-2.14-4.04-4.74-6.32-9.73-5.77-4.42.49-8.95.12-13.42.01-8.36-.21-15.64-2.95-21.23-9.43-5.62-8.07-3.11-23.28,5.8-29.29,4.36-2.94,8.8-4.64,13.75-1.34Z"/>
    <path class="cls-8" d="m695.8,220.04c2.51,12.03,7.93,22.87,13.76,33.55,3.51,6.43,6.92,12.91,10.43,19.33,1.17,2.14.94,3.86-.43,5.96-5.77,8.87-9.6,18.61-12.13,28.86-1.88,7.61-.59,14.88,2.58,21.89,1.1,2.42,2.38,4.77,3.68,7.09,5.34,9.58,2.32,19.41-8.05,23.46-4.97,1.94-10.61,2.48-16.01,2.86-3.54.25-7.18-.92-10.77-1.46.94-.33,1.89-.63,2.81-1.01,3.24-1.35,6.43-2.78,7.24-6.75.1-7.19-1.95-10.08-9.21-12.95-6.43-2.55-13.34-2.74-20.04-3.96-4.61-.84-9.15-1.88-13.41-3.86-7.69-3.56-10.03-9.69-7.2-17.63,3.21-9.01,9.03-16.23,15.27-23.21,7.43-8.32,14.98-16.52,21.61-25.54,6.46-8.79,9.89-18.35,9.04-29.39-.32-4.14-2.1-7.65-3.65-11.32-.94-2.21-2.57-4.52-.23-6.9,4.98-.81,9.97-1.8,14.7.99Z"/>
    <path class="cls-9" d="m1007.13,132.79c.7,1.04,1.27,2.21,2.13,3.11,2.37,2.48,1.85,4.86-1.42,5.89-4.08,1.29-8.1,3.1-12.29,3.63-3.64.46-7.9.38-11.13-1.11-6.27-2.89-12.3-6.53-17.89-10.6-10.32-7.51-21.56-13.14-33.55-17.17-4.95-1.66-10.37-2.13-15.62-2.65-7.55-.74-17.86-8.38-19.42-14.86,4.37-3.38,8.73-6.76,13.1-10.15,1.24-2.63,3.75-3.63,6.17-4.69,22.33-9.85,53.04-1.48,68.62,18.92,6.55,8.57,12.12,17.89,19.59,25.77.35.35.65.75.93,1.16.13.2.25.42.39.63.23.43.37.9.45,1.39-.01.24-.03.49-.04.73Z"/>
    <path class="cls-10" d="m680.11,219.69c10.89,16.35,8.87,32.33-2.32,47.34-7.35,9.86-15.7,18.99-23.8,28.27-6.2,7.09-11.34,14.74-14.47,23.68-.95,2.7,1.2,8.27,3.99,10.32,6.63,4.85,14.58,5.24,22.23,6.72,5.37,1.04,10.88,1.89,15.93,3.84,3.19,1.24,5.97,4.08,8.35,6.72,2.14,2.38,1.99,5.23-1.09,7.23-8.97-7.55-20.13-8.25-30.98-10.15-4.99-.87-9.9-2.61-14.61-4.54-6.07-2.49-10.16-7.19-12.51-13.35-1.31-1.93-1.21-4.02-.9-6.23,1.33-9.54,6.23-17.43,11.55-25.13,6.26-9.06,14.38-16.57,21.01-25.29,6.5-8.54,13.83-16.76,14.74-28.26-3.45-5.05-7.13-9.96-10.31-15.17-5.64-9.23-10.77-18.72-10.99-29.95-.19-9.35,3.95-17.22,9.6-24.03,5-6.02,11.28-10.87,19.54-12.03,3.26,1.68,3.73,3.19,1.36,5.3-1.47,1.31-3.43,2.06-4.97,3.31-4.12,3.33-8.72,6.31-12.08,10.3-10.12,12.04-8.63,21.28,2.19,32.44,1.82,1.88,4.16,3.27,6.26,4.88,1.11,1.05,2.92,1.68,2.31,3.78Z"/>
    <path class="cls-7" d="m1005.06,130.84c-6.79-6.6-12.1-14.35-17.3-22.2-8.04-12.13-18.95-20.46-33.07-24.24-15.08-4.03-29.78-3.56-43.66,4.49-1.36-2.57,1.03-3.09,2.34-4,9.79-6.77,20.89-8.77,32.38-7.45,6.69.76,13.35,2.82,19.74,5.1,10,3.56,17.44,10.67,23.7,19.06,3.88,5.2,7.48,10.63,11.61,15.63,9.87,11.96,22.72,18.63,38.04,20.76,2.77.38,5.56,1.15,8.12,2.26,1.23.53,1.93,2.27,2.87,3.47-7.79-.64-15.71-.61-23.31-2.16-5.25-1.07-10.06-4.32-15.06-6.62-1.46-.67-2.89-1.43-4.33-2.14l-.04-.08c-.43-.2-.77-.5-1-.92l-.04-.04c-.4-.23-.73-.53-.99-.91Z"/>
    <path class="cls-10" d="m701.01,125.02c2.11-1.23,4.27-2.37,6.32-3.71,17.9-11.69,37.4-15.87,58.29-11.36,5.81,1.26,11.14,4.88,16.59,7.63,2.67,1.35,1.94,3.5.55,5.48-1.26,1.78-2.45,2.89-4.87,1.21-17.83-12.35-36.68-10.96-55.63-3.35-13.05,5.24-23.19,14.09-29.84,26.75-.88,1.67-2.88,2.74-4.37,4.1-2.05-6.5.95-11.66,4.44-16.68,1.48-2.12,3.06-4.17,4.59-6.25.18-1.08,1.13-1.39,1.91-1.88.35-.34.69-.67,1.04-1.01.26-.44.65-.75.99-1.12,0,0,0,.19,0,.19Z"/>
    <path class="cls-7" d="m677.21,240.86c.19,2.2,1.11,4.68.41,6.54-1.74,4.63-3.61,9.43-6.52,13.34-6.19,8.32-13,16.19-19.71,24.11-7.67,9.04-14.86,18.37-18.45,29.87-1.11,3.56-1.44,7.36-2.13,11.05-5.69-4.55-5.62-10.68-4.12-16.83,2.27-9.34,7.06-17.51,13.48-24.59,12.48-13.76,25.26-27.25,35.87-42.57.27-.39.77-.62,1.17-.92Z"/>
    <path class="cls-8" d="m437,195.81c3,6.03,5.99,12.07,8.99,18.1-1,1.51-2.32,2.2-4.14,1.66-1.27-.6-2.05-1.58-2.32-2.96-.5-2.8-1.01-5.6-2.93-7.88-1.12-2.31-2.24-4.62-3.36-6.93,1.25-.66,2.5-1.33,3.75-1.99Z"/>
    <path class="cls-7" d="m698.99,126.96c-.64.63-1.27,1.25-1.91,1.88.64-.63,1.27-1.25,1.91-1.88Z"/>
    <path class="cls-7" d="m701.01,124.83c-.33.37-.66.75-.99,1.12.33-.37.66-.75.99-1.12Z"/>
    <path class="cls-8" d="m678.57,361.32c.05.29-.06.49-.33.6-.17-.2-.33-.4-.5-.59.28,0,.56,0,.84,0Z"/>
    <path class="cls-8" d="m384.69,437.16c-.17-.43-.35-.86-.52-1.3,3.61-2.92,7.96-1.81,11.95-1.85,16.08-.18,32.07,1.6,48.06,3.11,7.36-1.05,14.63.57,21.87,1.14,8.28.65,16.62,1,24.86,1.26,13.12.41,26.26.94,39.37,1.51,21.72.94,43.47,1.84,65.14,3.89,2.35.22,4.54.99,6.72,1.82,2.62,3.92,6.2,7.51,7.65,11.82,2.47,7.38,3.85,15.16,5.25,22.85,2.38,13.11,4.46,26.27,6.59,39.42,2.14,13.25,4.19,26.51,6.25,39.77.78,5.01,1.41,10.05,2.29,15.04.21,1.2,1.19,2.26,1.82,3.38,1,1.27,1.17,2.53.02,3.81-8.6-.65-17.21-1.2-25.79-1.98-17.24-1.56-34.48-3.17-51.7-4.9-18.87-1.89-37.73-3.94-56.6-5.92-.83-3.5,1.87-5.15,3.9-6.93,8.27-7.26,13.66-16.31,16.31-26.87,1.28-5.12,1.7-10.43,1.25-15.8-.34-4.02-2.5-5.84-6.21-6.53-6.87-1.27-13.65-2.95-20.4-4.79-21.47-5.86-40.68-16.32-58.79-28.97-6.81-4.76-13.76-9.39-20.24-14.57-10.61-8.49-21.21-17.06-29.04-28.42Z"/>
    <path class="cls-9" d="m222.93,494.19c-1.37-5.97-2.27-12.1-4.2-17.88-5.58-16.7-5.99-33.48-2.47-50.63,1.46-7.11,1.71-14.48,2.54-21.72,1.27-11.18,5.02-21.55,10.4-31.34.47-.86,2.47-1.3,3.73-1.23,7.57.41,15.15.8,22.67,1.67,3.23.37,6.33,1.89,9.48,2.88,6.99,1.18,10.64,6.89,15.23,11.28,5.55,5.32,9.84,11.65,13.87,18.15,1.14,1.83,2.18,3.76,1.81,6.07-1,2.39.22,4.39,1,6.55,1.74,4.85.3,7.39-4.56,8.5-.53-.07-1.05-.17-1.58-.29-.75-.2-1.44-.56-2.08-1-3.59-3.21-6.54-7.06-10.13-10.29-4.29-3.85-9.01-6.79-14.82-7.7-8.16-1.27-13.58,4.84-11.31,12.8,1.66,5.81,5.66,9.61,10.65,12.63,9.4,5.68,18.69,11.49,26.7,19.12,4.5,4.28,8.55,8.84,10.74,14.78.53,1.44,1.51,2.57,2.64,3.57.68.57,1.37,1.12,2.11,1.6.39.23.72.52,1.04.84,4.08,1.85,8.09,3.91,12.71,4.08.46.11.89.28,1.3.51,6.42,4.57,13.99,6.81,20.93,10.3.46.01.9.11,1.33.24.63.22,1.21.55,1.75.95.53.39.97.86,1.32,1.41.21.37.34.77.4,1.19-.02.21-.03.42-.05.63.36.9.49,2.04,1.12,2.66,2.42,2.41,2.01,4.66.06,7.05-.63.77-1.46,1.62-1.57,2.52-.46,3.74-2.29,5.09-6.15,5.29-2.23.12-5.35,1.23-5.29,4.82-.13.41-.35.76-.63,1.08-.62.56-1.07,1.23-1.3,2.05-.11.4-.28.78-.49,1.14-.32.54-.74.99-1.27,1.35-.19.07-.39.14-.59.2-.97.77-2.32,1.34-2.82,2.35-.72,1.43-.86,3.17-1.2,4.78-.71,3.35-.28,8.34-2.31,9.7-3.38,2.28-8.29,2.46-12.62,3.12-2.76.42-5.72-.34-8.44.2-3.97.79-8.35,1.46-11.56,3.65-5.72,3.91-11.57,4.95-17.86,2.97-5.96-1.88-12.01-3.92-17.41-6.97-4.21-2.38-8.07-5.96-11.03-9.82-5.02-6.56-9.13-13.8-13.76-20.66-1.55-2.3-3.5-4.32-5.27-6.46-.93-2.9-1.86-5.79-2.79-8.69Z"/>
    <path class="cls-7" d="m979.69,315.12c-7.93,7.64-18.33,11.08-27.7,16.26-.79.21-1.58.43-2.72.74-.4-4.08-.77-7.93-1.15-11.79-.5-5.05-2.53-6.56-7.51-5.96-14.14,1.7-28.16,1.94-42.04-2.32-12.81-3.93-21.84-11.31-26.06-24.49-5.01-15.65-10.64-31.11-16.2-47.22,4.59-.44,8.25-.79,11.93-1.14-1.43-6.61-4.25-7.57-12.62-4.34-3.01-8.79-6.01-17.56-9.26-27.05,5.77,2.55,10.4,5.01,15.3,6.7,16.05,5.55,30.55,1.46,43.76-8.15,5.36-3.9,10.12-8.61,15.54-13.3,1.49,1.82,2.99,3.67,4.61,5.65-2.1,2.38-3.94,4.45-5.72,6.47,3.02,3.78,4.28,4.11,7.29,1.31,2.42-2.25,4.54-4.87,6.59-7.48,7.5-9.53,14.92-19.13,22.35-28.71,1.09-1.41,2.08-2.91,3.11-4.36.19-.4.46-.74.8-1.01.29-.38.57-.75.86-1.13.49-.25.87-.59.89-1.2.06-.28.21-.5.45-.66.19-.4.46-.74.79-1.03l.87-1.13c1.81-.54,3.04-.46,2.09,1.95-8.3,13.1-16.69,26.14-24.85,39.32-2.35,3.8-3.15,7.95-.89,12.41,1.64,3.23,2.33,6.94,3.91,10.21,4.2,8.72,11.06,14.72,19.11,17.12,0,2.76-.43,5.63.16,8.28.36,1.64,2.27,2.94,3.49,4.4,1.3-1.13,3.06-2.02,3.8-3.44,1.84-3.52,2.93-7.45,4.85-10.92,3.72-6.76,9.06-12,17.23-11.78,8.19.22,12.91,5.95,16.28,12.81,4.84,9.84,3.63,18.02-3.68,26.09-5.36,5.92-12.13,9.34-19.85,10.72-4.78.85-7.81,3.37-9.59,7.7-.94,2.31-1.89,4.62-2.77,6.95-2.48,6.61-1.56,12.75,2.66,18.4,1.29,1.72,2.6,3.42,3.91,5.12Z"/>
    <path class="cls-7" d="m303.02,472.02c-1.2-1.18-3-2.15-3.49-3.58-2.54-7.37-7.21-13.11-13.32-17.6-7.89-5.79-15.98-11.3-24.16-16.67-5.29-3.48-9.79-7.43-11.53-13.77-2.58-9.42,3.27-16.3,13.01-15.27,6.57.69,11.98,3.84,16.56,8.4,3.39,3.37,6.48,7.05,9.7,10.6.53.25,1,.53.97,1.22l-.16-.19-.17.19c2.87.87,3.95,3.34,5,5.76,2.45,5.63,4.29,11.49,6.12,17.34.53,1.68.63,3.59,2.49,5.08,1.36-2.44.94-4.88.56-7.21-1.67-10.17-4.8-19.95-8.34-29.59-.69-1.89-1.2-3.78-1.52-5.74-6.38-13.37-16.05-24.01-27.52-33.15-.74-.59-1.43-1.27-2.14-1.9,11.1-1.26,20.37-6.24,28.3-13.94,1.42-1.38,2.82-2.77,4.23-4.15,2.33-.22,4.05,1.26,6.01,2.1,9.28,3.93,18.63,7.29,28.78,3.08,2.86-.81,4.84.68,6.39,2.74,7.39,9.77,14.48,19.76,20.43,30.5.62,1.12,1.44,2.3.58,3.69,4.93,10.3,10.77,20.27,14.59,30.97,6.97,19.52,12.74,39.47,19.04,59.23.87,2.72.49,4.29-2.36,5.95-6.58,3.85-12.86,8.24-19.08,12.68-2.32,1.66-3.9,1.74-6-.23-4.93-4.6-9.99-9.06-15.08-13.48-1.44-1.25-3.2-2.14-4.81-3.2v.02c-.49-.21-.85-.55-1.1-1.01-.34-.31-.68-.62-1.02-.93-.35-.29-.7-.57-1.05-.86-.27-.2-.56-.27-.89-.2-7.1-4.13-14.85-6.97-22.05-10.89l-.21-.24-.27.17c-5.02-1.27-10.01-2.64-14.6-5.12l.15.12c-.62-.44-1.48-.32-2.04-.89Z"/>
    <path class="cls-9" d="m384.69,437.16c1.16.86,2.41,1.63,3.48,2.6,8.58,7.81,16.63,16.32,25.81,23.34,15.29,11.69,30.88,23.07,48.11,31.94,15.8,8.13,32.56,13.29,49.89,16.81,8.81,1.79,9.89,2.61,9.55,11.4-.24,6.22-1.32,12.56-3.12,18.52-2.74,9.04-7.94,16.76-15.27,22.93-1.89,1.6-3.49,3.54-5.23,5.33-4.33-2.85-8.87-4.66-14.2-5.39-6.67-.92-13.09-3.55-19.72-4.93-5.95-1.24-12.04-1.76-18.06-2.64-1.12-.17-2.44-.27-3.27-.92-3.1-2.4-6.03-5.02-9.04-7.53-3.79-3.16-4.66-7.58-4.74-12.08-.19-10.37-2.18-20.25-6.98-29.51-.92-1.77-1.98-3.52-2.59-5.4-3.45-10.66-9.66-11.23-18.24-10.01-6.27-17.83-12.34-35.83-16.39-54.47Z"/>
    <path class="cls-7" d="m368.6,569c-10.89,1.6-22.11-2.33-32.58,2.13-.04.54-.09,1.08-.13,1.63,1.79.39,3.57,1.04,5.38,1.12,18.13.8,36.28,1.46,54.41,2.27,10.86.49,21.08-2.48,31.33-5.41,3.06-.87,6.23-1.34,9.35-1.99l.55,1.26c-.8.94-1.45,2.07-2.42,2.78-5.12,3.71-10.12,7.63-15.56,10.81-2.74,1.6-6.31,2.51-9.49,2.48-13.65-.14-27.29-.65-40.93-1.22-33.43-1.38-66.86-2.86-100.29-4.27-2.96-.12-5.92-.02-8.89-.02-.15-.36-.29-.72-.44-1.08,1.9-1.93,3.83-3.83,5.69-5.8,7.74-8.2,15.49-16.39,23.16-24.65,2.81-3.03,6.12-4.42,10.23-4.16,8.97.57,17.96.96,26.93,1.65,5.56.42,11.01.44,16.15-1.99,3.13-1.48,5.77-.93,8.11,1.47,2.09,2.14,4.25,4.23,6.16,6.53,4.43,5.35,8.72,10.82,13.26,16.48Z"/>
    <path class="cls-7" d="m399.42,509.27c2.95.94,6.03,1.59,8.81,2.89,4.91,2.3,9.78,4.76,14.37,7.62,2.47,1.54,1.82,3.91-1.08,4.56-1.51.34-3.2.13-4.76-.11-2.78-.42-5.51-1.13-8.28-1.57-3.63-.57-6.13.8-7.15,4.36,5.44,2.71,10.8,5.38,16.31,8.12-1.31,3.77-3.72,4.68-7,4.92-5.27.39-10.51,1.21-15.75,1.94-.96.13-1.92.58-2.8,1.03-3.33,1.72-4.87,5.03-4.26,8.78.57,3.53,3.36,4.51,6.15,4.87,5.44.69,10.93,1.01,16.41,1.33,4.98.29,9.99.24,14.96.66,1.68.14,3.28,1.28,4.92,1.96l-.19,1.56c-6.79,1.9-13.56,3.88-20.38,5.67-10.28,2.7-20.57,1.67-30.55-1.17-3.42-.97-6.85-3.64-9.16-6.45-6.77-8.2-12.93-16.91-19.46-25.32-1.48-1.91-1.5-3.67-.34-5.47,4.13-6.4,8.54-12.1,17.27-12.72,3.57-.26,7.17-2.46,10.42-4.34,5.76-3.32,11.09-7.4,16.93-10.54,4.34-2.34,9.17-3.82,13.86-5.45,2.15-.75,4.47-.62,5.24,2.19.81,2.97-.48,4.73-3.49,5.43-2.42.56-4.82,1.25-7.16,2.05-1.47.5-2.84,1.32-4.25,2,.14.4.27.8.41,1.2Z"/>
    <path class="cls-7" d="m844.96,576.13c6.42-3.78,12.95-7.4,19.21-11.43,2.55-1.64.85-3.7-.95-4.7-3.82-2.12-7.91-1.83-11.32.7-3.3,2.46-5.91,5.85-9.18,8.37-2.11,1.63-4.76,2.75-7.34,3.5-1.82.53-2.82-.84-1.97-2.72,4.12-9.01,8.11-18.09,12.52-26.95,5.16-10.37,10.16-12.26,21.47-10.29,11.99,2.09,22.07,7.76,31.83,14.6,4.03,2.82,8.93,4.36,13.32,6.7,4.38,2.33,8.98,4.46,12.8,7.53,4.32,3.47,3.1,12.56-1.56,15.37-.62.37-1.58.23-2.39.23-22.82.03-45.63.04-68.45.06-1.64.78-3.35.32-5.04.34-.96.1-1.92.21-2.87.31-.67-.49-.66-1.03-.1-1.6Z"/>
    <path class="cls-7" d="m942.2,342.71c1.13.12,2.25.24,3.79.4-1.06,3.79-2.06,7.37-3.2,11.45,2.46,0,4.51.18,6.53-.03,11.51-1.17,21.64-6.27,31.4-11.88,9.1-5.23,17.7-11.36,26.46-17.16,2.05-1.36,3.9-3.03,5.84-4.55,2.15-.79,2.76-.09,1.96,2-1.67,1.66-3.35,3.31-5.02,4.97-.29.35-.63.65-1.01.9-14.28,11.4-28.38,23.03-42.9,34.11-6.69,5.1-14.07,9.35-21.37,13.59-6,3.49-8.43,9-9.55,15.25-4.97,28-9.82,56.03-14.64,84.06-.98,5.72-1.64,11.5-2.44,17.25.46.64.64,1.23-.28,1.63-.2,1.1-.41,2.21-.61,3.31.2,1.39,1.14,2.91-.71,3.94-.09.68-.19,1.36-.28,2.05-.12.91-.24,1.82-.36,2.73-.49,1.01-.14,2.17-.58,3.19-.34,1.97-.69,3.93-1,5.91-1.05,6.63-1.54,7.1-9.34,8.09.51-3.69.91-7.21,1.5-10.69,6.04-35.61,12.24-71.19,18.12-106.83,2.33-14.12,3.52-28.45,7.72-42.2,1.91-6.24,4.46-12.3,6.94-18.34.51-1.25,2.01-2.1,3.05-3.13Z"/>
    <path class="cls-11" d="m444.06,344.91c-3.43,4-6.86,8-10.29,11.99-6.76,9.36-10.9,20.01-14.88,30.71-3.89,10.45-7.6,20.97-11.44,31.44-.49,1.34-1.26,2.57-2.34,4.73-2.37-2.27-4.22-4.04-6.06-5.8-2.75-1.29-3.99-3.87-5.33-6.34-4.96-9.18-9.87-18.39-16.08-26.83-1.26-1.71-2.67-3.59-.66-5.76,21.8-.59,38.32-13.78,42.89-34.68,1.04-4.73,1.54-9.78,1.1-14.57-.39-4.26.99-6.14,4.73-7.07.79-.2,1.54-.55,2.3-.83,1.91.78,2.39,2.33,2.28,4.21-1.16,1.13-2.32,2.25-3.55,3.45,5.82,5.17,11.57,10.26,17.32,15.36Z"/>
    <path class="cls-7" d="m630.08,538.24c-3.17-18.23-6.29-36.14-9.51-54.6,6.01-1,11.21-.02,15.87,2.42,3.72,1.95,7.27,4.61,10.17,7.64,6.29,6.58,8.17,14.51,4.34,22.97-2.94,6.48-6.51,12.69-10.11,18.84-2.35,4.02-6.56,1.79-10.75,2.73Z"/>
    <path class="cls-7" d="m824.09,546.2c-1.73-6.46-3.4-12.93-5.21-19.37-3.37-11.94-6.81-23.86-10.25-35.79-1.82-6.32-3.44-12.72-5.63-18.91-1.81-5.12-4.33-9.99-6.6-15.11,2.88-.53,5.2,1.08,6.61,3.47,2.18,3.69,4.32,7.53,5.63,11.59,3.91,12.17,7.42,24.48,11.06,36.74.87,2.93,1.3,6.02,2.48,8.81,1.01,2.39,2.57,4.35,6.05,3.33,7.17-2.12,14.89.72,19.49,6.55,1.44,1.82,1.65,3.1.17,5.2-3.23,4.6-6,9.53-8.95,14.33-5.04,1.45-10.05,2.23-14.83-.85Z"/>
    <path class="cls-11" d="m340.95,356.75c6.35,1.62,11.6,5.09,16.32,9.51,1.17,1.1,2.59,1.94,3.89,2.9,1.31.66,2.9.95,3.54,2.55.38,1.42.77,2.84,1.15,4.25,2.91.58,4.48,2.83,5.86,5.06,6.98,11.3,14.81,22.1,20.09,34.4.76,1.78,2.23,3.43,1.12,5.59.78,1.47,1.04,2.67-.91,3.59-2.82,1.33-5.53,2.92-7.74,4.11-5.73-10.05-11.41-20-17.09-29.95-1.11-.45-1.97-1.21-2.64-2.2-7.35-10.89-15.25-21.36-23.62-31.49-2.05-2.48-4.42-5.58.03-8.33Z"/>
    <path class="cls-7" d="m602.14,446.74c-15.27-.83-30.54-1.67-45.8-2.5-8.13-.44-16.26-.95-24.4-1.32-24.42-1.12-48.84-2.18-73.26-3.31-4.81-.22-9.62-.62-14.43-.94-2.24-2.68-1.38-4.02,1.86-4.34,4.21.23,8.42.46,12.63.7,4.83,1.17,9.8-.21,14.64.75,23.23.89,46.47,1.69,69.69,2.71,14.93.66,29.85,1.57,44.77,2.5,5.34.33,10.66,1.05,14.29,5.76Z"/>
    <path class="cls-7" d="m1090.98,509.02c-3.61,10.44-8.36,20.31-14.88,29.27-17.2,23.64-40.45,39.01-67.36,49.41-5.27,2.04-10.43,4.34-15.69,6.39-1.13.44-2.48.29-3.73.42.23-2.66,1.89-3.82,4.25-4.8,9.48-3.95,18.97-7.9,28.27-12.24,24.59-11.47,43.42-29.27,57.11-52.62,3.54-6.04,7.18-12.02,10.77-18.02,1.86-.1,1.99.8,1.27,2.19Z"/>
    <path class="cls-7" d="m634.06,576.98c-.96-5.84-1.92-11.68-3-18.2,13.56.82,26.29,1.58,39.66,2.39-7.18,6.25-14,12.36-21.05,18.18-1.4,1.15-3.68,1.23-5.56,1.8-6.8,1.84-8.97.94-10.05-4.16Z"/>
    <path class="cls-9" d="m340.95,356.75c-1.96,2.72-.79,4.83,1.02,7.14,7.57,9.65,15.05,19.37,22.44,29.16,1.25,1.66,1.86,3.8,2.77,5.71-1.99,3.38-4.51,3.37-7.39,1.17-7.24-10.65-14.45-21.32-21.77-31.92-1.11-1.61-1.83-4.2-4.78-3.38-3.74-3.21-6.13-7.42-8.59-11.58l16.29,3.68Z"/>
    <path class="cls-12" d="m851.18,243.74c-1.91,5.67-3.96,11.18-9.61,14.45-4.11,2.37-7.73,1.95-10.44-1.74-.48-.65-.92-1.43-1.06-2.21-.96-5.54,2.86-15.63,7.96-18.31,3.18-1.67,6.47-2.87,9.72-.03,1.15,2.62,2.29,5.23,3.44,7.85Z"/>
    <path class="cls-7" d="m904.98,397.99c1.66,17.61,3.29,34.9,4.93,52.19-.38.13-.75.27-1.13.4-2.54-6.51-5.4-12.92-7.52-19.57-1.74-5.49-4.12-10.75-4.64-16.73-.53-6.22,2.61-13.75,8.36-16.28Z"/>
    <path class="cls-9" d="m392.93,421.02c-1.63-2.87-3.5-5.63-4.84-8.63-5.84-13.11-14.42-24.53-22.23-36.42,2.69.56,5.4,1.05,8.07,1.71,1.07.26,2.04.91,3.06,1.38.4,1.15.62,2.4,1.23,3.43,6.91,11.85,13.88,23.67,20.84,35.49-1.23,2.64-3.35,3.51-6.13,3.04Z"/>
    <path class="cls-7" d="m830.12,197.89c-2.28-24.7,17.23-56.91,41.12-55.28-26.26,8.93-34.17,31.37-41.12,55.28Z"/>
    <path class="cls-7" d="m926.46,513.82c.55-2.23.97-4.51,1.67-6.7,2.54-8.02,11.39-11.54,18.82-7.55,5.13,2.76,5.23,3.51.94,7.55-.36.3-.73.61-1.15.82l-.04-.16c-5.26,1.9-10.31,3.97-14.03,8.59-1.3,1.61-3.83,2.23-6.21,3.53v-6.09Z"/>
    <path class="cls-7" d="m334.27,514.2c4.78-3.66,9.72-4.86,15.35-.73-8.76,4.27-12.3,12.11-14.79,20.69-.37,1.27-.63,2.72-1.43,3.67-.97,1.14-2.46,1.82-3.73,2.7-.75-1.17-2.17-2.36-2.13-3.51.12-4.26.63-8.52,1.16-12.76.18-1.45.85-2.84,1.3-4.25l-.07.04c.58-.58.38-1.57,1.08-2.09l-.03.14c.8-1.54,1.49-3.17,3.19-3.99l.1.08Z"/>
    <path class="cls-11" d="m446.11,434.32c-.62,1.45-1.24,2.9-1.86,4.34-6.41-.31-12.84-.49-19.24-.95-11.33-.8-22.59-2.8-34.02-1.14-2.19.32-4.54-.45-6.82-.72-.83-1.93-.26-3.28,1.79-3.76,1.94-.46,3.94-1.09,5.88-.98,18.1.99,36.18,2.12,54.28,3.21Z"/>
    <path class="cls-7" d="m658.85,538.57c10.67-11.91,21.01-15.98,30.62-11.44-9.67,6.14-18.9,12.03-30.62,11.44Z"/>
    <path class="cls-7" d="m421.43,541.45c1.17,3.03,2.51,6.52,4.26,11.07-10.51-.66-20.12-1.27-29.73-1.88-.03-.45-.07-.91-.1-1.36,8.24-2.52,16.48-5.04,25.58-7.83Z"/>
    <path class="cls-11" d="m893.31,147.93c6.21,2.11,12.29,5.06,18.67,6.08,6.11.98,12.55-.06,18.9-.21-2,3.81-7,5.7-15.35,5.03-8.77-.7-17.18-2.63-22.87-9.98.21-.31.43-.62.64-.92Z"/>
    <path class="cls-7" d="m945.5,549.52c4.95.47,9.78,4.78,10.69,9.46.84,4.33-2.49,10.04-7.8,12.91-.96-7.42-1.9-14.7-2.89-22.37Z"/>
    <path class="cls-11" d="m812.79,566.84c.1.49.2.98.29,1.47-.15.06-.31.19-.46.17-18.37-1.46-36.78-2.64-54.62-7.77-.54-.16-.98-.66-1.19-1.9,18.66,2.68,37.32,5.36,55.98,8.03Z"/>
    <path class="cls-11" d="m809.89,556.03c-1.53,1.29-.5,2.55.03,3.82-9.82-1.61-19.63-3.26-29.46-4.82-6.57-1.05-13.16-1.96-19.73-2.98-.91-.14-1.79-.54-2.68-.82.07-.33.13-.65.2-.98,8.12,1.06,16.22,2.24,24.36,3.14,9.08,1.01,18.19,1.77,27.29,2.63Z"/>
    <path class="cls-9" d="m680.11,219.69c-.77-1.26-1.54-2.52-2.31-3.78,5.71.27,11.41.54,17.12.8.29,1.11.58,2.22.88,3.33-5.23-.12-10.46-.23-15.69-.35Z"/>
    <path class="cls-11" d="m783.94,545.01c.99,1,1.98,2,2.96,3-3.92-.47-7.83-.99-11.75-1.41-5.72-.61-11.44-1.16-17.16-1.73l1.1-2.03c3.17-3.25,6.95-1.41,10.28-.8,4.87.89,10.28-.65,14.58,2.97Z"/>
    <path class="cls-11" d="m823.98,500.96c.68-.89,1.63-1.69,1.96-2.69.56-1.66.71-3.45,1.04-5.19,1.07,7.93,2.14,15.86,3.21,23.79-.15.08-.29.16-.44.24-1.93-5.39-3.85-10.77-5.78-16.16Z"/>
    <path class="cls-11" d="m634.06,576.98c2.02,4.61,6.13,4.16,10.05,4.16-3.67,3.22-7.97,1.81-12.11,1.68,0-1.27-.01-2.54-.02-3.81.69-.68,1.38-1.36,2.07-2.04Z"/>
    <path class="cls-7" d="m834.47,559.8c-1.3,1.75-2.6,3.5-4.54,6.11-1.33-2.75-2.14-4.41-3.34-6.89,2.87-.13,4.98-.22,7.1-.31.26.36.52.73.78,1.09Z"/>
    <path class="cls-11" d="m1090.98,509.02c-.42-.73-.85-1.46-1.27-2.19,1.53-4.02,3.07-8.05,4.6-12.07.81,5.2-.99,9.8-3.33,14.27Z"/>
    <path class="cls-11" d="m844.96,576.13c.03.53.07,1.07.1,1.6-3.82.22-7.64.43-11.47.65-.03-.39-.07-.78-.1-1.16,3.82-.36,7.64-.73,11.46-1.09Z"/>
    <path class="cls-11" d="m965.93,161.73c-.7-.65-1.4-1.3-2.09-1.95,1.25-1.76,2.49-3.51,4.32-6.08,1.44,4.27-.1,6.25-2.23,8.03Z"/>
    <path class="cls-11" d="m473.38,435.77c-4.88-.25-9.76-.5-14.64-.75,4.88.25,9.76.5,14.64.75Z"/>
    <path class="cls-11" d="m847.93,577.42c1.68-.11,3.36-.22,5.04-.34-1.68.11-3.36.22-5.04.34Z"/>
    <path class="cls-9" d="m915.21,509.9c.19-1.06.39-2.12.58-3.19-.19,1.06-.39,2.12-.58,3.19Z"/>
    <path class="cls-11" d="m825.91,578.51l1.16-1.54c.22.52.44,1.05.66,1.57-.61,0-1.21-.02-1.82-.03Z"/>
    <path class="cls-11" d="m827.74,487.94c-.07-.22-.17-.44-.2-.66,0-.06.19-.15.3-.22.21.32.18.62-.1.88Z"/>
    <path class="cls-11" d="m962.97,160.91c-.26.34-.53.69-.79,1.03.26-.34.53-.69.79-1.03Z"/>
    <path class="cls-11" d="m961.72,162.6c-.3.4-.59.8-.89,1.2.3-.4.59-.8.89-1.2Z"/>
    <path class="cls-11" d="m959.98,164.92c-.27.34-.53.67-.8,1.01.27-.34.53-.67.8-1.01Z"/>
    <path class="cls-7" d="m1046.63,366c1.3,1.7.84,3.12-.39,4.75-1.65,2.19-2.98,4.62-4.44,6.94-.39.74-.07,1.92-1.32,2.12l.32.03v-.32c.04.77-.47,1.11-1.07,1.37l.09-.17c-.45,1.17-.8,2.41-2.01,3.09l.03-.02c-1.42,4.83-4.56,8.74-6.98,13.04-1.54,2.74-3.14,5.43-3.92,9.9,6.39-6.66,11.16-13.68,19.21-16.65l-.14.09c.38-.84,1.39-.61,1.95-1.15l.11-.07c3.16-.97,6.37-.44,9.57-.32,6.33,3.7,8.81,10.63,5.96,17.41-2.29,5.43-5.14,10.55-9.59,14.62-8.41,7.7-16.77,15.45-25.16,23.18-2.54.19-2.76-1.21-2.16-3.16.11-.25.29-.45.54-.58.1-.47.39-.75.85-.88,7.9-9.45,15.93-18.8,23.61-28.43,1.89-2.36,3.25-5.52,3.79-8.5.84-4.61-2.17-6.85-6.3-4.7-3.16,1.65-6.27,3.96-8.53,6.69-8.49,10.24-16.71,20.72-24.87,31.23-3.01,3.88-5.49,8.18-8.42,12.14-.9,1.22-2.44,3.61-3.82.14-.66-7.23,2.39-13.62,5.14-19.87,3.79-8.63,6.87-17.52,10.36-26.25,3.19-7.98,6.38-15.97,12.03-22.65l-.07.05c.7-1.01.93-2.35,2.09-3.04l-.09.06c.79-1.56,1.57-3.12,3.15-4.07l.84-.98c.28-.36.58-.7.88-1.04l.08-.11c.91-1.64,1.95-3.15,3.9-3.69l.32.05.12-.31c1.45-.69,2.88-.82,4.3.08Z"/>
    <path class="cls-10" d="m127.2,606.19c57.77.56,115.54,1.35,173.31,1.63,68.98.33,137.96.18,206.94.33,49.82.1,99.64.39,149.46.48,16.16.03,32.31-.31,48.47-.45,1.83-.02,3.65.14,5.48.21-9.77.52-19.54,1.45-29.31,1.48-46.49.15-92.99.07-139.48.05-23.93,0-47.85.09-71.77-.08-25.3-.18-50.59-.86-75.88-.84-10.43,0-20.86,1.74-31.29,1.79-17.46.08-34.93-.58-52.4-.89-19.63-.35-39.26-.74-58.9-.96-38.12-.43-76.24-.7-114.36-1.17-3.42-.04-6.84-1.03-10.25-1.58Z"/>
    <path class="cls-10" d="m829.03,607.34c19.27-.31,38.53-.74,57.8-.91,26.91-.23,53.83-.22,80.74-.43,4.8-.04,9.59-.66,14.39-1.01-4.14.98-8.27,2.8-12.41,2.82-45.04.19-90.07.1-135.11.05-1.8,0-3.6-.34-5.41-.53Z"/>
    <path class="cls-10" d="m713.04,608.39c6.66-.15,13.31-.39,19.97-.44,28.98-.18,57.95-.31,86.93-.46-1.63.48-3.25,1.37-4.88,1.39-12.47.13-24.94.1-37.41.09-20.22-.02-40.44-.06-60.66-.12-1.31,0-2.62-.3-3.93-.46Z"/>
    <path class="cls-10" d="m1057.66,388.62c-3.19.11-6.38.22-9.57.32,3.19-.11,6.38-.22,9.57-.32Z"/>
    <path class="cls-11" d="m1014.97,322.94c-.65-.67-1.31-1.33-1.96-2,1.01-.74,2.02-1.49,3.03-2.23.38.4.77.8,1.15,1.21-.74,1.01-1.48,2.02-2.22,3.03Z"/>
    <path class="cls-10" d="m1046.63,366c-1.43-.03-2.87-.05-4.3-.08,1.43.03,2.87.05,4.3.08Z"/>
    <path class="cls-10" d="m1033.12,375.99c-.7,1.01-1.4,2.03-2.09,3.04.7-1.01,1.4-2.03,2.09-3.04Z"/>
    <path class="cls-10" d="m1037.82,383.8c.67-1.03,1.34-2.06,2.01-3.09-.67,1.03-1.34,2.06-2.01,3.09Z"/>
    <path class="cls-10" d="m916.43,501.94c.24-1.31.47-2.63.71-3.94-.24,1.31-.47,2.63-.71,3.94Z"/>
    <path class="cls-10" d="m917.75,494.7c.09-.54.19-1.08.28-1.63.25.52.49,1.05.74,1.57l-1.02.05Z"/>
    <path class="cls-10" d="m981.97,604.99c.65-.36,1.3-.73,1.95-1.09-.65.36-1.3.73-1.95,1.09Z"/>
    <path class="cls-10" d="m1040.48,379.81c.44-.71.88-1.42,1.32-2.12-.44.71-.88,1.42-1.32,2.12Z"/>
    <path class="cls-10" d="m1047.98,389.02c-.65.38-1.3.77-1.95,1.15.65-.38,1.3-.77,1.95-1.15Z"/>
    <path class="cls-10" d="m1039.73,380.89c.36-.46.72-.92,1.07-1.37-.36.46-.72.92-1.07,1.37Z"/>
    <path class="cls-10" d="m1037.91,369.97c-.29.35-.59.69-.88,1.04.29-.35.59-.69.88-1.04Z"/>
    <path class="cls-11" d="m1008.93,328.81c.34-.3.68-.6,1.01-.9-.34.3-.68.6-1.01.9Z"/>
    <path class="cls-11" d="m1028.1,439.2l-.85.88.85-.88Z"/>
    <path class="cls-10" d="m946.75,507.95c.38-.27.77-.55,1.15-.82-.38.27-.77.55-1.15.82Z"/>
    <path class="cls-10" d="m984.96,603.02l1.01-1.12-1.01,1.12Z"/>
    <path class="cls-10" d="m783.94,545.01c-8.29-.72-16.57-1.45-24.86-2.17h-.02c-.67-.39-1.48-.3-2.17-.63-11.74-3.14-24.1-4.19-35.29-9.21.09-.63.18-1.27.26-1.9,1.52,0,3.06-.2,4.54.03,18.78,2.94,37.56,5.92,56.33,8.98,1.15.19,2.17,1.22,3.24,1.85-.68,1.01-1.36,2.03-2.04,3.04Z"/>
    <path class="cls-11" d="m756.89,542.21c.72.21,1.45.42,2.17.63-.72-.21-1.45-.42-2.17-.63Z"/>
    <path class="cls-7" d="m319.28,343.65c-.06.46-.12.92-.17,1.39-1.72,3.7-4.69,1.94-7.16,1.43-2.34-.48-4.84-1.05-6.17-3.49,4.16-15.1,7.74-30.33,8.63-46.02.8-14.13,1.19-28.28,1.66-42.43.23-6.9.12-6.95,6.63-8.59,10.91-2.74,21.14-6.89,30.33-13.54,11.72-8.49,17.41-20.44,19.18-34.25.92-7.21.16-14.64.85-22.45.67,1.05,1.43,2.06,1.99,3.17,3.17,6.2,5.89,12.68,9.54,18.59,3.89,6.29,9.32,11.21,16.24,14.36,1.38.63,2.75,2.45,3.1,3.96,5.34,22.63,7.98,45.59,6.92,68.84-.92,20.28-17.56,38.31-38.4,42.26-12.55,2.38-24.85,1.62-36.8-3.13-.93-.37-1.85-.75-2.79-1.07-5.82-2-7.6-1.2-9.36,4.75-1.51,5.09-2.67,10.29-3.98,15.43.05.3-.03.57-.23.8Z"/>
    <path class="cls-7" d="m572.89,320.95c8,1.59,14.42,6.33,21.55,10.52-1,.91-1.66,1.62-2.42,2.19-11.64,8.65-24.25,15.59-37.58,21.25-4.81,2.04-9.46.86-14.05-.79-4.8-1.72-9.93-2.93-14.29-5.44-9.24-5.32-18.08-11.33-27.07-17.1-.51-.33-.81-.98-1.52-1.88,2.99-1.63,5.77-3.14,8.55-4.64.91-1.65,2.7-1.42,4.14-1.95l.05.04c4.75-1.15,9.5-2.3,15.07-3.64-3.3,6.28-.86,10.55,2.67,14.32,10.79,11.55,33.21,9.62,41.68-3.71,1.69-2.67,2.19-6.09,3.24-9.17Z"/>
    <path class="cls-11" d="m441.33,215.27c1.56-.45,3.11-.91,4.67-1.36,5.91,6.85,11.83,13.71,17.74,20.56,1.5,1.74,2.98,3.5,4.47,5.26-4.7.32-9.3.05-13.45,3.57-7.39,6.27-7.1,14.33-6.52,22.67.1,1.47.27,2.93.41,4.4-10.17-7.85-17.94-17.78-24.72-28.57.76-2.27,2.9-3.09,4.6-4.34,6.27-4.61,10.95-10.11,10.92-18.45,0-1.53.23-3.01,1.88-3.74Z"/>
    <path class="cls-7" d="m296.82,284.45c-.61,13.22-8.29,18.77-20.6,14.31-7.74-2.81-13.43-7.99-15.64-16.21-.54-2.02-.67-4.33-.31-6.39,1.24-7.22,8.2-12.34,17.82-13.43,7.64-.87,12.83,1.88,15.75,9.22,1.57,3.94,2.03,8.31,2.99,12.49Z"/>
    <path class="cls-8" d="m324.66,353.07c4.73,2.48,7.72,6.24,8.59,11.58-3.42.86-6.82,2.33-10.27,2.45-7.8.28-15.02-2.39-21.86-5.94-1.37-.71-2.35-2.19-3.51-3.31,2.13-3.63,4.27-7.27,6.4-10.9,5.37-.48,9.87,1.72,14.17,4.57,2.16.52,4.32,1.04,6.48,1.55Z"/>
    <path class="cls-11" d="m501.02,317.08c-7.39,1.96-14.78,3.91-22.16,5.87.34-.89.55-1.86,1.05-2.64,4.95-7.76,8.48-16.05,9.44-26.15,6.73,9.52,16.29,13.77,26.49,18.48-5.52,1.66-10.17,3.05-14.82,4.45Z"/>
    <path class="cls-7" d="m430.3,326.1l-2.28-4.21c13.97-12.58,16.41-27.57,8.78-45.29,1.33.59,2.2.69,2.51,1.16,6.08,9.02,10.76,18.57,7.22,29.75-2.65,8.38-8.91,14.05-16.23,18.59Z"/>
    <path class="cls-7" d="m260.04,367.43c12.3-16.46,21.6-34.42,27.94-54.92,4.4,12.31-14.43,48.85-27.94,54.92Z"/>
    <path class="cls-7" d="m392.54,186.74c13.06-1.96,35.45,15.17,36.84,27.37-6-5.08-11.47-10.19-17.44-14.63-5.91-4.4-12.32-8.13-19.4-12.74Z"/>
    <path class="cls-7" d="m441.33,215.27c-.17,1.14-.45,2.27-.5,3.42-.44,11.01-6.49,19.31-16.9,23.11-.54-.6-1.08-1.2-1.84-2.05,7.26-5.99,14.41-11.93,16.08-21.79.55-1.36.02-2.81.36-4.18-.03-.52-.06-1.04-.09-1.56.74-1.16,1.46-1.23,2.18.02.24,1.01.47,2.03.71,3.04Z"/>
    <path class="cls-7" d="m364.71,371.71c-1.18-.85-2.36-1.7-3.54-2.55,5.34-6.25,10.68-12.5,16.02-18.75.31.21.62.42.92.63-2.43,8.12-7.77,14.49-13.4,20.67Z"/>
    <path class="cls-9" d="m318.18,351.51c-4.72-1.52-9.44-3.05-14.17-4.57.59-1.32,1.18-2.64,1.77-3.96,3.13.89,6.24,1.93,9.42,2.6,1.21.26,2.6-.33,3.91-.54-.31,2.16-.62,4.32-.93,6.47Z"/>
    <path class="cls-11" d="m440.62,212.24c-.73,0-1.45-.01-2.18-.02-.61-2.5-1.22-4.99-1.84-7.49,3.47,1.36,3.7,4.45,4.01,7.5Z"/>
    <path class="cls-11" d="m438.53,213.78c-.12,1.39-.24,2.79-.36,4.18.12-1.39.24-2.79.36-4.18Z"/>
    <path class="cls-9" d="m319.28,343.65c.08-.27.15-.54.23-.8.2.35.13.61-.23.8Z"/>
    <path class="cls-11" d="m478.98,322.87c-.38.05-.75.1-1.13.15.38-.05.75-.1,1.13-.15Z"/>
    <path class="cls-10" d="m758.54,171.59c-1.65-1.58-3.27-3.18-4.93-4.73-13.22-12.3-30.81-14.12-45.84-4.35-3.39,2.21-5.89,5.76-8.96,8.51-.96.86-2.46,1.14-3.71,1.68-.2-1.35-1-3-.49-3.98,1.66-3.21,3.33-6.64,5.82-9.17,15.65-15.93,41.71-16.08,58.15,3.22,3.17,3.72,3.01,5.34-.04,8.81Z"/>
    <path class="cls-10" d="m836.86,415.55c0-5.58-.52-11.22.1-16.73,1.39-12.33,5.05-24.05,11.3-34.85.89-1.53,2.24-2.88,3.63-3.99.59-.47,2.08-.47,2.72-.04.6.4.97,1.74.81,2.54-.44,2.1-1.22,4.13-1.86,6.19-4.3,13.79-8.6,27.57-12.91,41.36-.45,1.43-.89,2.86-1.43,4.25-.21.55-.69.99-1.04,1.48-.44-.07-.88-.14-1.32-.2Z"/>
    <path class="cls-10" d="m783.51,265.63c-6.58.8-11.19-16.26-7.68-23.65,1.69-3.57,5.42-4.5,8.17-2.05,5.19,4.65,6.1,24.9-.49,25.7Z"/>
    <path class="cls-10" d="m737.83,277c-3.39,0-10.35-14.73-9.88-24.46.18-3.66,2.27-4.63,5.35-2.67,1.07.68,2.01,1.77,2.66,2.89,3.24,5.57,5.17,11.57,4.99,18.05-.05,2.01.28,6.18-3.12,6.18Z"/>
    <path class="cls-12" d="m797,271.41c-.06-4.18,5.21-10.06,8.59-10.43,2.6-.29,4.47,1.01,4.99,3.2.61,2.55,1.08,5.57.25,7.91-.76,2.12-3.16,3.83-5.16,5.28-4.1,2.98-6.89,1.77-8.11-3.26-.27-1.13-.47-2.27-.56-2.69Z"/>
    <path class="cls-10" d="m787.53,228.54c-.94.05-1.87.16-2.81.16-6.26-.02-12.53.04-18.79-.18-1.37-.05-3.51-.82-3.89-1.79-.93-2.42,1.29-3.18,3.12-3.27,5.4-.27,10.85-.7,16.21-.24,2.37.2,4.58,2.38,6.86,3.67l-.71,1.66Z"/>
    <path class="cls-10" d="m769.7,149.07c-5.62-4.79-10.89-9.27-16.19-13.79,4.82-4.48,8.99-3.3,15.53,3.9,4.04,4.45,4.21,6.71.67,9.89Z"/>
    <path class="cls-12" d="m760.33,281.99c-.75,2.59-1.5,5.19-2.32,8.04-3.68-1.45-3.38-3.94-2.87-5.8.37-1.33,2.13-2.29,3.27-3.41l1.92,1.17Z"/>
    <path class="cls-7" d="m616.36,430.79c-2.16-9.51,14.78-50.46,24.98-59.78.44,2.08,1.49,3.96,1,5.24-7.08,18.49-14.33,36.92-24.81,53.85-.15.24-.54.33-1.18.69Z"/>
    <path class="cls-7" d="m453.77,357.08c8.09,18.72,16.52,37.22,17.35,58-6.82-19.06-17.59-36.9-17.35-58Z"/>
    <path class="cls-7" d="m538.96,384.76c-1.45-6.7.13-8.8,6.68-8.6,2.99.09,5.97.47,8.96.71,5.94.48,6.22.93,4.16,6.69-.24,1.07-1.32.84-1.98,1.28l.05-.07c-.7,1.01-1.79.8-2.66.62-4.19-.84-8.34-1.23-12.54,0-.83.24-1.96.36-2.66-.62Z"/>
    <path class="cls-7" d="m538.69,361.3c.96-.09,1.45-.21,1.94-.17,5.95.43,11.9.88,17.98,1.33.8,3.21-.63,4.93-3.65,5.07-3.98.19-7.98,0-11.97-.04-4.05-.04-5.01-2.31-4.3-6.19Z"/>
    <path class="cls-10" d="m510.19,323.11c-1.38.65-2.76,1.3-4.14,1.95q.47-2.03,4.14-1.95Z"/>
    <path class="cls-10" d="m556.78,384.83c.66-.43,1.32-.85,1.98-1.28-.66.43-1.32.85-1.98,1.28Z"/>
    <path class="cls-7" d="m486.17,167.39c.72-.94,1.3-2.06,2.2-2.77.73-.58,1.83-.77,2.8-.95,17.12-3.25,31.21-11.95,43.53-23.95,2.38-2.31,5.12-4.25,7.7-6.35,2.09-1.7,4.15-1.97,6.61.64-13.67,12.85-24.69,29.13-44.87,33.12-5.62,1.11-11.39,1.41-17.09,2.08l-.89-1.81Z"/>
    <path class="cls-10" d="m503.52,254.47c.49-2.43.43-5.18,1.63-7.19,1.12-1.88,3.47-3.9,5.46-4.11,1.68-.18,4.39,1.74,5.32,3.45,3.22,5.93,3.81,12.36,1.66,18.86-1.37,4.14-4.01,5.01-7.71,2.56-4.82-3.19-6.09-8.06-6.36-13.56Z"/>
    <path class="cls-10" d="m567.49,263.53c-6.73.72-8.95-11.5-8.44-19.34.11-1.76.65-3.64,1.49-5.18,2.63-4.77,7.16-4.79,10.13-.2,5.03,7.78,3.55,24.01-3.18,24.73Z"/>
    <path class="cls-12" d="m584.97,268.6c.11,3.83-3.9,8.1-7.79,8.29-3.35.17-8.76-5.3-9.03-9.13-.21-3.03,5.41-6.68,10.24-6.66,3.31.02,6.46,3.61,6.57,7.49Z"/>
    <path class="cls-12" d="m503.46,288.59c-3.38-2.25-5.25-5.32-4.43-9.2.46-2.19,1.89-4.81,3.7-5.93,2.51-1.55,5.57-.54,7.7,1.65,1.11,1.14,2.06,2.73,2.39,4.23,2.08,9.26-6.86,10.92-9.36,9.26Z"/>
    <path class="cls-10" d="m515.22,228.77c-10.91-1.29-16.51,5.89-22.21,13.37-2.06-7.24,3.5-16.13,10.64-18.34,5.8-1.79,9.71-.41,11.57,4.97Z"/>
    <path class="cls-10" d="m577.36,225.57c-7.39-4.14-14.48-4.97-21.22-.23-2.18-3.21-1.09-5.35.85-6.72,5.19-3.68,10.83-3.62,16.48-1.05,3.5,1.59,4.11,2.81,3.9,8Z"/>
    <path class="cls-12" d="m618.94,238.01c0,3.95-3.34,6.28-5.41,7.05-2.11.79-6.72-1.03-7.46-1.9-3.6-4.27,1.13-7.02,2.66-9.94,1.21-2.32,3.52-3.23,5.34-1.89,1.91,1.4,4.87,2.72,4.87,6.67Z"/>
    <path class="cls-12" d="m470,260.26c-4.13-1.53-7.31-2.48-10.27-3.9-2-.96-1.89-4.36.13-6.63,1.56-1.75,3.31-3.01,5.21-.13.37.55,1.61.82,2.4.74,3.06-.32,7.1,3.2,6.18,5.98-.54,1.62-2.51,2.77-3.65,3.94Z"/>
    <path class="cls-12" d="m544.54,278.27c1.4-.1,2.86-.5,4.17-.19,1.02.24,1.84,1.36,2.75,2.09-1.07.57-2.25,1.72-3.2,1.56-1.47-.25-2.79-1.41-4.17-2.18.15-.42.3-.85.45-1.27Z"/>
    <path class="cls-10" d="m1006.1,131.8c.33.31.66.62,1,.92-.33-.31-.66-.62-1-.92Z"/>
    <path class="cls-10" d="m1005.06,130.84c.33.3.66.61.99.91-.33-.3-.66-.61-.99-.91Z"/>
    <path class="cls-10" d="m294.74,410.97c6.32,11.28,9.53,23.58,11.68,36.2.33,1.95.69,4.02.38,5.93-.22,1.36-1.54,2.54-2.38,3.81-1.14-.93-2.89-1.65-3.32-2.84-1.35-3.73-1.9-7.75-3.31-11.45-2.22-5.85-4.89-11.53-7.37-17.28,5.86-.73,6.66-2.25,4.86-7.93-.64-2-.39-4.28-.55-6.43Z"/>
    <path class="cls-10" d="m319.99,477.99c7.88,2.56,15.78,5.08,22.05,10.89-7.72-2.89-15.58-5.49-22.05-10.89Z"/>
    <path class="cls-10" d="m304.92,472.8c4.87,1.71,9.74,3.41,14.6,5.12-5.41-.16-10.36-1.63-14.6-5.12Z"/>
    <path class="cls-10" d="m334.17,514.12c-1.06,1.33-2.13,2.66-3.19,3.99-.03-2.21.49-3.97,3.19-3.99Z"/>
    <path class="cls-10" d="m303.02,472.02c.68.3,1.36.6,2.04.89-.68-.3-1.36-.6-2.04-.89Z"/>
    <path class="cls-10" d="m331.01,517.97c-.36.7-.72,1.39-1.08,2.09.36-.7.72-1.39,1.08-2.09Z"/>
    <path class="cls-10" d="m290.76,425.34c-.32-.41-.65-.81-.97-1.22.32.41.65.81.97,1.22Z"/>
    <path class="cls-10" d="m342.94,489.08c.35.29.7.57,1.05.86-.35-.29-.7-.57-1.05-.86Z"/>
    <path class="cls-10" d="m345.01,490.87c.37.34.73.67,1.1,1.01-.37-.34-.73-.67-1.1-1.01Z"/>
    <path class="cls-12" d="m943.93,283.42c-.72,7.57-4.83,11.25-13.76,12.39-5.47.7-9.19-2.14-11.39-8.27-.88-2.45-1.26-6.4.28-11.54s13.36-10.16,19.48-8.85c3.76.8,4.54,4.56,5.32,7.79.34,1.42.2,7.16.08,8.48Z"/>
    <path class="cls-12" d="m992.27,256.91c-6.98.01-10.57-2.74-10.15-8.5.4-5.46,4.5-13.07,12.23-12.61,5.92.35,9.6,4.36,9.67,11.42.06,7.31-2.79,9.66-11.75,9.68Z"/>
    <path class="cls-10" d="m918.96,269.21c-1.57,3.92-4.84,4.46-7.2,1.09-4.94-7.05-6.79-15.01-4.95-23.53.57-2.66,2.2-4.91,5.37-5.05,3.06-.14,5.67,3.35,6.48,6.06,1.31,4.39,3.15,14.85.29,21.44Z"/>
    <path class="cls-10" d="m926.42,238.85c-5.5-3.05-10.48-6.42-15.93-8.67-5.64-2.33-11.68-2.19-17.49.85-1.49-3.1-.42-5.47,1.9-6.56,2.75-1.3,5.99-2.5,8.92-2.3,8.22.58,15.31,4.2,21.25,9.94,1.89,1.82,3.17,3.89,1.35,6.74Z"/>
    <path class="cls-10" d="m875,276c-3.83.25-9.52-15.57-8.08-25.43.45-3.09,2.63-4.43,4.92-1.46s4.98,14.4,6.08,20.24c.38,2.01.9,6.4-2.93,6.65Z"/>
    <path class="cls-12" d="m884.98,295.66c-.4-2.31-.8-4.63-1.3-7.52,5,2.23,5.34,3.66,2.65,7.44-.45.03-.9.06-1.35.08Z"/>
    <path class="cls-11" d="m293.26,444.2c-2.17-7.05-6.44-12.85-11.25-18.31-.4-.29-.86-.52-1.05-1.02-.34-.16-.67-.32-1.01-.48-2.78-5.17-7.56-7.73-12.87-9.13-2.94-.77-6.12.16-7.8,3.09-1.67,2.92-.3,5.69,1.91,7.59,3.74,3.21,7.82,6.02,11.76,8.99,6.7,4.93,13.41,9.86,21.09,15.51-.33-2.83-.27-4.62-.77-6.23Z"/>
    <path class="cls-11" d="m282.01,425.89c-.35-.34-.7-.68-1.05-1.02.35.34.7.68,1.05,1.02Z"/>
    <path class="cls-10" d="m355.83,286.11c-.59,1.9-3.28,4.83-4.32,4.57-2.19-.55-4.66-2.53-5.72-4.59-3.7-7.16-1.3-17.05,4.86-22.31,4.12-3.51,7-2.55,7.99,2.73.24,1.29.22,2.05.23,3.98s-1.47,10.58-3.04,15.63Z"/>
    <path class="cls-12" d="m334.73,289.58c10.24-.99,10.93,12.32,8.94,17.35-.89,2.24-4.41,3.41-7.45,2.7s-5.61-5.8-6.17-9.74c-.64-4.57,1.63-10.02,4.68-10.31Z"/>
    <path class="cls-10" d="m398.66,283.69c-3.43.38-3.61-4.59-3.82-6.74-.51-5.39-.33-10.87-.06-16.3.07-1.45,1.25-3.06,2.33-4.2,1.51-1.59,3.16-1.51,4.48.57,4.29,6.76.49,26.28-2.94,26.67Z"/>
    <path class="cls-10" d="m337.66,260.06c-3.13-1.97-3.8-4.09-1.81-6.8,4.94-6.75,11.39-11.52,19.24-14.35.91-.33,2.11-.66,2.9-.33,1.09.46,2.46,1.41,2.7,2.39.22.89-.65,2.51-1.53,3.1-1.48.99-3.38,1.33-5.02,2.11-6.66,3.18-12.6,7.29-16.5,13.88Z"/>
    <path class="cls-12" d="m393.92,292.29c1.74,4.71-.78,6.85-2.7,9.09-.29.34-1.85.22-2.11-.17-.45-.67-.78-2.01-.4-2.56,1.41-2.04,3.12-3.87,5.21-6.37Z"/>
    <path class="cls-12" d="m274.7,270.92c2.88-3.32,9.16-2.85,12.08.52,1.6,1.84,2.76,4.1,3.92,6.28,1.51,2.83.81,4.94-2.18,6.47-2.18,1.12-4.16,2.66-6.17,4.09-5.8,4.11-11.68,1.38-12.43-5.8-.05-.49,0-.99,0-1.49-.27-.14,2.4-7.31,4.79-10.07Z"/>
  </g>
  <g>
    <path class="cls-4" d="m488.55,529.75c-.28-.11.12-.28-.14-.4-1.87-5.29-3.26-4.86-4.19-10.4,1.42-2.09,3.81-4.33,7.77-5.27,3.71-.87,7.83.33,12.04.15,1.1-.04,2.21-.97,3.33-1.02.74,9.7-.8,14.99-8.24,16.75-5.12,1.22-8.45,1.03-10.58.2Z"/>
    <path class="cls-4" d="m488.26,506.56c-2.95.69-4.9,2.67-6.78,3.99-3.07-5.6-1.71-6.13-3.74-12.19s-2.44-5.93-4.46-12-6.62-6.14-3.37-11.65c2.85-4.83,4.84.75,10.45.75s5.61-2.14,11.22-2.15c4.57,0,9.2,1.87,13.73,3.53-.83,4.06-1.32,8.46-1.05,12.91s.78,8.72,1.35,12.92c.15,1.15,1.4,2.94,1.54,4.01-1.69.12-3.97-.67-5.69-.58-4.3.18-8.99-.54-13.21.45Z"/>
    <path class="cls-4" d="m512.28,504.05c-.55-4-.9-8.12-1.17-12.03-.29-4.24.43-8.08,1.18-11.76,6.1,3.36,11.97,7.71,16.45,13.18-4,7.16-9.45,10.29-15.2,11.65-.07.03-.13-.11-.2-.09-.05-.36-1.01-.59-1.06-.95Z"/>
    <path class="cls-4" d="m535.26,508.83c1.94,5.81,2.19,10.44,1.25,15.22-1.11,5.62-2.07,11.07-6.48,14.25-4,2.89-9.55,4.54-15.7,4.54-5.61,0-5.61.31-11.22.31-5.61,0-5.6.35-10.77-1.83-2.68-1.13-3.71-1.9-2.46-4.52,3.99,1.05,8.88,2.57,13.37,1.51,6.07-1.43,7.95-6.68,9.37-11.41,1.29-4.28,2.31-9.15,1.76-14.67,3.73-.58,7.04-2.02,10.48-4.05,3.01-1.77,6.34-2.74,8.81-6.33,1.42,2.49.7,4.3,1.59,6.97Z"/>
  </g>
  <text class="cls-2" transform="translate(356.02 685.42)"><tspan class="cls-1" x="0" y="0">W</tspan><tspan x="30.21" y="0">orkspace Supporting in Diflowy</tspan></text>
  <text class="cls-5" transform="translate(24.97 181.64) rotate(-17.58)"><tspan class="cls-3" x="0" y="0">Comming Soon</tspan><tspan class="cls-6" x="433.71" y="0">...</tspan></text>
</svg>