<?xml version="1.0" encoding="UTF-8"?><svg id="b" xmlns="http://www.w3.org/2000/svg" xmlns:xlink="http://www.w3.org/1999/xlink" viewBox="0 0 103.81 28.16"><defs><style>.h{fill:#007fe6;}.h,.i,.j,.k,.l{stroke-width:0px;}.i{fill:url(#e);}.j{fill:url(#f);}.k{fill:url(#d);}.l{fill:url(#g);}</style><linearGradient id="d" x1="18.38" y1="32.52" x2="-18.71" y2="-4.57" gradientUnits="userSpaceOnUse"><stop offset="0" stop-color="#68c7f9"/><stop offset=".37" stop-color="#0080fc"/><stop offset=".7" stop-color="#0043d4"/><stop offset="1" stop-color="#00006a"/></linearGradient><linearGradient id="e" x1="25.1" y1="25.79" x2="-11.98" y2="-11.29" xlink:href="#d"/><linearGradient id="f" x1="29.59" y1="21.31" x2="-7.5" y2="-15.78" xlink:href="#d"/><linearGradient id="g" x1="21.45" y1="29.44" x2="-15.63" y2="-7.64" xlink:href="#d"/></defs><g id="c"><path class="k" d="m.3,23.02c-.1-.05-.21-.1-.3-.15v-4.4c.88-.86,2.23-1.59,4.01-1.98,1.67-.36,3.34-.43,5.12-.5.46-.02.93-.04,1.4-.06-1.04,4.01-2.43,6.51-5.77,7.23-2.3.5-3.7.21-4.47-.14Z"/><path class="i" d="m3.43,13.78c-1.32.29-2.46.72-3.43,1.26V0h9.34c1.9,0,3.72.38,5.37,1.06-1.79,3.3-2.55,7.12-3.25,10.65-.1.47-.19.94-.28,1.38-.72.05-1.44.08-2.16.11-1.82.07-3.69.15-5.59.57Z"/><path class="j" d="m14.19,12.26c.69-3.45,1.39-6.98,2.97-9.89,2.07,1.39,3.75,3.31,4.85,5.57-2.66,2.96-5.23,4.2-7.81,4.76-.03.01-.07.02-.11.02.03-.15.06-.3.09-.45Z"/><path class="l" d="m23.42,14.08c0,7.78-6.3,14.08-14.08,14.08H0v-2.28c1.51.43,3.34.44,5.35,0,5.19-1.12,6.99-5.43,8.12-10.24,3.07-.45,6.3-1.59,9.57-4.77.25,1.03.37,2.1.37,3.2Z"/><path class="h" d="m48.28,21.24v-10.72h2.61v10.72h-2.61Zm1.29-12.46c-.97,0-1.57-.61-1.57-1.59s.59-1.59,1.57-1.59,1.61.61,1.61,1.59-.62,1.59-1.61,1.59Z"/><path class="h" d="m53.75,21.24v-8.28h-1.53v-2.44h1.53v-.89c0-2.4,1.25-3.73,3.52-3.73.7,0,1.37.09,1.87.26v2.42c-.38-.14-.78-.25-1.21-.25-.95,0-1.57.59-1.57,1.51v.68h2.7v2.44h-2.7v8.28h-2.61Z"/><path class="h" d="m62.86,21.28c-1.67,0-2.55-.81-2.55-2.35V6.95h2.61v10.99c0,.57.33.9.9.9h.32v2.44h-1.29Z"/><path class="h" d="m70.06,21.51c-3.17,0-5.14-2.16-5.14-5.64s1.97-5.62,5.14-5.62,5.14,2.15,5.14,5.62-1.97,5.64-5.14,5.64Zm0-8.81c-1.5,0-2.47,1.25-2.47,3.17s.97,3.21,2.47,3.21,2.47-1.26,2.47-3.21-.97-3.17-2.47-3.17Z"/><polygon class="h" points="85.75 21.24 83.78 13.91 83.33 13.91 81.38 21.24 78.56 21.24 75.2 10.52 78.01 10.52 79.85 17.97 80.31 17.97 82.16 10.52 84.95 10.52 86.82 17.97 87.29 17.97 89.1 10.52 91.91 10.52 88.55 21.24 85.75 21.24"/><polygon class="h" points="94.07 28.16 96.86 21.47 92.5 10.52 95.42 10.52 98.03 18.02 98.46 18.02 100.92 10.52 103.81 10.52 96.92 28.16 94.07 28.16"/><path class="h" d="m39.81,6.95h-4.74v14.3h4.74c3.95,0,7.15-3.2,7.15-7.15s-3.2-7.15-7.15-7.15Zm0,11.67h-2.12v-9.04h2.12c2.49,0,4.52,2.03,4.52,4.52s-2.03,4.52-4.52,4.52Z"/></g></svg>