<?xml version="1.0" encoding="UTF-8"?><svg id="b" xmlns="http://www.w3.org/2000/svg" xmlns:xlink="http://www.w3.org/1999/xlink" viewBox="0 0 49.58 59.61"><defs><style>.h{fill:#fff;}.h,.i,.j,.k,.l{stroke-width:0px;}.i{fill:url(#e);}.j{fill:url(#f);}.k{fill:url(#d);}.l{fill:url(#g);}</style><linearGradient id="d" x1="38.91" y1="68.84" x2="-39.6" y2="-9.68" gradientUnits="userSpaceOnUse"><stop offset="0" stop-color="#68c7f9"/><stop offset=".37" stop-color="#0080fc"/><stop offset=".7" stop-color="#0043d4"/><stop offset="1" stop-color="#00006a"/></linearGradient><linearGradient id="e" x1="53.14" y1="54.61" x2="-25.37" y2="-23.9" xlink:href="#d"/><linearGradient id="f" x1="62.64" y1="45.11" x2="-15.88" y2="-33.4" xlink:href="#d"/><linearGradient id="g" x1="45.42" y1="62.34" x2="-33.1" y2="-16.18" xlink:href="#d"/></defs><g id="c"><path class="h" d="m49.58,29.8c0,16.46-13.34,29.8-29.8,29.8H0V0h19.78c16.46,0,29.8,13.34,29.8,29.8Z"/><path class="k" d="m.63,48.74c-.22-.1-.44-.21-.63-.31v-9.32c1.86-1.82,4.73-3.37,8.5-4.19,3.53-.76,7.07-.91,10.83-1.06.98-.04,1.97-.08,2.97-.13-2.2,8.48-5.14,13.78-12.21,15.31-4.87,1.06-7.83.43-9.46-.29Z"/><path class="i" d="m7.25,29.16c-2.8.6-5.21,1.52-7.25,2.67V0h19.77c4.02,0,7.87.8,11.37,2.25-3.8,6.99-5.4,15.07-6.89,22.55-.21,1-.4,1.98-.59,2.92-1.52.11-3.05.17-4.58.24-3.84.16-7.82.33-11.83,1.2Z"/><path class="j" d="m30.03,25.96c1.45-7.3,2.94-14.77,6.3-20.95,4.39,2.94,7.94,7,10.27,11.78-5.63,6.26-11.07,8.88-16.53,10.07-.07.02-.16.04-.23.05.06-.31.13-.64.19-.95Z"/><path class="l" d="m49.58,29.8c0,16.46-13.34,29.8-29.8,29.8H0v-4.82c3.2.92,7.07.93,11.34.01,10.99-2.38,14.79-11.51,17.19-21.67,6.49-.95,13.34-3.36,20.27-10.1.52,2.18.79,4.45.79,6.78Z"/></g></svg>