<?xml version="1.0" encoding="utf-8"?>
<!-- Generator: Adobe Illustrator 28.0.0, SVG Export Plug-In . SVG Version: 6.00 Build 0)  -->
<svg version="1.1" id="图层_1" xmlns="http://www.w3.org/2000/svg" xmlns:xlink="http://www.w3.org/1999/xlink" x="0px" y="0px"
	 viewBox="0 0 400 300" style="enable-background:new 0 0 400 300;" xml:space="preserve">
<style type="text/css">
	.st0{opacity:0.1;fill:#5578EC;enable-background:new    ;}
	.st1{fill:#DCDDDD;}
	.st2{fill:none;stroke:#31333A;stroke-linecap:round;stroke-linejoin:round;}
	.st3{fill:#FFFFFF;stroke:#31333A;stroke-linecap:round;stroke-linejoin:round;}
	.st4{fill:none;stroke:#FFFFFF;stroke-width:2;stroke-miterlimit:10;}
	.st5{fill:#FFFFFF;}
	.st6{fill:#31333A;}
	.st7{fill:#B5B5B6;}
	.st8{fill:#5578EC;}
	.st9{fill:#3351E5;}
	.st10{fill:#DCDDDD;stroke:#31333A;stroke-linecap:round;stroke-linejoin:round;}
	.st11{fill:none;stroke:#3351E5;stroke-width:2;stroke-linecap:round;stroke-linejoin:round;}
</style>
<path class="st0" d="M196.7,300c80.8,0,146.4-65.5,146.4-146.4S277.6,7.2,196.7,7.2S50.3,72.8,50.3,153.6S115.9,300,196.7,300z"/>
<path class="st1" d="M267.8,254.2c0,0,14.7-2.4,29.7-4.9c-5.5-12.7-15-23.2-27-29.9l-7.3,8c0,0,1.2-4.3,2.8-10.2
	c-7-3.2-14.5-5.1-22.2-5.6l-3.9,29.7c0,0-3.2-14.5-6.5-29.5c-16,1.7-30.8,9.5-41.2,21.7l19,16.9c0,0-12.6-5.4-23.9-10.3
	c-6.6,10.2-10.1,22-10.1,34.1c0,0.7,0,1.5,0.1,2.2h125.4c0-0.7,0.1-1.4,0.1-2.2c0-6.2-0.9-12.4-2.7-18.3L267.8,254.2z"/>
<path class="st1" d="M206.5,197l33.4,44.3v-33 M177.2,243.9l34,6.4l-27.4-17.1"/>
<path class="st2" d="M267.8,254.2c0,0,14.7-2.4,29.7-4.9c-5.5-12.7-15-23.2-27-29.9l-7.3,8c0,0,1.2-4.3,2.8-10.2
	c-7-3.2-14.5-5.1-22.2-5.6l-3.9,29.7c0,0-3.2-14.5-6.5-29.5c-16,1.7-30.8,9.5-41.2,21.7l19,16.9c0,0-12.6-5.4-23.9-10.3
	c-6.6,10.2-10.1,22-10.1,34.1c0,0.7,0,1.5,0.1,2.2h125.4c0-0.7,0.1-1.4,0.1-2.2c0-6.2-0.9-12.4-2.7-18.3L267.8,254.2z"/>
<path class="st3" d="M238.3,30.6H72c-1.3,0-2.4,1.1-2.4,2.4v241.3c0,1.3,1.1,2.4,2.4,2.4h166.4c1.3,0,2.4-1.1,2.4-2.4l0,0V33
	C240.7,31.7,239.6,30.6,238.3,30.6L238.3,30.6z"/>
<path class="st1" d="M105.5,75.3h-3c-4.9,0-8.9,4-8.9,8.9v3c0,4.9,4,8.9,8.9,8.9h3c4.9,0,8.9-4,8.9-8.9c0,0,0,0,0,0v-3
	C114.4,79.3,110.4,75.3,105.5,75.3C105.5,75.3,105.5,75.3,105.5,75.3L105.5,75.3z M208.4,78.1h-80.5c-3.4,0-6.2,2.8-6.2,6.2v2.9
	c0,3.4,2.8,6.2,6.2,6.2l0,0h80.5c3.4,0,6.2-2.8,6.2-6.2v0v-2.9C214.6,80.9,211.8,78.1,208.4,78.1C208.4,78.1,208.4,78.1,208.4,78.1z
	"/>
<path class="st4" d="M105.5,202.4h-3c-4.9,0-8.9,4-8.9,8.9c0,0,0,0,0,0v3c0,4.9,4,8.9,8.9,8.9c0,0,0,0,0,0h3c4.9,0,8.9-4,8.9-8.9
	c0,0,0,0,0,0v-3C114.4,206.4,110.4,202.4,105.5,202.4C105.5,202.4,105.5,202.4,105.5,202.4z M208.4,205.2h-80.5
	c-3.4,0-6.2,2.8-6.2,6.2c0,0,0,0,0,0v2.9c0,3.4,2.8,6.2,6.2,6.2c0,0,0,0,0,0h80.5c3.4,0,6.2-2.8,6.2-6.2c0,0,0,0,0,0v-2.9
	C214.6,208,211.8,205.2,208.4,205.2C208.4,205.2,208.4,205.2,208.4,205.2z"/>
<path class="st1" d="M105.5,117.7h-3c-4.9,0-8.9,4-8.9,8.9c0,0,0,0,0,0v3c0,4.9,4,8.9,8.9,8.9c0,0,0,0,0,0h3c4.9,0,8.9-4,8.9-8.9
	c0,0,0,0,0,0v-3C114.4,121.7,110.4,117.7,105.5,117.7C105.5,117.7,105.5,117.7,105.5,117.7z M208.4,120.5h-80.5
	c-3.4,0-6.2,2.8-6.2,6.2v2.9c0,3.4,2.8,6.2,6.2,6.2h80.5c3.4,0,6.2-2.8,6.2-6.2c0,0,0,0,0,0v-2.9
	C214.6,123.2,211.8,120.5,208.4,120.5C208.4,120.5,208.4,120.5,208.4,120.5z"/>
<path class="st4" d="M105.5,160.1h-3c-4.9,0-8.9,4-8.9,8.9l0,0v3c0,4.9,4,8.9,8.9,8.9c0,0,0,0,0,0h3c4.9,0,8.9-4,8.9-8.9
	c0,0,0,0,0,0v-3C114.4,164,110.4,160.1,105.5,160.1C105.5,160.1,105.5,160.1,105.5,160.1z M208.4,162.8h-80.5
	c-3.4,0-6.2,2.8-6.2,6.2c0,0,0,0,0,0v2.9c0,3.4,2.8,6.2,6.2,6.2h80.5c3.4,0,6.2-2.8,6.2-6.2c0,0,0,0,0,0V169
	C214.6,165.6,211.8,162.8,208.4,162.8C208.4,162.8,208.4,162.8,208.4,162.8z"/>
<path class="st5" d="M179.3,15.4h-8.5C170.6,6.8,163.6-0.1,155,0c-8.5,0.1-15.3,6.9-15.4,15.4H131c-11,0-19.9,8.9-19.9,19.9v2.3
	c0,0.9,0.4,1.8,1,2.4c0.6,0.6,1.5,1,2.4,1h81.3c0.9,0,1.8-0.4,2.4-1c0.6-0.6,1-1.5,1-2.4v-2.3c0-5.3-2.1-10.4-5.8-14.1
	C189.7,17.5,184.6,15.4,179.3,15.4L179.3,15.4z"/>
<path class="st1" d="M131.1,45.3l74.1-10.4l-3.8,7.7l-31.7,8"/>
<path class="st2" d="M179.3,15.4h-8.5C170.6,6.8,163.6-0.1,155,0c-8.5,0.1-15.3,6.9-15.4,15.4H131c-11,0-19.9,8.9-19.9,19.9v2.3
	c0,0.9,0.4,1.8,1,2.4c0.6,0.6,1.5,1,2.4,1h81.3c0.9,0,1.8-0.4,2.4-1c0.6-0.6,1-1.5,1-2.4v-2.3c0-5.3-2.1-10.4-5.8-14.1
	C189.7,17.5,184.6,15.4,179.3,15.4L179.3,15.4L179.3,15.4z"/>
<path class="st3" d="M155.2,21.8c-3.5,0-6.4-2.9-6.4-6.4c0-3.5,2.9-6.4,6.4-6.4c0,0,0,0,0,0c3.5,0,6.4,3,6.3,6.5
	C161.4,18.9,158.6,21.7,155.2,21.8L155.2,21.8z"/>
<path class="st6" d="M269.4,40.2l-0.9-5c0,0-15.2-8.6-17.7,3.5c-2.4,12.1,11.4,16.7,5.5,22c-5.9,5.3-12.6,12.6-6,16.8
	c6.6,4.2,33.8-2.7,33.8-2.7l-4.9-18.1L269.4,40.2z"/>
<path class="st3" d="M262.5,37.5l-4.7,11c-1.5,3.5,0.1,7.5,3.6,9c0.2,0.1,0.5,0.2,0.7,0.3l4,1.2c0.8,0.2,1.6-0.2,1.9-1l6-18.4
	c0.3-0.8-0.2-1.6-1-1.9c-0.1,0-0.2,0-0.3-0.1l-8.8-1.1C263.4,36.5,262.8,36.9,262.5,37.5L262.5,37.5z"/>
<path class="st5" d="M262.4,45.3c0,0.1-0.9,2.7-0.9,2.7c-2.8,0.4,0,2,0,2"/>
<path class="st2" d="M262.4,45.3c0,0.1-0.9,2.7-0.9,2.7c-2.8,0.4,0,2,0,2"/>
<path class="st6" d="M260,47c-0.4-0.1-0.6-0.4-0.6-0.8l0.1-0.6c0-0.2,0.1-0.3,0.3-0.4c0.2-0.1,0.3-0.1,0.5-0.1
	c0.4,0.1,0.6,0.4,0.6,0.8l-0.1,0.6c0,0.2-0.1,0.3-0.3,0.4C260.4,47,260.2,47,260,47z"/>
<path class="st2" d="M258.5,43.4l3.3,0.6"/>
<path class="st6" d="M264.4,47.6c-0.4-0.1-0.6-0.4-0.6-0.8l0.1-0.6c0-0.2,0.1-0.3,0.3-0.4c0.2-0.1,0.3-0.1,0.5-0.1
	c0.4,0.1,0.6,0.4,0.6,0.8l-0.1,0.6c0,0.2-0.1,0.3-0.3,0.4C264.7,47.6,264.6,47.7,264.4,47.6z"/>
<path class="st2" d="M263.9,44.1l3.3,0.6"/>
<path class="st7" d="M261.7,51.2l4.5-1.2C268.4,54.5,261.8,55.4,261.7,51.2L261.7,51.2z"/>
<path class="st2" d="M270.3,51.4l1.5-1.5 M271.2,52l-0.1-1.3"/>
<path class="st6" d="M267.1,35.7c-9.3,13.3,11,13.4,4.5,29.2c-6.5,15.8-4.7,23.3,13.6,14.2C298,72.8,278.5,29.8,267.1,35.7
	L267.1,35.7z"/>
<path class="st6" d="M259.5,43.9c1.8-4.2,4.9-5.7,7.7-5.4c2.9,0.4,2.1-2.1,2.1-2.1l-5.1-1C261.3,37.3,259.5,40.5,259.5,43.9
	L259.5,43.9z"/>
<path class="st5" d="M261.2,57.5l-1.8,14l12.1-1.2l-1-17.5"/>
<path class="st1" d="M258.4,65.5c-0.9,0.4,8.7-6.4,8.7-6.4l-5.8-1.6C260.1,60.1,259.1,62.8,258.4,65.5L258.4,65.5z"/>
<path class="st2" d="M261.2,57.5l-1.8,14l12.1-1.2l-1-17.5"/>
<path class="st5" d="M267.4,50.1c0.2-0.2,0.5-0.4,0.8-0.6c1.9-1.2,4.1-1.1,5,0.3c0.9,1.4,0.1,3.5-1.8,4.7c-0.4,0.3-0.9,0.5-1.4,0.7"
	/>
<path class="st2" d="M267.4,50.1c0.2-0.2,0.5-0.4,0.8-0.6c1.9-1.2,4.1-1.1,5,0.3c0.9,1.4,0.1,3.5-1.8,4.7c-0.4,0.3-0.9,0.5-1.4,0.7"
	/>
<path class="st5" d="M261.1,159.3l32.4-0.7l3.4,10.2l-34,2.6L261.1,159.3z"/>
<path class="st1" d="M279.8,158.9c1.9,3.4,2.1,13.3,2.1,13.3l-9.8,1.6"/>
<path class="st2" d="M261.1,159.3l32.4-0.7l3.4,10.2l-34,2.6L261.1,159.3z"/>
<path class="st1" d="M325.1,185.1c0,0-4.6,8.3-17-7.8c-4.8-6.2-15.2-7.2-15.2-7.2l-6.4-11.9l14.6-1c1.1,0,2.2,0.5,2.9,1.4
	L325.1,185.1L325.1,185.1z"/>
<path class="st2" d="M301.1,157.2l28,35.7"/>
<path class="st3" d="M297.5,165.6c1,0,1.8-0.8,1.9-1.8c0-1-0.8-1.8-1.8-1.9c0,0-0.1,0-0.1,0c-1,0-1.8,0.9-1.8,1.9
	C295.8,164.8,296.5,165.5,297.5,165.6z"/>
<path class="st5" d="M225.8,218.6l-3.1,32.2l-10.6,2.2l1.5-34.1L225.8,218.6L225.8,218.6z"/>
<path class="st2" d="M225.8,218.6l-3.1,32.2l-10.6,2.2l1.5-34.1L225.8,218.6L225.8,218.6z"/>
<path class="st1" d="M192.6,279.1c0,0-7.7-5.5,9.8-15.9c6.8-4,8.9-14.2,8.9-14.2l12.6-5l-0.8,14.6c-0.1,1.1-0.7,2.2-1.7,2.8
	L192.6,279.1z"/>
<path class="st3" d="M217.1,256.1c1,0,1.8-0.8,1.8-1.8c0-1-0.8-1.8-1.8-1.8c0,0,0,0,0,0c-1,0-1.8,0.8-1.8,1.8
	C215.3,255.3,216.1,256.1,217.1,256.1z"/>
<path class="st5" d="M280.9,157.3c1.2,9.4-6.5,31.1-6.5,31.1L213,176.9c-7.6,0.2-14.2-4.6-15.7-11.2c-1-4.5,0.6-9.2,4-12.3l41-38.8
	l28.2,4.5l-20.6,38.5L280.9,157.3z"/>
<path class="st1" d="M265,151.5c-31.9,12-11.2,41.8-11.2,41.8l-56.8-8.1c0,0,35-49.9,42-49.9c12.4,0,21.5,7.9,21.5,7.9"/>
<path class="st2" d="M280.9,157.3c1.2,9.4-6.5,31.1-6.5,31.1L213,176.9c-7.6,0.2-14.2-4.6-15.7-11.2c-1-4.5,0.6-9.2,4-12.3l41-38.8
	l28.2,4.5l-20.6,38.5L280.9,157.3z"/>
<path class="st5" d="M202.4,234.5c27.7,3.3,41.7-6,41.7-6l-5-50l35.4-35.3c9.3-11.2,3.7-31.8,3.7-31.8l-23.7,3.5l-39.9,52.7
	c-2.5,2.8-4.1,6.3-4.6,10.1L202.4,234.5L202.4,234.5z"/>
<path class="st2" d="M202.4,234.5c27.7,3.3,41.7-6,41.7-6l-5-50l35.4-35.3c9.3-11.2,3.7-31.8,3.7-31.8l-23.7,3.5l-39.9,52.7
	c-2.5,2.8-4.1,6.3-4.6,10.1L202.4,234.5L202.4,234.5z"/>
<path class="st5" d="M263.1,122.3c-4.4,3.4,1.9,8.5,1.9,8.5L263.1,122.3z"/>
<path class="st2" d="M263.1,122.3c-4.4,3.4,1.9,8.5,1.9,8.5"/>
<path class="st5" d="M331.5,104.9c6,1.1,16.3-0.8,17-0.6c1.6,0.4,10.2,8.5,10.5,9.5c0.3,1.1-0.8,1.9-7.2-2.4c0,0-0.9,3.3-2.1,3.3
	c-0.6,0-18.2-1.9-18.2-1.9S331.5,104.9,331.5,104.9z"/>
<path class="st1" d="M336.7,102.5c2.8,9.7,1.7,11.7,4.5,12.3s-15.9,2.7-15.9,2.7l8.1-12.3"/>
<path class="st2" d="M331.5,104.9c6,1.1,16.3-0.8,17-0.6c1.6,0.4,10.2,8.5,10.5,9.5c0.3,1.1-0.8,1.9-7.2-2.4c0,0-0.9,3.3-2.1,3.3
	c-0.6,0-18.2-1.9-18.2-1.9S331.5,104.9,331.5,104.9z"/>
<path class="st8" d="M222.6,115.5l36.4-25.7c0,0-6.3-21.9-11.4-20.7c-5.2,1.2-27.3,25.3-27.3,25.3
	C204.9,109.7,222.6,115.5,222.6,115.5L222.6,115.5z"/>
<path class="st9" d="M245.3,89.2l-9.4,22.6l15.3-9.8l2.6-15.1"/>
<path class="st3" d="M209.2,16.3l-27.9,25.3l38.2,10.9L209.2,16.3z M262.6,17.4l-39.1,4.4l24.9,29.8L262.6,17.4L262.6,17.4z"/>
<path class="st2" d="M222.6,115.5l36.4-25.7c0,0-6.3-21.9-11.4-20.7c-5.2,1.2-27.3,25.3-27.3,25.3
	C204.9,109.7,222.6,115.5,222.6,115.5L222.6,115.5z"/>
<path class="st8" d="M244.8,86.3l4.9,30.2c0,0,24,5.6,29.8-2l6.1-44.5c0.2-1.4-0.5-2.8-1.8-3.5c-0.4-0.2-0.8-0.4-1.3-0.4
	c-6-0.6-18.3-1.2-21.6-0.7c-4.5,0.8-9,2-13.3,3.6"/>
<path class="st3" d="M266.6,73.5c6.5-2.2,10.8-6.8,9.7-10.3c-1.2-3.5-7.4-4.6-13.9-2.5c-6.5,2.2-10.8,6.8-9.7,10.3
	C253.8,74.5,260.1,75.6,266.6,73.5z"/>
<path class="st3" d="M266.3,71c5.7-1.6,9.7-5.2,8.9-8c-0.8-2.8-6.1-3.9-11.8-2.3c-5.7,1.6-9.7,5.2-8.9,8
	C255.3,71.6,260.6,72.6,266.3,71L266.3,71z"/>
<path class="st9" d="M275.7,89.4l7.6,25.2l7.3-19.8l-10.8-4.6"/>
<path class="st2" d="M244.8,86.3l4.9,30.2c0,0,24,5.6,29.8-2l6.1-44.5c0.2-1.4-0.5-2.8-1.8-3.5c-0.4-0.2-0.8-0.4-1.3-0.4
	c-6-0.6-18.3-1.2-21.6-0.7c-4.5,0.8-9,2-13.3,3.6"/>
<path class="st8" d="M283.5,66.4c5.9,1.8,20.4,22.3,26.8,25.4l27.4,13c0.5,9.9-4.7,14.3-4.7,14.3s-23.1-7.2-32.6-10.2
	c-7.5-2.4-21-14.7-26.3-19.8"/>
<path class="st2" d="M283.5,66.4c5.9,1.8,20.4,22.3,26.8,25.4l27.4,13c0.5,9.9-4.7,14.3-4.7,14.3s-23.1-7.2-32.6-10.2
	c-7.5-2.4-21-14.7-26.3-19.8"/>
<path class="st5" d="M262.5,120.3h-17.4c-1.4,0-2.5-1.1-2.5-2.5V94c0-1.4,1.1-2.5,2.5-2.5c0,0,0,0,0,0h17.4c1.4,0,2.5,1.1,2.5,2.5
	c0,0,0,0,0,0v23.8C265,119.2,263.9,120.3,262.5,120.3C262.5,120.3,262.5,120.3,262.5,120.3z"/>
<path class="st1" d="M241.7,97.9c2.5,10.9,12.6,18.6,12.6,18.6l9.5,7.7l-28.1-3.5"/>
<path class="st2" d="M262.5,120.3h-17.4c-1.4,0-2.5-1.1-2.5-2.5V94c0-1.4,1.1-2.5,2.5-2.5c0,0,0,0,0,0h17.4c1.4,0,2.5,1.1,2.5,2.5
	c0,0,0,0,0,0v23.8C265,119.2,263.9,120.3,262.5,120.3C262.5,120.3,262.5,120.3,262.5,120.3z"/>
<path class="st3" d="M254.1,107.8c1.6,0,2.9-1.3,2.9-2.9c0-1.6-1.3-2.9-2.9-2.9c0,0,0,0,0,0c-1.6,0-2.9,1.3-2.9,2.9
	C251.2,106.5,252.5,107.8,254.1,107.8z"/>
<path class="st5" d="M250.5,113.6c3.3,1,5.1,1.7,5.6,1.3c0.5-0.4,3-2,3.4-1.9c0.5,0.1,4.7,2.3,5.5,2.7c0.8,0.4,1,2.2,0.3,3.1
	c0.2,0.4,0.2,0.8,0.2,1.2c0,0.4-0.2,0.8-0.4,1.1c0,0-0.3,2.5-1.4,3c0,0-5.6-0.2-6.3-0.4c-0.7-0.2-11.2-5.5-11.2-5.5
	S250.5,113.6,250.5,113.6z"/>
<path class="st1" d="M253.7,114.9c-0.1,3.5,0.8,7,2.5,10.1l-8.5-3.9"/>
<path class="st2" d="M250.5,113.6c3.3,1,5.1,1.7,5.6,1.3c0.5-0.4,3-2,3.4-1.9c0.5,0.1,4.7,2.3,5.5,2.7c0.8,0.4,1,2.2,0.3,3.1
	c0.2,0.4,0.2,0.8,0.2,1.2c0,0.4-0.2,0.8-0.4,1.1c0,0-0.3,2.5-1.4,3c0,0-5.6-0.2-6.3-0.4c-0.7-0.2-11.2-5.5-11.2-5.5
	S250.5,113.6,250.5,113.6z"/>
<path class="st8" d="M233.2,99.4l20.3,14.2c1.6,5.4-2.3,13.1-2.3,13.1s-28.8-11.1-32.8-13.4"/>
<path class="st3" d="M247.3,188.8L228.1,154l-18.7,32.5L247.3,188.8L247.3,188.8z"/>
<path class="st2" d="M233.2,99.4l20.3,14.2c1.6,5.4-2.3,13.1-2.3,13.1s-28.8-11.1-32.8-13.4"/>
<path class="st9" d="M260.8,79.2c0.7-0.7,0.9-1.7,0.3-2.2s-1.5-0.5-2.2,0.2c-0.7,0.7-0.9,1.7-0.3,2.2
	C259.1,80,260.1,79.9,260.8,79.2z M259.4,86c0.7-0.7,0.9-1.7,0.3-2.2c-0.5-0.6-1.5-0.5-2.2,0.2c-0.7,0.7-0.9,1.7-0.3,2.2
	C257.6,86.8,258.6,86.7,259.4,86z"/>
<path class="st10" d="M250.1,111.3c0,0,0.6,9.3-3.9,13.5l4.9,1.9c0,0,4.1-7.7,2.3-13.1C253.4,113.6,250.1,111.3,250.1,111.3z
	 M334.2,103.2c0,0,0.5,9.9-5.2,14.7l4,1.3c0,0,5.4-4.5,4.7-14.3L334.2,103.2L334.2,103.2z"/>
<path class="st2" d="M227.6,232.6l0.9-53.6c0.1-3.7,1.4-7.3,3.8-10.1l41.5-48.6 M191.3,277.4l32.1-20.5 M244.7,86.3l0.6,4.4
	 M304.9,95.2l4-4.3 M235.6,101.1l1.2,0.9 M232,98.6l3.6,2.5 M348.6,108.6l3.2,2.9 M261.5,117.6l3.9,1.2 M262.5,120.6l2.4,0.8"/>
<path class="st11" d="M98.6,246.6c3.6,0,6.5-2.9,6.5-6.5c0-3.6-2.9-6.5-6.5-6.5s-6.5,2.9-6.5,6.5C92.1,243.7,95,246.6,98.6,246.6
	L98.6,246.6z M42.8,137.1l11-4 M37.3,146.7l11-4"/>
<path class="st5" d="M262.9,62.9l-1.9,1.3l-0.5,3.5l10.2-1.4l-0.2-2.6"/>
</svg>
