<svg id="a" xmlns="http://www.w3.org/2000/svg" xmlns:xlink="http://www.w3.org/1999/xlink" viewBox="0 0 300 300"><defs><style>.c,.d,.e{stroke:#31333a;}.c,.d,.e,.f{stroke-linecap:round;stroke-linejoin:round;}.c,.g{fill:#dcdddd;}.d,.h{fill:#fff;}.e,.f{fill:none;}.i{opacity:.3;}.i,.j{isolation:isolate;}.i,.j,.k,.l,.g,.m,.h{stroke-width:0px;}.i,.l{fill:#247aba;}.f{stroke:#6ea4cc;stroke-width:2px;}.j{fill:url(#b);opacity:.34;}.k{fill:#31333a;}.m{fill:#b5b5b6;}</style><linearGradient id="b" x1="194.97" y1="-1071.85" x2="171.63" y2="-1081.08" gradientTransform="translate(0 -958.19) scale(1 -1)" gradientUnits="userSpaceOnUse"><stop offset=".1" stop-color="#ff7638"/><stop offset=".89" stop-color="#ff3929"/></linearGradient></defs><path class="i" d="m144.04,271.32c67,0,121.32-54.32,121.32-121.32S211.05,28.68,144.04,28.68,22.73,83,22.73,150s54.32,121.32,121.32,121.32Z"/><path class="l" d="m241.14,137.77H39.79c-6.83,0-12.36,5.53-12.36,12.36h0v83.17c0,3.31,2.68,5.99,5.99,5.99h176.31l17.26,17.27c.6.6,1.49.77,2.27.45.78-.32,1.29-1.08,1.29-1.93v-15.79h16.95c3.31,0,5.99-2.68,5.99-5.99v-83.17c0-6.83-5.53-12.36-12.36-12.36h0Z"/><path class="e" d="m241.14,137.77H39.79c-6.83,0-12.36,5.53-12.36,12.36h0v83.17c0,3.31,2.68,5.99,5.99,5.99h176.31l17.26,17.27c.6.6,1.49.77,2.27.45.78-.32,1.29-1.08,1.29-1.93v-15.79h16.95c3.31,0,5.99-2.68,5.99-5.99v-83.17c0-6.83-5.53-12.36-12.36-12.36h0Z"/><path class="d" d="m226.12,164.11H54.82c-2.22,0-4.01,1.8-4.01,4.01s1.8,4.01,4.01,4.01h171.3c2.22,0,4.01-1.8,4.01-4.01s-1.8-4.01-4.01-4.01Zm-43.81,29.35H54.82c-2.22,0-4.01,1.8-4.01,4.01s1.8,4.01,4.01,4.01h127.49c2.22,0,4.01-1.8,4.01-4.01s-1.8-4.01-4.01-4.01h0Z"/><path class="h" d="m44.77,131.78l-10.27,2.8-15.22,3.53c-3.37.78-5.53,4.42-4.83,8.13.47,3.3,3.4,5.68,6.73,5.45,8.68-.93,25.67-2.09,25.67-2.09l-2.08-17.81h0Z"/><path class="e" d="m44.77,131.78l-10.27,2.8-15.22,3.53c-3.37.78-5.53,4.42-4.83,8.13.47,3.3,3.4,5.68,6.73,5.45,8.68-.93,25.67-2.09,25.67-2.09l-2.08-17.81h0Z"/><path class="m" d="m43.23,150c2.92-.65,29.44-1.82,32.13-3.97l-23.15-24.83-.3-4.45c-6.2,3.02-17.4,17.82-17.4,17.82,0,0,2.92,14.38,8.72,15.42Z"/><path class="e" d="m43.23,150c2.92-.65,29.44-1.82,32.13-3.97l-23.15-24.83-.3-4.45c-6.2,3.02-17.4,17.82-17.4,17.82,0,0,2.92,14.38,8.72,15.42Z"/><path class="h" d="m33.36,140.94c4.88-9.27,16.23-30.95,16.71-33.1.61-2.74-2.97-17.77-3.43-18.47-.46-.7-3.41-3.86-1.15,7.19.21,4.18-.75,8.34-2.77,12.01l-26.68,31.57"/><path class="g" d="m46.39,97.84c.9,2,2.04,3.89,3.39,5.61l1.54-5.07"/><path class="e" d="m33.36,140.94c4.88-9.27,16.23-30.95,16.71-33.1.61-2.74-2.97-17.77-3.43-18.47-.46-.7-3.41-3.86-1.15,7.19.21,4.18-.75,8.34-2.77,12.01l-26.68,31.57"/><path class="h" d="m261.48,139.23l-5.59,2.39-24.45,2.7-5.84-16.5,29.34-1.45"/><path class="e" d="m261.48,139.23l-5.59,2.39-24.45,2.7-5.84-16.5,29.34-1.45"/><path class="k" d="m243.54,126.94l17.94-.81c22.44,28.91,24.2,33.23,24.2,33.23-10.89,6.17-17.5-20.39-35.83-16.28l-6.31-16.14h0Z"/><path class="e" d="m257.74,125.01l27.94,38.31"/><path class="d" d="m253.5,136.37c1.73,0,3.13-1.46,3.13-3.26s-1.4-3.26-3.13-3.26-3.13,1.46-3.13,3.26,1.4,3.26,3.13,3.26Z"/><path class="h" d="m277.64,150.68c-10.68,1.53-10.07,5.24-10.07,5.24l10.07-5.24Z"/><path class="e" d="m277.64,150.68c-10.68,1.53-10.07,5.24-10.07,5.24"/><path class="g" d="m195.4,138.38l-1.04-6.04-10.32-22.63-12.49,5.43,10.94,23.83"/><path class="j" d="m170.2,119.26c12.14,7.53,27.93,2.36,27.93,2.36l-11.1-7.59-18.33.82"/><path class="e" d="m195.4,138.38l-1.04-6.04-10.32-22.63-12.49,5.43,10.94,23.83"/><path class="h" d="m175.26,123.61s29.09-1.08,28.93-8.4l-20.07-42.69c-5.31-10.72-17.46-14.19-26.45-4.97l-63.7,65.84,44.44,6.11,27.18-32.8s9.66,16.92,9.66,16.92Z"/><path class="g" d="m138.53,126.38l58.82,3.56,9.63-19.1-80.03,7.53"/><path class="e" d="m175.26,123.61s29.09-1.08,28.93-8.4l-20.07-42.69c-5.31-10.72-17.46-14.19-26.45-4.97l-63.7,65.84,44.44,6.11,27.18-32.8s9.66,16.92,9.66,16.92Z"/><path class="h" d="m240.32,120.69s5.74,19.53.49,29.47l-120.13-3.46-13.33-29.94,132.97,3.93Z"/><path class="g" d="m129.64,126.13l23.65,28.16-45.26-2.56"/><path class="h" d="m232.83,118.04c7.4,12.55,1.27,37.58,1.27,37.58,0,0-1.27-37.58-1.27-37.58Z"/><path class="e" d="m232.83,118.04c7.4,12.55,1.27,37.58,1.27,37.58m-122.14-13.87l126.56,3.35"/><path class="e" d="m240.32,120.69s5.74,19.53.49,29.47l-120.13-3.46-13.33-29.94,132.97,3.93Z"/><path class="m" d="m47.86,119.9s14.16-21.63,41.86-23.18l30.11,39.2.86,10.78-42.26,1.61c-4.95.19-9.83-1.17-13.97-3.89-2.51-1.64-4.83-3.55-6.92-5.7"/><path class="d" d="m69.65,119.1c5.24-2.35,6.96-9.9,3.84-16.85-3.12-6.95-9.9-10.68-15.14-8.33-5.24,2.35-6.96,9.9-3.84,16.85,3.12,6.95,9.9,10.68,15.14,8.33Z"/><path class="k" d="m93.66,124.33c19.35,24.7-2.95,29.16-2.95,29.16l18.4-2.86,14.09-1.69-5.16-21.76-21.68-15.91"/><path class="e" d="m47.86,119.9s14.16-21.63,41.86-23.18l30.11,39.2.86,10.78-42.26,1.61c-4.95.19-9.83-1.17-13.97-3.89-2.51-1.64-4.83-3.55-6.92-5.7"/><path class="h" d="m58.33,112.26l-5.5-12.1,10.44-4.52,4.67,8.38"/><path class="g" d="m51.86,113.9c7.9,1.52,13.07-10.18,13.07-10.18l-9.18.86-2.29,2.73.36.84"/><path class="e" d="m58.33,112.26l-5.5-12.1,10.44-4.52,4.67,8.38"/><path class="k" d="m66.08,92.49l-16.83,8.14-3.55-7.51c-.61-1.26-.09-2.78,1.16-3.41l12.31-5.95c1.26-.59,2.75-.05,3.34,1.2,0,0,0,.02.01.02,0,0,3.55,7.51,3.55,7.51Z"/><path class="d" d="m61.31,105.58c-1.84.77-3.91.78-5.76.02-.91-.38-1.74-.93-2.44-1.63-.7-.7-1.25-1.53-1.62-2.44l-4.63-10.89,13.68-5.92,4.63,10.9c1.67,3.82-.05,8.27-3.86,9.98Z"/><path class="k" d="m55.19,77.18c-2.05,1.14-3.15,3.45-2.75,5.76-3.91,4.35-11.18,3.77-6.73,10.17l1.69,2.06c-.94-7.83,6.89-.49,9.37-7.11.49-1.23,1.43-2.24,2.62-2.82.17-.09.34-.18.51-.29,2.58-1.61,3.62-4.65,2.32-6.8-1.3-2.15-4.44-2.58-7.02-.98Zm10.03,17.09l-.85-.49c.88,8.91-1.32,3.33-5.73,5.49-4.58,1.73-2.1,7.19-7.88.4l-.24.96c1.03,3.78,4.44,6.42,8.36,6.46,2,.12,3.93-.72,5.22-2.26,2.67-2.88,3.13-7.18,1.12-10.57Z"/><path class="h" d="m50.57,95.68c-7.84-2.25-3.56,7.99,2.26,4.48l-2.26-4.48Z"/><path class="e" d="m50.57,95.68c-7.84-2.25-3.56,7.99,2.26,4.48"/><path class="h" d="m61.62,90.89c3.79-7.29,8.18,2.91,1.65,4.74l-1.65-4.74Z"/><path class="e" d="m61.62,90.89c3.79-7.29,8.18,2.91,1.65,4.74"/><path class="h" d="m54.82,93.61c-1.25.11-2.46.54-3.5,1.24l3.5-1.24Z"/><path class="e" d="m54.82,93.61c-1.25.11-2.46.54-3.5,1.24"/><path class="k" d="m54.44,97.25c-.35.11-.73-.06-.86-.41l-.33-.93c-.05-.16-.04-.34.04-.5.08-.15.22-.27.39-.31.35-.11.73.06.86.41l.33.93c.05.16.04.34-.04.5-.08.15-.22.27-.39.31Z"/><path class="h" d="m57.28,92.84c1.1-.62,2.34-.95,3.6-.96l-3.6.96Z"/><path class="e" d="m57.28,92.84c1.1-.62,2.34-.95,3.6-.96"/><path class="k" d="m59.9,95.55c.26-.07.44-.29.46-.56,0-.09,0-.17-.03-.25l-.33-.93c-.13-.34-.51-.52-.86-.41-.26.07-.44.29-.46.56,0,.09,0,.17.03.25l.33.93c.13.34.51.52.86.41Z"/><path class="h" d="m56.79,95.33l.44,1.26s-.68,1.28.51,1.44"/><path class="e" d="m56.79,95.33l.44,1.26s-.68,1.28.51,1.44"/><path class="h" d="m129.89,148.53l-33.16-23.52,16.83-14.17,19.14,15.59c7.46,6.08,5.92,18.25-2.81,22.11Z"/><path class="g" d="m128.18,117.37c-6.03,7.27-19.29,15.01-19.29,15.01l8.21-18.65"/><path class="e" d="m129.89,148.53l-33.16-23.52,16.83-14.17,19.14,15.59c7.46,6.08,5.92,18.25-2.81,22.11h0Z"/><path class="m" d="m89.48,119.52c5.02,8.95,16.83,15.72,16.83,15.72,18.67-11.95,15.09-20.03,15.09-20.03,0,0-19.06-20.69-31.69-18.48"/><path class="e" d="m89.48,119.52c5.02,8.95,16.83,15.72,16.83,15.72,18.67-11.95,15.09-20.03,15.09-20.03,0,0-19.06-20.69-31.69-18.48"/><path class="d" d="m77.56,141.99l-6.46,3.95c-.47.31-1.08.26-1.49-.11-.13-.12-.24-.27-.31-.43l-6.84-14.89c-.32-.74-.06-1.6.62-2.03l6.45-3.95c.57-.37,1.33-.21,1.71.36.04.06.07.12.1.19l6.84,14.89c.32.74.06,1.6-.62,2.03Z"/><path class="d" d="m68.24,132.88l-1.96,1.2c-.22.15-.49.18-.75.11-.25-.08-.46-.26-.56-.5l-.96-2.08c-.23-.54-.04-1.16.45-1.47l1.96-1.2c.11-.07.23-.12.36-.14.4-.06.79.16.95.53l.96,2.08c.23.54.04,1.16-.45,1.47h0Z"/><path class="h" d="m132.71,146.82c-1.21,1.16-2.85,1.78-4.52,1.7l-44.23-2.27s-6.04.62-6.81.73c-2.13-.04-4.26-.25-6.36-.62-1.1-.14-1.88-1.14-1.74-2.24.01-.1.03-.21.06-.31-1.86,0-1.54-2.49-1.54-2.49-3.81.21-3.04-2.65-2.59-2.75.45-.1,7.67-1.66,8.94-2.24,1.27-.57-.64-2.65-.64-2.65-5.31-1.46-3.22-3.74-2.86-3.74s3.45.47,4.04.57c.59.1,7.86,7.38,8.67,7.38.48,0,17.82-1.83,32.12-3.35"/><path class="e" d="m132.71,146.82c-1.21,1.16-2.85,1.78-4.52,1.7l-44.23-2.27s-6.04.62-6.81.73c-2.13-.04-4.26-.25-6.36-.62-1.1-.14-1.88-1.14-1.74-2.24.01-.1.03-.21.06-.31-1.86,0-1.54-2.49-1.54-2.49-3.81.21-3.04-2.65-2.59-2.75.45-.1,7.67-1.66,8.94-2.24,1.27-.57-.64-2.65-.64-2.65-5.31-1.46-3.22-3.74-2.86-3.74s3.45.47,4.04.57c.59.1,7.86,7.38,8.67,7.38.48,0,17.82-1.83,32.12-3.35m11-17.23l14.2.13m-67.32,22.82l-5.58,1.05m4.7,2.05l-3.16.45m93.22-44.16l3.26,7.04"/><path class="h" d="m122.4,61.65c0,6.06-2.9,11.76-7.81,15.32-4.91,3.56-11.24,4.54-16.99,2.64l-11.91,3.68c-.85.26-1.75-.21-2.01-1.06-.12-.38-.09-.79.07-1.15l4.06-8.87c-3.35-4.97-4.13-11.24-2.13-16.88,3.5-9.84,14.31-14.98,24.15-11.49,7.54,2.68,12.58,9.81,12.58,17.82Z"/><path class="e" d="m122.4,61.65c0,6.06-2.9,11.76-7.81,15.32-4.91,3.56-11.24,4.54-16.99,2.64l-11.91,3.68c-.85.26-1.75-.21-2.01-1.06-.12-.38-.09-.79.07-1.15l4.06-8.87c-3.35-4.97-4.13-11.24-2.13-16.88,3.5-9.84,14.31-14.98,24.15-11.49,7.54,2.68,12.58,9.81,12.58,17.82Z"/><path class="f" d="m120.64,82.56c2.97.06,5.43-2.31,5.49-5.28.06-2.97-2.31-5.43-5.28-5.49-.07,0-.14,0-.21,0-2.97.04-5.35,2.49-5.31,5.46.04,2.92,2.4,5.27,5.31,5.31h0Zm88.1-13.1l9.09-3.31m-13.63,11.28l9.09-3.31"/><polygon class="d" points="98.93 57.33 104.72 50.85 105.99 50.85 104.21 57.33 113.19 57.33 109.45 68.63 98.93 68.63 98.93 57.33"/><rect class="c" x="94.83" y="57.33" width="4.09" height="11.29"/></svg>