<svg id="a" xmlns="http://www.w3.org/2000/svg" viewBox="0 0 300 300"><defs><style>.b,.c{stroke:#31333a;}.b,.c,.d{stroke-linecap:round;stroke-linejoin:round;}.b,.e{fill:#247aba;}.c,.d{fill:none;}.e{isolation:isolate;opacity:.3;}.e,.f,.g,.h,.i{stroke-width:0px;}.d{stroke:#6ea4cc;stroke-width:2px;}.f{fill:#31333a;}.g{fill:#dcdddd;}.h{fill:#b5b5b6;}.i{fill:#fff;}</style></defs><path class="e" d="m150,269.98c67,0,121.32-54.32,121.32-121.32S217,27.34,150,27.34,28.68,81.66,28.68,148.66s54.32,121.32,121.32,121.32Z"/><path class="i" d="m189.93,246.04c.32.76,18.45,24.08,18.45,24.08l5.74-11.94-20.31-35.11-3.88,22.98Z"/><path class="g" d="m195.25,250.32c-3.14,10.75,18.23-.16,19.97-5.11,1.73-4.95-3.95-13.42-3.95-13.42l-6.82,10.55"/><path class="c" d="m189.93,246.04c.32.76,18.45,24.08,18.45,24.08l5.74-11.94-20.31-35.11-3.88,22.98Z"/><path class="f" d="m200.53,262l11.51-7.83,8.85,11.74-15.01,24.1-12.89,3.83c-1.61-2.68-1.96-5.93-.93-8.88,3.2-7.62,18.01-1.67,8.48-22.95h0Z"/><path class="c" d="m201.13,263.98l4.08.56m-3.37,3.93l3.61.53m-5.14,3.91l4.96.53"/><path class="i" d="m117.11,250.65c-.51.67-11.93,28.68-11.93,28.68l13.58-1.46,20.79-36.17-22.44,8.95h0Z"/><path class="g" d="m116.04,257.49c-11.18,3.05,9.53,15.55,14.83,14.39,5.3-1.16,9.91-10.55,9.91-10.55l-12.9-.21"/><path class="c" d="m117.11,250.65c-.51.67-11.93,28.68-11.93,28.68l13.58-1.46,20.79-36.17-22.44,8.95h0Z"/><path class="f" d="m108.36,268.25l12.89,5.69-5.89,13.86h-42.79c1.57-2.83,4.27-4.84,7.43-5.55,8.42-1.33,23.8-5.46,28.36-14Z"/><path class="c" d="m71.92,284.93l50.04-.25m-15.05-14.85l1.61,3.8m-5.23-.79l1.39,3.38m-6.12-2.32l2.09,4.54"/><path class="i" d="m138.03,138.7c-2.9-1.88-6.38-2.66-9.8-2.2-2.91.6-5.94.4-8.75-.57,0,0-1.84,3.57,4.22,4.14,0,0-8.85,5.25-14.85,4.01-3.87-.8-4.67,4.77,7.17,3.66,8.99-.84,16.79-4.46,22.71-2.78,2.01.57-.7-6.26-.7-6.26h0Z"/><path class="g" d="m130.05,136.34c-.33,4.04-.36,8.1-.09,12.14l6.97-2.98-4.38-5.65,1.1,9.2"/><path class="c" d="m138.03,138.7c-2.9-1.88-6.38-2.66-9.8-2.2-2.91.6-5.94.4-8.75-.57,0,0-1.84,3.57,4.22,4.14,0,0-8.85,5.25-14.85,4.01-3.87-.8-4.67,4.77,7.17,3.66,8.99-.84,16.79-4.46,22.71-2.78,2.01.57-.7-6.26-.7-6.26h0Z"/><path class="g" d="m220.23,127.63l-37.9,15.51c-2.24.92-4.61,1.48-7.02,1.66l-40.69,3.09s-5.36-8.82-4.58-14l42.57-7.03,37.01-24.38,10.61,25.15"/><path class="b" d="m114.59,156.72c41.57,0,75.28-33.7,75.28-75.28S156.16,6.17,114.58,6.17,39.31,39.87,39.31,81.44s33.7,75.28,75.28,75.28h0Z"/><path class="i" d="m212.17,77.71l11.03,24.35-16.78,2.01-3.06-20.93,8.82-5.43h0Z"/><path class="g" d="m209.01,85.2l-5.6,13.3-1.1-11.69,3.22-2.88"/><path class="c" d="m212.17,77.71l11.03,24.35-16.78,2.01-3.06-20.93,8.82-5.43h0Z"/><path class="i" d="m208.17,87.57l-5.81,1.64c-.64.19-1.32.22-1.98.07-3.35-.8-5.42-4.14-4.65-7.5l3.12-13.51,12.13,5.7.04,10.35"/><path class="c" d="m208.17,87.57l-5.81,1.64c-.64.19-1.32.22-1.98.07-3.35-.8-5.42-4.14-4.65-7.5l3.12-13.51,12.13,5.7.04,10.35"/><path class="f" d="m206.12,80.4c-3.44-.33-.55-7.22-6.48-6.84-5.93.37-15.62-11.51-6.74-8.64s2.54-9.63,7.98-3.72c5.44,5.9,6.51,9.48,12.18,9.37,5.67-.11,4.32,11.93-.05,14.36-4.37,2.43-6.9-4.52-6.9-4.52h0Z"/><path class="i" d="m203.62,79.34c10.2-5.07,11.14,3.17,3.38,6.12l-3.38-6.12Z"/><path class="c" d="m203.62,79.34c10.2-5.07,11.14,3.17,3.38,6.12"/><path class="f" d="m198.66,79.48c-.4-.16-.62-.61-.49-1.03l.23-.69c.07-.19.21-.34.4-.42.19-.08.4-.07.58.01.4.16.62.61.49,1.03l-.23.69c-.07.19-.21.35-.4.42-.19.08-.4.07-.58-.01h0Z"/><path class="i" d="m198.99,75.87c1.04.11,2.03.49,2.88,1.1l-2.88-1.1h0Z"/><path class="c" d="m198.99,75.87c1.04.11,2.03.49,2.88,1.1"/><path class="h" d="m197.56,82.18l3.82-1.9c2.95,3.54-2.76,5.55-3.82,1.9Z"/><path class="c" d="m209.35,79.44l-2.94,2m1.76.46v-1.56"/><path class="i" d="m103.02,257.39s24.35,15.51,32.38,12.73l28.89-66.04,58.67-37.09-7.48-30.26-69.28,42.41c-3.03,1.82-5.44,4.51-6.92,7.72l-36.27,70.53Z"/><path class="g" d="m201.82,158.63s-32.79,37.31-37.53,45.46c-9.23,15.85,39.84-13.37,39.84-13.37"/><path class="g" d="m154.71,232.15l-7.16-17.89c-1.97-4.92-.6-10.54,3.41-14l28.72-27.95-15.02,51.94"/><path class="i" d="m103.02,248.52c18.59,13.87,42.8,14.81,42.8,14.81l-42.8-14.81h0Z"/><path class="c" d="m103.02,248.52c18.59,13.87,42.8,14.81,42.8,14.81"/><path class="c" d="m103.02,257.39s24.35,15.51,32.38,12.73l28.89-66.04,58.67-37.09-7.48-30.26-69.28,42.41c-3.03,1.82-5.44,4.51-6.92,7.72l-36.27,70.53Z"/><path class="i" d="m218.93,91.89l-2.06-4.03-14.16,8.33-.7,5.87,18.01-7.53"/><path class="c" d="m218.93,91.89l-2.06-4.03-14.16,8.33-.7,5.87,18.01-7.53"/><path class="i" d="m182.8,167.98l-24.19,29.29c-2.43,3.96-16.14,14.37,1.21,34.84l27.38,35.61c18.79-5.56,25.26-19.99,25.26-19.99l-27.28-36.08,26.32-25.58c7.11-6.4,12.23-14.71,14.73-23.94l2.32-8.32-24.77-11.24"/><path class="g" d="m193.86,153.73c2.81,12.06,60.4,34.87,60.4,34.87l-18.67-29.39"/><path class="i" d="m171.16,265.25c26.3.8,41.32-29.95,41.32-29.95l-41.32,29.95Z"/><path class="c" d="m171.16,265.25c26.3.8,41.32-29.95,41.32-29.95"/><path class="c" d="m212.48,157.01c-.52,14.7-27.54,42.32-37.79,52.29-2.17,2.08-2.29,5.51-.27,7.74l29.14,32.57"/><path class="c" d="m201.75,160.3c-15.43,14.61-1.5,20.81-1.5,20.81"/><path class="c" d="m182.8,167.98l-24.19,29.29c-2.43,3.96-16.14,14.37,1.21,34.84l27.38,35.61c18.79-5.56,25.26-19.99,25.26-19.99l-27.28-36.08,26.32-25.58c7.11-6.4,12.23-14.71,14.73-23.94l2.32-8.32-24.77-11.24"/><path class="h" d="m179.93,149.56c1.87,5.29,51.19,18.43,51.19,18.43,0,0-.95-21.88,2.45-39.45,3.82-19.71-14.73-37.6-14.73-37.6l-16.83,8.47c-8.22,9.1-11.45,21.65-8.64,33.58,2.92,12.9-13.44,16.58-13.44,16.58h0Z"/><path class="f" d="m216.82,126.03l4.95,4.22-38.93,26.47-4.87-14.81,19.46-8.02"/><path class="c" d="m179.93,149.56c1.87,5.29,51.19,18.43,51.19,18.43,0,0-.95-21.88,2.45-39.45,3.82-19.71-14.73-37.6-14.73-37.6l-16.83,8.47c-8.22,9.1-11.45,21.65-8.64,33.58,2.92,12.9-13.44,16.58-13.44,16.58h0Z"/><path class="i" d="m139.93,145.76c-3.48-1.35-7.32-1.43-10.85-.21-5.72,2.07-9.53,1.26-9.53,1.26,0,0-1.6,4.09,5.01,3.4,0,0-9.01,7.31-15.63,7.29-4.27-.01-4.54,5.93,8.16,2.28,9.64-2.77,17.69-8.17,24.27-7.68,2.24.17-1.44-6.34-1.44-6.34h0Z"/><path class="g" d="m133.84,140.31c-3.12,10.1.69,14.88.38,18.44-.31,3.56,5.15-2.31,5.15-2.31v-5.88"/><path class="c" d="m139.93,145.76c-3.48-1.35-7.32-1.43-10.85-.21-5.72,2.07-9.53,1.26-9.53,1.26,0,0-1.6,4.09,5.01,3.4,0,0-9.01,7.31-15.63,7.29-4.27-.01-4.54,5.93,8.16,2.28,9.64-2.77,17.69-8.17,24.27-7.68,2.24.17-1.44-6.34-1.44-6.34h0Z"/><path class="h" d="m202.57,102.72l-30.02,24.98-41.07,13.38c-.01,5.24,6.57,13.15,6.57,13.15l40.54-5.71c5.83-1.04,33.44-13.73,45.89-19.54"/><path class="c" d="m202.57,102.72l-30.02,24.98-41.07,13.38c-.01,5.24,6.57,13.15,6.57,13.15l40.54-5.71c5.83-1.04,33.44-13.73,45.89-19.54"/><path class="i" d="m197.43,76.42c-2.58,2.42-3.62,4.37-.6,5.03l.6-5.03Z"/><path class="c" d="m197.43,76.42c-2.58,2.42-3.62,4.37-.6,5.03m-68.29,67.92l-3.98.84"/><path class="d" d="m62.64,202.58c2.97,0,5.39-2.41,5.39-5.39s-2.41-5.39-5.39-5.39-5.39,2.41-5.39,5.39,2.41,5.39,5.39,5.39ZM218.61,36.93l9.09-3.31m-13.63,11.28l9.09-3.31"/><path class="i" d="m108.32,110.59c-5.31,0-10.67-.34-16.08-1.01l1.08-8.66c2.94.31,5.82.58,8.66.81,2.83.23,5.28.35,7.34.35h2.55c4.84,0,8.25-.66,10.21-1.97,1.96-1.31,3.09-3.39,3.4-6.22.1-1.03.15-1.73.15-2.09,0-1.91-.44-3.31-1.31-4.21-.88-.9-2.15-1.52-3.83-1.86-1.68-.33-4.34-.68-8-1.04-3.97-.36-7.16-.98-9.59-1.86-2.42-.88-4.23-2.19-5.41-3.94-1.19-1.75-1.78-4.12-1.78-7.11,0-1.03.08-2.16.23-3.4.46-3.76,1.38-6.78,2.74-9.05,1.37-2.27,3.41-3.96,6.15-5.06,2.73-1.11,6.39-1.76,10.98-1.97l1.39-11.13h8.66l-1.39,11.06c3.76,0,7.91.05,12.45.15l-1.01,8.51c-2.47,0-4.38-.03-5.72-.08l-7.27-.08h-5.18c-3.14,0-5.57.21-7.27.62-1.7.41-2.97,1.13-3.79,2.17-.83,1.03-1.37,2.53-1.62,4.48-.1.93-.16,1.57-.16,1.93,0,1.7.37,2.96,1.12,3.79.75.82,1.79,1.41,3.13,1.74,1.34.34,3.38.66,6.11.97,1.24.1,2.14.21,2.71.31,4.07.52,7.29,1.21,9.66,2.09,2.37.88,4.16,2.19,5.37,3.94,1.21,1.75,1.82,4.15,1.82,7.19,0,1.13-.08,2.32-.23,3.56-.62,5.31-2.28,9.28-4.99,11.91-2.71,2.63-6.77,4.25-12.18,4.87l-1.47,11.44h-8.66l1.39-11.13h-.39Z"/></svg>