<svg id="a" xmlns="http://www.w3.org/2000/svg" viewBox="0 0 300 300"><defs><style>.b{isolation:isolate;opacity:.1;}.b,.c,.d,.e,.f,.g,.h{stroke-width:0px;}.b,.f{fill:#ebeded;}.i,.j,.k{stroke:#31333a;}.i,.l,.k{stroke-linecap:round;stroke-linejoin:round;}.i,.k{stroke-width:1px;}.i,.h{fill:#fff;}.j{stroke-miterlimit:10;}.j,.d{fill:#6ea4cc;}.l{stroke:#6ea4cc;stroke-width:2px;}.l,.k{fill:none;}.c{fill:#31333a;}.e{fill:#1750a3;}.g{fill:#dcdddd;}</style></defs><path class="b" d="m150,271.32c66.76,0,120.88-54.32,120.88-121.32S216.76,28.68,150,28.68,29.12,83,29.12,150s54.12,121.32,120.88,121.32Z"/><path class="j" d="m41.1,171.99h217.8s16.95,15.1,0,34.87H49.35s-23.06-14.9-8.25-34.87Z"/><path class="c" d="m209.58,171.76h-39.71c-1.45-8.29,19.98-2.91,19.98-2.91-18.98-26.76,23.64-14.84,19.73,2.91Zm11.24-59.69c46.85,27.59,16.69,58.62,16.69,58.62,12.68-45.53-24.83-55.55-19.35-58.71.83-.45,1.85-.42,2.65.09Z"/><path class="c" d="m244,136.25c3.45,0,6.24-2.8,6.24-6.26s-2.8-6.26-6.24-6.26-6.24,2.8-6.24,6.26,2.8,6.26,6.24,6.26Z"/><path class="c" d="m183.67,171.73l50.6.03c2.23,0,4.24-1.36,5.07-3.43,21.23-52.17-42.36-35.57-53.42-5.09l-2.25,8.48h0Z"/><path class="c" d="m216.69,145.47c4.24,0,7.68-3.45,7.68-7.71s-3.44-7.71-7.68-7.71-7.68,3.45-7.68,7.71,3.44,7.71,7.68,7.71Zm.92,7.73c-8.7-1.6-3.95,12.62-3.95,12.62,0,0-6.91-2.18-11.07-1.15,0,0,2.23-14.53-6.77-17.42-9.01-2.88-12.68,25.36-12.68,25.36l39,2.95,7.86-5.77-12.37-16.58h0Zm25.32,17.69c4.24,0,7.68-3.45,7.68-7.71s-3.44-7.71-7.68-7.71-7.68,3.45-7.68,7.71,3.44,7.71,7.68,7.71Z"/><path class="c" d="m233.27,171.76h-35.09c-1.45-8.29,19.98-2.91,19.98-2.91-8.01-11.45-5.44-17.06.04-18.07m-14.02-4.49l-3.09,8.25-5.27-7.28,7.66-1.77c.33-.07.65.13.72.46.03.12.02.24-.03.35h0Zm-22.48-6.4l5.12,4.48c.17.15.24.38.19.6-.06.22-.23.39-.45.45l-5.73,1.39c-.32.08-.65-.12-.73-.44-.02-.07-.02-.14-.01-.21l.61-5.87c.02-.23.17-.42.38-.5.21-.08.45-.04.62.11h0Z"/><path class="c" d="m188.03,171.75c7.7,0,13.94-6.26,13.94-13.99s-6.24-13.99-13.94-13.99-13.94,6.26-13.94,13.99,6.24,13.99,13.94,13.99h0Z"/><path class="i" d="m193.71,157.55c.51-1.92-.39-3.82-2-4.24-1.61-.43-3.33.78-3.83,2.7-.51,1.92.39,3.82,2,4.24,1.61.43,3.33-.78,3.83-2.7Z"/><path class="c" d="m190.57,155.52c.16-.61-.12-1.22-.64-1.35-.51-.13-1.06.25-1.22.86-.16.61.12,1.22.64,1.35.51.14,1.06-.25,1.22-.86Z"/><path class="i" d="m182.96,154.64c.51-1.92-.39-3.82-2-4.24-1.61-.43-3.33.78-3.83,2.7-.51,1.92.39,3.82,2,4.24,1.61.43,3.33-.78,3.83-2.7Z"/><path class="c" d="m179.81,152.61c.16-.61-.12-1.22-.64-1.35-.51-.13-1.06.25-1.22.86-.16.61.12,1.22.64,1.35.51.14,1.06-.25,1.22-.86Zm22.78,8.87c-2.88.27-5.78.35-8.67.24-2.89-.06-5.78-.31-8.64-.75,2.88-.27,5.78-.35,8.67-.24,2.89.06,5.78.32,8.64.75h0Zm-.86,3.48c-2.83-.25-5.65-.68-8.42-1.3-2.79-.57-5.53-1.33-8.21-2.27,2.83.24,5.65.68,8.42,1.3,2.78.58,5.53,1.34,8.21,2.27h0Zm-.83,3.07c-2.77-.67-5.49-1.53-8.15-2.56-2.67-.99-5.28-2.16-7.8-3.49,2.77.67,5.49,1.53,8.15,2.56,2.67.99,5.28,2.16,7.8,3.49h0Zm-30.51-16.43c2.02,1.09,3.95,2.35,5.77,3.75,1.85,1.37,3.58,2.89,5.17,4.55-2.02-1.09-3.96-2.34-5.77-3.75-1.84-1.37-3.57-2.89-5.17-4.55h0Zm-.72,3.44c2.07.56,4.08,1.29,6.02,2.2,1.96.87,3.83,1.91,5.6,3.11-2.07-.55-4.08-1.29-6.02-2.2-1.96-.87-3.83-1.91-5.6-3.11Zm-.59,3.07c2.08.12,4.14.43,6.16.93,2.03.45,4.02,1.08,5.93,1.9-2.08-.12-4.14-.43-6.16-.93-2.03-.45-4.02-1.09-5.93-1.9h0Zm15.29,1.17c-.64-1.04-2.08-.81-1.7.92.38,1.72,2.17-.14,1.7-.92Z"/><path class="h" d="m140.62,252.28l-1.97-6.72s7.91,4.42-1.98-2.57c-3.35-2.37-7.86-5.73-6.87-10.36,2.95-13.77,13.93-33.43,16.34-35.44l-23.09,11.18-7.57,26.13c-.77,2.08-.14,4.41,1.56,5.83l15.39,12.74,8.18-.8Z"/><path class="g" d="m113.92,211.49c-1.02,8.22,15.5,6.29,18.6,18.43,3.1,12.13,3.08-15.59,3.08-15.59l-17.85-1.98"/><path class="g" d="m110.23,229.13l22.57-.13-11.42-14.85"/><path class="k" d="m140.62,252.28l-1.97-6.72s7.91,4.42-1.98-2.57c-3.35-2.37-7.86-5.73-6.87-10.36,2.95-13.77,13.93-33.43,16.34-35.44l-23.09,11.18-7.57,26.13c-.77,2.08-.14,4.41,1.56,5.83l15.39,12.74,8.18-.8Z"/><path class="i" d="m111.44,245.29l37.93,14.19c4.19-8.36-13.74-17.43-13.74-17.43,0,0-5.64,5.16-6.11,8.48l-17.3-7.21c-.53-.22-1.14.03-1.36.57-.03.07-.05.15-.07.23-.09.5.19.98.65,1.17h0Z"/><path class="f" d="m149.48,155.97h0s-.08-.05-.08-.05c-.25-.15-.51-.29-.78-.42l-41.97-24.65-21.7-3.87-2.11,32.76-3.54-.1c1.83,1.03,31.61,12.04,47.33,15.87l-15.27,45.37s24.86,16.67,29.25,12.23l15-57.82c3.15-7.07.51-15.38-6.15-19.34Z"/><path class="k" d="m111.51,215.06c9.53,7.71,32.05,16.63,33.84,14.22"/><path class="e" d="m85.83,140.09c.36.73,20.89,37.36,20.89,37.36h-17l-3.67-25.67"/><path class="k" d="m149.48,155.97h0s-.08-.05-.08-.05c-.25-.15-.51-.29-.78-.42l-41.97-24.65-21.7-3.87-2.11,32.76-3.54-.1c1.83,1.03,31.61,12.04,47.33,15.87l-15.27,45.37s24.86,16.67,29.25,12.23l15-57.82c3.15-7.07.51-15.38-6.15-19.34h0Z"/><path class="i" d="m44.17,111.29l-1.1-1.59,11.76-14.46,9.73,10.06s-20.4,5.99-20.4,5.99Z"/><path class="f" d="m91.88,155.86l-2.77,15.55-11.85.56c-9.91.42-18.65-6.45-20.58-16.18l-8.29-40.86c-.89-4.32,1.49-8.64,5.61-10.2l21.02-7.83,13.3,30.08"/><path class="k" d="m91.88,155.86l-2.77,15.55-11.85.56c-9.91.42-18.65-6.45-20.58-16.18l-8.29-40.86c-.89-4.32,1.49-8.64,5.61-10.2l21.02-7.83,13.3,30.08"/><path class="e" d="m105.75,130.73c-10.13,2.47-27.45,1.62-27.45,1.62l-9.16-16.48,23.38,1.76"/><path class="h" d="m72.48,119.72c10.6,8.35,23.97,12.39,37.42,11.3,0,0,9.04-44.57,7.64-45.8-3.8-3.35-39.66-6.14-52.39-1.43l7.33,35.94Z"/><path class="i" d="m93.2,96.89c4.48,0,8.11-4.44,8.11-9.92s-3.63-9.92-8.11-9.92-8.11,4.44-8.11,9.92,3.63,9.92,8.11,9.92Z"/><path class="h" d="m93.47,92c3.98,0,7.2-3.7,7.2-8.27s-3.23-8.27-7.2-8.27-7.2,3.7-7.2,8.27,3.23,8.27,7.2,8.27Z"/><path class="k" d="m93.47,92c3.98,0,7.2-3.7,7.2-8.27s-3.23-8.27-7.2-8.27-7.2,3.7-7.2,8.27,3.23,8.27,7.2,8.27Z"/><path class="k" d="m72.48,119.72c10.6,8.35,23.97,12.39,37.42,11.3,0,0,9.04-44.57,7.64-45.8-3.8-3.35-39.66-6.14-52.39-1.43l7.33,35.94Z"/><path class="h" d="m123.11,105.42l.26,34.76-15.54-8.33-2.09-19.91,4.33-1.92,13.03-4.6Z"/><path class="g" d="m102.86,118.99c15.17-1.38,20.32-3.62,20.32-3.62l-22.78-6.89"/><path class="k" d="m123.11,105.42l.26,34.76-15.54-8.33-2.09-19.91,4.33-1.92,13.03-4.6Z"/><path class="h" d="m65.15,83.78c-1.38-1.59-15.91,17.11-15.91,17.11,1.46,6.72,11.96,11.72,11.96,11.72l16.66-15.84"/><path class="k" d="m65.15,83.78c-1.38-1.59-15.91,17.11-15.91,17.11,1.46,6.72,11.96,11.72,11.96,11.72l16.66-15.84"/><path class="h" d="m103.8,104.3l1.82,10.01c5.22,2.98,18.94.88,18.94.88,0,0,1.88-31.17-9.99-31.11"/><path class="k" d="m103.8,104.3l1.82,10.01c5.22,2.98,18.94.88,18.94.88,0,0,1.88-31.17-9.99-31.11"/><path class="i" d="m95.72,182.07s2.51-6.44,4.91-6.1c1.11.16,2.3,3.84,2.3,3.84l3.79,10.67-6.02,8.64-8.25-2.26-.57-1.98-2.15-8.4,5.99-4.42Z"/><path class="h" d="m90.05,154.58l-9.56,14.8,10.85,22.84,2.03,7.53,4.54,1.8,7.28-7.96,1.06-4.24-2.2-4.31-14.01-30.46h0Z"/><path class="g" d="m71.39,170.94c7.98,21.56,23.08,7.96,26.06-4.2,2.98-12.16-13.75.68-13.75.68"/><path class="k" d="m90.05,154.58l-9.56,14.8,10.85,22.84,2.03,7.53,4.54,1.8,7.28-7.96,1.06-4.24-2.2-4.31-14.01-30.46h0Z"/><path class="i" d="m91.88,194.89c8.92,7.32,14.38-5.54,14.38-5.54,0,0,9.57,24.68,0,24.23-9.73-.46-14.38-18.68-14.38-18.68Z"/><path class="f" d="m71,182.41c9.62,4.76,24.07-11.54,26.24-13.73l-22.21-71.77-25.68,22.75,21.65,62.75h0Z"/><path class="h" d="m46.86,126.32c18.96-12.78,21.47-21.72,21.47-21.72l-17.4,4.85-6.23,13.58"/><path class="k" d="m46.86,126.32c18.96-12.78,21.47-21.72,21.47-21.72l-17.4,4.85-6.23,13.58"/><path class="e" d="m48.21,133.89l27.5-34.77-27.32,15.82"/><path class="k" d="m64.57,177.76c11.08,6.81,33.36-16.15,33.36-16.15m-42.11-39.41l17.48,57.49"/><path class="k" d="m71,182.41c9.62,4.76,24.07-11.54,26.24-13.73l-22.21-71.77-25.68,22.75,21.65,62.75h0Z"/><path class="h" d="m71.82,101.14c1.48,1.06,3.02,2.03,4.63,2.88,1.85.79-.38,8.54,2.31,6.2,0,0-.08,3.6,2.32,2.17,0,0,.67.83,1.6-.59.93-1.42,1.55-3.86,1.01-5.17l-.44-2.03s1.37,8.14,3.5,5.55c.25-.31-.84-6.64-1.05-7.07-.22-.44-5.95-6.18-5.95-6.18,0,0-7.92,4.24-7.92,4.24Z"/><path class="g" d="m66.99,107.98c10.95-2.38,11.23-8.95,13.92-11.12,2.7-2.18-13.93,1.86-13.93,1.86l-2.42,3.86"/><path class="k" d="m71.82,101.14c1.48,1.06,3.02,2.03,4.63,2.88,1.85.79-.38,8.54,2.31,6.2,0,0-.08,3.6,2.32,2.17,0,0,.67.83,1.6-.59.93-1.42,1.55-3.86,1.01-5.17l-.44-2.03s1.37,8.14,3.5,5.55c.25-.31-.84-6.64-1.05-7.07-.22-.44-5.95-6.18-5.95-6.18,0,0-7.92,4.24-7.92,4.24Z"/><path class="i" d="m72.66,102.74s7.4-3.54,8.25-5.88l-7.11-5.38c-.97-.74-2.3-.82-3.35-.19l-27.38,18.42c-1.87,1.28-2.98,3.4-2.97,5.67v.28c-.05,3.38,2.43,6.26,5.78,6.71,1.88.21,3.76-.43,5.13-1.75l20.01-19.17,1.64,1.29h0Z"/><path class="h" d="m87.41,83.04l.21-12.77,11.78-.44-.2,12.44"/><path class="g" d="m82.58,81.53c5.71,3.83,14.2-4.35,14.2-4.35l-7.62-2.24-2.84,1.56-.03.82"/><path class="k" d="m87.41,83.04l.21-12.77,11.78-.44-.2,12.44"/><path class="c" d="m102.23,68.1l-17.2,1.41v-7.47c0-1.3,1-2.37,2.29-2.49l12.59-1.03c1.15-.12,2.18.72,2.3,1.87,0,.08.01.16.01.25v7.47Z"/><path class="i" d="m93.2,77.57c-3.36.12-6.19-2.51-6.3-5.88,0-.24,0-.47.02-.71l.4-10.66,13.09-.56-.4,10.66c-.12,3.77-3.04,6.84-6.8,7.15Z"/><path class="c" d="m99.15,51.71c-2.16.3-3.95,1.85-4.55,3.95-4.96,2.4-10.19-1.85-9.6,6.39l.6,2.28c2.29-6.89,5.93,1.81,10.6-2.96.88-.87,2.05-1.41,3.29-1.52.18-.02.35-.04.53-.08,2.78-.52,4.84-2.75,4.6-4.97-.24-2.23-2.69-3.61-5.47-3.09Zm1.38,17.62l-.49-.69c-2.63,7.78-2.3,2.38-6.6,2.77-4.29-.02-4.36,5.37-6.42-2.21l-.55.73c-.64,3.36,1.11,6.72,4.22,8.14,1.6.74,3.46.66,4.99-.22,3.22-1.57,5.15-4.96,4.85-8.53Z"/><path class="h" d="m88.37,65.78c-5.39-4.42-5.82,5.57.12,4.5l-.12-4.5Z"/><path class="k" d="m88.37,65.78c-5.39-4.42-5.82,5.57.12,4.5"/><path class="h" d="m98.94,65.32c5.74-4.9,5.42,5.09-.46,4.52l.46-4.52Z"/><path class="k" d="m98.94,65.32c5.74-4.9,5.42,5.09-.46,4.52"/><path class="h" d="m92.42,65.46c-1.07-.26-2.19-.24-3.25.06l3.25-.06h0Z"/><path class="k" d="m92.42,65.46c-1.07-.26-2.19-.24-3.25.06"/><path class="c" d="m90.89,68.47c-.31,0-.57-.26-.56-.57,0,0,0-.02,0-.02l.04-.89c.02-.33.29-.58.62-.57.24,0,.45.15.53.37.03.07.04.15.03.22l-.04.89c-.02.33-.29.58-.62.57Z"/><path class="h" d="m94.66,65.51c1.08-.21,2.19-.14,3.23.21l-3.23-.21Z"/><path class="k" d="m94.66,65.51c1.08-.21,2.19-.14,3.23.21"/><path class="c" d="m95.88,68.59c.33,0,.6-.24.62-.57l.04-.89c0-.15-.05-.31-.15-.42-.11-.11-.25-.18-.41-.18-.33,0-.6.24-.62.57l-.04.89c-.01.24.13.45.34.55.07.03.15.05.22.05h0Z"/><path class="h" d="m93.43,67.5l-.06,1.21s-.98.9-.07,1.38"/><path class="k" d="m93.43,67.5l-.06,1.21s-.98.9-.07,1.38m37.34,97.76l-3.87,7.41m-41.72-108.51l.73,1.3m16-1.75l-.73,1.3"/><path class="l" d="m238.46,108.12l7.75,5.74m-16.89-5.14l7.75,5.74"/><polygon class="d" points="135.61 97.52 231.49 97.52 231.49 101.42 135.61 102.46 135.61 97.52"/><path class="d" d="m160.73,73.61h15.12l-.73,1.85s-2.72-.6-2.72,1.59,4.61,2.12,4.56,5.58-4.94,14.9-4.94,14.9h-8.05s-5.41-11.46-5.19-15.13c.23-3.71,4.34-3.73,4.53-5.46s-2.19-1.86-2.19-1.86l-.4-1.46Z"/><path class="d" d="m168.82,74.68s1.46-9.69,8.14-20.82l-.71-.52s-8.99,18.29-8.85,21.34h1.41Z"/><path class="d" d="m170.8,51.1c1.14,1.7-1.53,5.09-1.04,5.46.58.43,4.12-4.34,5.55-3.67,1.36.64-.03,5.75.85,6.02.96.3,2.97-5.7,4.99-5.46,1.42.17,1.43,3.24,3.11,3.58,1.71.34,4.49-2.29,3.86-4.05-.36-1-2.69-.03-4.24-1.6-.92-.93-.59-1.72-1.32-2.07-1.61-.78-3.96,2.77-5.65,2.07-1.17-.49-.54-2.41-1.88-3.39-2.13-1.56-6.93.95-6.78,1.88.09.54,1.82.14,2.54,1.22Z"/></svg>