<svg id="a" xmlns="http://www.w3.org/2000/svg" viewBox="0 0 300 300"><defs><style>.b,.c,.d,.e,.f,.g{stroke:#31333a;}.b,.c,.h{stroke-linecap:round;stroke-linejoin:round;}.b,.d,.i{fill:#fff;}.c,.h{fill:none;}.j{isolation:isolate;opacity:.3;}.j,.f{fill:#007fe6;}.j,.k,.l,.m,.i{stroke-width:0px;}.d,.e,.f,.g{stroke-miterlimit:10;}.e,.l{fill:#dcdddd;}.g{fill:#3a98e6;}.h{stroke:#3a98e6;stroke-width:2px;}.k{fill:#31333a;}.m{fill:#b5b5b6;}</style></defs><path class="j" d="m146.98,274.47c67,0,121.32-54.32,121.32-121.32S213.98,31.84,146.98,31.84,25.66,86.15,25.66,153.15s54.32,121.32,121.32,121.32Z"/><rect class="e" x="89.69" y="45.97" width="191.84" height="121.42" rx="12.26" ry="12.26"/><rect class="d" x="94.8" y="50.78" width="181.61" height="111.81" rx="9.12" ry="9.12"/><path class="i" d="m49.18,256.95l10.78,2.34,8.83-26.51-14.91,1.33s-4.7,22.84-4.7,22.84Z"/><path class="l" d="m67.16,255.68c-9.19-1.36-16.01-8.29-16.01-8.29l18.32-1.35"/><path class="c" d="m49.18,256.95l10.78,2.34,8.83-26.51-14.91,1.33s-4.7,22.84-4.7,22.84Z"/><path class="i" d="m57.14,270.76l3.67-12.11-13.18-4.4s2.56,8.81-10.57,9.96c-14.19,1.24-15.97,5.91-15.97,5.91l36.04.64h0Z"/><path class="c" d="m60.07,269.18l-41.59-.73"/><path class="b" d="m54.82,264.04c1.43-.68,2.08-2.29,1.46-3.6-.62-1.31-2.28-1.82-3.71-1.14-1.43.68-2.08,2.29-1.46,3.6.62,1.31,2.28,1.82,3.71,1.14Z"/><path class="i" d="m48.99,259.71l-6.83-4.39-1.27,5.02,7.31,2.99"/><path class="c" d="m48.99,259.71l-6.83-4.39-1.27,5.02,7.31,2.99"/><path class="c" d="m57.14,270.76l3.67-12.11-13.18-4.4s2.56,8.81-10.57,9.96c-14.19,1.24-15.97,5.91-15.97,5.91l36.04.64h0Z"/><path class="i" d="m57.73,230.3l-4.16,11.47-9.1,1,4.91-12.84,8.35.37Z"/><path class="l" d="m39.06,238.05c12.13,2.23,11.96-.09,15.82.13,3.86.22-5.73-4.42-5.73-4.42l-6.71,1.97"/><path class="c" d="m57.73,230.3l-4.16,11.47-9.1,1,4.91-12.84,8.35.37Z"/><path class="i" d="m106.95,231.19v12.03l7.55-1.64.38-10.76-7.93.37Z"/><path class="l" d="m103.49,235.91c5.94,2.06,10.25,0,12.3,1.11,2.05,1.12-.08-5.57-.08-5.57l-6.8,1.29"/><path class="c" d="m106.95,231.19v12.03l7.55-1.64.38-10.76-7.93.37Z"/><path class="i" d="m111.44,257.14l-11.65,2.42,1.1-27.48,14.41,1.38-3.85,23.67Z"/><path class="l" d="m93.94,255.82c9.7-1.41,19.11-8.6,19.11-8.6l-17.82-1.4"/><path class="c" d="m111.44,257.14l-11.65,2.42,1.1-27.48,14.41,1.38-3.85,23.67Z"/><path class="i" d="m98.31,271.45l.86-12.56,14.82-4.56s-5.85,9.13,6.84,10.32c13.72,1.29,13.08,6.13,13.08,6.13l-35.61.67Z"/><path class="c" d="m95.98,269.81l41.87-.76"/><path class="b" d="m106.69,263.9c1.38-1.13,1.81-2.88.97-3.91-.84-1.03-2.64-.96-4.02.17-1.38,1.13-1.81,2.88-.97,3.91.84,1.03,2.64.96,4.02-.17Z"/><path class="i" d="m110.6,260l8.48-4.55-.61,5.21-8.43,3.1"/><path class="c" d="m110.6,260l8.48-4.55-.61,5.21-8.43,3.1"/><path class="c" d="m98.31,271.45l.86-12.56,14.82-4.56s-5.85,9.13,6.84,10.32c13.72,1.29,13.08,6.13,13.08,6.13l-35.61.67Z"/><path class="m" d="m93.29,246.43c18.77,4.88,28.74-3.66,28.74-3.66l-2.79-139.03-25.95,1.93v140.75Z"/><path class="k" d="m104.36,136.16l-11.08,67.72-9.77-21.99,10.42-31.96"/><path class="c" d="m93.29,246.43c18.77,4.88,28.74-3.66,28.74-3.66l-2.79-139.03-25.95,1.93v140.75Z"/><path class="m" d="m119.42,100.62l-31.93,2.29-45.06,140.54c15.3,11.96,30.11,6.73,30.11,6.73l37.83-120.68"/><path class="c" d="m89.69,110.62l-41.65,130.31"/><path class="k" d="m72.39,117.44c11.29,1.56,37.9-10.1,37.9-10.1l-26.13-2.75"/><path class="c" d="m102.56,138.3l3.42.46m13.44-38.14l-31.93,2.29-45.06,140.54c15.3,11.96,30.11,6.73,30.11,6.73l37.83-120.68"/><path class="k" d="m96.93,79c-43.49-3.75-27.77-34.96-3.32-38.27,12.25-1.66,10.92-25.8,30.07-9.68,10.67,8.98-5.05,19.51-2.97,24.45,2.08,4.94,3.12,17.43-10.8,19.77-13.92,2.34-12.99,3.72-12.99,3.72h0Z"/><path class="i" d="m121.04,98.46l-2.2,2.86,1.55,28.05s-.63,5.77-.88,8-2.52,4.18-2.52,4.18c0,0,1.49,3.65,5.45-2.61,2.05,1.47,4.86,6.72,4.74,7.84-.13,1.12,2.25,1.41,2.05-2.35,0,0,1.81.07,1.02-2.61,0,0,1.53-.57.54-3-.99-2.44-1.42-5.43-2.19-7.29-.77-1.85-.53-27.33-.53-27.33l-7.02-5.75h0Z"/><path class="l" d="m119.86,124.59c3.82,4.03,8.34,7.35,13.34,9.78.94,2.93-.51-5.93-.51-5.93l-4.86-1.58"/><path class="c" d="m121.04,98.46l-2.2,2.86,1.55,28.05s-.63,5.77-.88,8-2.52,4.18-2.52,4.18c0,0,1.49,3.65,5.45-2.61,2.05,1.47,4.86,6.72,4.74,7.84-.13,1.12,2.25,1.41,2.05-2.35,0,0,1.81.07,1.02-2.61,0,0,1.53-.57.54-3-.99-2.44-1.42-5.43-2.19-7.29-.77-1.85-.53-27.33-.53-27.33l-7.02-5.75h0Z"/><path class="i" d="m115.94,123.98c12.86,6.96,13.85,3.42,13.85,3.42l-2.2-63.57c-2.9-14.23-25.19-6.7-25.17-2.03l13.52,62.17h0Z"/><path class="l" d="m112.57,121.51c4.21-2.31,7.24-6.29,8.35-10.96l-9.47,2.81"/><path class="c" d="m115.94,123.98c12.86,6.96,13.85,3.42,13.85,3.42l-2.2-63.57c-2.9-14.23-25.19-6.7-25.17-2.03l13.52,62.17h0Z"/><path class="i" d="m150.72,75.91c-.26-.44-3.74-1.53-3.74-1.53,6.33-4.7,7.46-6.32,5.65-6.89,0,0-5.2,2.99-10.34,6.14-5.14,3.15-11.84,10.24-14.31,13.76l4.26,6.18s4.5-3.1,5.75-4.21c.78-.7,3.69-4.99,5.48-6.73,3.12-.86,4.42-.53,5.43-1.02.28-.11,2.08-5.25,1.82-5.69Z"/><path class="c" d="m150.72,75.91c-.26-.44-3.74-1.53-3.74-1.53,6.33-4.7,7.46-6.32,5.65-6.89,0,0-5.2,2.99-10.34,6.14-5.14,3.15-11.84,10.24-14.31,13.76l4.26,6.18s4.5-3.1,5.75-4.21c.78-.7,3.69-4.99,5.48-6.73,3.12-.86,4.42-.53,5.43-1.02.28-.11,2.08-5.25,1.82-5.69Z"/><path class="i" d="m120.15,56.25c-2.76-1.98-5.93-3.3-9.27-3.88-14.61-2.87-27.24,7.15-27.24,7.15l8.57,26.53s-8.46,9.34-12.14,18.43c-1.85,4.58,38.94,16.82,44.72,7.43,2.44-3.96-2.91-31.42-2.91-31.42,0,0,3.95-2.55,4.56-9.42"/><path class="i" d="m99.86,48.21c3.42,10.59,23.9,16.46,18.42,7.75-4.62-7.33-18.86-11.4-18.86-11.4"/><path class="c" d="m99.86,48.21c3.42,10.59,23.9,16.46,18.42,7.75-4.62-7.33-18.86-11.4-18.86-11.4"/><path class="l" d="m62.03,107.14c12.9,7.69,40.96,5.6,44.75,4.91,3.8-.69-20.96-28.62-20.96-28.62"/><path class="l" d="m107.66,73.33l10.62,22.78-16.54,6.23"/><path class="c" d="m120.15,56.25c-2.76-1.98-5.93-3.3-9.27-3.88-14.61-2.87-27.24,7.15-27.24,7.15l8.57,26.53s-8.46,9.34-12.14,18.43c-1.85,4.58,38.94,16.82,44.72,7.43,2.44-3.96-2.91-31.42-2.91-31.42,0,0,3.95-2.55,4.56-9.42"/><path class="i" d="m108.09,69.58l4.54,22.03,25.38-15.06s2.65.58,2.69,10.66c0,2.15-27.21,22.62-27.21,22.62-5.72,4.18-14.27,2.25-17.13-3.88l-15.28-32.65c-3.03-6.47-.1-13.95,6.75-17.26l9.02-2.96"/><path class="c" d="m108.09,69.58l4.54,22.03,25.38-15.06s2.65.58,2.69,10.66c0,2.15-27.21,22.62-27.21,22.62-5.72,4.18-14.27,2.25-17.13-3.88l-15.28-32.65c-3.03-6.47-.1-13.95,6.75-17.26l9.02-2.96"/><path class="i" d="m113.5,54.31l3.57-10.39-7.5-1.78-6.17,10.12"/><path class="l" d="m110.88,46.01l3.66,9.4c0,1.35,5.31-8.41,5.31-8.41l-8.97-.99h0Z"/><path class="c" d="m113.5,54.31l3.57-10.39-7.5-1.78-6.17,10.12"/><path class="i" d="m110.9,47.29c2.63,2.29,7.35,5.51,9.69,1.78,5.54-8.78,1.95-15.56,1.95-15.56h-9.76l-2.74,8.7"/><path class="c" d="m110.9,47.29c2.63,2.29,7.35,5.51,9.69,1.78,5.54-8.78,1.95-15.56,1.95-15.56h-9.76l-2.74,8.7"/><path class="k" d="m107.57,40.41c4.68.78,12.88-3.77,14.96-6.89,0,0-9.89-2.86-11.32-1.56-1.43,1.3-3.64,8.45-3.64,8.45Z"/><path class="i" d="m109.5,43.65c-.88-.37-1.58-1.08-1.93-1.97-.64-1.18-.45-2.63.48-3.6.92-.97,2.37-1.24,3.58-.66.79.38,1.38,1.08,1.63,1.92.09.21.16.43.21.66"/><path class="c" d="m109.5,43.65c-.88-.37-1.58-1.08-1.93-1.97-.64-1.18-.45-2.63.48-3.6.92-.97,2.37-1.24,3.58-.66.79.38,1.38,1.08,1.63,1.92.09.21.16.43.21.66m-8.41,56.81l8.91-6.1"/><path class="i" d="m120.71,39.9c-.03.11.33,2.57.33,2.57,2.4.85-.36,1.79-.36,1.79"/><path class="c" d="m120.71,39.9c-.03.11.33,2.57.33,2.57,2.4.85-.36,1.79-.36,1.79"/><path class="k" d="m122.59,41.82c.35,0,.63-.28.64-.63v-.59c.01-.33-.26-.6-.59-.61,0,0-.02,0-.03,0-.35,0-.63.28-.64.63v.59c0,.08,0,.16.04.24.1.23.33.38.58.37h0Z"/><path class="i" d="m124.58,38.92c-1-.18-2.02-.19-3.02-.04l3.02.04Z"/><path class="c" d="m124.58,38.92c-1-.18-2.02-.19-3.02-.04"/><path class="k" d="m118.58,41.62c.35,0,.63-.28.64-.63v-.59c0-.08,0-.16-.04-.24-.1-.23-.33-.38-.58-.37-.35,0-.63.28-.64.63v.59c-.01.33.26.6.59.61,0,0,.02,0,.03,0Z"/><path class="i" d="m119.61,38.54c-.99-.28-2.03-.3-3.02-.04l3.02.04Z"/><path class="c" d="m119.61,38.54c-.99-.28-2.03-.3-3.02-.04"/><path class="m" d="m120.33,45.29l-3.84-1.86c-2.7,3.63,2.99,5.57,3.84,1.86Z"/><path class="c" d="m109.03,39.39l2.39,1.87m-2.35-.18l.84-.81m35.39,35.7l1.67-1.58"/><path class="i" d="m127.19,140.2c1.07,1.19,1.78,2.66,2.04,4.24l-2.04-4.24Z"/><path class="c" d="m127.19,140.2c1.07,1.19,1.78,2.66,2.04,4.24"/><path class="h" d="m143.62,197.5c2.98,0,5.39-2.41,5.39-5.39s-2.41-5.39-5.39-5.39-5.39,2.41-5.39,5.39,2.41,5.39,5.39,5.39Zm80.81,26.12l9.09-3.31m-13.64,11.28l9.09-3.31"/><rect class="f" x="143.62" y="161.35" width="97.2" height="6.04" rx="2.94" ry="2.94"/><rect class="g" x="243.14" y="67.49" width="12.99" height="19.75" rx="3.72" ry="3.72" transform="translate(-9.47 111.57) rotate(-24.74)"/><path class="k" d="m163.85,94.34c-2.49,2.66-2.44,6.82.12,9.41.43.44,1.11-.24.67-.67-2.19-2.21-2.26-5.78-.12-8.06.42-.45-.25-1.12-.67-.67h0Z"/><path class="k" d="m147.51,106.39c3.36,1.85,5.55-3.88,6.31-6.15.63-1.87.89-3.77,1.09-5.72.12-1.08.28-2.15.67-3.16.17-.46.4-.9.65-1.32.09-.14,1.07-1.69,1.32-1.01.21.57,1.13.32.92-.25-.2-.54-.65-.89-1.25-.83-.73.07-1.2.69-1.57,1.25-1.14,1.71-1.5,3.64-1.71,5.64-.23,2.2-.64,4.33-1.49,6.38-.6,1.45-2.26,5.55-4.45,4.34-.54-.3-1.02.53-.48.82h0Z"/><path class="k" d="m151.03,95.56c2.45.11,4.91.13,7.36.06.61-.02.61-.97,0-.95-2.45.07-4.91.05-7.36-.06-.61-.03-.61.92,0,.95h0Z"/><path class="k" d="m167.49,97.19c1.2,2.08,2.61,4.04,4.2,5.84.41.46,1.08-.22.67-.67-1.54-1.74-2.89-3.63-4.05-5.65-.31-.53-1.13-.05-.82.48h0Z"/><path class="k" d="m171.68,96.97c-1.36,1.45-2.73,2.89-4.09,4.34-.42.45.25,1.12.67.67,1.36-1.45,2.73-2.89,4.09-4.34.42-.45-.25-1.12-.67-.67h0Z"/><path class="k" d="m174.58,95.82c1.57,2.11,1.17,5.44-.98,7.02-.49.36-.01,1.19.48.82,2.54-1.86,3.23-5.76,1.33-8.32-.36-.49-1.19-.01-.82.48h0Z"/><path class="k" d="m181.89,98.33h8.07c.61,0,.61-.95,0-.95h-8.07c-.61,0-.61.95,0,.95h0Z"/><path class="k" d="m182.07,102.06c2.45.05,4.9.1,7.36.15.61.01.61-.94,0-.95-2.45-.05-4.9-.1-7.36-.15-.61-.01-.61.94,0,.95h0Z"/><path class="k" d="m201.43,97.2c-1.87-2.53-6.28-.9-7.24,1.7-.48,1.31.07,2.71,1.25,3.42s2.66.7,3.76-.08c1.33-.94,1.98-2.64,1.83-4.24-.04-.41-.68-.72-.89-.24-.95,2.18-.59,4.72.93,6.54.39.47,1.07-.21.67-.67-1.22-1.46-1.55-3.64-.78-5.39l-.89-.24c.1,1.08-.18,2.23-.94,3.04-.71.76-1.7,1.03-2.69.71-.93-.3-1.63-1.15-1.47-2.16.19-1.13,1.27-2,2.29-2.38s2.59-.52,3.33.48c.36.49,1.19.01.82-.48h0Z"/><path class="k" d="m205.6,98.72c1.32,1.5,2.63,2.99,3.95,4.49.17.19.5.17.67,0,.19-.19.17-.48,0-.67-1.32-1.5-2.63-2.99-3.95-4.49-.17-.19-.5-.17-.67,0-.19.19-.17.48,0,.67h0Z"/><path class="k" d="m209.22,97.68c-1.27,1.79-3.14,3.12-5.23,3.75-.59.18-.34,1.1.25.92,2.35-.71,4.39-2.19,5.8-4.18.15-.21.04-.53-.17-.65-.24-.14-.5-.04-.65.17h0Z"/><path class="k" d="m212.68,92.94c.21.52.63.76,1.15.91.2.05.42.08.6.18.09.05.17.09.23.17.05.06.03.02.06.09-.01-.02-.01-.03,0-.05-.05.11-.23.14-.37.18-.33.09-.67.17-1,.26-.64.16-1.28.33-1.92.49-.43.11-.48.85,0,.92,1.47.22,2.94.44,4.41.66.25.04.51-.06.59-.33.06-.22-.08-.55-.33-.59-1.47-.22-2.94-.44-4.41-.66v.92c.72-.19,1.44-.37,2.17-.56.61-.16,1.49-.24,1.75-.93.24-.64-.28-1.22-.84-1.46-.26-.11-.53-.15-.8-.24-.11-.03-.16-.05-.25-.1-.07-.04-.02,0-.07-.05-.02-.02-.05-.06-.05-.05-.09-.24-.32-.41-.59-.33-.23.06-.43.35-.33.59h0Z"/><path class="k" d="m219.22,100.85c1.5-.12,2.99-.24,4.49-.36.26-.02.48-.2.48-.48,0-.24-.22-.5-.48-.48-1.5.12-2.99.24-4.49.36-.26.02-.48.2-.48.48,0,.24.22.5.48.48h0Z"/><path class="k" d="m221.27,97.44c.39,1.66.5,3.37.34,5.08-.02.26.24.48.48.48.28,0,.45-.22.48-.48.16-1.78.03-3.59-.38-5.33-.14-.6-1.06-.34-.92.25h0Z"/><path class="k" d="m231.47,94.98c-.11,3.08-.72,6.12-1.79,9.02-.21.58.71.83.92.25,1.1-2.97,1.71-6.1,1.82-9.27.02-.61-.93-.61-.95,0h0Z"/><path class="k" d="m231.84,101.82s.03-.04.04-.07c-.05.08,0,.01.01-.01.04-.04.07-.07.11-.11.05-.05-.06.04,0,0,.03-.02.05-.04.08-.05.02-.01.04-.03.07-.04.01,0,.11-.05.05-.02-.07.03.05-.02.05-.02.02,0,.05-.02.07-.02.05-.01.1-.02.15-.03-.11.03.03,0,.07,0,.07,0,.13,0,.2,0,.03,0,.05,0,.08,0-.1,0-.03,0,0,0,.06.01.12.02.17.04.02,0,.16.05.11.04-.06-.02.02,0,.03.02.04.02.07.04.1.06.02.01.14.09.1.06-.06-.04.04.04.04.04.02.02.04.04.06.05.02.02.11.13.05.05.04.06.08.12.12.18.01.03.03.05.04.08,0-.02-.03-.08,0,0,.02.06.04.11.05.17,0,.03.01.06.02.09.03.13,0-.06,0,.02,0,.07.01.13,0,.2s0,.13-.01.2c0,.08.01-.07,0,0,0,.03-.01.06-.02.09-.01.07-.03.13-.05.19,0,.03-.02.06-.03.08-.03.09.03-.05-.02.05-.05.11-.11.21-.18.31-.02.02-.03.05-.05.07.05-.06,0,0,0,0-.05.05-.1.11-.16.16-.1.1-.12.11-.27.19s-.2.11-.36.15c-.33.1-.56.11-.92.08-.05,0-.09-.01-.18-.03-.09-.02-.17-.04-.25-.06-.18-.05-.27-.09-.42-.16-.23-.12-.52-.06-.65.17-.12.21-.06.54.17.65.72.36,1.54.5,2.34.32.73-.16,1.38-.64,1.73-1.3s.41-1.43.1-2.11c-.27-.6-.85-1.01-1.5-1.11-.76-.11-1.54.14-1.96.81-.14.22-.05.53.17.65.23.13.51.05.65-.17h0Z"/><path class="k" d="m236.63,101.42c1.2,1.2,2.39,2.39,3.59,3.59.43.43,1.11-.24.67-.67-1.2-1.2-2.39-2.39-3.59-3.59-.43-.43-1.11.24-.67.67h0Z"/><path class="k" d="m240.21,100.54l-3.59,3.22c-.19.17-.18.5,0,.67.19.19.48.17.67,0l3.59-3.22c.19-.17.18-.5,0-.67-.19-.19-.48-.17-.67,0h0Z"/></svg>