<svg id="a" xmlns="http://www.w3.org/2000/svg" viewBox="0 0 300 300"><defs><style>.b,.c,.d,.e,.f{stroke:#31333a;}.b,.c,.g{stroke-linecap:round;stroke-linejoin:round;}.b,.d,.h{fill:#fff;}.c,.g{fill:none;}.i{isolation:isolate;opacity:.1;}.i,.j,.k,.l,.m,.n,.h{stroke-width:0px;}.i,.l{fill:#ebeded;}.d,.e,.f{stroke-miterlimit:10;}.e,.m{fill:#dcdddd;}.f,.j{fill:#31333a;}.g{stroke:#6ea4cc;stroke-width:2px;}.k{fill:#6ea4cc;}.n{fill:#b5b5b6;}</style></defs><path class="i" d="m150,271.7c66.27,0,119.99-53.72,119.99-119.99S216.27,31.71,150,31.71,30.01,85.44,30.01,151.71s53.72,119.99,119.99,119.99Z"/><path class="h" d="m199.72,130.57l-6.64,11.8-22.23-22.48,13.07-12.04,15.8,22.73h0Z"/><path class="e" d="m140.43,140.32c-6.85-10.62-23.93-14.59-42.23-8.91-35.08,14.12-49.92,47-41.05,68.57,7.87,19.15,35.26,31.42,47.29,23.98,14.94-9.23,4.01-47.47,21.56-55.25,5.88-2.61,10.99-.04,15.11-4.6,5.2-5.76,3.63-17.11-.69-23.79Zm-17.86,20.5c-3.73,2.27-8.36,1.46-10.35-1.81s-.58-7.76,3.14-10.02,8.36-1.46,10.35,1.81c1.99,3.27.58,7.76-3.14,10.02Z"/><ellipse class="k" cx="91.16" cy="208.23" rx="6.14" ry="5.19" transform="translate(-95 77.79) rotate(-31.34)"/><ellipse class="k" cx="74.64" cy="197.87" rx="6.14" ry="5.19" transform="translate(-92.02 67.68) rotate(-31.34)"/><ellipse class="k" cx="71.93" cy="176.65" rx="6.14" ry="5.19" transform="translate(-81.38 63.18) rotate(-31.34)"/><ellipse class="k" cx="80.98" cy="160.03" rx="6.14" ry="5.19" transform="translate(-71.41 65.46) rotate(-31.34)"/><polygon class="d" points="116.15 172.81 73.45 188.94 72.02 184.67 115.54 170.98 116.15 172.81"/><rect class="f" x="66.34" y="185.84" width="6.24" height="4.16" transform="translate(-56.21 31.89) rotate(-18.56)"/><polygon class="d" points="116.58 166.28 70.8 199.87 68.2 196.19 115.22 164.35 116.58 166.28"/><rect class="f" x="63.48" y="198.01" width="6.24" height="4.16" transform="translate(-104.09 76.25) rotate(-35.63)"/><path class="k" d="m258.16,101.87c-1.96-.48-5.31.13-8.27,1.49-1.56.71-4.94,2.8-6.85,4.25-4.21,3.19-7.38,6.64-10.42,11.36-2.2,3.4-3.78,6.49-6.41,12.47-1.38,3.13-1.44,3.25-1.72,3.3-.15.03-1.68.27-3.41.52-12.36,1.84-19.42,3.87-25.88,7.46-3.75,2.09-7.22,5.04-9.91,8.43-.92,1.15-2.67,4.02-3.34,5.48-1.92,4.13-3,8.87-3.02,13.27-.02,3.1.69,7.2,1.77,10.14,2.04,5.55,5.35,10.31,9.35,13.38,1.17.9,4.79,2.99,6.09,3.52.51.2.94.4.94.42.01.02-1.3,3.07-2.92,6.77l-2.94,6.72-1.4,2.33c-1.49,2.47-1.92,3.04-3.37,4.38-3.36,3.15-7.57,4-11.84,2.4-1.14-.42-3.33-1.78-4.34-2.64-1.68-1.49-2.8-3.12-3.18-4.63l-.23-.95,1.09.55c3.26,1.65,5.85,1.72,8.19.24,1.15-.73,1.85-1.53,2.73-3.1,1.28-2.3,1.59-4.18,1.04-6.41-.34-1.42-.75-2.26-1.6-3.32-.51-.63-.69-.78-1.94-1.55-1.1-.67-1.52-.87-2.04-.99-2.89-.64-5.71.04-7.95,1.94-1.2,1.01-1.86,1.83-2.64,3.27-2.25,4.16-2.1,9.18.39,13.29.75,1.24,1.54,2.21,2.75,3.36,1.14,1.07,4.26,3.02,5.8,3.6,4.53,1.71,8.51,1.72,12.09.02,3.85-1.83,6.42-4.97,9.13-11.22,2.93-6.71,5.8-13.22,5.84-13.23.03,0,.48.09,1,.2,3.58.76,7.76.56,11.04-.54,5.34-1.8,9.55-5.55,12.34-10.99,1.65-3.22,2.41-5.71,2.68-8.77.26-2.94-.15-5.76-1.21-8.44-.54-1.36-1.94-3.66-2.91-4.78-1.45-1.7-3.57-3.41-5.27-4.29-.94-.49-.94-.49-.86-.75.05-.15.66-1.57,1.37-3.15.7-1.59,2.05-4.66,3.01-6.84l1.74-3.96.42-.07c1.36-.21,6.01-1.21,8.01-1.71,8.12-2.07,13.68-5.72,18.87-12.4,3.65-4.71,5.71-8.02,7.41-11.95,2.3-5.28,3.39-10.18,3.13-14.04-.18-2.67-.64-3.44-2.33-3.85Zm-4,12.86c.72,1.04.84,2.44.33,3.98-.31.92-1.45,2.84-2.3,3.86-2.05,2.47-5.82,5.43-8.97,7.06-2.9,1.49-7.82,3.17-11.33,3.86-2.53.5-4.04.76-4.06.7s.64-1.6,1.43-3.36c1.94-4.32,4.35-7.69,7.69-10.74,4.02-3.66,7.82-5.96,11.27-6.79,1.71-.41,2.59-.44,3.73-.12.7.19,1.77.94,2.2,1.55Zm-37.49,38.29l-2.72,6.16-.66-.17c-2.69-.68-6.56-.52-9.34.39-4.24,1.38-7.68,3.92-10,7.4-2.46,3.69-3.33,8.17-2.39,12.18.53,2.3,1.59,4.19,3.07,5.56.62.57.7.61,1.02.59.41,0,.67-.35.59-.74-.03-.14-.25-.56-.49-.93-1.71-2.73-1.96-5.92-.7-9.11,1.78-4.54,7.07-7.59,12.12-7,.85.1,2.81.6,2.83.74,0,.02-2.63,6.03-5.86,13.34-3.99,9.06-5.91,13.29-6.01,13.29-.08,0-.64-.2-1.24-.45-3.06-1.29-6.02-3.05-7.74-4.64-3.54-3.26-6.35-8.43-7.01-12.93-.81-5.45.06-10.06,2.7-14.38,1.43-2.34,2.87-4.01,4.98-5.81,3.93-3.35,8.25-5.39,15.13-7.14,4.26-1.09,14.59-3,14.49-2.67-.03.1-1.29,2.96-2.78,6.34Zm-2.64,17.57c1.45,1.32,2.82,3.26,3.52,5.05.5,1.28.97,3.63.96,4.88-.02,3.04-.77,5.35-2.67,8.24-2.47,3.79-5.45,6-9.1,6.77-1.67.35-4.45.35-5.57,0l-.28-.09.96-2.17c.53-1.2,1.88-4.29,3.01-6.88,6.03-13.73,7.34-16.69,7.46-16.89.13-.21.16-.2.58.12.24.19.75.62,1.13.96Z"/><path class="m" d="m184.24,145.4c6.2-9.47,5.75-22.03,5.75-22.03l-15.83,15.07"/><path class="c" d="m199.72,130.57l-6.64,11.8-22.23-22.48,13.07-12.04,15.8,22.73h0Z"/><path class="h" d="m201.43,151.71l-9.58-9.19,6.8-15.86s5.46,10.52,16.95-.11c12.43-11.49,14.43-4.92,14.43-4.92l-28.6,30.07h0Z"/><path class="c" d="m198.47,152.54l35.65-38.6"/><path class="b" d="m200.13,142.42c1.83,0,3.31-1.53,3.31-3.42s-1.48-3.42-3.31-3.42-3.31,1.53-3.31,3.42,1.48,3.42,3.31,3.42Z"/><path class="h" d="m202.23,132.97l1.73-10.2,5.3,3.57-3.31,9.32"/><path class="c" d="m202.23,132.97l1.73-10.2,5.3,3.57-3.31,9.32"/><path class="c" d="m201.43,151.71l-9.58-9.19,6.8-15.86s5.46,10.52,16.95-.11c12.43-11.49,14.43-4.92,14.43-4.92l-28.6,30.07h0Z"/><path class="h" d="m134.49,50.09c-2.81-5.04-4.51-14.9-4.9-15.49-.85-1.28-10.62-6.36-11.63-6.3-1.01.06-1.37,1.34,4.39,5.7,0,0-2.59,1.91-2.22,2.96.2.57,7.4,15.74,7.4,15.74l6.97-2.62Z"/><path class="m" d="m115.78,49.52c8.8-10.03,15.37-8.76,15.37-8.76l.6,7.3-17.75,2.68"/><path class="c" d="m134.49,50.09c-2.81-5.04-4.51-14.9-4.9-15.49-.85-1.28-10.62-6.36-11.63-6.3-1.01.06-1.37,1.34,4.39,5.7,0,0-2.59,1.91-2.22,2.96.2.57,7.4,15.74,7.4,15.74l6.97-2.62Z"/><path class="j" d="m83.21,41.64l-.63-3.61s-9.89-5.99-12.53,7.32c-2.64,13.31,5.39,13-1.02,18.88-6.41,5.88-13.73,13.93-6.56,18.57,7.17,4.64,36.76-2.94,36.76-2.94l-5.34-19.93-10.68-18.3Z"/><path class="b" d="m76.1,40.29l-4.62,11.26c-.77,1.82-.74,3.88.08,5.68.82,1.8,2.35,3.17,4.22,3.79l3.98,1.23c.79.23,1.61-.21,1.85-1h0s5.91-18.73,5.91-18.73c.27-.81-.17-1.68-.98-1.95-.08-.03-.16-.05-.25-.06l-8.63-1.14c-.67-.08-1.31.3-1.56.93h0Z"/><path class="j" d="m80.97,38.46c-10.55,13.54,12.47,13.64,5.11,29.75-7.35,16.11-5.38,23.75,15.45,14.49,14.6-6.48-7.57-50.25-20.57-44.25Z"/><path class="j" d="m73.07,46.81c1.73-4.32,4.79-5.86,7.64-5.48,2.85.38,2.11-2.11,2.11-2.11l-5.06-1.04c-2.9,1.92-4.66,5.15-4.68,8.63Z"/><path class="h" d="m74.83,60.66l-1.78,14.25,11.92-1.19-.8-17.97"/><path class="m" d="m72.03,68.68l8.58-6.55-5.76-1.62c-1.17,2.64-2.12,5.37-2.82,8.17Z"/><path class="c" d="m74.83,60.66l-1.78,14.25,11.92-1.19-.8-17.97"/><path class="h" d="m80.33,53.83c.37-.52.83-.97,1.36-1.33,1.85-1.24,4.06-1.12,4.94.28.88,1.4.1,3.54-1.74,4.79-.38.26-.79.46-1.23.61"/><path class="c" d="m80.33,53.83c.37-.52.83-.97,1.36-1.33,1.85-1.24,4.06-1.12,4.94.28.88,1.4.1,3.54-1.74,4.79-.38.26-.79.46-1.23.61"/><path class="h" d="m74.95,48.14c0,.12-.8,2.63-.8,2.63-2.59.44.04,1.95.04,1.95"/><path class="c" d="m74.95,48.14c0,.12-.8,2.63-.8,2.63-2.59.44.04,1.95.04,1.95"/><path class="j" d="m72.69,49.8c-.36-.08-.59-.42-.53-.78l.1-.62c.04-.26.23-.47.49-.52.08-.02.17-.02.25,0,.36.08.59.42.53.78l-.1.62c-.03.17-.12.32-.26.42-.14.1-.32.13-.48.1Z"/><path class="c" d="m71.2,46.38l3.08.52"/><path class="j" d="m76.8,50.35c-.36-.08-.59-.42-.53-.78l.1-.62c.04-.26.23-.47.49-.52.08-.02.17-.02.25,0,.36.08.59.42.53.78l-.1.62c-.03.17-.12.32-.26.42-.14.1-.32.13-.48.1h0Z"/><path class="c" d="m76.32,46.91l3.08.52"/><path class="n" d="m73.78,54.03l2.81-.82c1.38,2.87-2.69,3.51-2.81.82h0Z"/><path class="c" d="m83.67,55.08l1.72-1.73m-.67,2.4l-.09-1.54"/><path class="m" d="m106.6,66.12c.66-.45,22.86,2.8,22.86,2.8l-7.11-22.79c4.35-5.34,9.59-5.63,9.59-5.63l18.82,36.59c9.27,16.04-13.71,14.03-20.16,15.58l-35.16-1.32,11.17-25.22Z"/><path class="b" d="m116.44,59.98c3.34-2.65,3.18-8.4-.35-12.86-3.53-4.46-9.1-5.93-12.44-3.28-3.34,2.65-3.18,8.4.35,12.86,3.53,4.46,9.1,5.93,12.44,3.28Zm33.37,51.8c3.34-2.65,3.18-8.4-.35-12.86-3.53-4.46-9.1-5.93-12.44-3.28-3.34,2.65-3.18,8.4.35,12.86,3.53,4.46,9.1,5.93,12.44,3.28Zm-38.43,12.68c3.34-2.65,3.18-8.4-.35-12.86-3.53-4.46-9.1-5.93-12.44-3.28-3.34,2.65-3.18,8.4.35,12.86,3.53,4.46,9.1,5.93,12.44,3.28Zm26.35,1.48c3.34-2.65,3.18-8.4-.35-12.86-3.53-4.46-9.1-5.93-12.44-3.28-3.34,2.65-3.18,8.4.35,12.86,3.53,4.46,9.1,5.93,12.44,3.28Z"/><path class="c" d="m106.6,66.12c.66-.45,22.86,2.8,22.86,2.8l-7.11-22.79c4.35-5.34,9.59-5.63,9.59-5.63l18.82,36.59c9.27,16.04-13.71,14.03-20.16,15.58l-35.16-1.32,11.17-25.22Z"/><path class="b" d="m173.32,153.3c4.16,5.39,25.21-31.36,25.21-31.36l-44.83-42.8c-1.51-1.32-3.48-1.98-5.48-1.84-2,.14-3.86,1.07-5.17,2.58l-55.23,44.4,34.02,5.46,5.81-.75,22.19-22.03s20.7,42.71,23.49,46.32Z"/><path class="h" d="m165.19,225.94l-12.77,3.49-.33-32.14,17.49,1.03-4.39,27.61h0Z"/><path class="m" d="m144.09,225.13c10.86-2.16,19.14-11.38,19.14-11.38l-21.51-.91"/><path class="c" d="m165.19,225.94l-12.77,3.49-.33-32.14,17.49,1.03-4.39,27.61h0Z"/><path class="h" d="m151.92,242.14l-.49-13.49,15.66-6.25s-3.34,11.43,12.06,12.31c16.65.96,13.57,7.06,13.57,7.06l-40.81.37h0Z"/><path class="c" d="m149.26,240.57l51.63-1.25"/><path class="b" d="m159.7,235.63c1.83,0,3.31-1.53,3.31-3.42s-1.48-3.42-3.31-3.42-3.31,1.53-3.31,3.42,1.48,3.42,3.31,3.42Z"/><path class="h" d="m165.31,229.48l8.2-5.95,1.3,6.39-8.72,4.17"/><path class="c" d="m165.31,229.48l8.2-5.95,1.3,6.39-8.72,4.17"/><path class="c" d="m151.92,242.14l-.49-13.49,15.66-6.25s-3.34,11.43,12.06,12.31c16.65.96,13.57,7.06,13.57,7.06l-40.81.37h0Z"/><path class="h" d="m132.94,208.7c7.82,8.51,40.38,4.54,40.38,4.54l10.23-82.56c.75-6.59-5.28-12.36-13.19-12.61l-75.96.02-17.27,1.58,3.06-6.65c-9.35,19.66-.27,34.48,16.35,35.12l56.7.13s-22.23,58.33-20.3,60.43h0Z"/><path class="m" d="m48.01,140.32s82.72-20.98,77.92-20.98c-4.8,0-32.57-6.32-32.57-6.32"/><path class="h" d="m130.72,198.53c21.14,15.52,58.42,4.23,58.42,4.23l-58.42-4.23Z"/><path class="c" d="m130.72,198.53c21.14,15.52,58.42,4.23,58.42,4.23"/><path class="c" d="m90.79,126.3c.3,13.29,51.8,11.18,70.22,10.01,1.48-.06,2.89.61,3.77,1.8.88,1.18,1.13,2.73.65,4.13l-19.64,61.53"/><path class="h" d="m106.97,123.79c2.56,3.41,2.95,7.98,1.02,11.78"/><path class="c" d="m106.97,123.79c2.56,3.41,2.95,7.98,1.02,11.78"/><path class="c" d="m132.94,208.7c7.82,8.51,40.38,4.54,40.38,4.54l10.23-82.56c.75-6.59-5.28-12.36-13.19-12.61l-75.96.02-17.27,1.58,3.06-6.65c-9.35,19.66-.27,34.48,16.35,35.12l56.7.13s-22.23,58.33-20.3,60.43h0Z"/><path class="m" d="m105.14,76.48c2.27,3.55,4.89,8.25-.68,12.34,0,0,4.31,17.17,8.56,20.61,4.25,3.43-36.58,8.03-36.58,8.03l-11.16-46.6s30.27-7.55,45.6-4.25"/><path class="b" d="m92.3,76.81c1.91-3.09-1.45-8.61-7.48-12.34-6.04-3.73-12.48-4.25-14.39-1.17-1.91,3.08,1.45,8.61,7.49,12.34,6.04,3.73,12.48,4.26,14.39,1.17Zm-24.81,17.38c3.34-2.64,3.18-8.4-.35-12.86-3.53-4.46-9.1-5.93-12.44-3.28-3.34,2.64-3.18,8.4.35,12.86,3.53,4.46,9.1,5.93,12.44,3.28Zm5.15,42.7c3.34-2.65,3.18-8.4-.35-12.86-3.53-4.46-9.1-5.93-12.44-3.28-3.34,2.65-3.18,8.41.35,12.86,3.53,4.46,9.1,5.93,12.44,3.28Zm26.35,1.48c3.34-2.64,3.18-8.4-.35-12.86-3.53-4.46-9.1-5.93-12.44-3.28-3.34,2.64-3.18,8.4.35,12.86,3.53,4.46,9.1,5.93,12.44,3.28Z"/><path class="b" d="m89.04,74.49c1.78-2.65-.88-7.56-5.95-10.99-5.07-3.42-10.63-4.05-12.42-1.4-1.78,2.65.88,7.56,5.95,10.99,5.07,3.42,10.63,4.05,12.42,1.4Z"/><path class="c" d="m105.14,76.48c2.27,3.55,4.89,8.25-.68,12.34,0,0,4.31,17.17,8.56,20.61,4.25,3.43-36.58,8.03-36.58,8.03l-11.16-46.6s30.27-7.55,45.6-4.25"/><path class="h" d="m103.68,111.12c5.6.61,15.01-1.8,15.69-1.67,1.48.28,9.94,7.43,10.3,8.41.36.98-.63,1.84-6.83-1.82,0,0-.63,3.22-1.72,3.3-.59.04-16.93-.57-16.93-.57l-.52-7.65h0Z"/><path class="c" d="m103.68,111.12c5.6.61,15.01-1.8,15.69-1.67,1.48.28,9.94,7.43,10.3,8.41.36.98-.63,1.84-6.83-1.82,0,0-.63,3.22-1.72,3.3-.59.04-16.93-.57-16.93-.57l-.52-7.65h0Z"/><path class="b" d="m115.99,119.01h48.19v2.92h-51.07v-.05c0-1.59,1.28-2.87,2.87-2.88,0,0,0,0,0,0Z"/><path class="m" d="m163.94,119.01h-33.23l9.99-28.27c.49-1.43,1.82-2.39,3.33-2.4h27.22c1.4.03,2.51,1.19,2.48,2.59,0,.28-.06.56-.16.83l-9.63,27.26h0Zm-87.13-29.26l-1.47,18.24,34.55,2.64s2.38,8.83.89,10.49-50.16,4.8-52.05,2.45c-4.25-5.28-3.73-41.9-3.73-41.9.67-5.47,4.84-9.86,10.27-10.82l2.87-.59"/><path class="b" d="m105.91,81.51c3.34-2.65,3.18-8.4-.35-12.86-3.53-4.46-9.1-5.93-12.44-3.28-3.34,2.65-3.18,8.4.35,12.86,3.53,4.46,9.1,5.93,12.44,3.28Zm-12.08,14.16c3.34-2.65,3.18-8.41-.35-12.86-3.53-4.46-9.1-5.93-12.44-3.28-3.34,2.65-3.18,8.4.35,12.86,3.53,4.46,9.1,5.93,12.44,3.28Z"/><path class="c" d="m76.82,89.75l-1.47,18.24,34.55,2.64s2.38,8.83.89,10.49-50.16,4.8-52.05,2.45c-4.25-5.28-3.73-41.9-3.73-41.9.67-5.47,4.84-9.86,10.27-10.82l2.87-.59"/><path class="b" d="m154.94,105.65c1.69-1.11,2.4-3.02,1.58-4.27-.82-1.24-2.85-1.35-4.54-.24-1.69,1.11-2.4,3.02-1.58,4.27.82,1.24,2.85,1.35,4.54.24Z"/><path class="c" d="m132.07,76.48l-2.61-7.55m-5.69-34.01l-1.43-.91m-2.18,80.39l2.68,1.65"/><path class="l" d="m185.29,52.13l3.15,6.59,7.04,1.06-5.1,5.13,1.2,7.25-6.3-3.42-6.3,3.42,1.2-7.25-5.1-5.13,7.04-1.06,3.15-6.59Z"/><path class="h" d="m75.34,67.7l-1.08.32-.36,1.89,10.02-1.47.51-.07-.09-1.86-1.95-.74"/><path class="g" d="m128.23,249.97c2.94,0,5.33-2.39,5.33-5.33s-2.39-5.33-5.33-5.33-5.33,2.39-5.33,5.33,2.39,5.33,5.33,5.33Zm87.59-169.98l8.99-3.28m-13.49,11.16l8.99-3.28"/></svg>