<svg id="a" xmlns="http://www.w3.org/2000/svg" viewBox="0 0 300 300"><defs><style>.b,.c,.d,.e{stroke-linecap:round;stroke-linejoin:round;}.b,.d{stroke:#31333a;}.b,.f{fill:#fff;}.c{stroke:#fff;}.c,.d,.e{fill:none;}.g{isolation:isolate;opacity:.3;}.g,.h,.i,.j,.k,.f{stroke-width:0px;}.g,.j{fill:#007fe6;}.e{stroke:#3a98e6;stroke-width:2px;}.h{fill:#31333a;}.i{fill:#3a98e6;}.k{fill:#dcdddd;}</style></defs><path class="e" d="m268.75,131.04l9.61-3.5m-14.41,11.92l9.61-3.5"/><path class="g" d="m151.68,269.67c67,0,121.32-54.32,121.32-121.32S218.68,27.03,151.68,27.03,30.36,81.35,30.36,148.35s54.32,121.32,121.32,121.32Z"/><path class="j" d="m271.15,73.99l-51.57-11.37,30.97,19.08,20.61-7.71Z"/><path class="i" d="m251.77,94.27l-1.23-12.57-30.97-19.08,32.2,31.65h0Z"/><path class="j" d="m236.22,83.97l10.38-.14,5.18,10.44-9.05-8.9"/><path class="j" d="m246.6,83.83l-16.58,6.56-10.44-27.78,27.02,21.22h0Z"/><path class="f" d="m32.06,63.32c-7.81,0-14.14,6.33-14.14,14.14v74.41h28.28v-74.41c0-7.81-6.33-14.14-14.14-14.14h0Z"/><path class="d" d="m32.06,63.32c-7.81,0-14.14,6.33-14.14,14.14v74.41h28.28v-74.41c0-7.81-6.33-14.14-14.14-14.14h0Z"/><path class="b" d="m60.34,259.98c-.85,0,.81.14,0,0h0ZM175.44,63.32H32.05c7.81,0,14.14,6.33,14.14,14.14v182.52h8.08v-51.18h5.7v51.18h5.54v-51.18h5.7v51.18h5.54v-51.18h5.7v51.18h5.54v-51.18h5.7v51.18h5.54v-51.18h5.7v51.18h5.54v-51.18h5.7v51.18h5.54v-51.18h5.7v51.18h5.54v-51.18h5.7v51.18h5.54v-51.18h5.7v51.18h5.54v-51.18h5.7v51.18h5.54v-51.18h5.7v51.18h5.54v-51.18h5.7v51.18h5.98V77.46c0-5.72-3.45-10.87-8.73-13.06-1.72-.71-3.55-1.08-5.41-1.08h0Z"/><path class="k" d="m175.85,117.4H61.03c-1.7,0-3.07,1.38-3.07,3.07h0v18.43c0,1.7,1.38,3.07,3.07,3.07h114.82c1.7,0,3.07-1.38,3.07-3.07h0v-18.43c0-1.7-1.38-3.07-3.07-3.07h0Zm0,32.05H61.03c-1.7,0-3.07,1.38-3.07,3.07h0v18.43c0,1.7,1.38,3.07,3.07,3.07h114.82c1.7,0,3.07-1.38,3.07-3.07h0v-18.43c0-1.7-1.38-3.07-3.07-3.07h0Z"/><path class="h" d="m109.69,97.55c.97,0,1.75.78,1.76,1.75,0,.23-.05.46-.13.68-.18.43-.52.77-.95.95-.21.09-.44.13-.67.13h-49.99c-.47,0-.91-.18-1.24-.51-.68-.68-.69-1.79,0-2.48,0,0,0,0,0,0,.33-.33.77-.51,1.24-.51m116.7-6.44c-5.67-1.83-4.66-14.95,6.44-13.41,11.1,1.54,9.15,22.38,26.49,21.18,18.02-1.25,16.81,42.81-7.15,36.79-17.54-4.41-25.79-44.56-25.79-44.56h0Z"/><path class="i" d="m174.27,89.45s5.64-3.8,10.5-.83l-.59,2.44-8.4.5-1.51-2.11Z"/><path class="j" d="m120.58,216.7c-1.81-6.76-33.99-95.65,60.68-95.38,94.67.27,59.2,102.43,59.2,102.43l-119.89-7.05h0Z"/><path class="b" d="m179.53,138.93c12.19,0,22.08-7.39,22.08-16.51s-9.88-16.52-22.08-16.52-22.08,7.39-22.08,16.52,9.88,16.51,22.08,16.51Z"/><path class="f" d="m179.53,134.73c9.09,0,16.46-5.51,16.46-12.31s-7.37-12.31-16.46-12.31-16.46,5.51-16.46,12.31,7.37,12.31,16.46,12.31Z"/><path class="k" d="m181.21,125.39l-18.95,3.25-.82-7.33,12.77-3.94,4.16.23"/><path class="d" d="m179.53,134.73c9.09,0,16.46-5.51,16.46-12.31s-7.37-12.31-16.46-12.31-16.46,5.51-16.46,12.31,7.37,12.31,16.46,12.31Zm-37.87,18.18l.55,36.03m78.4-36.03l.55,36.03"/><path class="d" d="m120.58,216.7c-1.81-6.76-33.99-95.65,60.68-95.38,94.67.27,59.2,102.43,59.2,102.43l-119.89-7.05h0Z"/><path class="f" d="m229.1,235.87h-96.72l-5.89-64.68c-.53-5.86,3.11-10.69,8.16-10.69h92.19c5.04,0,8.69,4.84,8.16,10.69l-5.89,64.68Z"/><path class="k" d="m126.43,188.46l54.6,39.57-60.93-15.79"/><path class="d" d="m229.1,235.87h-96.72l-5.89-64.68c-.53-5.86,3.11-10.69,8.16-10.69h92.19c5.04,0,8.69,4.84,8.16,10.69l-5.89,64.68Z"/><path class="i" d="m187.7,194.25c-.28,2.81-3.12,4.89-6.35,4.83-3.23-.06-5.99-2.24-6.16-5.05-.19-3.04,2.65-5.63,6.37-5.56,3.71.07,6.46,2.76,6.15,5.79Z"/><path class="b" d="m247.09,242.39l6.48-.91s11.49,14.31-18.57,20.44l12.08-19.53Z"/><path class="h" d="m251.28,240.41c-2.51-.4-7.3-.24-12.89.2-14.33,1.14-33.94,4.12-33.94,4.12,0,0-12.21,14.11-10.02,15.85,2.19,1.74,18.4,3.41,37.36,1.79,1.08-.09,2.16-.25,3.22-.46,16.77-3.32,24.68-20.15,16.27-21.51h0Z"/><path class="c" d="m238.73,234.44c3.88,13.45-5.37,32.04-5.37,32.04"/><path class="b" d="m191.7,234.48c9.92,6.48,16.39,10.97,16.39,10.97,3.67,4.83,2.21,9.1.21,11.93-1.62,2.28-4.32,3.54-7.11,3.34-4.09-.29-8.18-.67-12.25-1.16,1.47-6.9,3.38-17.72,2.75-25.08h0Z"/><path class="f" d="m105.92,188.78c23.21,11.55,68.69,34.54,85.77,45.69.63,7.36-1.27,18.18-2.75,25.08-34.31-4.13-79.15-19.44-102.84-36.15-4.53-3.26-7.53-8.23-8.29-13.75-.77-5.52.76-11.12,4.24-15.49,5.68-7.22,15.64-9.47,23.87-5.38Z"/><path class="d" d="m71.94,210.59l102.57,51.33m-68.59-73.13c23.21,11.55,68.69,34.54,85.77,45.69.63,7.36-1.27,18.18-2.75,25.08-34.31-4.13-79.15-19.44-102.84-36.15-4.53-3.26-7.53-8.23-8.29-13.75-.77-5.52.76-11.12,4.24-15.49,5.68-7.22,15.64-9.47,23.87-5.38h0Z"/><path class="b" d="m181.73,125.21c6.42,0,11.62-7.45,11.62-16.64s-5.2-16.64-11.62-16.64-11.62,7.45-11.62,16.64,5.2,16.64,11.62,16.64Z"/><path class="f" d="m170.96,106.68c-6.71-3.2-8.17,1.91-5.09,6.1,2.08,2.82,4.36,2.78,5.63,2.45"/><path class="d" d="m170.96,106.68c-6.71-3.2-8.17,1.91-5.09,6.1,2.08,2.82,4.36,2.78,5.63,2.45"/><path class="f" d="m191.3,106.68c6.71-3.2,8.17,1.91,5.09,6.1-1.84,2.5-3.83,2.75-5.15,2.55"/><path class="d" d="m191.3,106.68c6.71-3.2,8.17,1.91,5.09,6.1-1.84,2.5-3.83,2.75-5.15,2.55"/><path class="h" d="m178.32,98.8c-1.73,13.38-9.48,11.32-9.48,11.32,0,0-4.51-19.78,12.14-19.55,16.65.23,12.37,18.01,12.37,18.01,0,0-13.18.29-15.03-9.78h0Z"/><path class="f" d="m179.84,110.59c-1.6-.33-3.27-.22-4.81.32l4.81-.32Z"/><path class="d" d="m179.84,110.59c-1.6-.33-3.27-.22-4.81.32"/><path class="h" d="m177.91,115.32c-.36,0-.69-.21-.83-.54-.05-.11-.07-.22-.07-.34l-.03-1.37c-.02-.49.37-.9.86-.92.36,0,.69.21.83.54.05.11.07.22.07.34l.03,1.37c.02.49-.37.9-.86.92Z"/><path class="f" d="m183.19,110.51c1.59-.4,3.25-.37,4.82.09l-4.82-.09Z"/><path class="d" d="m183.19,110.51c1.59-.4,3.25-.37,4.82.09"/><path class="h" d="m185.33,115.15c.24,0,.46-.11.62-.28.16-.17.25-.4.24-.64l-.03-1.37c0-.24-.1-.46-.27-.62-.17-.16-.4-.26-.63-.25-.49.02-.87.42-.86.91,0,0,0,0,0,0l.03,1.37c0,.24.1.46.27.62.17.16.4.25.63.25Z"/><path class="f" d="m181.58,113.65l.04,1.86s-1.36,1.45.05,2.13"/><path class="d" d="m181.58,113.65l.04,1.86s-1.36,1.45.05,2.13"/><path class="f" d="m185.1,117.96c-1.18.06-2.21.82-2.6,1.93"/><path class="d" d="m185.1,117.96c-1.18.06-2.21.82-2.6,1.93"/><path class="b" d="m111.67,242.39l-6.48-.91s-11.49,14.31,18.57,20.44l-12.08-19.53h0Z"/><path class="h" d="m154.31,244.73s-19.6-2.98-33.94-4.12c-5.6-.45-10.39-.61-12.89-.2-8.41,1.36-.5,18.19,16.27,21.51,1.07.21,2.14.36,3.22.46,18.95,1.62,35.31.14,37.35-1.79,5.37-5.06-10.02-15.85-10.02-15.85h0Z"/><path class="c" d="m123.68,238.83c-9.49,5.33,2,30.56,2,30.56"/><path class="f" d="m171.24,233.81c-6.64,4.26-13.51,8.15-20.57,11.65-3.66,4.83-2.21,9.1-.21,11.93,1.62,2.28,4.32,3.54,7.11,3.34,4.08-.28,17.49-5.83,21.57-6.32-1.47-6.9-8.52-13.24-7.88-20.59h0Z"/><path class="k" d="m167.37,235.65c-.93,2.3-2.62,26.95-2.62,26.95l12.62-5.26"/><path class="d" d="m171.24,233.81c-6.64,4.26-13.51,8.15-20.57,11.65-3.66,4.83-2.21,9.1-.21,11.93,1.62,2.28,4.32,3.54,7.11,3.34,4.08-.28,17.49-5.83,21.57-6.32-1.47-6.9-8.52-13.24-7.88-20.59h0Z"/><path class="f" d="m255.32,196.78c-23.91,8.18-67.27,23.99-88.26,37.7-2.46,5.7,8.41,35,9.78,36,0,0,70.51-22.4,95.05-39.34,7.49-5.25,10.35-14.99,6.88-23.46-3.67-9.29-13.98-14.08-23.45-10.9Z"/><path class="f" d="m173.16,229.25c-3.72,7.33,14.04,43.72,14.04,43.72l-14.04-43.72Z"/><path class="d" d="m173.16,229.25c-3.72,7.33,14.04,43.72,14.04,43.72m94.88-49.81l-101.98,42.53"/><path class="d" d="m255.32,196.78c-23.91,8.18-67.27,23.99-88.26,37.7-2.46,5.7,8.41,35,9.78,36,0,0,70.51-22.4,95.05-39.34,7.49-5.25,10.35-14.99,6.88-23.46h0c-3.67-9.29-13.98-14.08-23.45-10.9h0Zm-90.2-88.02l1.03,1.78m29.6-1.78l-1.03,1.78"/><path class="e" d="m90.29,141.93c2.97,0,5.39-2.41,5.39-5.39s-2.41-5.39-5.39-5.39-5.39,2.41-5.39,5.39,2.41,5.39,5.39,5.39Z"/></svg>