<svg id="a" xmlns="http://www.w3.org/2000/svg" xmlns:xlink="http://www.w3.org/1999/xlink" viewBox="0 0 300 300"><defs><style>.e{opacity:.3;}.e,.f{isolation:isolate;}.e,.f,.g,.h,.i,.j,.k,.l,.m{stroke-width:0px;}.e,.i{fill:#247aba;}.n,.o,.p,.q{stroke-linecap:round;}.n,.r,.s,.t{stroke:#000;stroke-miterlimit:10;}.n,.p,.t,.q{fill:none;}.o,.r,.k{fill:#fff;}.o,.p,.q{stroke-linejoin:round;}.o,.q{stroke:#31333a;stroke-width:1px;}.s,.j{fill:#dcdddd;}.p{stroke:#6ea4cc;stroke-width:2px;}.f{fill:url(#b);opacity:.34;}.g{fill:#31333a;}.h{fill:#459bf2;}.l{fill:url(#c);}.m{fill:url(#d);}</style><linearGradient id="b" x1="106.33" y1="-2036.61" x2="134.2" y2="-2036.61" gradientTransform="translate(0 -1818.8) scale(1 -1)" gradientUnits="userSpaceOnUse"><stop offset=".1" stop-color="#ff7638"/><stop offset=".89" stop-color="#ff3929"/></linearGradient><linearGradient id="c" x1="93.5" y1="-1947.61" x2="108.1" y2="-1947.61" gradientTransform="translate(0 -1818.8) scale(1 -1)" gradientUnits="userSpaceOnUse"><stop offset=".1" stop-color="#ffb4b9"/><stop offset=".89" stop-color="#fa898c"/></linearGradient><linearGradient id="d" x1="207.53" y1="-1865.77" x2="214.4" y2="-1865.77" xlink:href="#c"/></defs><path class="e" d="m150,274.57c66.76,0,120.88-54.32,120.88-121.32S216.76,31.93,150,31.93,29.12,86.25,29.12,153.25s54.12,121.32,120.88,121.32Z"/><rect class="s" x="183.01" y="166.29" width="69.7" height="47.64" transform="translate(-35.37 50.55) rotate(-12.25)"/><circle class="r" cx="217.86" cy="190.11" r="12.79"/><polygon class="t" points="222.97 189 213.26 185.89 215.42 195.86 222.97 189"/><line class="t" x1="180.13" y1="180.6" x2="250.73" y2="165.27"/><line class="t" x1="187.47" y1="214.41" x2="255.59" y2="199.62"/><path class="s" d="m55.02,197.23c4.93.39,9.43,3.44,11.62,7.87,1.58,3.17,1.04,4.9,3.03,7.55,3.7,5.65,9.15,4.02,12.1-.63.83-1.15,1.69-2.75,2.63-12.69.69-7.33.46-8.97-.6-10.53-1.42-2.09-2.59-2.63-5.16-3.51s-11.26-6.1-12.61-7.75c-4.99-4.62-6.49-4.14-15.13,1.19-8.45,5.32-9.49,6.82-10.14,8.07-2.77,4.71-1.88,10.3,4.91,11.08,3.45.63,5.61-1.07,9.36-.66Z"/><circle class="t" cx="59.29" cy="186.25" r="4.47"/><line class="n" x1="71.98" y1="194.06" x2="78.84" y2="198.27"/><line class="n" x1="77.52" y1="192.73" x2="73.3" y2="199.59"/><path class="t" d="m72.79,182.26c.78-.55,2.11-1.59,3.33-3.21,5.59-7.39,1.11-16.22,4.31-18.48,4.15-2.94,13.66,10.54,23.32,9.1,7.79-1.16,12.8-11.62,15.9-20.89"/><path class="k" d="m114.64,187.5l-4.96,42.05c-11.46,17.51-34.37,30.58-25.04,31.31,0,0,30.04-15.71,39.04-20.01,1.39-.67,2.36-1.99,2.57-3.52l5.8-42.58-17.4-7.25Z"/><path class="f" d="m108.07,205.76c-9.23,8.99,21.29,11.67,21.73,21.78.43,10.1,4.4-16.25,4.4-16.25l-26.13-5.52Z"/><path class="j" d="m107.88,217.98s18.47,11.35,24.16,13.3c5.69,1.95-4.03-15.45-4.03-15.45"/><path class="q" d="m114.64,187.5l-4.96,42.05c-11.46,17.51-34.37,30.58-25.04,31.31,0,0,30.04-15.71,39.04-20.01,1.39-.67,2.36-1.99,2.57-3.52l5.8-42.58-17.4-7.25Z"/><path class="k" d="m115.75,96.28l-25.74,33.97c-16.66,9.5-40.49,6.85-31.38,12.59,0,0,40.63-.25,43.93.07l31.99-38.99-18.8-7.65Z"/><path class="l" d="m105.72,136.11l-12.22-13.88,12.69-.71,1.9,10.23-2.38,4.36h0Z"/><path class="j" d="m93.71,123.99l16.66,25.52,10.17-19.27"/><path class="q" d="m115.75,96.28l-25.74,33.97c-16.66,9.5-40.49,6.85-31.38,12.59,0,0,40.63-.25,43.93.07l31.99-38.99-18.8-7.65Z"/><path class="k" d="m90.01,119.47c2.46,13.97,33.77,26.67,33.77,26.67l18.46-39.79,33.46,35.72,34.21-23.29s-60.42-51.76-72.09-51.76c-8.91,0-47.81,52.45-47.81,52.45h0Z"/><path class="j" d="m145.13,112.84c8.46,5.64,49.74,7.32,49.74,7.32l-41.55,12.84"/><path class="k" d="m93.71,109.2c8.09,24.87,39.55,32,51.98,35.4l-51.98-35.4Z"/><path class="q" d="m93.71,109.2c8.09,24.87,39.55,32,51.98,35.4"/><path class="q" d="m90.01,119.47c2.46,13.97,33.77,26.67,33.77,26.67l18.46-39.79,33.46,35.72,34.21-23.29s-60.42-51.76-72.09-51.76c-8.91,0-47.81,52.45-47.81,52.45h0Z"/><path class="k" d="m173.48,113.38c-22.13,12.56-56.6,32.45-58.93,35.76-3.44,4.9-20.83,60.09-20.83,60.09,16.05,19.34,38.33,13.16,38.33,13.16l7.22-55.84s87.27-10.17,80.75-47.78c0,0-14.12-10.99-25.8-15.06"/><path class="k" d="m93.71,201.6c19.18,20.3,42.94,16.73,55.09,12.76l-55.09-12.76Z"/><path class="q" d="m93.71,201.6c19.18,20.3,42.94,16.73,55.09,12.76"/><path class="k" d="m212.1,112.12c13.56,29.26-78.02,49.06-78.02,49.06l-7.6,57.44"/><path class="q" d="m212.1,112.12c13.56,29.26-78.02,49.06-78.02,49.06l-7.6,57.44"/><path class="k" d="m204.66,117.85c-9.51,3.69.43,14.75.43,14.75l-.43-14.75Z"/><path class="q" d="m204.66,117.85c-9.51,3.69.43,14.75.43,14.75"/><path class="q" d="m173.48,113.38c-22.13,12.56-56.6,32.45-58.93,35.76-3.44,4.9-20.83,60.09-20.83,60.09,16.05,19.34,38.33,13.16,38.33,13.16l7.22-55.84s87.27-10.17,80.75-47.78c0,0-14.12-10.99-25.8-15.06"/><path class="k" d="m208.06,41.59c2.91,2.42,1.48,23.73,1.48,23.73l14.26-8.88-4.99-22.8-10.75,7.95h0Z"/><path class="m" d="m207.76,49.02l6.63-4.04-6.87-.06s.23,4.1.23,4.1Z"/><path class="j" d="m203.97,55.3c9.66-.96,9.15-13.73,15.05-15.65,5.9-1.92-9.88,5.38-9.88,5.38l-1.41,2.92"/><path class="q" d="m208.06,41.59c2.91,2.42,1.48,23.73,1.48,23.73l14.26-8.88-4.99-22.8-10.75,7.95h0Z"/><path class="g" d="m205.8,43.55c-4.32,2.01-7.92-6.05-6.54-8.67,1.38-2.62,5.82-4.89,4.15-7.35-1.67-2.47,9.7-1.96,9.7-1.96l1.86,3.89-2.65,9.47-6.53,4.62Z"/><path class="o" d="m207.02,27.85c-3.74,4.8-13.55,25.45,6.57,19.53,2.97-.87,3.34.3,3.34.3l2.69-14.97s-12.6-4.86-12.6-4.86Z"/><path class="q" d="m216.81,37.9l-3.13,2.32m3.16.74l-1.29-2.02"/><path class="g" d="m204.4,36.64c-.45-.17-.7-.64-.58-1.11l.23-.76c.07-.21.22-.39.42-.48.2-.09.43-.1.64-.01.45.16.7.64.58,1.11l-.23.76c-.13.41-.56.65-.97.52-.03,0-.06-.02-.08-.03Z"/><path class="k" d="m204.6,32.66c1.14.08,2.24.45,3.2,1.08l-3.2-1.08Z"/><path class="q" d="m204.6,32.66c1.14.08,2.24.45,3.2,1.08"/><path class="h" d="m220.32,37.6c.11-1.28-.6-2.39-1.59-2.47-.99-.09-1.88.88-1.99,2.16-.11,1.28.6,2.39,1.59,2.47.99.09,1.88-.88,1.99-2.16Z"/><path class="k" d="m163.83,58.66c2.91,3.93,7.4,9.56,7.21,13.6-.01.27-.04.53-.09.79-.8,4.2,9.12,20.75,9.12,20.75l21.95-28.77,17.35,8.18s-20,20.1-33.42,33.32c-1.19,1.17-2.68,2-4.3,2.39-3.31.8-6.79-.3-9.04-2.85-1.1-1.25-1.85-2.78-2.15-4.42-2.24-12.07-4.66-26.47-4.66-26.47,0,0-4.9-9.55-5.03-10-.13-.45.7-6.06,1.32-5.89.62.17.22,1.47.22,1.47,0,0,1.45,3.99,2.07,4.13s-.89-4.35-1.02-4.85c-.13-.51.45-1.38.45-1.38h0Z"/><path class="j" d="m183.44,81c9.41.19,4.52,26.25,4.52,26.25l9.16-11.77,2.99-17.69-9.15-2.03"/><path class="q" d="m163.83,58.66c2.91,3.93,7.4,9.56,7.21,13.6-.01.27-.04.53-.09.79-.8,4.2,9.12,20.75,9.12,20.75l21.95-28.77,17.35,8.18s-20,20.1-33.42,33.32c-1.19,1.17-2.68,2-4.3,2.39-3.31.8-6.79-.3-9.04-2.85-1.1-1.25-1.85-2.78-2.15-4.42-2.24-12.07-4.66-26.47-4.66-26.47,0,0-4.9-9.55-5.03-10-.13-.45.7-6.06,1.32-5.89.62.17.22,1.47.22,1.47,0,0,1.45,3.99,2.07,4.13s-.89-4.35-1.02-4.85c-.13-.51.45-1.38.45-1.38h0Z"/><path class="g" d="m207.07,25.67c-.74,3.66,1.42,11.03,3.38,16.6.58,1.85,1.33,3.65,2.26,5.35l18.05.85s-.85-25.76-23.69-22.81Z"/><path class="i" d="m223.01,50.83c-1.86,1.46-14.61,6.01-15.22,6.55-1.76,1.59-14.15,15.31-15.23,19.75-1.08,4.43-3.64,26.49-3.64,26.49l31.1,15.16s6.53-34.3,8.05-35.73c.62-.59-1.12-3.56.4-5.28l6.81-2.43s-3-12.45-5.41-16.67c-1.86-2.96-4.18-5.6-6.86-7.83h0Z"/><path class="q" d="m223.01,50.83c-1.86,1.46-14.61,6.01-15.22,6.55-1.76,1.59-14.15,15.31-15.23,19.75-1.08,4.43-3.64,26.49-3.64,26.49l31.1,15.16s6.53-34.3,8.05-35.73c.62-.59-1.12-3.56.4-5.28l6.81-2.43s-3-12.45-5.41-16.67c-1.86-2.96-4.18-5.6-6.86-7.83h0Z"/><path class="k" d="m234.26,75.75l-19.17,6.29,13.29,27.15s-31.06,5.64-34.64,6.02-12.6,4.21-13.41,4.57c-.81.36-.68,9.74-.65,9.96.42.38.98.56,1.54.48.56-.08,1.06-.4,1.36-.88,1.09-1.6,2.7-5.51,2.96-5.62.27-.11,9.34-3.58,9.34-3.58l38.58.75c4.74.08,8.9-3.16,9.98-7.78.35-1.49.35-3.03.02-4.52l-9.18-32.85h0Z"/><path class="j" d="m208.66,79.49c17.05,2.56,34.08.78,37.24,6.34,3.16,5.57-5.82-12.58-5.82-12.58l-14.86,1.51"/><path class="q" d="m234.26,75.75l-19.17,6.29,13.29,27.15s-31.06,5.64-34.64,6.02-12.6,4.21-13.41,4.57c-.81.36-.68,9.74-.65,9.96.42.38.98.56,1.54.48.56-.08,1.06-.4,1.36-.88,1.09-1.6,2.7-5.51,2.96-5.62.27-.11,9.34-3.58,9.34-3.58l38.58.75c4.74.08,8.9-3.16,9.98-7.78.35-1.49.35-3.03.02-4.52l-9.18-32.85h0Z"/><path class="k" d="m204.23,33.78c-3.22,1.99-4.87,2.26-1.41,5.03l1.41-5.03Z"/><path class="q" d="m204.23,33.78c-3.22,1.99-4.87,2.26-1.41,5.03"/><path class="i" d="m166.15,70.57l-.48.15c-.72.23-1.48-.17-1.71-.88,0,0,0,0,0,0l-7.99-25.28c-.23-.72.17-1.49.89-1.72,0,0,0,0,0,0l.48-.15c.72-.23,1.48.17,1.71.89,0,0,0,0,0,0l7.99,25.28c.23.72-.17,1.49-.89,1.72Z"/><path class="o" d="m167.17,69.95l-.48.15c-.72.23-1.48-.17-1.71-.89,0,0,0,0,0,0l-7.94-25.13c-.23-.72.17-1.49.89-1.72l.48-.15c.72-.23,1.48.17,1.71.88,0,0,0,0,0,0l7.94,25.13c.23.72-.17,1.49-.89,1.72h0Z"/><path class="q" d="m166.15,70.57l-.48.15c-.72.23-1.48-.17-1.71-.88,0,0,0,0,0,0l-7.99-25.28c-.23-.72.17-1.49.89-1.72,0,0,0,0,0,0l.48-.15c.72-.23,1.48.17,1.71.89,0,0,0,0,0,0l7.99,25.28c.23.72-.17,1.49-.89,1.72h0Z"/><path class="o" d="m158.67,59.69c-.03-.65.37-1.23.98-1.44.2-.07.41-.09.61-.07,2.12.24,5.67.97,5.52,2.37-.2,1.85-.94,2.01-.94,2.01,0,0,2.12,1.34.95,2.84,0,0,1.36,2.17.11,2.62-.66.24-3.92.61-4.94-.28-.93-.8-.42-2.42-.42-2.42,0,0-1.9-.89-.97-3.49-.6-.55-.93-1.33-.89-2.15h0Z"/><path class="k" d="m169.04,74.36s1.82-.52,1.91-1.31l-1.91,1.31Z"/><path class="q" d="m169.04,74.36s1.82-.52,1.91-1.31m23.26,45.38l.66,1.72"/><path class="k" d="m204.23,41.33s1.17-2.24,3.32-2.21l-3.32,2.21Z"/><path class="q" d="m204.23,41.33s1.17-2.24,3.32-2.21"/><path class="p" d="m169.98,248.65c2.96,0,5.37-2.41,5.37-5.39s-2.4-5.39-5.37-5.39-5.37,2.41-5.37,5.39,2.4,5.39,5.37,5.39ZM99.74,69.81l8.54,4.48m-17.48-2.47l8.54,4.48"/></svg>