<?xml version="1.0" encoding="utf-8"?>
<!-- Generator: Adobe Illustrator 28.0.0, SVG Export Plug-In . SVG Version: 6.00 Build 0)  -->
<svg version="1.1" id="图层_1" xmlns="http://www.w3.org/2000/svg" xmlns:xlink="http://www.w3.org/1999/xlink" x="0px" y="0px"
	 viewBox="0 0 400 300" style="enable-background:new 0 0 400 300;" xml:space="preserve">
<style type="text/css">
	.st0{opacity:0.1;fill:#5578EC;enable-background:new    ;}
	.st1{fill:#5578EC;}
	.st2{fill:none;stroke:#31333A;stroke-linecap:round;stroke-linejoin:round;}
	.st3{fill:#FFFFFF;}
	.st4{fill:#FFFFFF;stroke:#31333A;stroke-linecap:round;stroke-linejoin:round;}
	.st5{fill:#DCDDDD;}
	.st6{fill:#31333A;}
	.st7{fill:#B5B5B6;}
	.st8{fill:#DCDDDD;stroke:#31333A;stroke-linecap:round;stroke-linejoin:round;}
	.st9{fill:#3351E5;}
	.st10{fill:none;stroke:#3351E5;stroke-width:2;stroke-linecap:round;stroke-linejoin:round;}
</style>
<path class="st0" d="M199.1,300c82.8,0,150-67.2,150-150S282,0,199.1,0s-150,67.2-150,150S116.3,300,199.1,300z"/>
<path class="st1" d="M310.5,43.6c-1.2-3.2-3-6.1-5.4-8.5c-9.3-9.5-24.6-9.6-34-0.2c-2.7,2.6-4.7,5.9-5.9,9.5
	c-2.9,8.6-0.7,18.1,5.7,24.5c7.4-2.9,14.4-6.5,21-10.8C298.6,53.9,304.8,49.1,310.5,43.6z"/>
<path class="st2" d="M310.5,43.6c-1.2-3.2-3-6.1-5.4-8.5c-9.3-9.5-24.6-9.6-34-0.2c-2.7,2.6-4.7,5.9-5.9,9.5
	c-2.9,8.6-0.7,18.1,5.7,24.5c7.4-2.9,14.4-6.5,21-10.8C298.6,53.9,304.8,49.1,310.5,43.6C310.5,43.6,310.5,43.6,310.5,43.6z"/>
<path class="st1" d="M273.8,71.4c10.7,7.8,25.8,5.5,33.6-5.2c4-5.4,5.5-12.3,4.2-18.9c-5.5,5.1-11.5,9.6-17.9,13.6
	C287.4,65,280.7,68.5,273.8,71.4z"/>
<path class="st2" d="M273.8,71.4c10.7,7.8,25.8,5.5,33.6-5.2c4-5.4,5.5-12.3,4.2-18.9c-5.5,5.1-11.5,9.6-17.9,13.6
	C287.4,65,280.7,68.5,273.8,71.4L273.8,71.4z"/>
<path class="st3" d="M320,31.6c-1.8-2.8-6.6-2.9-14.3-0.3c-1.2,0.4-2.3,0.8-3.5,1.3c1,0.8,2,1.6,2.9,2.5c7-2.6,11.3-2.8,12-1.7
	c0.7,1.2-1.4,5-6.6,10.2c-5.7,5.5-11.9,10.3-18.7,14.5c-6.6,4.3-13.6,7.9-21,10.8c-7,2.6-11.3,2.8-12,1.7c-0.7-1.2,1.4-5,6.6-10.2
	c-0.4-1.2-0.8-2.4-1.1-3.7c-0.9,0.8-1.8,1.7-2.6,2.6c-5.6,5.9-7.6,10.3-5.8,13.1c1.8,2.8,6.6,2.9,14.3,0.3c1.1-0.4,2.3-0.8,3.5-1.3
	c6.9-2.9,13.6-6.4,19.9-10.5c6.4-4,12.3-8.5,17.9-13.6c0.9-0.8,1.8-1.7,2.6-2.6C319.8,38.8,321.8,34.4,320,31.6L320,31.6z"/>
<path class="st2" d="M320,31.6c-1.8-2.8-6.6-2.9-14.3-0.3c-1.2,0.4-2.3,0.8-3.5,1.3c1,0.8,2,1.6,2.9,2.5c7-2.6,11.3-2.8,12-1.7
	c0.7,1.2-1.4,5-6.6,10.2c-5.7,5.5-11.9,10.3-18.7,14.5c-6.6,4.3-13.6,7.9-21,10.8c-7,2.6-11.3,2.8-12,1.7c-0.7-1.2,1.4-5,6.6-10.2
	c-0.4-1.2-0.8-2.4-1.1-3.7c-0.9,0.8-1.8,1.7-2.6,2.6c-5.6,5.9-7.6,10.3-5.8,13.1c1.8,2.8,6.6,2.9,14.3,0.3c1.1-0.4,2.3-0.8,3.5-1.3
	c6.9-2.9,13.6-6.4,19.9-10.5c6.4-4,12.3-8.5,17.9-13.6c0.9-0.8,1.8-1.7,2.6-2.6C319.8,38.8,321.8,34.4,320,31.6L320,31.6z"/>
<path class="st3" d="M334.1,248.6l9.5-11.3l-31.2-15.1l-7.3,18.1L334.1,248.6z"/>
<path class="st2" d="M334.1,248.6l9.5-11.3l-31.2-15.1l-7.3,18.1L334.1,248.6z"/>
<path class="st3" d="M356.2,242.7l-12.9-6.7L329.8,249c0,0,12.7,1.9,6.3,17.8c-7,17.2,0.5,16.9,0.5,16.9L356.2,242.7L356.2,242.7z"
	/>
<path class="st2" d="M356,239.3l-25.7,51.5"/>
<path class="st4" d="M342.8,249.7c2,0,3.7-1.7,3.7-3.7c0-2-1.7-3.7-3.7-3.7c-2,0-3.7,1.7-3.7,3.7C339.2,248,340.8,249.7,342.8,249.7
	L342.8,249.7z"/>
<path class="st3" d="M337.5,250.4l-9.7,5.5l5.6,4.2l8.2-6.9"/>
<path class="st2" d="M337.5,250.4l-9.7,5.5l5.6,4.2l8.2-6.9"/>
<path class="st2" d="M356.2,242.7l-12.9-6.7L329.8,249c0,0,12.7,1.9,6.3,17.8c-7,17.2,0.5,16.9,0.5,16.9L356.2,242.7L356.2,242.7z"
	/>
<path class="st3" d="M303.9,158.9l-4.4-14L270,163.1l11.4,15.9L303.9,158.9L303.9,158.9z"/>
<path class="st2" d="M303.9,158.9l-4.4-14L270,163.1l11.4,15.9L303.9,158.9L303.9,158.9z"/>
<path class="st3" d="M310.7,137.1l-12.6,7.3l3.6,18.4c0,0,8.4-9.7,18.4,4.2c10.8,15.1,14.5,8.7,14.5,8.7L310.7,137.1L310.7,137.1z"
	/>
<path class="st2" d="M307.7,135.5l29.7,49.3"/>
<path class="st4" d="M306.3,153.8c2,0,3.7-1.7,3.7-3.7s-1.7-3.7-3.7-3.7s-3.7,1.7-3.7,3.7S304.3,153.8,306.3,153.8z"/>
<path class="st3" d="M307.2,157l-0.5,11.2l6.6-2.5l-1.4-10.6"/>
<path class="st2" d="M307.2,157l-0.5,11.2l6.6-2.5l-1.4-10.6"/>
<path class="st2" d="M310.7,137.1l-12.6,7.3l3.6,18.4c0,0,8.4-9.7,18.4,4.2c10.8,15.1,14.5,8.7,14.5,8.7L310.7,137.1L310.7,137.1z"
	/>
<path class="st5" d="M230.4,88.3c-1.6,19.2-23.5,31.7-23.5,31.7l30.5,3l-5.2-23.2"/>
<path class="st5" d="M285.5,152.6c11.5,3.5,18.5,28.6,18.5,28.6l-74,44.6c-8.6,7.5-37.1,4.4-30.5-25l5.4-84.6l35.5-6.1l-2.6,64.9
	L285.5,152.6L285.5,152.6z"/>
<path class="st5" d="M217.3,131.7l34.7,98.4l-5.8-79.4L227.6,140"/>
<path class="st2" d="M217.3,131.7l34.7,98.4l-5.8-79.4L227.6,140"/>
<path class="st2" d="M285.5,152.6c11.5,3.5,18.5,28.6,18.5,28.6l-74,44.6c-8.6,7.5-37.1,4.4-30.5-25l5.4-84.6l35.5-6.1l-2.6,64.9
	L285.5,152.6L285.5,152.6z"/>
<path class="st5" d="M204.9,116.2c0,0,27.2-4,38.5-4c11.3,0,24.4,83.6,24.4,83.6l62.8,33.9c1.1,10.8-16.5,37.5-16.5,37.5
	s-58.2-33.1-77.5-47.4c-3.8-2.8-6.4-6.8-7.6-11.4l-14.5-55.7"/>
<path class="st2" d="M323.1,222.3c4.2,21.1-21.2,47.4-21.2,47.4"/>
<path class="st2" d="M241.1,123l16.2,78.6l64.9,34.4"/>
<path class="st2" d="M204.9,116.2c0,0,27.2-4,38.5-4c11.3,0,24.4,83.6,24.4,83.6l62.8,33.9c1.1,10.8-16.5,37.5-16.5,37.5
	s-58.2-33.1-77.5-47.4c-3.8-2.8-6.4-6.8-7.6-11.4l-14.5-55.7"/>
<path class="st3" d="M144.8,103c0,0-13,5.9-20.7,3.4c-7.7-2.5-7.1-3.8-8-3.3c-0.9,0.5-2.5,4,4,5.9c0,0-3.6,2.8-13.7,4.3
	c-7.6,1.2,1.9,9,17.5,5.1c8.9-2.3,18-3.4,27.2-3.3L144.8,103L144.8,103z"/>
<path class="st5" d="M129.9,106.6c-0.4,4.2-1.3,12.9-1.3,12.9l8.4-3.6l-5.3-7.8"/>
<path class="st2" d="M144.8,103c0,0-13,5.9-20.7,3.4c-7.7-2.5-7.1-3.8-8-3.3c-0.9,0.5-2.5,4,4,5.9c0,0-3.6,2.8-13.7,4.3
	c-7.6,1.2,1.9,9,17.5,5.1c8.9-2.3,18-3.4,27.2-3.3L144.8,103L144.8,103z"/>
<path class="st3" d="M129.2,105.2c0,0,1.6,12.4,7.3,16l39.6-10c22.4-5.8,54.3-26.6,54.3-26.6l-35.1-19l-29.4,26.2L129.2,105.2z"/>
<path class="st5" d="M191.1,83.1c-3.4,8.5,1.1,27.1,1.1,27.1l20.4-6.6l-14-14.5"/>
<path class="st4" d="M234.4,114l-13.6-6c-5.4-2.4-11.7,0.1-14,5.4c0,0,0,0,0,0c-0.8,1.7-1,3.6-0.8,5.5l1.6,14.8
	c0.2,1.9,0.9,3.6,2,5.1c3.5,4.7,10.1,5.8,14.9,2.3c0,0,0,0,0,0l12-8.8c3.1-2.2,4.7-6,4.3-9.7C240.3,118.8,237.9,115.5,234.4,114
	L234.4,114z M196.2,176.6l9.8-11.2c3.9-4.4,3.4-11.2-1-15c-1.4-1.2-3.1-2.1-4.9-2.4l-14.6-2.9c-3.7-0.7-7.6,0.6-10.1,3.4
	c-2.5,2.9-3.3,6.8-2.1,10.5l4.8,14.1c1.9,5.6,8,8.5,13.5,6.7C193.4,179.1,195,178.1,196.2,176.6z M144.7,187.1l9.8-11.2
	c2.5-2.9,3.3-6.8,2.1-10.5c-1.2-3.6-4.3-6.3-8-7l-14.6-2.9c-3.7-0.7-7.6,0.6-10.1,3.4c-2.5,2.9-3.3,6.8-2.1,10.5l4.8,14.1
	c1.2,3.6,4.3,6.3,8,7C138.4,191.3,142.2,190,144.7,187.1z M273.1,139.8l-13.6-6c-3.5-1.5-7.5-1.1-10.6,1.2c-3.1,2.2-4.7,6-4.3,9.7
	l1.6,14.8c0.4,3.8,2.8,7.1,6.3,8.6c3.5,1.5,7.5,1.1,10.6-1.2l12-8.8c3.1-2.2,4.7-6,4.3-9.7C279,144.6,276.6,141.4,273.1,139.8
	L273.1,139.8z M229.7,205.2l9.8-11.2c2.5-2.9,3.3-6.8,2.1-10.5c-1.2-3.6-4.3-6.3-8-7l-14.6-2.9c-3.7-0.7-7.6,0.6-10.1,3.4
	c-2.5,2.9-3.3,6.8-2.1,10.5l4.8,14.1c1.9,5.6,8,8.5,13.5,6.7C226.9,207.6,228.4,206.6,229.7,205.2z M189.3,226.9l9.8-11.2
	c2.5-2.9,3.3-6.8,2.1-10.5c-1.2-3.6-4.3-6.3-8-7l-14.6-2.9c-5.8-1.1-11.4,2.6-12.5,8.4c-0.4,1.8-0.2,3.7,0.4,5.5l4.8,14.1
	c1.2,3.6,4.3,6.3,8,7C183,231.1,186.8,229.7,189.3,226.9L189.3,226.9z"/>
<path class="st2" d="M129.2,105.2c0,0,1.6,12.4,7.3,16l39.6-10c22.4-5.8,54.3-26.6,54.3-26.6l-35.1-19l-29.4,26.2L129.2,105.2z"/>
<path class="st3" d="M195.3,65.6c1.6-1.4,3.6-2.3,5.8-2.6c7.3-1.1,33.2-4.1,49.2,10.9c1.7,1.5,2.4,3.7,2,5.9
	c-1.9,9.1-18.5,31.8-14.5,37.1l-33.8,1.5c0.9-8.9-12.8-20.2-14.2-34.9"/>
<path class="st5" d="M229.8,92.5c-5.7,10.9-13.5,20.6-22.9,28.6l24.8,0.5l-0.3-14"/>
<path class="st2" d="M195.3,65.6c1.6-1.4,3.6-2.3,5.8-2.6c7.3-1.1,33.2-4.1,49.2,10.9c1.7,1.5,2.4,3.7,2,5.9
	c-1.9,9.1-18.5,31.8-14.5,37.1l-33.8,1.5c0.9-8.9-12.8-20.2-14.2-34.9"/>
<path class="st6" d="M209.7,48.8c4.3,0,7.7-4.3,7.7-9.6s-3.5-9.6-7.7-9.6c-4.3,0-7.7,4.3-7.7,9.6S205.4,48.8,209.7,48.8z"/>
<path class="st3" d="M224.9,45l4.7,18.2c0,0-3.4,9.9-17.6,11.5c-5.2,0.6,3.4-12.2,3.4-12.2l-0.9-19.3L224.9,45z"/>
<path class="st5" d="M213.1,64.4l8.2-11l-5.4,0.4l-3.3,4.2"/>
<path class="st2" d="M224.9,45l4.7,18.2c0,0-3.4,9.9-17.6,11.5c-5.2,0.6,3.4-12.2,3.4-12.2l-0.9-19.3L224.9,45z"/>
<path class="st4" d="M222.9,51.6c-4.2,7.2-20.9,10.5-14.6-15.1c0.5-2.1,14.6-1.6,14.6-1.6S227.1,44.5,222.9,51.6L222.9,51.6z"/>
<path class="st6" d="M207.4,36.1c2.6,11.8,15.5,9.5,15.5,9.5c-0.7,3.5,0.2,7.2,2.6,9.8C261.2,38.8,212.6,10.5,207.4,36.1L207.4,36.1
	z"/>
<path class="st4" d="M216.9,45.8c9.5-8.4,14.1,3.2,6.1,4.8C214.9,52.2,216.9,45.8,216.9,45.8z"/>
<path class="st3" d="M210.2,43.5c0,0.1-0.9,2.7-0.9,2.7c-2.8,0.4,0,2,0,2"/>
<path class="st2" d="M210.2,43.5c0,0.1-0.9,2.7-0.9,2.7c-2.8,0.4,0,2,0,2"/>
<path class="st6" d="M207.8,45.1c-0.4-0.1-0.6-0.4-0.6-0.8l0.1-0.6c0-0.3,0.3-0.5,0.5-0.5c0.4-0.1,0.8,0.2,0.8,0.6
	c0,0.1,0,0.2,0,0.2l-0.1,0.6c0,0.1-0.1,0.2-0.1,0.2c-0.1,0.1-0.3,0.2-0.4,0.3C207.9,45.2,207.9,45.2,207.8,45.1L207.8,45.1z"/>
<path class="st2" d="M206.2,41.6l3.3,0.6"/>
<path class="st6" d="M212.1,45.8c-0.4-0.1-0.6-0.4-0.6-0.8l0.1-0.6c0-0.3,0.3-0.5,0.5-0.5c0.4-0.1,0.8,0.2,0.8,0.6
	c0,0.1,0,0.2,0,0.2l-0.1,0.6c0,0.2-0.1,0.3-0.3,0.4C212.5,45.8,212.3,45.8,212.1,45.8L212.1,45.8z"/>
<path class="st2" d="M211.7,42.2l3.3,0.6"/>
<path class="st7" d="M209.5,49.4l4.5-1.2C216.1,52.7,209.6,53.5,209.5,49.4z"/>
<path class="st2" d="M222.2,46.9l1.5-1.5 M223.1,47.4l-0.1-1.3"/>
<path class="st8" d="M135.9,101.8l-6.7,3.4c0,0,1.5,13,7.5,16.4l4.6-1.2C141.3,120.4,133.8,108.1,135.9,101.8z"/>
<path class="st9" d="M152.9,167.4L130,181l29.9,50.1l22.9-13.6L152.9,167.4z"/>
<path class="st6" d="M211,290.9c-5.4,3.2-11.9,4.1-18,2.5c-6.1-1.6-11.3-5.6-14.3-11.1l-34.5-61.2l37.3-22.2l37.4,59.5
	c1.7,2.6,2.8,5.6,3.3,8.6c1,6.2-0.5,12.6-4.2,17.6C216,287.2,213.7,289.3,211,290.9z"/>
<path class="st1" d="M76.1,65.6c-34.7,20.7-46,65.5-25.4,100.2c2.5,4.1,5.3,8,8.5,11.5c19.8,22,50.9,29.8,78.7,19.9
	c38-13.5,57.9-55.3,44.4-93.3c-1.6-4.5-3.6-8.9-6.1-13C155.7,56.3,110.8,45,76.1,65.6L76.1,65.6z M141,174.5
	c-9.1,5.4-19.6,8-30.2,7.5c-29.6-1.5-52.3-26.7-50.7-56.3c0.2-3.5,0.7-7,1.6-10.4c7.3-28.7,36.4-46.1,65.1-38.8
	c28.7,7.3,46.1,36.4,38.8,65.1C162,155.4,153.2,167.2,141,174.5L141,174.5z"/>
<path class="st2" d="M76.1,65.6c-34.7,20.7-46,65.5-25.4,100.2c2.5,4.1,5.3,8,8.5,11.5c19.8,22,50.9,29.8,78.7,19.9
	c38-13.5,57.9-55.3,44.4-93.3c-1.6-4.5-3.6-8.9-6.1-13C155.7,56.3,110.8,45,76.1,65.6L76.1,65.6L76.1,65.6z M141,174.5
	c-9.1,5.4-19.6,8-30.2,7.5c-29.6-1.5-52.3-26.7-50.7-56.3c0.2-3.5,0.7-7,1.6-10.4c7.3-28.7,36.4-46.1,65.1-38.8
	c28.7,7.3,46.1,36.4,38.8,65.1C162,155.4,153.2,167.2,141,174.5L141,174.5L141,174.5z"/>
<path class="st4" d="M229.5,60.8c2.4,1,4.5,2.5,6.2,4.5c0,0-16.7,22.6-23.7,9.5C212,74.7,231.9,66.2,229.5,60.8z"/>
<path class="st4" d="M212,74.7c-10.7,9.6-11.1-6.3-0.4-12.7l3.7-1.2l0.2,2.6C215.5,63.4,209.4,71.8,212,74.7z M212.3,82
	c0.6-0.8,0.5-1.7,0-2.1c-0.6-0.4-1.5-0.1-2,0.6c-0.6,0.8-0.5,1.7,0,2.1C210.9,83,211.8,82.7,212.3,82z M211.4,92.5
	c0.6-0.8,0.5-1.7,0-2.1c-0.6-0.4-1.5-0.1-2,0.6c-0.6,0.8-0.5,1.7,0,2.1C210,93.5,210.8,93.2,211.4,92.5z"/>
<path class="st2" d="M230.7,86.2l-3.8,12.4 M226.9,121.2l-5.9-3.5 M122.6,109.6L120,109"/>
<path class="st3" d="M189.4,144.8c0,0-8.5,4.3-17.6,3.8c-9-0.6-6.9-1.2-7.7-0.5c-0.8,0.7-1.5,4.8,6.6,5.1c0,0-1,6.6-14.3,8.4
	c-8.5,1.1-0.5,9.2,19.9,0.4c9.5-4.1,19-8.1,28.5-12.1L189.4,144.8L189.4,144.8z"/>
<path class="st5" d="M186.2,142.7c-4,2.4-5.3,9.9-2.9,18.9c2.4,9,10.5-6.5,10.5-6.5l-3.3-15"/>
<path class="st2" d="M189.4,144.8c0,0-8.5,4.3-17.6,3.8c-9-0.6-6.9-1.2-7.7-0.5c-0.8,0.7-1.5,4.8,6.6,5.1c0,0-1,6.6-14.3,8.4
	c-8.5,1.1-0.5,9.2,19.9,0.4c9.5-4.1,19-8.1,28.5-12.1L189.4,144.8L189.4,144.8z M176.8,153.1l-6.1,0"/>
<path class="st3" d="M230.1,88.2l-9,29.4l-38.8,29.8c0,0,2.3,10.3,7.7,14.2l48.4-25.6c3.6-2,6.3-5.2,7.6-9.2l10.3-31.5
	c2.7-6.7,1-16.8-5.9-21.5"/>
<path class="st4" d="M171.3,138l9.8-11.2c2.5-2.9,3.3-6.8,2.1-10.5c-1.2-3.6-4.3-6.3-8-7l-14.6-2.9c-3.7-0.7-7.6,0.6-10.1,3.4
	c-2.5,2.9-3.3,6.8-2.1,10.5l4.8,14.1c1.2,3.6,4.3,6.3,8,7C164.9,142.2,168.8,140.8,171.3,138z M299.7,90.7l-13.6-6
	c-5.4-2.4-11.7,0.1-14,5.5c-0.8,1.7-1,3.6-0.8,5.4l1.6,14.8c0.4,3.8,2.8,7.1,6.3,8.6c3.5,1.5,7.5,1.1,10.6-1.2l12-8.8
	c3.1-2.2,4.7-6,4.3-9.7C305.5,95.5,303.1,92.2,299.7,90.7z M201.7,85.7l9.8-11.2c2.5-2.9,3.3-6.8,2.1-10.5c-1.2-3.6-4.3-6.3-8-7
	l-14.6-2.9c-5.8-1.1-11.4,2.6-12.5,8.4c-0.4,1.8-0.2,3.7,0.4,5.5l4.8,14.1c1.9,5.6,7.9,8.5,13.5,6.7c0,0,0,0,0,0
	C198.9,88.1,200.4,87.1,201.7,85.7L201.7,85.7z"/>
<path class="st2" d="M230.1,88.2l-9,29.4l-38.8,29.8c0,0,2.3,10.3,7.7,14.2l48.4-25.6c3.6-2,6.3-5.2,7.6-9.2l10.3-31.5
	c2.7-6.7,1-16.8-5.9-21.5"/>
<path class="st8" d="M188.5,142.1l-6.5,3.6c0,0,1.9,13,8.1,16.1l4.5-1.4C194.6,160.5,186.6,148.4,188.5,142.1z"/>
<path class="st10" d="M235.7,260c3.7,0,6.7-3,6.7-6.7s-3-6.7-6.7-6.7c-3.7,0-6.7,3-6.7,6.7S232,260,235.7,260L235.7,260z
	 M299.4,84.2l11.2-4.1 M293.7,94l11.2-4.1"/>
</svg>
