<?xml version="1.0" encoding="utf-8"?>
<!-- Generator: Adobe Illustrator 28.0.0, SVG Export Plug-In . SVG Version: 6.00 Build 0)  -->
<svg version="1.1" id="图层_1" xmlns="http://www.w3.org/2000/svg" xmlns:xlink="http://www.w3.org/1999/xlink" x="0px" y="0px"
	 viewBox="0 0 400 300" style="enable-background:new 0 0 400 300;" xml:space="preserve">
<style type="text/css">
	.st0{fill:none;stroke:#3351E5;stroke-width:2;stroke-linecap:round;stroke-linejoin:round;}
	.st1{opacity:0.1;fill:#5578EC;enable-background:new    ;}
	.st2{fill:#5578EC;}
	.st3{fill:#3351E5;}
	.st4{fill:#FFFFFF;}
	.st5{fill:none;stroke:#31333A;stroke-linecap:round;stroke-linejoin:round;}
	.st6{fill:#FFFFFF;stroke:#31333A;stroke-linecap:round;stroke-linejoin:round;}
	.st7{fill:#DCDDDD;}
	.st8{fill:#31333A;}
	.st9{fill:none;stroke:#FFFFFF;stroke-linecap:round;stroke-linejoin:round;}
</style>
<path class="st0" d="M344.9,126.9l11.7-4.3 M339,137.1l11.7-4.3"/>
<path class="st1" d="M202.1,296c81.7,0,148-66.3,148-148S283.8,0,202.1,0c-81.7,0-148,66.3-148,148S120.3,296,202.1,296z"/>
<path class="st2" d="M347.8,57.3l-62.9-13.9l37.8,23.3L347.8,57.3z"/>
<path class="st3" d="M324.1,82l-1.5-15.3l-37.8-23.3L324.1,82L324.1,82z"/>
<path class="st2" d="M305.2,69.5l12.7-0.2l6.3,12.7l-11-10.9"/>
<path class="st2" d="M317.8,69.3l-20.2,8l-12.7-33.9L317.8,69.3L317.8,69.3z"/>
<path class="st4" d="M56.1,44.3c-9.5,0-17.2,7.7-17.2,17.2v90.8h34.5V61.5C73.4,52,65.7,44.3,56.1,44.3L56.1,44.3z"/>
<path class="st5" d="M56.1,44.3c-9.5,0-17.2,7.7-17.2,17.2v90.8h34.5V61.5C73.4,52,65.7,44.3,56.1,44.3L56.1,44.3L56.1,44.3z"/>
<path class="st6" d="M90.6,284.2C89.6,284.2,91.6,284.3,90.6,284.2L90.6,284.2z M231,44.3H56.1c9.5,0,17.2,7.7,17.2,17.2v222.6h9.9
	v-62.4h7v62.4h6.8v-62.4h7v62.4h6.8v-62.4h7v62.4h6.8v-62.4h7v62.4h6.8v-62.4h7v62.4h6.8v-62.4h7v62.4h6.8v-62.4h7v62.4h6.8v-62.4h7
	v62.4h6.8v-62.4h7v62.4h6.8v-62.4h7v62.4h6.8v-62.4h7v62.4h6.8v-62.4h7v62.4h7.3V61.5c0-7-4.2-13.3-10.6-15.9
	C235.5,44.7,233.3,44.3,231,44.3L231,44.3z"/>
<path class="st7" d="M231.5,110.2H91.5c-2.1,0-3.7,1.7-3.7,3.7c0,0,0,0,0,0v22.5c0,2.1,1.7,3.7,3.7,3.7l0,0h140.1
	c2.1,0,3.7-1.7,3.7-3.7c0,0,0,0,0,0V114C235.3,111.9,233.6,110.2,231.5,110.2C231.5,110.2,231.5,110.2,231.5,110.2z M231.5,149.3
	H91.5c-2.1,0-3.7,1.7-3.7,3.7l0,0v22.5c0,2.1,1.7,3.7,3.7,3.7l0,0h140.1c2.1,0,3.7-1.7,3.7-3.7c0,0,0,0,0,0v-22.5
	C235.3,151,233.6,149.3,231.5,149.3C231.5,149.3,231.5,149.3,231.5,149.3z"/>
<path class="st8" d="M150.8,86c1.2,0,2.1,1,2.1,2.1c0,0.3-0.1,0.6-0.2,0.8c-0.2,0.5-0.6,0.9-1.2,1.2c-0.3,0.1-0.5,0.2-0.8,0.2h-61
	c-0.6,0-1.1-0.2-1.5-0.6c-0.8-0.8-0.8-2.2,0-3c0,0,0,0,0,0c0.4-0.4,0.9-0.6,1.5-0.6 M232.2,78.2c-6.9-2.2-5.7-18.2,7.9-16.4
	c13.5,1.9,11.2,27.3,32.3,25.8c22-1.5,20.5,52.2-8.7,44.9C242.3,127.1,232.2,78.2,232.2,78.2L232.2,78.2z"/>
<path class="st3" d="M229.6,76.1c0,0,6.9-4.6,12.8-1l-0.7,3l-10.3,0.6L229.6,76.1z"/>
<path class="st2" d="M164.1,231.4c-2.2-8.2-41.5-116.7,74-116.3c115.5,0.3,72.2,124.9,72.2,124.9L164.1,231.4L164.1,231.4z"/>
<path class="st6" d="M236,136.5c14.9,0,26.9-9,26.9-20.1S250.9,96.2,236,96.2c-14.9,0-26.9,9-26.9,20.1S221.2,136.5,236,136.5z"/>
<path class="st4" d="M236,131.4c11.1,0,20.1-6.7,20.1-15c0-8.3-9-15-20.1-15c-11.1,0-20.1,6.7-20.1,15
	C215.9,124.6,224.9,131.4,236,131.4z"/>
<path class="st7" d="M238.1,120l-23.1,4l-1-8.9l15.6-4.8l5.1,0.3"/>
<path class="st5" d="M236,131.4c11.1,0,20.1-6.7,20.1-15c0-8.3-9-15-20.1-15c-11.1,0-20.1,6.7-20.1,15
	C215.9,124.6,224.9,131.4,236,131.4z M189.8,153.5l0.7,43.9 M286.1,153.5l0.7,43.9"/>
<path class="st5" d="M164.1,231.4c-2.2-8.2-41.5-116.7,74-116.3c115.5,0.3,72.2,124.9,72.2,124.9L164.1,231.4L164.1,231.4z"/>
<path class="st4" d="M296.5,254.7h-118l-7.2-78.9c-0.7-7.1,3.8-13,10-13h112.5c6.2,0,10.6,5.9,10,13L296.5,254.7z"/>
<path class="st7" d="M171.3,196.9l66.6,48.3l-74.3-19.3"/>
<path class="st5" d="M296.5,254.7h-118l-7.2-78.9c-0.7-7.1,3.8-13,10-13h112.5c6.2,0,10.6,5.9,10,13L296.5,254.7z"/>
<path class="st3" d="M246,204c-0.3,3.4-3.8,6-7.8,5.9c-3.9-0.1-7.3-2.7-7.5-6.2c-0.2-3.7,3.2-6.9,7.8-6.8
	C243,197,246.4,200.3,246,204z"/>
<path class="st6" d="M318.4,262.7l7.9-1.1c0,0,14,17.5-22.6,24.9L318.4,262.7z"/>
<path class="st8" d="M323.5,260.3c-3.1-0.5-8.9-0.3-15.7,0.2c-17.5,1.4-41.4,5-41.4,5s-14.9,17.2-12.2,19.3
	c2.7,2.1,22.4,4.2,45.6,2.2c1.3-0.1,2.6-0.3,3.9-0.6C324.1,282.5,333.8,261.9,323.5,260.3L323.5,260.3z"/>
<path class="st9" d="M308.2,253c4.7,16.4-6.6,39.1-6.6,39.1"/>
<path class="st6" d="M250.9,253c12.1,7.9,20,13.4,20,13.4c4.5,5.9,2.7,11.1,0.3,14.6c-2,2.8-5.3,4.3-8.7,4.1c-5-0.3-10-0.8-14.9-1.4
	C249.3,275.2,251.6,262,250.9,253L250.9,253z"/>
<path class="st4" d="M146.2,197.3c28.3,14.1,83.8,42.1,104.6,55.7c0.8,9-1.6,22.2-3.4,30.6c-41.9-5-96.6-23.7-125.4-44.1
	c-5.5-4-9.2-10-10.1-16.8c-0.9-6.7,0.9-13.6,5.2-18.9C124,195.1,136.2,192.3,146.2,197.3z"/>
<path class="st5" d="M104.8,223.9l125.1,62.6 M146.2,197.3c28.3,14.1,83.8,42.1,104.6,55.7c0.8,9-1.6,22.2-3.4,30.6
	c-41.9-5-96.6-23.7-125.4-44.1c-5.5-4-9.2-10-10.1-16.8c-0.9-6.7,0.9-13.6,5.2-18.9C124,195.1,136.2,192.3,146.2,197.3L146.2,197.3z
	"/>
<path class="st6" d="M238.7,119.8c7.8,0,14.2-9.1,14.2-20.3c0-11.2-6.3-20.3-14.2-20.3c-7.8,0-14.2,9.1-14.2,20.3
	C224.5,110.7,230.9,119.8,238.7,119.8z"/>
<path class="st4" d="M225.6,97.2c-8.2-3.9-10,2.3-6.2,7.4c2.5,3.4,5.3,3.4,6.9,3"/>
<path class="st5" d="M225.6,97.2c-8.2-3.9-10,2.3-6.2,7.4c2.5,3.4,5.3,3.4,6.9,3"/>
<path class="st4" d="M250.4,97.2c8.2-3.9,10,2.3,6.2,7.4c-2.2,3-4.7,3.4-6.3,3.1"/>
<path class="st5" d="M250.4,97.2c8.2-3.9,10,2.3,6.2,7.4c-2.2,3-4.7,3.4-6.3,3.1"/>
<path class="st8" d="M234.5,87.5c-2.1,16.3-11.6,13.8-11.6,13.8s-5.5-24.1,14.8-23.8c20.3,0.3,15.1,22,15.1,22
	S236.8,99.8,234.5,87.5L234.5,87.5z"/>
<path class="st4" d="M236.4,101.9c-2-0.4-4-0.3-5.9,0.4L236.4,101.9z"/>
<path class="st5" d="M236.4,101.9c-2-0.4-4-0.3-5.9,0.4"/>
<path class="st8" d="M234,107.7c-0.4,0-0.8-0.3-1-0.7c-0.1-0.1-0.1-0.3-0.1-0.4l0-1.7c0-0.6,0.4-1.1,1-1.1c0.4,0,0.8,0.3,1,0.7
	c0.1,0.1,0.1,0.3,0.1,0.4l0,1.7C235.1,107.2,234.6,107.7,234,107.7z"/>
<path class="st4" d="M240.5,101.8c1.9-0.5,4-0.5,5.9,0.1L240.5,101.8z"/>
<path class="st5" d="M240.5,101.8c1.9-0.5,4-0.5,5.9,0.1"/>
<path class="st8" d="M243.1,107.5c0.3,0,0.6-0.1,0.8-0.3c0.2-0.2,0.3-0.5,0.3-0.8l0-1.7c0-0.3-0.1-0.6-0.3-0.8
	c-0.2-0.2-0.5-0.3-0.8-0.3c-0.6,0-1.1,0.5-1,1.1c0,0,0,0,0,0l0,1.7c0,0.3,0.1,0.6,0.3,0.8C242.5,107.4,242.8,107.5,243.1,107.5z"/>
<path class="st4" d="M238.5,105.7l0.1,2.3c0,0-1.7,1.8,0.1,2.6"/>
<path class="st5" d="M238.5,105.7l0.1,2.3c0,0-1.7,1.8,0.1,2.6"/>
<path class="st4" d="M242.8,110.9c-1.4,0.1-2.7,1-3.2,2.4"/>
<path class="st5" d="M242.8,110.9c-1.4,0.1-2.7,1-3.2,2.4"/>
<path class="st6" d="M153.2,262.7l-7.9-1.1c0,0-14,17.5,22.6,24.9L153.2,262.7L153.2,262.7z"/>
<path class="st8" d="M205.3,265.6c0,0-23.9-3.6-41.4-5c-6.8-0.5-12.7-0.7-15.7-0.2c-10.3,1.7-0.6,22.2,19.9,26.2
	c1.3,0.3,2.6,0.4,3.9,0.6c23.1,2,43.1,0.2,45.6-2.2C224,278.7,205.3,265.6,205.3,265.6L205.3,265.6z"/>
<path class="st9" d="M167.9,258.4c-11.6,6.5,2.4,37.3,2.4,37.3"/>
<path class="st4" d="M225.9,252.2c-8.1,5.2-16.5,9.9-25.1,14.2c-4.5,5.9-2.7,11.1-0.3,14.5c2,2.8,5.3,4.3,8.7,4.1
	c5-0.3,21.3-7.1,26.3-7.7C233.7,268.9,225.1,261.2,225.9,252.2L225.9,252.2z"/>
<path class="st7" d="M221.2,254.5c-1.1,2.8-3.2,32.9-3.2,32.9l15.4-6.4"/>
<path class="st5" d="M225.9,252.2c-8.1,5.2-16.5,9.9-25.1,14.2c-4.5,5.9-2.7,11.1-0.3,14.5c2,2.8,5.3,4.3,8.7,4.1
	c5-0.3,21.3-7.1,26.3-7.7C233.7,268.9,225.1,261.2,225.9,252.2L225.9,252.2z"/>
<path class="st4" d="M328.5,207.1c-29.2,10-82.1,29.3-107.7,46c-3,6.9,10.3,42.7,11.9,43.9c0,0,86-27.3,115.9-48
	c9.1-6.4,12.6-18.3,8.4-28.6C352.6,209,340,203.2,328.5,207.1z"/>
<path class="st4" d="M228.3,246.7c-4.5,8.9,17.1,53.3,17.1,53.3L228.3,246.7z"/>
<path class="st5" d="M228.3,246.7c-4.5,8.9,17.1,53.3,17.1,53.3 M361.1,239.2l-124.4,51.9"/>
<path class="st5" d="M328.5,207.1c-29.2,10-82.1,29.3-107.7,46c-3,6.9,10.3,42.7,11.9,43.9c0,0,86-27.3,115.9-48
	c9.1-6.4,12.6-18.3,8.4-28.6l0,0C352.6,209,340,203.2,328.5,207.1L328.5,207.1z M218.4,99.7l1.3,2.2 M255.8,99.7l-1.3,2.2"/>
<path class="st0" d="M127.2,140.2c3.6,0,6.6-2.9,6.6-6.6c0-3.6-2.9-6.6-6.6-6.6c-3.6,0-6.6,2.9-6.6,6.6
	C120.6,137.2,123.5,140.2,127.2,140.2z"/>
</svg>
