<?xml version="1.0" encoding="utf-8"?>
<!-- Generator: Adobe Illustrator 28.0.0, SVG Export Plug-In . SVG Version: 6.00 Build 0)  -->
<svg version="1.1" id="图层_1" xmlns="http://www.w3.org/2000/svg" xmlns:xlink="http://www.w3.org/1999/xlink" x="0px" y="0px"
	 viewBox="0 0 400 300" style="enable-background:new 0 0 400 300;" xml:space="preserve">
<style type="text/css">
	.st0{opacity:0.27;fill:#D6DCED;enable-background:new    ;}
	.st1{fill:#FFFFFF;}
	.st2{fill:#DCDDDD;}
	.st3{fill:none;stroke:#31333A;stroke-linecap:round;stroke-linejoin:round;}
	.st4{fill:#31333A;}
	.st5{fill:#5578EC;stroke:#31333A;stroke-linecap:round;stroke-linejoin:round;}
	.st6{fill:#FFFFFF;stroke:#31333A;stroke-linecap:round;stroke-linejoin:round;}
	.st7{fill:#B5B5B6;}
	.st8{opacity:0.3;}
	.st9{fill:none;stroke:#FFFFFF;stroke-width:2;stroke-miterlimit:10;}
	.st10{fill:none;stroke:#3351E5;stroke-width:2;stroke-linecap:round;stroke-linejoin:round;}
</style>
<path class="st0" d="M189.4,275.2c69.8,0,126.3-56.6,126.3-126.3S259.2,22.5,189.4,22.5S63.1,79.1,63.1,148.9
	S119.7,275.2,189.4,275.2z"/>
<path class="st1" d="M231,250.2c0.3,0.8,19.2,25.1,19.2,25.1l6-12.4l-21.1-36.6L231,250.2z"/>
<path class="st2" d="M236.6,254.7c-3.3,11.2,19-0.2,20.8-5.3c1.8-5.2-4.1-14-4.1-14l-7.1,11"/>
<path class="st3" d="M231,250.2c0.3,0.8,19.2,25.1,19.2,25.1l6-12.4l-21.1-36.6L231,250.2z"/>
<path class="st4" d="M242.1,266.9l12-8.1l9.2,12.2L247.6,296l-13.4,4c-1.7-2.8-2-6.2-1-9.2C236.6,282.8,252,289,242.1,266.9
	L242.1,266.9z"/>
<path class="st3" d="M242.7,268.9l4.2,0.6 M243.4,273.6l3.8,0.5 M241.8,278.2l5.2,0.5"/>
<path class="st1" d="M155.2,255c-0.5,0.7-12.4,29.9-12.4,29.9l14.1-1.5l21.6-37.7L155.2,255L155.2,255z"/>
<path class="st2" d="M154.1,262.2c-11.6,3.2,9.9,16.2,15.4,15c5.5-1.2,10.3-11,10.3-11l-13.4-0.2"/>
<path class="st3" d="M155.2,255c-0.5,0.7-12.4,29.9-12.4,29.9l14.1-1.5l21.6-37.7L155.2,255L155.2,255z"/>
<path class="st4" d="M146.1,273.4l13.4,5.9l-6.1,14.4h-44.5c1.6-2.9,4.4-5,7.7-5.8C125.3,286.6,141.3,282.3,146.1,273.4z"/>
<path class="st3" d="M108.2,290.7l52.1-0.3 M144.6,275l1.7,4 M140.8,278.1l1.4,3.5 M135.9,279.3l2.2,4.7"/>
<path class="st1" d="M177,138.5c-3-2-6.6-2.8-10.2-2.3c-3,0.6-6.2,0.4-9.1-0.6c0,0-1.9,3.7,4.4,4.3c0,0-9.2,5.5-15.5,4.2
	c-4-0.8-4.9,5,7.5,3.8c9.4-0.9,17.5-4.6,23.6-2.9C179.8,145.6,177,138.5,177,138.5L177,138.5z"/>
<path class="st2" d="M168.7,136c-0.3,4.2-0.4,8.4-0.1,12.6l7.3-3.1l-4.6-5.9l1.1,9.6"/>
<path class="st3" d="M177,138.5c-3-2-6.6-2.8-10.2-2.3c-3,0.6-6.2,0.4-9.1-0.6c0,0-1.9,3.7,4.4,4.3c0,0-9.2,5.5-15.5,4.2
	c-4-0.8-4.9,5,7.5,3.8c9.4-0.9,17.5-4.6,23.6-2.9C179.8,145.6,177,138.5,177,138.5L177,138.5z"/>
<path class="st2" d="M262.6,127l-39.5,16.1c-2.3,1-4.8,1.5-7.3,1.7l-42.4,3.2c0,0-5.6-9.2-4.8-14.6l44.3-7.3l38.5-25.4L262.6,127"/>
<path class="st5" d="M152.6,157.2c43.3,0,78.4-35.1,78.4-78.4c0-43.3-35.1-78.4-78.4-78.4c-43.3,0-78.4,35.1-78.4,78.4
	C74.2,122.2,109.3,157.2,152.6,157.2L152.6,157.2z"/>
<path class="st6" d="M148,98.7c1.7-1.6,4.4-1.7,6.2-0.2c1.6,1.8,1.6,4.5,0,6.2l-5.3,5.3c-3.6,3.6-8.6,5.7-13.7,5.7
	c-5.2,0-10.1-2-13.7-5.7c-3.6-3.6-5.7-8.6-5.7-13.7c0-5.2,2-10.1,5.7-13.7l12.7-12.7c3.6-3.7,8.6-5.7,13.7-5.7
	c5.2,0,10.1,2.1,13.7,5.7c1.7,1.7,1.7,4.5,0,6.2c-1.7,1.7-4.5,1.7-6.2,0c-2-2-4.8-3.2-7.6-3.2c-2.9,0-5.6,1.2-7.6,3.2l-12.7,12.7
	c-3.1,3.1-4,7.7-2.3,11.8c1.7,4,5.6,6.7,9.9,6.7c2.9,0,5.6-1.2,7.6-3.2L148,98.7C148,98.7,148,98.7,148,98.7z M183.7,47.7
	c5.6,5.5,7.2,13.9,4.2,21.2c-1,2.4-2.4,4.5-4.2,6.3L171,87.9c-3.6,3.7-8.6,5.7-13.7,5.7c-5.2,0-10.1-2.1-13.7-5.7l-0.2-0.2
	c-1.4-1.7-1.3-4.2,0.2-5.8c1.8-1.6,4.5-1.6,6.2,0c2,2,4.8,3.2,7.6,3.2c2.9,0,5.6-1.2,7.6-3.2l12.7-12.7c4.2-4.3,4.2-11.1-0.1-15.3
	c-2-2-4.7-3.1-7.5-3.1c-2.9,0-5.6,1.2-7.6,3.2l-5.3,5.3c-0.8,0.8-1.9,1.3-3.1,1.3c-2.4,0-4.4-2-4.4-4.4c0-1.2,0.5-2.3,1.3-3.1
	l5.3-5.3C163.8,40.1,176.1,40.1,183.7,47.7C183.7,47.7,183.7,47.7,183.7,47.7L183.7,47.7L183.7,47.7z"/>
<path class="st1" d="M254.2,75l11.5,25.4l-17.5,2.1L245,80.6L254.2,75L254.2,75z"/>
<path class="st2" d="M250.9,82.8l-5.8,13.8l-1.1-12.2l3.4-3"/>
<path class="st3" d="M254.2,75l11.5,25.4l-17.5,2.1L245,80.6L254.2,75L254.2,75z"/>
<path class="st1" d="M250,85.3L244,87c-0.7,0.2-1.4,0.2-2.1,0.1c-3.5-0.8-5.6-4.3-4.8-7.8l3.3-14.1l12.6,5.9l0,10.8"/>
<path class="st3" d="M250,85.3L244,87c-0.7,0.2-1.4,0.2-2.1,0.1c-3.5-0.8-5.6-4.3-4.8-7.8l3.3-14.1l12.6,5.9l0,10.8"/>
<path class="st4" d="M247.9,77.8c-3.6-0.3-0.6-7.5-6.7-7.1c-6.2,0.4-16.3-12-7-9c9.2,3,2.6-10,8.3-3.9s6.8,9.9,12.7,9.8
	c5.9-0.1,4.5,12.4-0.1,14.9C250.5,85,247.9,77.8,247.9,77.8L247.9,77.8z"/>
<path class="st1" d="M245.3,76.7c10.6-5.3,11.6,3.3,3.5,6.4L245.3,76.7z"/>
<path class="st3" d="M245.3,76.7c10.6-5.3,11.6,3.3,3.5,6.4"/>
<path class="st4" d="M240.1,76.8c-0.4-0.2-0.6-0.6-0.5-1.1l0.2-0.7c0.1-0.2,0.2-0.4,0.4-0.4c0.2-0.1,0.4-0.1,0.6,0
	c0.4,0.2,0.6,0.6,0.5,1.1l-0.2,0.7c-0.1,0.2-0.2,0.4-0.4,0.4C240.5,76.9,240.3,76.9,240.1,76.8L240.1,76.8z"/>
<path class="st1" d="M240.4,73.1c1.1,0.1,2.1,0.5,3,1.1L240.4,73.1L240.4,73.1z"/>
<path class="st3" d="M240.4,73.1c1.1,0.1,2.1,0.5,3,1.1"/>
<path class="st7" d="M239,79.6l4-2C246,81.3,240.1,83.4,239,79.6z"/>
<path class="st3" d="M251.2,76.8l-3.1,2.1 M250,79.4v-1.6"/>
<path class="st1" d="M140.5,262.1c0,0,25.3,16.1,33.7,13.3l30.1-68.8l61.1-38.6l-7.8-31.5l-72.1,44.2c-3.2,1.9-5.7,4.7-7.2,8
	L140.5,262.1z"/>
<path class="st2" d="M243.4,159.2c0,0-34.1,38.8-39.1,47.3c-9.6,16.5,41.5-13.9,41.5-13.9"/>
<path class="st2" d="M194.4,235.8l-7.5-18.6c-2.1-5.1-0.6-11,3.6-14.6l29.9-29.1l-15.6,54.1"/>
<path class="st1" d="M140.5,252.8c19.4,14.4,44.6,15.4,44.6,15.4L140.5,252.8L140.5,252.8z"/>
<path class="st3" d="M140.5,252.8c19.4,14.4,44.6,15.4,44.6,15.4"/>
<path class="st3" d="M140.5,262.1c0,0,25.3,16.1,33.7,13.3l30.1-68.8l61.1-38.6l-7.8-31.5l-72.1,44.2c-3.2,1.9-5.7,4.7-7.2,8
	L140.5,262.1z"/>
<path class="st1" d="M261.2,89.8l-2.1-4.2l-14.7,8.7l-0.7,6.1l18.8-7.8"/>
<path class="st3" d="M261.2,89.8l-2.1-4.2l-14.7,8.7l-0.7,6.1l18.8-7.8"/>
<path class="st1" d="M223.6,169l-25.2,30.5c-2.5,4.1-16.8,15,1.3,36.3l28.5,37.1c19.6-5.8,26.3-20.8,26.3-20.8l-28.4-37.6l27.4-26.6
	c7.4-6.7,12.7-15.3,15.3-24.9l2.4-8.7l-25.8-11.7"/>
<path class="st2" d="M235.1,154.1c2.9,12.6,62.9,36.3,62.9,36.3l-19.4-30.6"/>
<path class="st1" d="M211.5,270.2c27.4,0.8,43-31.2,43-31.2L211.5,270.2z"/>
<path class="st3" d="M211.5,270.2c27.4,0.8,43-31.2,43-31.2"/>
<path class="st3" d="M254.5,157.6c-0.5,15.3-28.7,44.1-39.3,54.4c-2.3,2.2-2.4,5.7-0.3,8.1l30.3,33.9"/>
<path class="st3" d="M243.3,161c-16.1,15.2-1.6,21.7-1.6,21.7"/>
<path class="st3" d="M223.6,169l-25.2,30.5c-2.5,4.1-16.8,15,1.3,36.3l28.5,37.1c19.6-5.8,26.3-20.8,26.3-20.8l-28.4-37.6l27.4-26.6
	c7.4-6.7,12.7-15.3,15.3-24.9l2.4-8.7l-25.8-11.7"/>
<path class="st7" d="M220.6,149.8c1.9,5.5,53.3,19.2,53.3,19.2s-1-22.8,2.6-41.1c4-20.5-15.3-39.1-15.3-39.1l-17.5,8.8
	c-8.6,9.5-11.9,22.5-9,35C237.6,146,220.6,149.8,220.6,149.8L220.6,149.8z"/>
<g class="st8">
	<path class="st9" d="M339.4,239.1c10.3-19.7,1.2-44.9-20.3-56.1c-21.5-11.2-47.3-4.3-57.6,15.4c-10.3,19.7-1.2,44.9,20.3,56.1
		C303.3,265.7,329.1,258.8,339.4,239.1z"/>
	<path class="st9" d="M283.1,241.2c3.9-13.8-13.8-30.9-39.6-38.3c-25.8-7.4-49.9-2.2-53.8,11.6c-3.9,13.8,13.8,30.9,39.6,38.3
		C255,260.1,279.1,254.9,283.1,241.2z"/>
	<path class="st6" d="M207.1,253.5c24.7,0,44.8-21.8,44.8-48.8c0-26.9-20.1-48.8-44.8-48.8s-44.8,21.8-44.8,48.8
		C162.3,231.7,182.4,253.5,207.1,253.5z"/>
</g>
<path class="st4" d="M259,125.3l5.2,4.4l-40.5,27.6l-5.1-15.4l20.3-8.3"/>
<path class="st3" d="M220.6,149.8c1.9,5.5,53.3,19.2,53.3,19.2s-1-22.8,2.6-41.1c4-20.5-15.3-39.1-15.3-39.1l-17.5,8.8
	c-8.6,9.5-11.9,22.5-9,35C237.6,146,220.6,149.8,220.6,149.8L220.6,149.8z"/>
<path class="st1" d="M179,145.8c-3.6-1.4-7.6-1.5-11.3-0.2c-6,2.2-9.9,1.3-9.9,1.3s-1.7,4.3,5.2,3.5c0,0-9.4,7.6-16.3,7.6
	c-4.5,0-4.7,6.2,8.5,2.4c10-2.9,18.4-8.5,25.3-8C182.8,152.6,179,145.8,179,145.8L179,145.8z"/>
<path class="st2" d="M172.6,140.2c-3.3,10.5,0.7,15.5,0.4,19.2c-0.3,3.7,5.4-2.4,5.4-2.4v-6.1"/>
<path class="st3" d="M179,145.8c-3.6-1.4-7.6-1.5-11.3-0.2c-6,2.2-9.9,1.3-9.9,1.3s-1.7,4.3,5.2,3.5c0,0-9.4,7.6-16.3,7.6
	c-4.5,0-4.7,6.2,8.5,2.4c10-2.9,18.4-8.5,25.3-8C182.8,152.6,179,145.8,179,145.8L179,145.8z"/>
<path class="st7" d="M244.2,101l-31.3,26L170.2,141c0,5.5,6.8,13.7,6.8,13.7l42.2-5.9c6.1-1.1,34.8-14.3,47.8-20.3"/>
<g class="st8">
	<path class="st9" d="M308.5,201.9c10.3-19.7,1.2-44.9-20.3-56.1c-21.5-11.2-47.3-4.3-57.6,15.4c-10.3,19.7-1.2,44.9,20.3,56.1
		C272.4,228.6,298.2,221.7,308.5,201.9L308.5,201.9z"/>
	<path class="st9" d="M252.2,204c3.9-13.8-13.8-30.9-39.6-38.3c-25.8-7.4-49.9-2.2-53.8,11.6c-3.9,13.8,13.8,30.9,39.6,38.3
		C224.1,223,248.2,217.8,252.2,204L252.2,204z M282.3,64c2.7-14.1-16.5-29.6-42.8-34.5c-26.3-4.9-49.8,2.5-52.4,16.6
		s16.5,29.6,42.8,34.5C256.2,85.6,279.7,78.2,282.3,64z"/>
</g>
<path class="st3" d="M244.2,101l-31.3,26L170.2,141c0,5.5,6.8,13.7,6.8,13.7l42.2-5.9c6.1-1.1,34.8-14.3,47.8-20.3"/>
<path class="st1" d="M238.8,73.6c-2.7,2.5-3.8,4.5-0.6,5.2L238.8,73.6z"/>
<path class="st3" d="M238.8,73.6c-2.7,2.5-3.8,4.5-0.6,5.2 M167.1,149.6l-4.1,0.9"/>
<path class="st10" d="M98.5,205c3.1,0,5.6-2.5,5.6-5.6c0-3.1-2.5-5.6-5.6-5.6c-3.1,0-5.6,2.5-5.6,5.6C92.9,202.5,95.4,205,98.5,205z
	 M260.9,32.5l9.5-3.4 M256.2,40.8l9.5-3.4"/>
</svg>
