<svg id="a" xmlns="http://www.w3.org/2000/svg" viewBox="0 0 300 300"><defs><style>.b,.c,.d{stroke:#31333a;}.b,.c,.d,.e{stroke-linecap:round;stroke-linejoin:round;}.b,.f{fill:#dcdddd;}.c,.g{fill:#fff;}.d,.e{fill:none;}.h{isolation:isolate;opacity:.3;}.h,.i,.j,.k,.f,.l,.g{stroke-width:0px;}.h,.k{fill:#247aba;}.e{stroke:#6ea4cc;stroke-width:2px;}.i{fill:#31333a;}.j{fill:#6ea4cc;}.l{fill:#b5b5b6;}</style></defs><path class="h" d="m150,271.32c67,0,121.32-54.32,121.32-121.32S217,28.68,150,28.68,28.68,83,28.68,150s54.32,121.32,121.32,121.32Z"/><path class="k" d="m240.74,63.95c-.96-2.57-2.45-4.91-4.37-6.86-7.54-7.64-19.86-7.72-27.5-.18-2.17,2.14-3.81,4.76-4.78,7.65-2.33,6.94-.56,14.61,4.58,19.82,5.95-2.31,11.64-5.24,16.98-8.73,5.42-3.36,10.48-7.29,15.08-11.71Z"/><path class="d" d="m240.74,63.95c-.96-2.57-2.45-4.91-4.37-6.86-7.54-7.64-19.86-7.72-27.5-.18-2.17,2.14-3.81,4.76-4.78,7.65-2.33,6.94-.56,14.61,4.58,19.82,5.95-2.31,11.64-5.24,16.98-8.73,5.42-3.36,10.48-7.29,15.08-11.71h0Z"/><path class="k" d="m211.03,86.43c8.67,6.34,20.83,4.46,27.17-4.21,3.21-4.39,4.44-9.93,3.38-15.27-4.48,4.1-9.32,7.79-14.46,11.02-5.1,3.3-10.48,6.13-16.09,8.46Z"/><path class="d" d="m211.03,86.43c8.67,6.34,20.83,4.46,27.17-4.21,3.21-4.39,4.44-9.93,3.38-15.27-4.48,4.1-9.32,7.79-14.46,11.02-5.1,3.3-10.48,6.13-16.09,8.46h0Z"/><path class="g" d="m248.39,54.25c-1.45-2.27-5.34-2.35-11.57-.24-.95.32-1.89.67-2.82,1.05.84.61,1.63,1.29,2.36,2.04,5.63-2.07,9.13-2.3,9.72-1.37.59.93-1.09,4.01-5.35,8.23-4.6,4.42-9.66,8.34-15.08,11.71-5.34,3.5-11.03,6.42-16.98,8.73-5.63,2.07-9.13,2.3-9.72,1.37-.59-.93,1.09-4.01,5.35-8.23-.36-.98-.65-1.98-.85-3-.73.69-1.45,1.39-2.14,2.11-4.54,4.76-6.12,8.32-4.67,10.59,1.45,2.27,5.34,2.35,11.57.24.91-.31,1.85-.66,2.82-1.05,5.61-2.33,11-5.16,16.09-8.46,5.14-3.23,9.98-6.91,14.46-11.02.73-.69,1.45-1.39,2.14-2.11,4.55-4.76,6.12-8.32,4.67-10.59h0Z"/><path class="d" d="m248.39,54.25c-1.45-2.27-5.34-2.35-11.57-.24-.95.32-1.89.67-2.82,1.05.84.61,1.63,1.29,2.36,2.04,5.63-2.07,9.13-2.3,9.72-1.37.59.93-1.09,4.01-5.35,8.23-4.6,4.42-9.66,8.34-15.08,11.71-5.34,3.5-11.03,6.42-16.98,8.73-5.63,2.07-9.13,2.3-9.72,1.37-.59-.93,1.09-4.01,5.35-8.23-.36-.98-.65-1.98-.85-3-.73.69-1.45,1.39-2.14,2.11-4.54,4.76-6.12,8.32-4.67,10.59,1.45,2.27,5.34,2.35,11.57.24.91-.31,1.85-.66,2.82-1.05,5.61-2.33,11-5.16,16.09-8.46,5.14-3.23,9.98-6.91,14.46-11.02.73-.69,1.45-1.39,2.14-2.11,4.55-4.76,6.12-8.32,4.67-10.59h0Z"/><path class="g" d="m259.83,229.79l7.66-9.11-25.24-12.21-5.89,14.64,23.48,6.68Z"/><path class="d" d="m259.83,229.79l7.66-9.11-25.24-12.21-5.89,14.64,23.48,6.68Z"/><path class="g" d="m277.7,224.99l-10.46-5.41-10.94,10.45s10.3,1.52,5.09,14.41c-5.63,13.93.37,13.69.37,13.69l15.95-33.14h0Z"/><path class="d" d="m277.48,222.23l-20.8,41.64"/><path class="c" d="m266.88,230.63c1.65,0,2.98-1.34,2.98-2.99,0-1.65-1.34-2.98-2.99-2.98s-2.98,1.34-2.98,2.99c0,1.65,1.34,2.98,2.99,2.98h0Z"/><path class="g" d="m262.57,231.2l-7.85,4.48,4.55,3.44,6.64-5.56"/><path class="d" d="m262.57,231.2l-7.85,4.48,4.55,3.44,6.64-5.56"/><path class="d" d="m277.7,224.99l-10.46-5.41-10.94,10.45s10.3,1.52,5.09,14.41c-5.63,13.93.37,13.69.37,13.69l15.95-33.14h0Z"/><path class="g" d="m235.37,157.21l-3.58-11.35-23.84,14.75,9.2,12.83,18.23-16.23h0Z"/><path class="d" d="m235.37,157.21l-3.58-11.35-23.84,14.75,9.2,12.83,18.23-16.23h0Z"/><path class="g" d="m240.91,139.55l-10.18,5.93,2.95,14.84s6.81-7.88,14.89,3.43c8.73,12.23,11.75,7.03,11.75,7.03l-19.41-31.24h0Z"/><path class="d" d="m238.46,138.26l23.98,39.89"/><path class="c" d="m237.34,153.1c1.65,0,2.98-1.34,2.98-2.98s-1.34-2.98-2.98-2.98-2.98,1.34-2.98,2.98,1.34,2.98,2.98,2.98Z"/><path class="g" d="m238.04,155.66l-.43,9.03,5.34-1.99-1.13-8.58"/><path class="d" d="m238.04,155.66l-.43,9.03,5.34-1.99-1.13-8.58"/><path class="d" d="m240.91,139.55l-10.18,5.93,2.95,14.84s6.81-7.88,14.89,3.43c8.73,12.23,11.75,7.03,11.75,7.03l-19.41-31.24h0Z"/><path class="f" d="m175.92,100.14c-1.26,15.54-19.03,25.62-19.03,25.62l24.67,2.44-4.17-18.74"/><path class="f" d="m220.53,152.14c9.3,2.85,14.96,23.1,14.96,23.1l-59.85,36.1c-6.93,6.08-30.02,3.6-24.69-20.19l4.36-68.45,28.75-4.92-2.12,52.5,38.59-18.14h0Z"/><path class="f" d="m165.38,135.21l28.06,79.57-4.68-64.21-15.13-8.65"/><path class="d" d="m165.38,135.21l28.06,79.57-4.68-64.21-15.13-8.65"/><path class="d" d="m220.53,152.14c9.3,2.85,14.96,23.1,14.96,23.1l-59.85,36.1c-6.93,6.08-30.02,3.6-24.69-20.19l4.36-68.45,28.75-4.92-2.12,52.5,38.59-18.14h0Z"/><path class="f" d="m155.31,122.7s21.99-3.2,31.11-3.2,19.75,67.65,19.75,67.65l50.82,27.43c.92,8.74-13.38,30.31-13.38,30.31,0,0-47.06-26.74-62.71-38.35-3.03-2.27-5.2-5.51-6.14-9.19l-11.74-45.05"/><path class="d" d="m250.91,208.47c3.37,17.03-17.17,38.36-17.17,38.36"/><path class="d" d="m184.61,128.2l13.13,63.57,52.52,27.82"/><path class="d" d="m155.31,122.7s21.99-3.2,31.11-3.2,19.75,67.65,19.75,67.65l50.82,27.43c.92,8.74-13.38,30.31-13.38,30.31,0,0-47.06-26.74-62.71-38.35-3.03-2.27-5.2-5.51-6.14-9.19l-11.74-45.05"/><path class="g" d="m106.67,112.02s-10.54,4.77-16.77,2.73c-6.24-2.04-5.77-3.04-6.51-2.64-.73.4-2.02,3.19,3.22,4.74,0,0-2.95,2.24-11.07,3.51-6.14.96,1.53,7.28,14.12,4.09,7.17-1.89,14.56-2.79,21.97-2.67l-4.96-9.77h0Z"/><path class="f" d="m94.62,114.93c-.32,3.42-1.07,10.41-1.07,10.41l6.82-2.92-4.25-6.31"/><path class="d" d="m106.67,112.02s-10.54,4.77-16.77,2.73c-6.24-2.04-5.77-3.04-6.51-2.64-.73.4-2.02,3.19,3.22,4.74,0,0-2.95,2.24-11.07,3.51-6.14.96,1.53,7.28,14.12,4.09,7.17-1.89,14.56-2.79,21.97-2.67l-4.96-9.77h0Z"/><path class="g" d="m94.11,113.74s1.31,10.06,5.92,12.93l32-8.06c18.13-4.69,43.9-21.5,43.9-21.5l-28.38-15.33-23.75,21.17-29.69,10.79Z"/><path class="f" d="m144.11,95.85c-2.73,6.9.85,21.93.85,21.93l16.53-5.31-11.34-11.72"/><path class="c" d="m179.2,120.87l-11.03-4.86c-4.35-1.92-9.44.05-11.36,4.4h0c-.61,1.39-.85,2.91-.68,4.41l1.31,11.98c.16,1.5.72,2.94,1.61,4.16,2.81,3.84,8.2,4.67,12.03,1.87,0,0,0,0,0,0l9.72-7.12c2.48-1.82,3.81-4.82,3.48-7.89-.33-3.06-2.27-5.71-5.09-6.95h0Zm-30.93,50.68l7.94-9.07c3.13-3.58,2.77-9.02-.81-12.16-1.14-1-2.52-1.68-4-1.97l-11.82-2.34c-3.02-.6-6.13.46-8.16,2.78-2.03,2.32-2.67,5.54-1.68,8.45l3.88,11.41c1.53,4.51,6.43,6.91,10.94,5.38,1.43-.49,2.71-1.34,3.7-2.48Zm-41.62,8.48l7.94-9.07c2.03-2.32,2.67-5.54,1.68-8.45-.99-2.91-3.46-5.08-6.48-5.68l-11.82-2.34c-3.02-.6-6.13.46-8.16,2.77-2.03,2.32-2.67,5.54-1.68,8.45l3.88,11.41c.99,2.91,3.46,5.08,6.48,5.68,3.02.6,6.13-.46,8.16-2.78Zm103.85-38.26l-11.03-4.86c-2.82-1.24-6.08-.88-8.57.93-2.48,1.82-3.81,4.82-3.48,7.88l1.3,11.98c.33,3.06,2.27,5.71,5.09,6.95,2.82,1.24,6.08.89,8.57-.93l9.72-7.12c2.48-1.82,3.81-4.82,3.48-7.88-.33-3.06-2.27-5.71-5.09-6.95h0Zm-35.16,52.85l7.94-9.07c2.03-2.32,2.67-5.54,1.68-8.45-.99-2.91-3.46-5.08-6.48-5.68l-11.82-2.34c-3.02-.6-6.13.46-8.16,2.78-2.03,2.32-2.67,5.54-1.67,8.45l3.88,11.41c1.53,4.51,6.43,6.91,10.94,5.38,1.43-.49,2.71-1.34,3.7-2.48Zm-32.64,17.55l7.94-9.07c2.03-2.32,2.67-5.54,1.68-8.45-.99-2.91-3.46-5.08-6.48-5.68l-11.82-2.34c-4.67-.93-9.2,2.11-10.13,6.78-.29,1.48-.19,3.02.3,4.45l3.88,11.41c.99,2.91,3.46,5.08,6.48,5.68,3.02.6,6.13-.46,8.16-2.77h0Z"/><path class="d" d="m94.11,113.74s1.31,10.06,5.92,12.93l32-8.06c18.13-4.69,43.9-21.5,43.9-21.5l-28.38-15.33-23.75,21.17-29.69,10.79Z"/><path class="g" d="m147.54,81.77c1.33-1.13,2.94-1.87,4.67-2.13,5.91-.89,26.87-3.31,39.79,8.78,1.35,1.19,1.97,3,1.63,4.77-1.56,7.33-14.98,25.75-11.72,30.02l-27.32,1.21c.72-7.18-10.31-16.3-11.52-28.2"/><path class="f" d="m175.47,103.46c-4.65,8.81-10.93,16.66-18.51,23.12l20.03.42-.23-11.29"/><path class="d" d="m147.54,81.77c1.33-1.13,2.94-1.87,4.67-2.13,5.91-.89,26.87-3.31,39.79,8.78,1.35,1.19,1.97,3,1.63,4.77-1.56,7.33-14.98,25.75-11.72,30.02l-27.32,1.21c.72-7.18-10.31-16.3-11.52-28.2"/><path class="i" d="m159.16,68.13c3.46,0,6.26-3.49,6.26-7.79s-2.8-7.78-6.26-7.78-6.26,3.49-6.26,7.78,2.8,7.79,6.26,7.79Z"/><path class="g" d="m171.49,65.1l3.82,14.7s-2.75,8.02-14.25,9.32c-4.24.48,2.75-9.86,2.75-9.86l-.72-15.62,8.39,1.46Z"/><path class="f" d="m161.95,80.74l6.61-8.9-4.39.36-2.68,3.39"/><path class="d" d="m171.49,65.1l3.82,14.7s-2.75,8.02-14.25,9.32c-4.24.48,2.75-9.86,2.75-9.86l-.72-15.62,8.39,1.46Z"/><path class="c" d="m169.88,70.45c-3.41,5.8-16.91,8.5-11.79-12.24.41-1.67,11.79-1.26,11.79-1.26,0,0,3.41,7.7,0,13.5h0Z"/><path class="i" d="m157.33,57.87c2.07,9.54,12.56,7.67,12.56,7.67-.6,2.83.16,5.78,2.07,7.96,28.89-13.4-10.41-36.33-14.64-15.63h0Z"/><path class="c" d="m164.98,65.76c7.65-6.79,11.41,2.59,4.93,3.85-6.48,1.26-4.93-3.85-4.93-3.85Z"/><path class="g" d="m159.59,63.85c0,.1-.73,2.18-.73,2.18-2.24.33,0,1.62,0,1.62"/><path class="d" d="m159.59,63.85c0,.1-.73,2.18-.73,2.18-2.24.33,0,1.62,0,1.62"/><path class="i" d="m157.63,65.19c-.3-.06-.5-.36-.45-.66l.1-.51c.04-.22.21-.39.43-.43.32-.05.61.16.66.48,0,.06,0,.13,0,.19l-.1.52c-.01.07-.04.14-.08.2-.08.12-.21.2-.35.23-.07.01-.14,0-.21,0h0Z"/><path class="d" d="m156.39,62.33l2.64.48"/><path class="i" d="m161.16,65.71c-.3-.06-.5-.36-.45-.66l.1-.51c.04-.22.21-.39.43-.43.31-.05.61.16.66.48.01.06.01.13,0,.19l-.1.52c-.03.14-.11.27-.24.35-.12.08-.27.11-.41.07h0Z"/><path class="d" d="m160.79,62.85l2.64.48"/><path class="l" d="m159,68.61l3.67-.97c1.73,3.63-3.57,4.34-3.67.97Z"/><path class="d" d="m169.29,66.58l1.23-1.21m-.48,1.67l-.06-1.07"/><path class="b" d="m99.49,111.03l-5.38,2.71s1.18,10.54,6.08,13.27l3.69-.97s-6.07-9.95-4.39-15Z"/><path class="j" d="m113.24,164.05l-18.5,11.03,24.15,40.53,18.5-11.03-24.15-40.53Z"/><path class="i" d="m160.26,263.99c-4.37,2.6-9.61,3.34-14.52,2.03-4.92-1.31-9.1-4.54-11.6-8.97l-27.94-49.47,30.18-17.99,30.21,48.12c1.34,2.13,2.24,4.51,2.64,7,.82,5.02-.41,10.16-3.43,14.26-1.49,2.03-3.38,3.74-5.54,5.02Z"/><path class="k" d="m51.17,81.76c-28.05,16.71-37.24,53-20.53,81.05,1.98,3.33,4.29,6.45,6.88,9.33,16.01,17.76,41.15,24.12,63.68,16.12,30.77-10.92,46.87-44.71,35.95-75.49-1.3-3.65-2.95-7.17-4.93-10.5-16.72-28.05-53-37.24-81.06-20.52h0Zm52.45,88.02c-7.36,4.39-15.86,6.49-24.42,6.05-23.91-1.24-42.28-21.62-41.04-45.53.15-2.83.57-5.64,1.27-8.39,5.88-23.2,29.45-37.25,52.65-31.37,23.2,5.88,37.25,29.45,31.37,52.65-2.82,11.14-9.95,20.7-19.82,26.59h0Z"/><path class="d" d="m51.17,81.76c-28.05,16.71-37.24,53-20.53,81.05,1.98,3.33,4.29,6.45,6.88,9.33,16.01,17.76,41.15,24.12,63.68,16.12,30.77-10.92,46.87-44.71,35.95-75.49-1.3-3.65-2.95-7.17-4.93-10.5-16.72-28.05-53-37.24-81.06-20.52h0Zm52.45,88.02c-7.36,4.39-15.86,6.49-24.42,6.05-23.91-1.24-42.28-21.62-41.04-45.53.15-2.83.57-5.64,1.27-8.39,5.88-23.2,29.45-37.25,52.65-31.37,23.2,5.88,37.25,29.45,31.37,52.65-2.82,11.14-9.95,20.7-19.82,26.59h0Z"/><path class="c" d="m175.2,77.82c1.92.83,3.63,2.06,5.02,3.61,0,0-13.51,18.31-19.16,7.68,0,0,16.05-6.88,14.13-11.29Z"/><path class="c" d="m161.07,89.11c-8.66,7.79-8.96-5.1-.3-10.28l2.96-1.01.15,2.14s-4.91,6.8-2.8,9.15Zm.26,5.86c.45-.61.44-1.37-.01-1.7-.45-.33-1.18-.11-1.62.5s-.44,1.37,0,1.7c.45.33,1.18.11,1.62-.5Zm-.76,8.51c.45-.61.44-1.37,0-1.7-.45-.33-1.18-.11-1.62.5-.45.61-.44,1.37,0,1.7.45.33,1.18.11,1.62-.5Z"/><path class="d" d="m176.19,98.36l-3.09,10.03m0,18.28l-4.75-2.85m-79.6-6.52l-2.14-.45"/><path class="g" d="m142.81,145.78s-6.9,3.51-14.21,3.04c-7.31-.47-5.59-.96-6.27-.4-.68.56-1.18,3.85,5.35,4.12,0,0-.84,5.37-11.53,6.81-6.84.92-.4,7.48,16.13.36,7.68-3.31,15.37-6.57,23.08-9.81l-12.56-4.13h0Z"/><path class="f" d="m140.17,144.13c-3.23,1.97-4.27,8.03-2.33,15.3,1.93,7.27,8.51-5.27,8.51-5.27l-2.68-12.16"/><path class="d" d="m142.81,145.78s-6.9,3.51-14.21,3.04c-7.31-.47-5.59-.96-6.27-.4-.68.56-1.18,3.85,5.35,4.12,0,0-.84,5.37-11.53,6.81-6.84.92-.4,7.48,16.13.36,7.68-3.31,15.37-6.57,23.08-9.81l-12.56-4.13h0Zm-10.22,6.73l-4.91.03"/><path class="g" d="m175.67,100.06l-7.31,23.76-31.41,24.09s1.84,8.35,6.24,11.52l39.14-20.74c2.93-1.59,5.12-4.24,6.13-7.42l8.31-25.47c2.19-5.4.78-13.61-4.75-17.37"/><path class="c" d="m128.1,140.28l7.94-9.07c2.03-2.32,2.67-5.54,1.68-8.45-.99-2.92-3.46-5.08-6.48-5.68l-11.82-2.34c-3.02-.6-6.13.46-8.16,2.78-2.03,2.32-2.67,5.54-1.67,8.45l3.88,11.41c.99,2.91,3.46,5.08,6.48,5.68,3.02.6,6.13-.46,8.16-2.78Zm103.85-38.26l-11.03-4.86c-4.36-1.92-9.44.06-11.36,4.41-.61,1.38-.84,2.9-.68,4.4l1.3,11.98c.33,3.06,2.27,5.71,5.09,6.95,2.82,1.24,6.08.88,8.57-.93l9.72-7.12c2.48-1.82,3.81-4.82,3.48-7.88-.33-3.06-2.27-5.71-5.09-6.95Zm-79.25-4.05l7.94-9.07c2.03-2.32,2.67-5.54,1.68-8.45-.99-2.91-3.46-5.08-6.48-5.68l-11.82-2.34c-4.67-.93-9.2,2.11-10.13,6.77-.29,1.49-.19,3.02.3,4.45l3.88,11.41c1.53,4.5,6.42,6.91,10.92,5.38h0c1.43-.49,2.71-1.34,3.71-2.48h0Z"/><path class="d" d="m175.67,100.06l-7.31,23.76-31.41,24.09s1.84,8.35,6.24,11.52l39.14-20.74c2.93-1.59,5.12-4.24,6.13-7.42l8.31-25.47c2.19-5.4.78-13.61-4.75-17.37"/><path class="b" d="m142.04,143.63l-5.28,2.9s1.54,10.5,6.53,13.05l3.65-1.1s-6.41-9.73-4.9-14.85Z"/><path class="e" d="m180.23,238.99c2.97,0,5.39-2.41,5.39-5.39s-2.41-5.39-5.39-5.39-5.39,2.41-5.39,5.39,2.41,5.39,5.39,5.39h0Zm51.48-142.23l9.09-3.31m-13.63,11.28l9.09-3.31"/></svg>