<?xml version="1.0" encoding="utf-8"?>
<!-- Generator: Adobe Illustrator 28.0.0, SVG Export Plug-In . SVG Version: 6.00 Build 0)  -->
<svg version="1.1" id="图层_1" xmlns="http://www.w3.org/2000/svg" xmlns:xlink="http://www.w3.org/1999/xlink" x="0px" y="0px"
	 viewBox="0 0 400 300" style="enable-background:new 0 0 400 300;" xml:space="preserve">
<style type="text/css">
	.st0{opacity:0.27;fill:#D6DCED;enable-background:new    ;}
	.st1{fill:#5578EC;}
	.st2{fill:none;stroke:#31333A;stroke-linecap:round;stroke-linejoin:round;}
	.st3{fill:#FFFFFF;stroke:#31333A;stroke-linecap:round;stroke-linejoin:round;}
	.st4{fill:#FFFFFF;}
	.st5{fill:#B5B5B6;}
	.st6{fill:#DCDDDD;}
	.st7{fill:#31333A;}
	.st8{opacity:0.34;fill:url(#SVGID_1_);enable-background:new    ;}
	.st9{opacity:0.34;fill:url(#SVGID_00000031899283397068621740000006148283594114088352_);enable-background:new    ;}
	.st10{fill:none;stroke:#3351E5;stroke-width:2;stroke-linecap:round;stroke-linejoin:round;}
</style>
<path class="st0" d="M192.9,300c82.8,0,150-67.2,150-150S275.7,0,192.9,0s-150,67.2-150,150S110,300,192.9,300z"/>
<path class="st1" d="M312.9,134.9H64c-8.4,0-15.3,6.8-15.3,15.3c0,0,0,0,0,0V253c0,4.1,3.3,7.4,7.4,7.4c0,0,0,0,0,0h218l21.3,21.3
	c0.7,0.7,1.8,1,2.8,0.6c1-0.4,1.6-1.3,1.6-2.4v-19.5h21c4.1,0,7.4-3.3,7.4-7.4V150.2C328.2,141.7,321.4,134.9,312.9,134.9
	C312.9,134.9,312.9,134.9,312.9,134.9L312.9,134.9z"/>
<path class="st2" d="M312.9,134.9H64c-8.4,0-15.3,6.8-15.3,15.3c0,0,0,0,0,0V253c0,4.1,3.3,7.4,7.4,7.4c0,0,0,0,0,0h218l21.3,21.3
	c0.7,0.7,1.8,1,2.8,0.6c1-0.4,1.6-1.3,1.6-2.4v-19.5h21c4.1,0,7.4-3.3,7.4-7.4V150.2C328.2,141.7,321.4,134.9,312.9,134.9
	C312.9,134.9,312.9,134.9,312.9,134.9L312.9,134.9L312.9,134.9z"/>
<path class="st3" d="M294.4,167.4H82.6c-2.7,0-5,2.2-5,5c0,2.7,2.2,5,5,5h211.8c2.7,0,5-2.2,5-5
	C299.3,169.7,297.1,167.4,294.4,167.4z M240.2,203.7H82.6c-2.7,0-5,2.2-5,5c0,2.7,2.2,5,5,5h157.6c2.7,0,5-2.2,5-5
	C245.2,206,242.9,203.7,240.2,203.7L240.2,203.7L240.2,203.7z"/>
<path class="st4" d="M70.1,127.5l-12.7,3.5l-18.8,4.4c-4.2,1-6.8,5.5-6,10c0.6,4.1,4.2,7,8.3,6.7c10.7-1.1,31.7-2.6,31.7-2.6
	L70.1,127.5L70.1,127.5z"/>
<path class="st2" d="M70.1,127.5l-12.7,3.5l-18.8,4.4c-4.2,1-6.8,5.5-6,10c0.6,4.1,4.2,7,8.3,6.7c10.7-1.1,31.7-2.6,31.7-2.6
	L70.1,127.5L70.1,127.5z"/>
<path class="st5" d="M68.2,150c3.6-0.8,36.4-2.2,39.7-4.9l-28.6-30.7l-0.4-5.5c-7.7,3.7-21.5,22-21.5,22S61.1,148.7,68.2,150z"/>
<path class="st2" d="M68.2,150c3.6-0.8,36.4-2.2,39.7-4.9l-28.6-30.7l-0.4-5.5c-7.7,3.7-21.5,22-21.5,22S61.1,148.7,68.2,150z"/>
<path class="st4" d="M56,138.8c6-11.5,20.1-38.3,20.7-40.9c0.7-3.4-3.7-22-4.2-22.8c-0.6-0.9-4.2-4.8-1.4,8.9
	c0.3,5.2-0.9,10.3-3.4,14.8l-33,39"/>
<path class="st6" d="M72.1,85.5c1.1,2.5,2.5,4.8,4.2,6.9l1.9-6.3"/>
<path class="st2" d="M56,138.8c6-11.5,20.1-38.3,20.7-40.9c0.7-3.4-3.7-22-4.2-22.8c-0.6-0.9-4.2-4.8-1.4,8.9
	c0.3,5.2-0.9,10.3-3.4,14.8l-33,39"/>
<path class="st4" d="M338.1,136.7l-6.9,3l-30.2,3.3l-7.2-20.4l36.3-1.8"/>
<path class="st2" d="M338.1,136.7l-6.9,3l-30.2,3.3l-7.2-20.4l36.3-1.8"/>
<path class="st7" d="M315.9,121.5l22.2-1c27.7,35.7,29.9,41.1,29.9,41.1c-13.5,7.6-21.6-25.2-44.3-20.1L315.9,121.5L315.9,121.5z"/>
<path class="st2" d="M333.5,119.1l34.5,47.4"/>
<path class="st3" d="M328.2,133.2c2.1,0,3.9-1.8,3.9-4c0-2.2-1.7-4-3.9-4c-2.1,0-3.9,1.8-3.9,4C324.3,131.3,326.1,133.2,328.2,133.2
	z"/>
<path class="st4" d="M358.1,150.8c-13.2,1.9-12.5,6.5-12.5,6.5L358.1,150.8z"/>
<path class="st2" d="M358.1,150.8c-13.2,1.9-12.5,6.5-12.5,6.5"/>
<path class="st6" d="M256.4,135.6l-1.3-7.5l-12.8-28l-15.4,6.7l13.5,29.5"/>
<linearGradient id="SVGID_1_" gradientUnits="userSpaceOnUse" x1="255.8574" y1="196.9285" x2="226.9963" y2="185.5149" gradientTransform="matrix(1 0 0 -1 0 302)">
	<stop  offset="0.101" style="stop-color:#FF7638"/>
	<stop  offset="0.885" style="stop-color:#FF3929"/>
</linearGradient>
<path class="st8" d="M225.2,112c15,9.3,34.5,2.9,34.5,2.9l-13.7-9.4l-22.7,1"/>
<path class="st2" d="M256.4,135.6l-1.3-7.5l-12.8-28l-15.4,6.7l13.5,29.5"/>
<path class="st4" d="M231.5,117.4c0,0,36-1.3,35.8-10.4l-24.8-52.8c-6.6-13.3-21.6-17.5-32.7-6.1L131,129.4l54.9,7.6l33.6-40.6
	C219.5,96.4,231.5,117.4,231.5,117.4z"/>
<path class="st6" d="M186.1,120.8l72.7,4.4l11.9-23.6l-99,9.3"/>
<path class="st2" d="M231.5,117.4c0,0,36-1.3,35.8-10.4l-24.8-52.8c-6.6-13.3-21.6-17.5-32.7-6.1L131,129.4l54.9,7.6l33.6-40.6
	C219.5,96.4,231.5,117.4,231.5,117.4z"/>
<path class="st4" d="M311.9,113.8c0,0,7.1,24.1,0.6,36.4L164,145.9l-16.5-37L311.9,113.8z"/>
<path class="st6" d="M175.1,120.5l29.2,34.8l-56-3.2"/>
<path class="st4" d="M302.7,110.5c9.1,15.5,1.6,46.5,1.6,46.5S302.7,110.5,302.7,110.5z"/>
<path class="st2" d="M302.7,110.5c9.1,15.5,1.6,46.5,1.6,46.5 M153.2,139.8l156.5,4.1"/>
<path class="st2" d="M311.9,113.8c0,0,7.1,24.1,0.6,36.4L164,145.9l-16.5-37L311.9,113.8z"/>
<path class="st5" d="M74,112.8c0,0,17.5-26.7,51.8-28.7l37.2,48.5l1.1,13.3l-52.2,2c-6.1,0.2-12.2-1.5-17.3-4.8c-3.1-2-6-4.4-8.6-7"
	/>
<path class="st3" d="M100.9,111.8c6.5-2.9,8.6-12.2,4.8-20.8c-3.9-8.6-12.2-13.2-18.7-10.3c-6.5,2.9-8.6,12.2-4.7,20.8
	C86,110.1,94.4,114.7,100.9,111.8z"/>
<path class="st7" d="M130.6,118.3c23.9,30.5-3.6,36.1-3.6,36.1l22.8-3.5l17.4-2.1l-6.4-26.9l-26.8-19.7"/>
<path class="st2" d="M74,112.8c0,0,17.5-26.7,51.8-28.7l37.2,48.5l1.1,13.3l-52.2,2c-6.1,0.2-12.2-1.5-17.3-4.8c-3.1-2-6-4.4-8.6-7"
	/>
<path class="st4" d="M86.9,103.3l-6.8-15L93,82.8l5.8,10.4"/>
<path class="st6" d="M78.9,105.4c9.8,1.9,16.2-12.6,16.2-12.6l-11.3,1.1l-2.8,3.4l0.4,1"/>
<path class="st2" d="M86.9,103.3l-6.8-15L93,82.8l5.8,10.4"/>
<path class="st7" d="M96.5,78.9L75.7,89l-4.4-9.3c-0.8-1.6-0.1-3.4,1.4-4.2l15.2-7.4c1.6-0.7,3.4-0.1,4.1,1.5c0,0,0,0,0,0
	C92.1,69.6,96.5,78.9,96.5,78.9z"/>
<path class="st3" d="M90.6,95.1c-2.3,1-4.8,1-7.1,0c-1.1-0.5-2.2-1.2-3-2c-0.9-0.9-1.5-1.9-2-3l-5.7-13.5l16.9-7.3l5.7,13.5
	C97.4,87.5,95.3,93,90.6,95.1z"/>
<path class="st7" d="M83,60c-2.5,1.4-3.9,4.3-3.4,7.1c-4.8,5.4-13.8,4.7-8.3,12.6l2.1,2.6c-1.2-9.7,8.5-0.6,11.6-8.8
	c0.6-1.5,1.8-2.8,3.2-3.5c0.2-0.1,0.4-0.2,0.6-0.4c3.2-2,4.5-5.8,2.9-8.4C90.1,58.5,86.2,58,83,60z M95.4,81.1l-1.1-0.6
	c1.1,11-1.6,4.1-7.1,6.8c-5.7,2.1-2.6,8.9-9.7,0.5L77.2,89c1.3,4.7,5.5,7.9,10.3,8c2.5,0.1,4.9-0.9,6.5-2.8
	C97.3,90.6,97.9,85.3,95.4,81.1z"/>
<path class="st4" d="M77.3,82.8c-9.7-2.8-4.4,9.9,2.8,5.5L77.3,82.8z"/>
<path class="st2" d="M77.3,82.8c-9.7-2.8-4.4,9.9,2.8,5.5"/>
<path class="st4" d="M91,76.9c4.7-9,10.1,3.6,2,5.9L91,76.9z"/>
<path class="st2" d="M91,76.9c4.7-9,10.1,3.6,2,5.9"/>
<path class="st4" d="M82.6,80.3c-1.5,0.1-3,0.7-4.3,1.5L82.6,80.3z"/>
<path class="st2" d="M82.6,80.3c-1.5,0.1-3,0.7-4.3,1.5"/>
<path class="st7" d="M82.1,84.8c-0.4,0.1-0.9-0.1-1.1-0.5l-0.4-1.1c-0.1-0.2,0-0.4,0.1-0.6c0.1-0.2,0.3-0.3,0.5-0.4
	c0.4-0.1,0.9,0.1,1.1,0.5l0.4,1.1c0.1,0.2,0,0.4-0.1,0.6C82.5,84.6,82.3,84.7,82.1,84.8z"/>
<path class="st4" d="M85.6,79.3c1.4-0.8,2.9-1.2,4.4-1.2L85.6,79.3z"/>
<path class="st2" d="M85.6,79.3c1.4-0.8,2.9-1.2,4.4-1.2"/>
<path class="st7" d="M88.9,82.7c0.3-0.1,0.5-0.4,0.6-0.7c0-0.1,0-0.2,0-0.3L89,80.5c-0.2-0.4-0.6-0.6-1.1-0.5
	c-0.3,0.1-0.5,0.4-0.6,0.7c0,0.1,0,0.2,0,0.3l0.4,1.1C88,82.6,88.4,82.8,88.9,82.7z"/>
<path class="st4" d="M85,82.4l0.5,1.6c0,0-0.8,1.6,0.6,1.8"/>
<path class="st2" d="M85,82.4l0.5,1.6c0,0-0.8,1.6,0.6,1.8"/>
<path class="st4" d="M175.4,148.2l-41-29.1l20.8-17.5l23.7,19.3C188.1,128.4,186.2,143.4,175.4,148.2z"/>
<linearGradient id="SVGID_00000168802229741268823470000011707445562220677271_" gradientUnits="userSpaceOnUse" x1="143.6814" y1="190.8298" x2="166.2698" y2="190.8298" gradientTransform="matrix(1 0 0 -1 0 302)">
	<stop  offset="0.101" style="stop-color:#FF7638"/>
	<stop  offset="0.885" style="stop-color:#FF3929"/>
</linearGradient>
<path style="opacity:0.34;fill:url(#SVGID_00000168802229741268823470000011707445562220677271_);enable-background:new    ;" d="
	M166.2,98.8c1.4,24.6-22.5,24.7-22.5,24.7l1.9-11.9l14.5-11.8"/>
<path class="st6" d="M173.3,109.7c-7.5,9-23.9,18.6-23.9,18.6l10.2-23.1"/>
<path class="st2" d="M175.4,148.2l-41-29.1l20.8-17.5l23.7,19.3C188.1,128.4,186.2,143.4,175.4,148.2L175.4,148.2z"/>
<path class="st5" d="M125.4,112.3c6.2,11.1,20.8,19.4,20.8,19.4c23.1-14.8,18.7-24.8,18.7-24.8s-23.6-25.6-39.2-22.9"/>
<path class="st2" d="M125.4,112.3c6.2,11.1,20.8,19.4,20.8,19.4c23.1-14.8,18.7-24.8,18.7-24.8s-23.6-25.6-39.2-22.9"/>
<path class="st3" d="M110.7,140.1l-8,4.9c-0.6,0.4-1.3,0.3-1.8-0.1c-0.2-0.1-0.3-0.3-0.4-0.5L92,125.9c-0.4-0.9-0.1-2,0.8-2.5l8-4.9
	c0.7-0.5,1.6-0.3,2.1,0.4c0,0.1,0.1,0.2,0.1,0.2l8.5,18.4C111.8,138.5,111.5,139.6,110.7,140.1z"/>
<path class="st3" d="M99.2,128.8l-2.4,1.5c-0.3,0.2-0.6,0.2-0.9,0.1c-0.3-0.1-0.6-0.3-0.7-0.6l-1.2-2.6c-0.3-0.7-0.1-1.4,0.6-1.8
	l2.4-1.5c0.1-0.1,0.3-0.1,0.4-0.2c0.5-0.1,1,0.2,1.2,0.7l1.2,2.6C100,127.7,99.8,128.4,99.2,128.8L99.2,128.8z"/>
<path class="st4" d="M178.9,146.1c-1.5,1.4-3.5,2.2-5.6,2.1l-54.7-2.8c0,0-7.5,0.8-8.4,0.9c-2.6-0.1-5.3-0.3-7.9-0.8
	c-1.4-0.2-2.3-1.4-2.2-2.8c0-0.1,0-0.3,0.1-0.4c-2.3,0-1.9-3.1-1.9-3.1c-4.7,0.3-3.8-3.3-3.2-3.4c0.6-0.1,9.5-2.1,11.1-2.8
	c1.6-0.7-0.8-3.3-0.8-3.3c-6.6-1.8-4-4.6-3.5-4.6c0.5,0,4.3,0.6,5,0.7c0.7,0.1,9.7,9.1,10.7,9.1c0.6,0,22-2.3,39.7-4.1"/>
<path class="st2" d="M178.9,146.1c-1.5,1.4-3.5,2.2-5.6,2.1l-54.7-2.8c0,0-7.5,0.8-8.4,0.9c-2.6-0.1-5.3-0.3-7.9-0.8
	c-1.4-0.2-2.3-1.4-2.2-2.8c0-0.1,0-0.3,0.1-0.4c-2.3,0-1.9-3.1-1.9-3.1c-4.7,0.3-3.8-3.3-3.2-3.4c0.6-0.1,9.5-2.1,11.1-2.8
	c1.6-0.7-0.8-3.3-0.8-3.3c-6.6-1.8-4-4.6-3.5-4.6c0.5,0,4.3,0.6,5,0.7c0.7,0.1,9.7,9.1,10.7,9.1c0.6,0,22-2.3,39.7-4.1 M170.9,109.6
	l17.6,0.2 M105.2,138l-6.9,1.3 M104.1,141.8l-3.9,0.6 M215.5,87.7l4,8.7"/>
<path class="st4" d="M166.1,40.8c0,7.5-3.6,14.5-9.7,18.9c-6.1,4.4-13.9,5.6-21,3.3l-14.7,4.5c-1,0.3-2.2-0.3-2.5-1.3
	c-0.1-0.5-0.1-1,0.1-1.4l5-11c-4.1-6.1-5.1-13.9-2.6-20.9c4.3-12.2,17.7-18.5,29.9-14.2C159.9,22,166.1,30.9,166.1,40.8z"/>
<path class="st2" d="M166.1,40.8c0,7.5-3.6,14.5-9.7,18.9c-6.1,4.4-13.9,5.6-21,3.3l-14.7,4.5c-1,0.3-2.2-0.3-2.5-1.3
	c-0.1-0.5-0.1-1,0.1-1.4l5-11c-4.1-6.1-5.1-13.9-2.6-20.9c4.3-12.2,17.7-18.5,29.9-14.2C159.9,22,166.1,30.9,166.1,40.8z"/>
<path class="st3" d="M143.4,37.7c0.6-0.5,1.1-1,1.6-1.6c0.4-0.5,0.5-1.1,0.5-1.8c0-0.8-0.3-1.6-0.8-2.2c-0.7-0.6-1.5-0.9-2.4-0.9
	c-1.8-0.1-3.5,1.2-3.8,3l-3.6-1.6c0.4-1.5,1.4-2.8,2.7-3.7c1.5-0.9,3.3-1.3,5.1-1.3c1.4,0,2.7,0.2,4,0.8c1.1,0.5,2,1.2,2.7,2.2
	c0.6,0.9,1,2.1,1,3.2c0,0.9-0.2,1.8-0.5,2.6c-0.3,0.7-0.8,1.4-1.3,2c-0.5,0.6-1.4,1.3-2.5,2.3c-0.5,0.5-0.9,1-1.2,1.7
	c-0.3,0.8-0.4,1.6-0.4,2.5h-3.8c0-1.3,0.1-2.7,0.5-4c0.3-1,0.9-1.9,1.7-2.6L143.4,37.7z M142.4,47.6c0.7,0,1.4,0.2,1.9,0.7
	c1,1,1,2.6,0,3.7c-1.1,0.9-2.7,0.9-3.8,0c-1-1-1-2.6,0-3.7C141,47.8,141.7,47.6,142.4,47.6L142.4,47.6z"/>
<path class="st7" d="M123.3,47.4l3.7,2.5L123.3,47.4z M154.2,29.8l0.8,0.6L154.2,29.8z"/>
<path class="st10" d="M163.9,66.6c3.7,0.1,6.7-2.9,6.8-6.5c0.1-3.7-2.9-6.7-6.5-6.8c-0.1,0-0.2,0-0.3,0c-3.7,0.1-6.6,3.1-6.6,6.8
	C157.4,63.7,160.3,66.6,163.9,66.6L163.9,66.6z M272.9,50.4l11.2-4.1 M267.3,60.3l11.2-4.1"/>
</svg>
