<?xml version="1.0" encoding="utf-8"?>
<!-- Generator: Adobe Illustrator 28.0.0, SVG Export Plug-In . SVG Version: 6.00 Build 0)  -->
<svg version="1.1" id="图层_1" xmlns="http://www.w3.org/2000/svg" xmlns:xlink="http://www.w3.org/1999/xlink" x="0px" y="0px"
	 viewBox="0 0 400 300" style="enable-background:new 0 0 400 300;" xml:space="preserve">
<style type="text/css">
	.st0{opacity:0.27;fill:#D6DCED;enable-background:new    ;}
	.st1{fill:#5578EC;}
	.st2{fill:none;stroke:#31333A;stroke-linecap:round;stroke-linejoin:round;}
	.st3{fill:#FFFFFF;}
	.st4{fill:#FFFFFF;stroke:#31333A;stroke-linecap:round;stroke-linejoin:round;}
	.st5{fill:#3351E5;}
	.st6{fill:#31333A;}
	.st7{fill:#DCDDDD;stroke:#31333A;stroke-linecap:round;stroke-linejoin:round;}
	.st8{fill:#DCDDDD;}
	.st9{fill:#B5B5B6;}
	.st10{fill:none;stroke:#3351E5;stroke-width:2;stroke-linecap:round;stroke-linejoin:round;}
</style>
<path class="st0" d="M203.1,277.9c76.1,0,137.8-61.7,137.8-137.8S279.2,2.2,203.1,2.2S65.2,64,65.2,140.1S127,277.9,203.1,277.9
	L203.1,277.9z"/>
<path class="st1" d="M211,59.3H57c-3.5,0-6.3,2.8-6.3,6.3l0,0v210.5c0,3.5,2.8,6.3,6.3,6.3h0h154c3.5,0,6.3-2.8,6.3-6.3c0,0,0,0,0,0
	V65.6C217.3,62.1,214.5,59.3,211,59.3C211,59.3,211,59.3,211,59.3L211,59.3z"/>
<path class="st2" d="M211,59.3H57c-3.5,0-6.3,2.8-6.3,6.3l0,0v210.5c0,3.5,2.8,6.3,6.3,6.3h0h154c3.5,0,6.3-2.8,6.3-6.3c0,0,0,0,0,0
	V65.6C217.3,62.1,214.5,59.3,211,59.3C211,59.3,211,59.3,211,59.3L211,59.3z"/>
<path class="st3" d="M199.8,77.6H68.2c-1.7,0-3.1,1.4-3.1,3.1c0,0,0,0,0,0v118.7c0,1.7,1.4,3.1,3.1,3.1l0,0h131.7
	c1.7,0,3.1-1.4,3.1-3.1l0,0V80.7C203,79,201.6,77.6,199.8,77.6L199.8,77.6L199.8,77.6z"/>
<path class="st2" d="M199.8,77.6H68.2c-1.7,0-3.1,1.4-3.1,3.1c0,0,0,0,0,0v118.7c0,1.7,1.4,3.1,3.1,3.1l0,0h131.7
	c1.7,0,3.1-1.4,3.1-3.1l0,0V80.7C203,79,201.6,77.6,199.8,77.6L199.8,77.6L199.8,77.6z"/>
<path class="st4" d="M182.4,224.9H81.6c-3.5,0-6.3,2.8-6.3,6.3c0,3.5,2.8,6.3,6.3,6.3h100.8c3.5,0,6.3-2.8,6.3-6.3
	S185.9,224.9,182.4,224.9L182.4,224.9z M151.5,244.2H81.6c-3.5,0-6.3,2.8-6.3,6.3c0,3.5,2.8,6.3,6.3,6.3h69.9c3.5,0,6.3-2.8,6.3-6.3
	S155,244.2,151.5,244.2L151.5,244.2z"/>
<path class="st5" d="M171.7,181.5L161.6,108c-0.3-1.6-1.8-2.7-3.4-2.6h-48.3c-1.6-0.1-3.1,1-3.4,2.6l-10.1,73.5
	c-0.1,1.4,0.8,2.7,2.1,3.1c0.4,0.2,0.9,0.2,1.3,0.2h26.6c1.7,0.1,3.2-1.1,3.4-2.8l3.5-44.6c0.1-0.4,0.5-0.7,1-0.6
	c0.3,0.1,0.6,0.3,0.6,0.6l3.4,44.5c0.3,1.7,1.7,2.9,3.4,2.8h26.5c1.7,0.1,3.3-1.1,3.4-2.9C171.7,181.8,171.7,181.7,171.7,181.5
	L171.7,181.5z M110.2,100.4h47.4c1.4,0,2.6-1.1,2.6-2.6c0-1.4-1.1-2.6-2.6-2.6l0,0h-47.4c-1.4,0-2.5,1.2-2.5,2.6
	C107.7,99.3,108.8,100.4,110.2,100.4z"/>
<path class="st6" d="M285.4,25.9c3.4-9.3-3-20.2-14.2-24.3C259.9-2.5,248,1.7,244.6,11c-3.4,9.3,3,20.2,14.2,24.3
	C270.1,39.5,282,35.3,285.4,25.9L285.4,25.9z"/>
<path class="st7" d="M251.8,30.7c-1-1-1.9-2.1-2.6-3.3l-2.7,2.7c1.5,2.4,3.5,4.4,5.9,5.9l2.7-2.7C253.9,32.6,252.8,31.7,251.8,30.7z
	"/>
<path class="st3" d="M219.9,286.6l3.8-5.3c0,0-7.7,2.7,2.5-1.6c2.5-1.1,7.3-3.9,7.3-3.9s-2.3-19.8-4-22.7l17.2-1.2l0.4,32.8
	l-20.3,5.2L219.9,286.6L219.9,286.6z"/>
<path class="st8" d="M230.2,266.1l25.3,8.1L245,253.4l-17.1,11.9"/>
<path class="st2" d="M219.9,286.6l3.8-5.3c0,0-7.7,2.7,2.5-1.6c2.5-1.1,7.3-3.9,7.3-3.9s-2.3-19.8-4-22.7l17.2-1.2l0.4,32.8
	l-20.3,5.2L219.9,286.6L219.9,286.6z"/>
<path class="st3" d="M248.8,287.6l-40.5,7.7c-2.8-9.3,16.8-15.4,16.8-15.4s4.8,6.3,4.7,9.8l18.6-4.3c0.3-0.1,0.7,0,0.9,0.2
	c0.1,0.1,0.2,0.2,0.3,0.4c0.1,0.1,0.1,0.3,0.1,0.5C249.7,287,249.3,287.5,248.8,287.6L248.8,287.6z"/>
<path class="st4" d="M209.5,300c6,0,10.8-3.8,10.8-8.5c0-4.7-4.8-8.5-10.8-8.5c-6,0-10.8,3.8-10.8,8.5
	C198.7,296.2,203.6,300,209.5,300z"/>
<path class="st2" d="M248.8,287.6l-40.5,7.7c-2.8-9.3,16.8-15.4,16.8-15.4s4.8,6.3,4.7,9.8l18.6-4.3c0.3-0.1,0.7,0,0.9,0.2
	c0.1,0.1,0.2,0.2,0.3,0.4c0.1,0.1,0.1,0.3,0.1,0.5l0,0C249.7,287,249.3,287.5,248.8,287.6L248.8,287.6z"/>
<path class="st3" d="M345.6,267.9l-6.2-1.5c0,0,7.6-3.1-2.9,0.4c-2.6,0.9-8,1.9-8,1.9s-10.7-16.5-11.3-19.9l-13.8,10.6l20.4,25.1
	l18.7-9.7L345.6,267.9z"/>
<path class="st8" d="M321.9,257l-14.1,23.1l-5.1-22.8l20.5-2.4"/>
<path class="st2" d="M345.6,267.9l-6.2-1.5c0,0,7.6-3.1-2.9,0.4c-2.6,0.9-8,1.9-8,1.9s-10.7-16.5-11.3-19.9l-13.8,10.6l20.4,25.1
	l18.7-9.7L345.6,267.9z"/>
<path class="st3" d="M324.2,288l35.6-21.4c-3.8-8.9-22.4-0.4-22.4-0.4s0.4,8,2.6,10.6l-16.8,9.3c-0.3,0.2-0.5,0.4-0.5,0.8
	c-0.1,0.3,0,0.7,0.2,0.9C323.2,288.2,323.8,288.3,324.2,288L324.2,288z"/>
<path class="st4" d="M362.4,270.6c4.3-4.2,5.2-10.3,2-13.7c-3.2-3.3-9.4-2.6-13.7,1.6c-4.3,4.2-5.2,10.3-2,13.7
	C351.9,275.5,358,274.8,362.4,270.6z"/>
<path class="st2" d="M324.2,288l35.6-21.4c-3.8-8.9-22.4-0.4-22.4-0.4s0.4,8,2.6,10.6l-16.8,9.3c-0.3,0.2-0.5,0.4-0.5,0.8
	c-0.1,0.3,0,0.7,0.2,0.9l0,0C323.2,288.2,323.8,288.3,324.2,288L324.2,288L324.2,288z"/>
<path class="st3" d="M227.9,265.3c9.5,4.2,42.6-1,44.5-6.7l-30.6-71.9l7.8-76.6l-35.9,0.2l-1,77.5L227.9,265.3L227.9,265.3z"/>
<path class="st8" d="M258.8,170.8c0,0,4,38.5-8.9,29.1c-22.8-16.7-26.9-67.8-26.9-67.8"/>
<path class="st3" d="M218.4,256.2c28.4,11.4,55.4-6.1,55.4-6.1L218.4,256.2L218.4,256.2z"/>
<path class="st2" d="M218.4,256.2c28.4,11.4,55.4-6.1,55.4-6.1"/>
<path class="st2" d="M227.9,265.3c9.5,4.2,42.6-1,44.5-6.7l-30.6-71.9l7.8-76.6l-35.9,0.2l-1,77.5L227.9,265.3L227.9,265.3z"/>
<path class="st3" d="M223.7,138c9.7,23.2,24.3,54.5,24.3,54.5l46.3,72.9c37.7,0,35.3-19.3,35.3-19.3l-54.7-65.9
	c0,0-21.4-67.1-25.1-69.5c-3.7-2.4-33-2.7-34.6,3"/>
<path class="st8" d="M218.1,117.4c3.5,6.9,37.8,14.3,51.4,15.5c13.6,1.2-16.2-26.3-16.2-26.3"/>
<path class="st3" d="M285.6,258.9c16.2,3.7,33.1,1.8,44-19.9L285.6,258.9z"/>
<path class="st2" d="M285.6,258.9c16.2,3.7,33.1,1.8,44-19.9"/>
<path class="st2" d="M249.3,120.1l20.1,63l56.2,65.2"/>
<path class="st2" d="M246.2,124.6c1.6,21.5,10.1,14.4,10.1,14.4"/>
<path class="st2" d="M223.7,138c9.7,23.2,24.3,54.5,24.3,54.5l46.3,72.9c37.7,0,35.3-19.3,35.3-19.3l-54.7-65.9
	c0,0-21.4-67.1-25.1-69.5c-3.7-2.4-33-2.7-34.6,3"/>
<path class="st3" d="M194.7,87.4l-12.1,12.8c0,0-24.7-27.1-25.9-27.5c-2.3-0.7-8.1-0.9-8.6-1.3c0,0-1.7,2.6,3.4,3.6
	c0,0-3.2,1.2-3.3,1.2c-1.4,0.3-8-3.3-8.4-0.4l2.8,1.4c0,0-6.8-1.3-5.5,1.3c0,0,7.3,2.7,8.2,2.7c0.9,0.1,10.3-1.5,10.3-1.5l23.4,37.3
	c5.9,8.1,17.7-5.4,17.7-5.4L194.7,87.4L194.7,87.4z"/>
<path class="st8" d="M187.2,94.2c-4.7,6.1,2,37.9,2,37.9l9.5-16.4l-3.4-8.1"/>
<path class="st2" d="M194.7,87.4l-12.1,12.8c0,0-24.7-27.1-25.9-27.5c-2.3-0.7-8.1-0.9-8.6-1.3c0,0-1.7,2.6,3.4,3.6
	c0,0-3.2,1.2-3.3,1.2c-1.4,0.3-8-3.3-8.4-0.4l2.8,1.4c0,0-6.8-1.3-5.5,1.3c0,0,7.3,2.7,8.2,2.7c0.9,0.1,10.3-1.5,10.3-1.5l23.4,37.3
	c5.9,8.1,17.7-5.4,17.7-5.4L194.7,87.4L194.7,87.4z"/>
<path class="st9" d="M186.2,95.3c0,0-4.2,9.9,13.1,25l41.2-36.6l-14.5-24.2h-4c-2.8,0-5.4,1.2-7.2,3.3
	C214.9,62.8,186.2,95.3,186.2,95.3z"/>
<path class="st6" d="M217.3,81.2c0,0-7.8,14.2-8.8,42.8c-0.9,28.6,21.7-16.5,21.7-16.5"/>
<path class="st2" d="M186.2,95.3c0,0-4.2,9.9,13.1,25l41.2-36.6l-14.5-24.2h-4c-2.8,0-5.4,1.2-7.2,3.3
	C214.9,62.8,186.2,95.3,186.2,95.3z"/>
<path class="st9" d="M216.8,76.5c-2.7,8.4-4.7,20.5-3.8,37.2c24.4,18.2,44.4,6.9,44.4,6.9s-5.5-33.8,9.8-46.7c0,0-12.7-14.3-41-14.3
	"/>
<path class="st4" d="M247.4,67.9c7-3.1,11.2-8.8,9.4-12.7c-1.7-3.9-8.8-4.5-15.7-1.4c-7,3.1-11.2,8.8-9.4,12.7
	C233.4,70.4,240.5,71.1,247.4,67.9z"/>
<path class="st6" d="M249.4,91.8c0,0,5.3,23.4,9.4,28.5c4.1,5.1,1.9-19.9,1.9-19.9"/>
<path class="st2" d="M216.8,76.5c-2.7,8.4-4.7,20.5-3.8,37.2c24.4,18.2,44.4,6.9,44.4,6.9s-5.5-33.8,9.8-46.7c0,0-12.7-14.3-41-14.3
	"/>
<path class="st3" d="M248.5,63.9l-0.8-19.2l-11.6,2.5c1.5,2.9-1,10-2.3,13.7"/>
<path class="st8" d="M241.5,51.8l-7.2,7.8l-0.2-8.6l3.4-0.6"/>
<path class="st2" d="M248.5,63.9l-0.8-19.2l-11.6,2.5c1.5,2.9-1,10-2.3,13.7"/>
<path class="st6" d="M254.8,44.3c2.1-5.7-1.8-12.3-8.7-14.8c-6.9-2.5-14.1,0-16.2,5.7c-2.1,5.7,1.8,12.3,8.7,14.8
	C245.5,52.5,252.8,49.9,254.8,44.3z"/>
<path class="st4" d="M236.3,32.3c-16,16.8-2.8,26,5.2,19.5l4.5-9.1L236.3,32.3L236.3,32.3z"/>
<path class="st6" d="M241.5,31.1l-4.9-1.8c0,0-8.9,11.6,7.8,17.7l4.6-4.9L241.5,31.1L241.5,31.1z"/>
<path class="st3" d="M240.8,45.6c11.9-2.6,7.9,7.9-1.2,5.9C239.7,51.6,240.8,45.6,240.8,45.6z"/>
<path class="st2" d="M240.8,45.6c11.9-2.6,7.9,7.9-1.2,5.9"/>
<path class="st4" d="M244.9,54.2c1.2,0,2.1-1,2.1-2.1s-1-2.1-2.1-2.1l0,0c-1.2,0-2.1,1-2.1,2.1S243.7,54.2,244.9,54.2z"/>
<path class="st3" d="M232.9,41.4c0,0.1-1.4,2.2-1.4,2.2c-2.6-0.3-0.4,1.8-0.4,1.8"/>
<path class="st2" d="M232.9,41.4c0,0.1-1.4,2.2-1.4,2.2c-2.6-0.3-0.4,1.8-0.4,1.8"/>
<path class="st6" d="M230.4,42.3c-0.3-0.2-0.5-0.5-0.3-0.9l0.2-0.5c0.1-0.2,0.2-0.3,0.4-0.3c0.2-0.1,0.3,0,0.5,0
	c0.3,0.2,0.5,0.5,0.3,0.9l-0.2,0.5c-0.1,0.2-0.2,0.3-0.4,0.3C230.7,42.4,230.5,42.4,230.4,42.3z"/>
<path class="st3" d="M229.8,38.8c1,0.3,1.9,0.7,2.8,1.3L229.8,38.8z"/>
<path class="st2" d="M229.8,38.8c1,0.3,1.9,0.7,2.8,1.3"/>
<path class="st6" d="M234.2,43.9c-0.3-0.2-0.5-0.5-0.3-0.9l0.3-0.5c0.1-0.2,0.2-0.3,0.4-0.3c0.2-0.1,0.3,0,0.5,0
	c0.3,0.2,0.5,0.5,0.3,0.9l-0.3,0.5c-0.1,0.2-0.2,0.3-0.4,0.3C234.5,44,234.3,44,234.2,43.9z"/>
<path class="st3" d="M234.5,40.6c1,0.2,2,0.6,2.8,1.3L234.5,40.6z"/>
<path class="st2" d="M234.5,40.6c1,0.2,2,0.6,2.8,1.3 M246,47.3l-3,0.7 M245.3,48.8l-0.4-1.1"/>
<path class="st3" d="M271.3,91.3l9.4,15.4c0,0,31-20.4,32.3-20.5c2.5-0.1,8.4,1,8.9,0.8c0,0,1.1,2.9-4.3,2.7c0,0,3,1.9,3.1,2
	c1.3,0.7,8.9-1.3,8.5,1.6L326,94c0,0,7.1,0.4,5.2,2.6c0,0-7.9,0.8-8.9,0.7c-1-0.2-10-4-10-4l-32.6,29.3c-7.8,6.5-16.1-8.2-16.1-8.2
	L271.3,91.3z"/>
<path class="st8" d="M279.1,103.5c-0.1,9.1-8.7,26.4-8.7,26.4l-5.1-11.7"/>
<path class="st2" d="M271.3,91.3l9.4,15.4c0,0,31-20.4,32.3-20.5c2.5-0.1,8.4,1,8.9,0.8c0,0,1.1,2.9-4.3,2.7c0,0,3,1.9,3.1,2
	c1.3,0.7,8.9-1.3,8.5,1.6L326,94c0,0,7.1,0.4,5.2,2.6c0,0-7.9,0.8-8.9,0.7c-1-0.2-10-4-10-4l-32.6,29.3c-7.8,6.5-16.1-8.2-16.1-8.2
	L271.3,91.3z"/>
<path class="st9" d="M266.4,73.2c2.9,2.2,13.9,31.7,13.9,31.7s-7.4,18.8-15.9,20.1l-16-31.3"/>
<path class="st2" d="M266.4,73.2c2.9,2.2,13.9,31.7,13.9,31.7s-7.4,18.8-15.9,20.1l-16-31.3 M156.3,77.6l-0.5,2.2 M146.7,78l-4-0.7
	 M323.1,94l3,0 M312.4,91.5l-0.1,1.8"/>
<path class="st3" d="M232.7,47.3c0,0,0.5-1.9,3.2-1.1L232.7,47.3z"/>
<path class="st2" d="M232.7,47.3c0,0,0.5-1.9,3.2-1.1"/>
<path class="st10" d="M188.1,48.1c3.4,0,6.2-2.7,6.2-6c0-3.4-2.7-6.2-6-6.2c-0.1,0-0.1,0-0.2,0c-3.4,0-6.1,2.8-6,6.2
	C182.1,45.4,184.8,48.1,188.1,48.1z M295.1,173.2l10.3-3.8 M289.9,182.3l10.3-3.8"/>
</svg>
