<svg id="a" xmlns="http://www.w3.org/2000/svg" viewBox="0 0 300 300"><defs><style>.b,.c,.d{stroke:#31333a;}.b,.c,.d,.e{stroke-linecap:round;stroke-linejoin:round;}.b,.f{fill:#31333a;}.c,.g{fill:#fff;}.d,.e{fill:none;}.h{fill:#ebeded;isolation:isolate;opacity:.1;}.h,.f,.i,.j,.g{stroke-width:0px;}.e{stroke:#6ea4cc;stroke-width:2px;}.i{fill:#dcdddd;}.j{fill:#b5b5b6;}</style></defs><path class="h" d="m150,267.97c67,0,121.32-54.32,121.32-121.32S217,25.33,150,25.33,28.68,79.65,28.68,146.65s54.32,121.32,121.32,121.32Z"/><path class="g" d="m160.88,220.04l4.35,46.9,11.35-3.1,1.92-28.3-17.63-15.5Z"/><path class="i" d="m186.27,251.21c-9.62,3.45-21.08-6.68-21.08-6.68l9.49-5.69,10.98,3.31-.04,1.89"/><path class="d" d="m160.88,220.04l4.35,46.9,11.35-3.1,1.92-28.3-17.63-15.5Z"/><path class="f" d="m163.93,257.5l.78,12.79,32.55-.04c1.86-11.49-15.96-1.93-19.76-15.21,0,0-11.07,2.38-13.57,2.46h0Z"/><path class="c" d="m156.53,274.67h45.32l1.19-5.95h-45.32l-1.19,5.95h0Z"/><path class="d" d="m180.1,256.62l-2.81,2.25m3.7-.78l-2.81,2.25m4.24-1.12l-2.81,2.25"/><path class="c" d="m172.46,264.15c1.34-.95,1.8-2.61,1.02-3.7-.78-1.1-2.49-1.21-3.83-.27-1.34.95-1.8,2.61-1.02,3.7.77,1.1,2.49,1.21,3.83.27Z"/><path class="g" d="m158.38,242.54s28.32,8.56,29.1,3.23l-7.99-136.96-23.13,4.72-1.67,44.88,3.68,84.14h0Z"/><path class="i" d="m165.77,135.17c-.48,24.44-10.88,73.65-14.24,108.32-3.36,34.67-14-55.31-14-55.31l16.82-48.1"/><path class="g" d="m156.02,236.34c14.04,7.25,31.83,4.4,31.92,3.95l-31.92-3.95Z"/><path class="d" d="m156.02,236.34c14.04,7.25,31.83,4.4,31.92,3.95"/><path class="d" d="m158.38,242.54s28.32,8.56,29.1,3.23l-7.99-136.96-23.13,4.72-1.67,44.88,3.68,84.14h0Z"/><path class="g" d="m191.38,60.77l17.95-8.71s19.85,8.67,16.81,14.48c-3.04,5.81-29.55,14.48-29.55,14.48l-5.22-20.25h0Z"/><path class="i" d="m215.08,79.22c-2.11-10.1-14.24-18.76-14.24-18.76l1.15,16.76-1.57,13.08"/><path class="d" d="m191.38,60.77l17.95-8.71s19.85,8.67,16.81,14.48c-3.04,5.81-29.55,14.48-29.55,14.48l-5.22-20.25h0Z"/><path class="j" d="m200.48,56s11.62,19.91,8.39,22.75c0,0-34.1,11.56-28.87,8.84l-4.34-27.41s14.96-1.08,24.82-4.18h0Z"/><path class="d" d="m200.48,56s11.62,19.91,8.39,22.75c0,0-34.1,11.56-28.87,8.84l-4.34-27.41s14.96-1.08,24.82-4.18h0Z"/><path class="g" d="m141.11,217.37l-15.57,48.94-10.61-3.23,4.84-29.53,21.34-16.17Z"/><path class="i" d="m112.87,249.93c8.8,3.6,20.36-3.67,20.36-3.67l-8.13-5.94-11.77,3.46-.41,1.98"/><path class="d" d="m141.11,217.37l-15.57,48.94-10.61-3.23,4.84-29.53,21.34-16.17Z"/><path class="f" d="m129.1,256.47l-3.84,13.34-32.54-.05c.89-11.99,16.42-2.01,23.39-15.87,0,0,10.51,2.48,12.99,2.57Z"/><path class="c" d="m132.39,274.38h-45.32l.23-6.2h45.32l-.23,6.2h0Z"/><path class="d" d="m113.14,255.54l2.27,2.35m-3.51-.81l2.27,2.35m-3.97-1.17l2.27,2.35"/><path class="c" d="m122.6,263.39c1.18-1,1.35-2.73.39-3.86-.96-1.14-2.7-1.25-3.88-.25-1.18,1-1.35,2.73-.39,3.86.96,1.14,2.7,1.25,3.88.25h0Z"/><path class="g" d="m139.84,58.28l-23.51-6.17s-16.85,13.97-8.94,18.82c7.21,4.23,15.23,6.89,23.53,7.83,0,0,8.93-20.47,8.93-20.47Z"/><path class="i" d="m132.53,56.51c-11.87,8.88-17.12,18.24-17.12,18.24l8.3,8.28"/><path class="d" d="m139.84,58.28l-23.51-6.17s-16.85,13.97-8.94,18.82c7.21,4.23,15.23,6.89,23.53,7.83,0,0,8.93-20.47,8.93-20.47Z"/><path class="g" d="m173.21,107.11l-.35-1.77s-13.97-2.6-25.87-.3c-3.74.72-3.28,1-7.66,19.87-.76,3.29-1.69,7.21-2.82,11.89-9.75,40.12-28.05,105.15-28.05,105.15,0,0,9.94,7.57,30.44,5.29l25.94-105.92"/><path class="i" d="m133.11,114.96c22.97,6.02,37.77-4.2,37.77-4.2l-31.86-6.57"/><path class="g" d="m114.93,236.86c.44-1.82,36.01-132.14,36.01-132.14l-36.01,132.14Z"/><path class="d" d="m114.93,236.86c.44-1.82,36.01-132.14,36.01-132.14m-4.04,19.18c9.93,2.68,9.45-10.38,9.45-10.38"/><path class="g" d="m108.46,232.76c17.74,13.03,38.48,4.95,38.48,4.95l-38.48-4.95Z"/><path class="d" d="m108.46,232.76c17.74,13.03,38.48,4.95,38.48,4.95"/><path class="d" d="m173.21,107.11l-.35-1.77s-13.97-2.6-25.87-.3c-3.74.72-3.28,1-7.66,19.87-.76,3.29-1.69,7.21-2.82,11.89-9.75,40.12-28.05,105.15-28.05,105.15,0,0,9.94,7.57,30.44,5.29l25.94-105.92"/><path class="j" d="m179.9,60.35s-35.29-4.37-35.94-.42c-2.16,13.24,1.28,28.5-4.02,48.64,0,0,26.34,10.55,39.97.47,0,0,5.84-19.16,5.76-33.62"/><path class="c" d="m173.1,64.39c1.45-2.56-1.38-6.9-6.31-9.69-4.93-2.79-10.1-2.97-11.55-.41-1.45,2.56,1.38,6.9,6.31,9.69,4.93,2.79,10.1,2.97,11.55.41h0Z"/><path class="f" d="m132.06,92.78l17.95-2.82-10.16-6.07"/><path class="d" d="m179.9,60.35s-35.29-4.37-35.94-.42c-2.16,13.24,1.28,28.5-4.02,48.64,0,0,26.34,10.55,39.97.47,0,0,5.84-19.16,5.76-33.62"/><path class="j" d="m149.69,58.34s-14.9-2.56-18.77-2.96c0,0-12.2,16.7-10.18,24.02,0,0,25.19,9.36,29.26,10.57"/><path class="d" d="m149.69,58.34s-14.9-2.56-18.77-2.96c0,0-12.2,16.7-10.18,24.02,0,0,25.19,9.36,29.26,10.57"/><path class="g" d="m125.14,56l16.78-14.51s5.05-.39,6.53-1.18c1.48-.78,8.22-7.53,8.22-7.53,0,0-.07-1.63-1.62-.56,0,0,2.15-1.91.98-2.75,0,0-15.49,7.3-17.01,7.98-1.03.46-20.32,9.44-31.31,17.03-12.52,8.65-.33,16.45-.33,16.45"/><path class="d" d="m125.14,56l16.78-14.51s5.05-.39,6.53-1.18c1.48-.78,8.22-7.53,8.22-7.53,0,0-.07-1.63-1.62-.56,0,0,2.15-1.91.98-2.75,0,0-15.49,7.3-17.01,7.98-1.03.46-20.32,9.44-31.31,17.03-12.52,8.65-.33,16.45-.33,16.45"/><path class="g" d="m203.6,57.48l-19.54-14.26s-5.6-.36-7.19-1.09c-1.59-.72-8.59-6.92-8.59-6.92,0,0,.2-1.5,1.85-.52,0,0-2.25-1.76-.89-2.53,0,0,16.72,6.72,18.36,7.34,1.15.44,20.92,9.49,32.47,14.96,13.78,6.52,4.18,14.16,4.18,14.16"/><path class="i" d="m174.99,33.97c2.89,3.47,3.1,10.32,2.66,14.6-.43,4.28-6.51-2.68-6.51-2.68"/><path class="d" d="m203.6,57.48l-19.54-14.26s-5.6-.36-7.19-1.09c-1.59-.72-8.59-6.92-8.59-6.92,0,0,.2-1.5,1.85-.52,0,0-2.25-1.76-.89-2.53,0,0,16.72,6.72,18.36,7.34,1.15.44,20.92,9.49,32.47,14.96,13.78,6.52,4.18,14.16,4.18,14.16"/><path class="b" d="m159.96,54.32l-5.51-12.5c-1.16-2.83-.08-6.08,2.55-7.64.84-.5,1.79-.8,2.77-.86l9.97-.68c1.14-.1,2.29.17,3.27.77,2.38,1.49,5.73,5.13.7,12.5-7.09,10.4-13.74,8.42-13.74,8.42Z"/><path class="g" d="m170.7,60.11l-.41-14-9.5,1.87-2.05,11.19"/><path class="i" d="m163.49,49.43c-.78,1.81,8.48,11.98,8.33,6.09-.07-2.62,2.68-3.68,2.68-3.68l-1.64-4.72-9.36,2.31Z"/><path class="d" d="m170.7,60.11l-.41-14-9.5,1.87-2.05,11.19"/><path class="g" d="m163.02,49.22c-.35.59-.27,1.33.2,1.83.81.87,9.75,1.9,10.98-.38,2.14-3.98-.24-13.54-3.82-15.15-3.59-1.61-8.59,5.19-8.59,5.19,0,0,1.23,8.51,1.23,8.51Z"/><path class="d" d="m163.02,49.22c-.35.59-.27,1.33.2,1.83.81.87,9.75,1.9,10.98-.38,2.14-3.98-.24-13.54-3.82-15.15-3.59-1.61-8.59,5.19-8.59,5.19,0,0,1.23,8.51,1.23,8.51Z"/><path class="f" d="m170.82,35.76l-1.45-1.06-10.13.56-2.12,5.66,2.53,12.32"/><path class="d" d="m170.82,35.76l-1.45-1.06-10.13.56-2.12,5.66,2.53,12.32"/><path class="f" d="m171.05,34.61c2.93,9.72-10.33,12.69-10.33,12.69l-1.07,5.95"/><path class="d" d="m171.05,34.61c2.93,9.72-10.33,12.69-10.33,12.69l-1.07,5.95"/><path class="g" d="m165.21,45.99c-5.2-4.66-7.91,2.75-1.59,3.28l1.59-3.28Z"/><path class="d" d="m165.21,45.99c-5.2-4.66-7.91,2.75-1.59,3.28"/><path class="g" d="m171.97,41.83c0,.1.75,2.25.75,2.25,2.31.34,0,1.67,0,1.67"/><path class="d" d="m171.97,41.83c0,.1.75,2.25.75,2.25,2.31.34,0,1.67,0,1.67"/><path class="f" d="m174,43.22c.31-.07.51-.37.46-.68l-.1-.53c-.03-.15-.11-.28-.24-.36-.13-.08-.28-.11-.43-.07-.31.07-.52.37-.46.68l.1.53c.03.15.12.28.24.36.13.08.28.11.43.07Z"/><path class="g" d="m175.28,40.26c-.93.02-1.85.19-2.73.49l2.73-.49Z"/><path class="d" d="m175.28,40.26c-.93.02-1.85.19-2.73.49"/><path class="f" d="m170.35,43.76c.31-.07.52-.37.46-.68l-.1-.53c-.04-.23-.22-.4-.45-.44-.32-.06-.63.16-.68.48-.01.07-.01.14,0,.2l.1.53c.03.15.12.28.24.36.13.08.28.11.43.07h0Z"/><path class="g" d="m170.74,40.8c-.94-.08-1.88.09-2.73.49l2.73-.49h0Z"/><path class="d" d="m170.74,40.8c-.94-.08-1.88.09-2.73.49"/><path class="j" d="m172.58,46.76l-3.79-1c-1.79,3.74,3.68,4.49,3.79,1Z"/><path class="d" d="m161.59,45.96l2.24,1.13m-1.93.23l.55-.79m41.15,10.95l-2.03-1.48m4.05,2.96l-2.03-1.48m-52.76-22.87l4.21-2.39"/><path class="e" d="m66.93,115.78c2.84-.89,4.42-3.92,3.52-6.75-.89-2.84-3.92-4.42-6.75-3.52-.05.01-.09.03-.14.05-2.81.97-4.31,4.03-3.34,6.85.95,2.76,3.92,4.26,6.71,3.39Zm163.44,82.89l7.6-5.99m-9.42,14.98l7.6-5.99"/></svg>