<svg id="a" xmlns="http://www.w3.org/2000/svg" viewBox="0 0 300 300"><defs><style>.b{stroke-dasharray:0 0 2.11 2.11;}.b,.c,.d{fill:none;stroke-linecap:round;}.b,.c,.d,.e,.f,.g,.h,.i{stroke:#31333a;stroke-miterlimit:10;}.c{stroke-dasharray:0 2;}.j{opacity:.25;}.j,.g,.k{fill:#90bcde;}.j,.l,.k{stroke-width:0px;}.e{fill:#fff;}.f,.l{fill:#dcdddd;}.h{fill:#247aba;}.i{fill:#4e9ad4;}</style></defs><rect class="j" x="25" y="25" width="250" height="250" rx="125" ry="125"/><path class="d" d="m70.62,138.65c.34,0,.68,0,1-.03"/><path class="b" d="m73.71,138.33c11.49-2.58,5.49-20.17,14.6-22.37"/><path class="d" d="m89.34,115.79c.32-.03.65-.05,1-.05"/><path class="d" d="m70.62,138.65c.34,0,.68,0,1,.03"/><path class="b" d="m73.71,138.96c11.49,2.58,5.49,20.17,14.6,22.37"/><path class="d" d="m89.34,161.5c.32.03.65.05,1,.05"/><path class="c" d="m150,161.55c54.25,0-69.89,41.58-19.97,41.58"/><line class="c" x1="150" y1="115.74" x2="169.72" y2="115.74"/><path class="c" d="m229.38,159.67c-65.36,0,63.82-43.92,0-43.92"/><path class="c" d="m229.81,159.67c-26.39,0,1.14,43.47-40.12,43.47"/><rect class="e" x="10.96" y="127.84" width="59.66" height="21.61" rx="5.42" ry="5.42"/><circle class="f" cx="70.62" cy="138.65" r="1.89"/><rect class="g" x="90.34" y="104.94" width="59.66" height="21.61" rx="5.42" ry="5.42"/><circle class="g" cx="150" cy="115.74" r="1.89"/><circle class="g" cx="90.34" cy="115.74" r="1.89"/><circle class="l" cx="100.61" cy="115.74" r="5.82"/><rect class="l" x="111.05" y="111.59" width="28.97" height="3.93" rx="1.96" ry="1.96"/><rect class="l" x="111.05" y="118.24" width="20.9" height="1.66" rx=".83" ry=".83"/><rect class="l" x="133.89" y="118.24" width="6.14" height="1.66" rx=".83" ry=".83"/><rect class="i" x="169.72" y="104.94" width="59.66" height="21.61" rx="5.42" ry="5.42"/><circle class="i" cx="229.38" cy="115.74" r="1.89"/><circle class="i" cx="169.72" cy="115.74" r="1.89"/><circle class="k" cx="179.99" cy="115.74" r="5.82"/><rect class="k" x="190.44" y="111.59" width="28.97" height="3.93" rx="1.96" ry="1.96"/><rect class="k" x="190.44" y="118.24" width="20.9" height="1.66" rx=".83" ry=".83"/><rect class="k" x="213.28" y="118.24" width="6.14" height="1.66" rx=".83" ry=".83"/><rect class="h" x="229.38" y="148.86" width="59.66" height="21.61" rx="5.42" ry="5.42"/><circle class="h" cx="229.38" cy="159.67" r="1.89"/><circle class="k" cx="239.65" cy="159.67" r="5.82"/><rect class="k" x="250.1" y="155.51" width="28.97" height="3.93" rx="1.96" ry="1.96"/><rect class="k" x="250.1" y="162.17" width="20.9" height="1.66" rx=".83" ry=".83"/><rect class="k" x="272.94" y="162.17" width="6.14" height="1.66" rx=".83" ry=".83"/><rect class="i" x="130.03" y="192.33" width="59.66" height="21.61" rx="5.42" ry="5.42"/><circle class="i" cx="189.69" cy="203.14" r="1.89"/><circle class="i" cx="130.03" cy="203.14" r="1.89"/><circle class="k" cx="140.3" cy="203.14" r="5.82"/><rect class="k" x="150.75" y="198.98" width="28.97" height="3.93" rx="1.96" ry="1.96"/><rect class="k" x="150.75" y="205.64" width="20.9" height="1.66" rx=".83" ry=".83"/><rect class="k" x="173.59" y="205.64" width="6.14" height="1.66" rx=".83" ry=".83"/><rect class="g" x="90.34" y="150.75" width="59.66" height="21.61" rx="5.42" ry="5.42"/><circle class="g" cx="150" cy="161.55" r="1.89"/><circle class="g" cx="90.34" cy="161.55" r="1.89"/><circle class="l" cx="100.61" cy="161.55" r="5.82"/><rect class="l" x="111.05" y="157.4" width="28.97" height="3.93" rx="1.96" ry="1.96"/><rect class="l" x="111.05" y="164.05" width="20.9" height="1.66" rx=".83" ry=".83"/><rect class="l" x="133.89" y="164.05" width="6.14" height="1.66" rx=".83" ry=".83"/><circle class="l" cx="21.22" cy="138.65" r="5.82"/><rect class="l" x="31.67" y="134.49" width="28.97" height="3.93" rx="1.96" ry="1.96"/><rect class="l" x="31.67" y="141.15" width="20.9" height="1.66" rx=".83" ry=".83"/><rect class="l" x="54.51" y="141.15" width="6.14" height="1.66" rx=".83" ry=".83"/></svg>