<svg id="a" xmlns="http://www.w3.org/2000/svg" viewBox="0 0 300 300"><defs><style>.b{opacity:.25;}.b,.c,.d{fill:#90bcde;}.b,.e,.f,.d{stroke-width:0px;}.g{fill:#fff;}.g,.h,.c,.i,.j{stroke:#31333a;stroke-miterlimit:10;}.h,.f{fill:#dcdddd;}.i{fill:#247aba;}.j{fill:#4e9ad4;}.e{fill:#31333a;}</style></defs><rect class="b" x="25" y="25" width="250" height="250" rx="125" ry="125"/><path class="e" d="m70.62,139.15c-.28,0-.5-.22-.5-.5s.22-.5.5-.5c.33,0,.66,0,.97-.03.31-.02.51.19.53.47s-.19.51-.47.53c-.33.02-.67.03-1.03.03Z"/><path class="e" d="m73.71,138.83c-.23,0-.44-.16-.49-.39-.06-.27.11-.54.38-.6.67-.15,1.31-.36,1.88-.63.25-.12.55,0,.66.24.12.25,0,.55-.24.66-.64.3-1.34.53-2.09.7-.04,0-.07.01-.11.01Zm3.76-1.78c-.14,0-.29-.06-.39-.18-.17-.21-.14-.53.07-.7.49-.41.95-.89,1.36-1.43.17-.22.48-.27.7-.1.22.17.27.48.1.7-.46.61-.97,1.15-1.53,1.61-.09.08-.21.11-.32.11Zm2.53-3.32c-.07,0-.15-.02-.22-.05-.25-.12-.35-.42-.23-.67.28-.57.53-1.19.77-1.89.09-.26.37-.4.63-.31.26.09.4.37.31.63-.25.74-.52,1.4-.82,2.01-.09.18-.26.28-.45.28Zm1.38-3.98s-.08,0-.12-.02c-.27-.07-.43-.34-.36-.61.17-.67.33-1.36.47-2.04.06-.27.33-.44.59-.38.27.06.44.32.38.59-.15.7-.31,1.39-.48,2.08-.06.23-.26.38-.48.38Zm.92-4.12s-.07,0-.11-.01c-.27-.06-.44-.32-.38-.59.15-.71.31-1.4.48-2.08.07-.27.34-.43.61-.36.27.07.43.34.36.61-.17.66-.32,1.34-.47,2.04-.05.23-.26.39-.49.39Zm1.08-4.08c-.06,0-.11,0-.17-.03-.26-.09-.39-.38-.3-.64.27-.76.57-1.41.9-2,.14-.24.44-.33.68-.19.24.14.33.44.19.68-.3.54-.57,1.14-.83,1.84-.07.2-.27.33-.47.33Zm2.13-3.58c-.13,0-.26-.05-.36-.15-.19-.2-.19-.52.01-.71.55-.53,1.18-.95,1.88-1.25.25-.11.55,0,.66.26.11.25,0,.55-.26.66-.6.26-1.12.6-1.59,1.06-.1.09-.22.14-.35.14Z"/><path class="e" d="m89.34,116.29c-.25,0-.47-.19-.5-.45-.03-.28.17-.52.45-.55.33-.03.69-.05,1.05-.05.28,0,.5.22.5.5s-.22.5-.5.5c-.33,0-.65.02-.95.05-.02,0-.03,0-.05,0Z"/><path class="e" d="m71.62,139.18s-.02,0-.03,0c-.31-.02-.64-.03-.97-.03-.28,0-.5-.22-.5-.5s.22-.5.5-.5c.36,0,.7,0,1.03.03.28.02.49.25.47.53-.02.27-.24.47-.5.47Z"/><path class="e" d="m87.25,161.48c-.07,0-.13-.01-.2-.04-.7-.3-1.33-.72-1.88-1.25-.2-.19-.21-.51-.01-.71.19-.2.51-.21.71-.01.47.45.99.8,1.59,1.06.25.11.37.4.26.66-.08.19-.27.3-.46.3Zm-3.01-2.82c-.17,0-.34-.09-.43-.25-.33-.59-.63-1.24-.9-2-.09-.26.04-.55.3-.64.26-.09.55.04.64.3.25.71.52,1.31.83,1.84.14.24.05.54-.19.68-.08.04-.16.07-.25.07Zm-1.47-3.94c-.22,0-.43-.15-.48-.38-.17-.67-.33-1.37-.48-2.08-.06-.27.11-.54.38-.59.27-.06.54.11.59.38.15.69.3,1.38.47,2.04.07.27-.09.54-.36.61-.04.01-.08.02-.12.02Zm-.92-4.12c-.23,0-.44-.16-.49-.39-.15-.68-.3-1.37-.47-2.04-.07-.27.09-.54.36-.61.27-.07.54.09.61.36.17.68.33,1.38.48,2.08.06.27-.11.54-.38.59-.04,0-.07.01-.11.01Zm-1.07-4.08c-.21,0-.4-.13-.47-.34-.24-.7-.49-1.32-.77-1.89-.12-.25-.02-.55.23-.67.25-.12.55-.02.67.23.3.61.56,1.27.82,2.01.09.26-.05.54-.31.63-.05.02-.11.03-.16.03Zm-1.87-3.75c-.15,0-.3-.07-.4-.2-.41-.55-.87-1.03-1.36-1.43-.21-.18-.24-.49-.07-.7.18-.21.49-.24.7-.07.56.46,1.07,1,1.53,1.61.17.22.12.54-.1.7-.09.07-.2.1-.3.1Zm-3.22-2.63c-.07,0-.14-.01-.21-.05-.58-.27-1.21-.48-1.88-.63-.27-.06-.44-.33-.38-.6.06-.27.33-.43.6-.38.74.17,1.45.4,2.09.7.25.12.36.41.24.66-.08.18-.26.29-.45.29Z"/><path class="e" d="m90.34,162.05c-.37,0-.72-.02-1.05-.05-.27-.03-.47-.27-.45-.55.03-.27.27-.48.55-.45.3.03.62.05.95.05.28,0,.5.22.5.5s-.22.5-.5.5Z"/><path class="e" d="m128.68,203.62h0c-.71-.01-1.38-.03-2.01-.06-.28-.01-.49-.25-.47-.52.01-.28.21-.52.52-.47.62.03,1.28.05,1.98.06.28,0,.5.23.49.51,0,.27-.23.49-.5.49Zm-3.99-.2s-.03,0-.05,0c-.73-.07-1.4-.15-2.02-.25-.27-.04-.46-.3-.41-.57.04-.27.31-.46.57-.41.59.09,1.25.18,1.95.24.27.03.48.27.45.54-.02.26-.24.45-.5.45Zm-3.94-.67s-.09,0-.14-.02c-.82-.24-1.46-.53-1.96-.87-.23-.16-.29-.47-.13-.69.16-.23.47-.29.69-.13.41.28.97.52,1.68.73.26.08.42.36.34.62-.06.22-.26.36-.48.36Zm-2.82-2.45h0c-.28,0-.5-.21-.5-.48,0-.67.25-1.35.75-2.1.15-.23.46-.29.69-.14.23.15.29.46.14.69-.39.58-.58,1.09-.58,1.52,0,.28-.22.51-.5.51Zm1.96-3.33c-.13,0-.25-.05-.35-.15-.2-.2-.2-.51,0-.71.43-.43.94-.89,1.52-1.38.21-.18.53-.15.7.06.18.21.15.53-.06.7-.56.47-1.04.91-1.45,1.32-.1.1-.23.15-.35.15Zm3.06-2.59c-.15,0-.3-.07-.4-.2-.17-.22-.12-.53.1-.7.52-.39,1.06-.78,1.64-1.18.22-.16.54-.1.7.12.16.23.1.54-.12.7-.57.39-1.1.78-1.61,1.16-.09.07-.2.1-.3.1Zm3.28-2.3c-.16,0-.32-.08-.42-.22-.15-.23-.09-.54.14-.69.54-.36,1.11-.73,1.69-1.1.23-.15.54-.08.69.15.15.23.08.54-.15.69-.58.37-1.13.73-1.67,1.09-.08.06-.18.08-.28.08Zm3.38-2.16c-.17,0-.33-.08-.42-.24-.15-.23-.07-.54.16-.69.56-.35,1.13-.7,1.71-1.05.24-.14.54-.07.69.17s.07.54-.17.69c-.58.35-1.15.7-1.71,1.04-.08.05-.17.08-.26.08Zm3.43-2.08c-.17,0-.34-.09-.43-.24-.14-.24-.06-.54.17-.69.57-.34,1.14-.68,1.73-1.02.24-.14.55-.06.68.18.14.24.06.54-.18.68-.58.34-1.16.68-1.72,1.02-.08.05-.17.07-.26.07Zm3.46-2.03c-.17,0-.34-.09-.43-.25-.14-.24-.06-.54.18-.68l1.74-1.01c.23-.14.54-.06.68.18.14.24.06.54-.18.68l-1.73,1c-.08.05-.17.07-.25.07Zm3.47-2.01c-.17,0-.34-.09-.43-.25-.14-.24-.06-.54.18-.68l1.74-1c.24-.14.54-.06.68.18.14.24.06.54-.18.68l-1.74,1c-.08.05-.17.07-.25.07Zm3.48-2.01c-.17,0-.34-.09-.43-.25-.14-.24-.06-.54.18-.68l1.73-1.01c.24-.14.54-.06.68.18.14.24.06.54-.18.68l-1.73,1.01c-.08.05-.17.07-.25.07Zm3.46-2.02c-.17,0-.34-.09-.43-.25-.14-.24-.06-.54.18-.68l1.72-1.02c.23-.14.54-.07.69.17.14.24.06.54-.17.69l-1.73,1.02c-.08.05-.17.07-.25.07Zm3.44-2.06c-.17,0-.33-.08-.43-.24-.14-.24-.07-.54.17-.69.58-.35,1.15-.7,1.7-1.05.24-.14.54-.07.69.16.15.24.07.54-.16.69-.56.35-1.13.7-1.71,1.05-.08.05-.17.07-.26.07Zm3.4-2.12c-.16,0-.33-.08-.42-.23-.15-.23-.08-.54.15-.69.57-.37,1.13-.73,1.67-1.09.23-.15.54-.09.69.14.15.23.09.54-.14.69-.54.36-1.11.73-1.69,1.1-.08.05-.18.08-.27.08Zm3.33-2.23c-.16,0-.31-.07-.41-.21-.16-.23-.1-.54.12-.7.56-.4,1.1-.79,1.61-1.17.22-.16.53-.12.7.1.17.22.12.53-.1.7-.52.39-1.06.79-1.64,1.19-.09.06-.19.09-.29.09Zm3.2-2.42c-.14,0-.29-.06-.38-.18-.18-.21-.15-.53.06-.7.55-.46,1.04-.9,1.46-1.31.2-.19.51-.19.71,0,.19.2.19.51,0,.71-.44.43-.95.89-1.52,1.37-.09.08-.21.12-.32.12Zm2.82-2.84c-.1,0-.21-.03-.3-.1-.22-.16-.27-.48-.11-.7.43-.58.7-1.11.8-1.57.06-.27.33-.44.6-.38.27.06.44.33.38.6-.13.6-.45,1.24-.97,1.94-.1.13-.25.2-.4.2Zm.43-3.61c-.14,0-.28-.06-.38-.17-.31-.35-.81-.67-1.47-.95-.25-.11-.38-.4-.27-.65s.4-.37.65-.27c.81.34,1.43.75,1.84,1.22.18.21.16.52-.05.71-.09.08-.21.12-.33.12Zm-3.56-1.67s-.07,0-.11-.01c-.57-.13-1.22-.25-1.92-.35-.27-.04-.46-.29-.43-.56.04-.27.3-.46.56-.43.73.1,1.41.22,2.01.36.27.06.44.33.38.6-.05.23-.26.39-.49.39Zm-3.96-.58s-.03,0-.04,0c-.62-.05-1.28-.1-1.98-.13-.28-.01-.49-.25-.47-.52.01-.28.24-.52.52-.47.71.03,1.38.08,2.01.13.28.02.48.27.46.54-.02.26-.24.46-.5.46Zm-3.99-.2h-.01c-.63-.01-1.3-.02-1.99-.02-.28,0-.5-.22-.5-.5s.22-.5.5-.5c.7,0,1.37,0,2.01.02.28,0,.5.23.49.51,0,.27-.23.49-.5.49Z"/><path class="e" d="m168,116.24h-2c-.28,0-.5-.22-.5-.5s.22-.5.5-.5h2c.28,0,.5.22.5.5s-.22.5-.5.5Zm-4,0h-2c-.28,0-.5-.22-.5-.5s.22-.5.5-.5h2c.28,0,.5.22.5.5s-.22.5-.5.5Zm-4,0h-2c-.28,0-.5-.22-.5-.5s.22-.5.5-.5h2c.28,0,.5.22.5.5s-.22.5-.5.5Zm-4,0h-2c-.28,0-.5-.22-.5-.5s.22-.5.5-.5h2c.28,0,.5.22.5.5s-.22.5-.5.5Zm-4,0h-2c-.28,0-.5-.22-.5-.5s.22-.5.5-.5h2c.28,0,.5.22.5.5s-.22.5-.5.5Z"/><path class="e" d="m229.38,160.17c-.69,0-1.36,0-2.01-.01-.28,0-.5-.23-.49-.51,0-.27.23-.49.5-.49h0c.64,0,1.31.01,1.99.01.28,0,.5.22.5.5s-.22.5-.5.5Zm-4-.06h-.02c-.7-.02-1.37-.05-2.01-.09-.28-.01-.49-.25-.47-.53.01-.28.26-.49.53-.47.63.04,1.3.06,1.99.09.28,0,.49.24.48.52,0,.27-.23.48-.5.48Zm-3.99-.22s-.03,0-.04,0c-.71-.06-1.38-.12-2.01-.2-.27-.03-.47-.28-.44-.56s.3-.47.56-.44c.62.07,1.28.14,1.97.2.28.02.48.26.46.54-.02.26-.24.46-.5.46Zm-3.97-.48s-.06,0-.08,0c-.71-.12-1.38-.26-1.99-.41-.27-.07-.43-.34-.37-.6.07-.27.34-.43.6-.37.59.15,1.24.28,1.92.39.27.05.46.3.41.58-.04.24-.25.42-.49.42Zm-3.87-.99c-.06,0-.12-.01-.18-.03-.74-.29-1.38-.61-1.88-.97-.22-.16-.28-.47-.12-.7.16-.23.47-.28.7-.12.44.31.99.6,1.66.86.26.1.39.39.29.65-.08.2-.27.32-.47.32Zm-3.03-2.42c-.2,0-.39-.12-.47-.32-.14-.36-.21-.75-.21-1.14,0-.36.06-.73.17-1.12.08-.26.35-.42.62-.34.27.08.42.36.34.62-.09.3-.13.58-.13.84s.05.54.14.78c.1.26-.03.55-.29.65-.06.02-.12.03-.18.03Zm.85-3.72c-.1,0-.19-.03-.28-.08-.23-.15-.29-.46-.14-.69.34-.51.77-1.06,1.28-1.63.18-.21.5-.22.71-.04.21.18.22.5.04.71-.47.53-.88,1.04-1.19,1.52-.1.14-.25.22-.42.22Zm2.63-3.01c-.13,0-.26-.05-.36-.15-.19-.2-.18-.52.02-.71.47-.45.97-.9,1.5-1.36.21-.18.52-.16.71.05.18.21.16.53-.05.71-.52.45-1.01.89-1.47,1.33-.1.09-.22.14-.35.14Zm3.03-2.63c-.15,0-.29-.06-.39-.19-.17-.22-.14-.53.08-.7.51-.41,1.04-.83,1.59-1.24.22-.17.53-.13.7.09.17.22.12.53-.09.7-.54.41-1.07.82-1.57,1.23-.09.07-.2.11-.31.11Zm3.18-2.44c-.15,0-.3-.07-.4-.2-.16-.22-.12-.54.11-.7.53-.39,1.08-.78,1.63-1.18.22-.16.54-.11.7.12s.11.54-.12.7c-.55.39-1.09.78-1.62,1.17-.09.07-.19.1-.3.1Zm3.26-2.33c-.16,0-.31-.07-.41-.21-.16-.23-.1-.54.12-.7.54-.38,1.09-.76,1.65-1.14.23-.16.54-.1.7.13.16.23.1.54-.13.7-.55.38-1.1.76-1.64,1.14-.09.06-.19.09-.29.09Zm3.3-2.28c-.16,0-.32-.08-.41-.22-.16-.23-.1-.54.13-.69l1.65-1.13c.23-.15.54-.1.69.13.16.23.1.54-.13.69l-1.65,1.13c-.09.06-.18.09-.28.09Zm3.32-2.26c-.16,0-.32-.08-.41-.22-.16-.23-.1-.54.13-.69l1.65-1.13c.23-.16.54-.1.69.13.16.23.1.54-.13.69l-1.66,1.13c-.09.06-.18.09-.28.09Zm3.31-2.26c-.16,0-.31-.08-.41-.22-.16-.23-.1-.54.13-.7.55-.38,1.1-.76,1.64-1.14.23-.16.54-.1.7.12.16.23.1.54-.12.7-.54.38-1.09.76-1.65,1.15-.09.06-.19.09-.28.09Zm3.28-2.31c-.16,0-.31-.07-.41-.21-.16-.22-.11-.54.11-.7.55-.39,1.09-.79,1.62-1.18.22-.16.53-.12.7.11.16.22.12.54-.11.7-.53.39-1.07.79-1.62,1.18-.09.06-.19.09-.29.09Zm3.22-2.39c-.15,0-.3-.07-.4-.19-.17-.22-.13-.53.09-.7.54-.42,1.06-.83,1.56-1.24.21-.18.53-.14.7.07.17.21.14.53-.07.7-.51.41-1.03.83-1.58,1.25-.09.07-.2.1-.31.1Zm3.1-2.54c-.14,0-.28-.06-.38-.17-.18-.21-.16-.52.04-.71.52-.46,1-.91,1.45-1.35.2-.19.51-.19.71,0,.19.2.19.51,0,.71-.46.45-.95.92-1.49,1.39-.09.08-.21.12-.33.12Zm2.82-2.84c-.11,0-.23-.04-.32-.12-.21-.18-.24-.49-.06-.7.46-.55.83-1.07,1.1-1.55.14-.24.44-.33.68-.19.24.14.33.44.19.68-.3.54-.71,1.11-1.2,1.7-.1.12-.24.18-.38.18Zm1.8-3.49s-.03,0-.05,0c-.28-.03-.48-.27-.45-.55,0-.08.01-.16.01-.24,0-.47-.14-.89-.44-1.28-.17-.22-.12-.53.1-.7.22-.17.53-.12.7.1.42.56.64,1.2.64,1.88,0,.11,0,.23-.02.34-.03.26-.24.45-.5.45Zm-2.07-3.11c-.08,0-.16-.02-.24-.06-.49-.26-1.08-.5-1.76-.71-.26-.08-.41-.36-.33-.63.08-.26.36-.41.63-.33.74.23,1.39.49,1.94.78.24.13.34.43.21.68-.09.17-.26.26-.44.26Zm-3.78-1.24s-.07,0-.1,0c-.59-.12-1.24-.23-1.94-.33-.27-.04-.46-.29-.43-.56.04-.27.31-.46.56-.43.72.1,1.39.21,2,.34.27.06.44.32.39.59-.05.24-.26.4-.49.4Zm-3.96-.57s-.03,0-.05,0c-.62-.06-1.28-.11-1.98-.16-.28-.02-.48-.26-.47-.53.02-.28.26-.49.53-.47.7.05,1.37.1,2.01.16.27.03.48.27.45.55-.03.26-.24.45-.5.45Zm-3.99-.26h-.02c-.64-.03-1.3-.04-1.99-.06-.28,0-.5-.23-.49-.51,0-.27.23-.49.5-.49h0c.7.01,1.37.03,2.01.06.28.01.49.24.48.52-.01.27-.23.48-.5.48Zm-4-.08h-.45c-.28,0-.5-.22-.5-.5s.22-.5.5-.5h.45c.28,0,.5.23.5.5s-.23.5-.5.5Z"/><path class="e" d="m191.5,203.61c-.27,0-.49-.21-.5-.48,0-.28.21-.51.48-.52.68-.02,1.34-.06,1.97-.11.28-.03.52.19.54.46s-.19.52-.46.54c-.65.05-1.32.08-2.02.11h-.02Zm3.98-.3c-.25,0-.46-.19-.5-.44-.03-.27.16-.52.44-.56.67-.08,1.32-.18,1.95-.29.26-.04.53.13.58.41.05.27-.13.53-.41.58-.64.11-1.31.21-2,.3-.02,0-.04,0-.06,0Zm3.92-.7c-.23,0-.43-.15-.49-.38-.07-.27.1-.54.37-.6.65-.16,1.28-.34,1.88-.53.26-.09.55.06.63.32.08.26-.06.54-.32.63-.62.2-1.28.39-1.95.55-.04,0-.08.01-.12.01Zm3.78-1.23c-.2,0-.38-.12-.46-.31-.11-.25.01-.55.27-.65.6-.25,1.19-.53,1.75-.84.24-.13.55-.04.68.2s.04.55-.2.68c-.59.32-1.21.61-1.84.88-.06.03-.13.04-.19.04Zm3.49-1.9c-.16,0-.31-.08-.41-.22-.16-.23-.1-.54.13-.7.53-.37,1.04-.77,1.52-1.19.21-.18.52-.16.71.04.18.21.16.52-.04.71-.51.45-1.05.87-1.61,1.26-.09.06-.19.09-.28.09Zm2.98-2.62c-.12,0-.24-.04-.33-.13-.21-.18-.22-.5-.04-.71.42-.47.83-.98,1.2-1.51.16-.23.47-.28.7-.12.23.16.28.47.12.7-.4.56-.82,1.1-1.27,1.6-.1.11-.24.17-.37.17Zm2.29-3.25c-.08,0-.17-.02-.24-.06-.24-.13-.33-.44-.2-.68.3-.55.59-1.13.86-1.74.11-.25.41-.37.66-.26.25.11.37.4.26.66-.28.64-.58,1.26-.9,1.83-.09.17-.26.26-.44.26Zm1.6-3.65c-.05,0-.11,0-.16-.03-.26-.09-.4-.37-.31-.63.2-.6.4-1.23.57-1.88.07-.27.35-.42.61-.35.27.07.42.35.35.61-.18.67-.38,1.33-.59,1.94-.07.21-.26.34-.47.34Zm1.05-3.86s-.07,0-.11-.01c-.27-.06-.44-.33-.38-.59.14-.64.26-1.29.38-1.94.05-.27.31-.46.58-.41.27.05.45.31.41.58-.12.67-.24,1.33-.39,1.99-.05.23-.26.39-.49.39Zm.7-3.94s-.05,0-.07,0c-.27-.04-.46-.29-.42-.57.1-.66.19-1.32.27-1.97.04-.27.29-.47.56-.43.27.04.47.29.43.56-.09.66-.18,1.33-.28,1.99-.04.25-.25.43-.49.43Zm.53-3.97s-.04,0-.06,0c-.27-.03-.47-.28-.43-.56.08-.67.17-1.33.25-1.99.04-.27.29-.47.56-.43.27.04.47.29.43.56-.09.66-.17,1.32-.25,1.98-.03.25-.25.44-.5.44Zm.54-3.97s-.05,0-.08,0c-.27-.04-.46-.3-.42-.57.1-.68.21-1.34.34-1.99.05-.27.31-.45.58-.4.27.05.45.31.4.58-.12.64-.23,1.29-.33,1.96-.04.25-.25.42-.49.42Zm.76-3.93s-.08,0-.12-.01c-.27-.07-.43-.34-.36-.61.18-.71.37-1.35.57-1.96.09-.26.37-.4.63-.31.26.09.4.37.31.63-.2.58-.38,1.2-.55,1.88-.06.23-.26.38-.49.38Zm1.3-3.77c-.07,0-.15-.02-.21-.05-.25-.12-.36-.42-.24-.67.31-.65.65-1.25,1.03-1.79.16-.23.47-.29.69-.13.23.16.29.47.13.69-.34.5-.66,1.06-.95,1.66-.08.18-.26.29-.45.29Zm2.26-3.25c-.13,0-.26-.05-.36-.15-.19-.2-.19-.51,0-.71.49-.48,1.04-.92,1.63-1.29.23-.15.54-.08.69.15.15.23.08.54-.15.69-.53.34-1.02.73-1.46,1.16-.1.1-.22.14-.35.14Zm3.3-2.12c-.2,0-.39-.12-.46-.32-.1-.26.02-.55.28-.65.61-.24,1.27-.44,1.97-.6.28-.06.54.11.6.38.06.27-.11.54-.38.6-.64.14-1.25.33-1.82.55-.06.02-.12.04-.18.04Zm3.85-.88c-.25,0-.47-.19-.5-.45-.03-.28.18-.52.45-.54.64-.06,1.33-.09,2.03-.09.28,0,.5.22.5.5s-.22.5-.5.5c-.67,0-1.32.03-1.94.09-.02,0-.03,0-.05,0Z"/><rect class="g" x="10.96" y="127.84" width="59.66" height="21.61" rx="5.42" ry="5.42"/><circle class="h" cx="70.62" cy="138.65" r="1.89"/><rect class="c" x="90.34" y="104.94" width="59.66" height="21.61" rx="5.42" ry="5.42"/><circle class="c" cx="150" cy="115.74" r="1.89"/><circle class="c" cx="90.34" cy="115.74" r="1.89"/><circle class="f" cx="100.61" cy="115.74" r="5.82"/><rect class="f" x="111.05" y="111.59" width="28.97" height="3.93" rx="1.96" ry="1.96"/><rect class="f" x="111.05" y="118.24" width="20.9" height="1.66" rx=".83" ry=".83"/><rect class="f" x="133.89" y="118.24" width="6.14" height="1.66" rx=".83" ry=".83"/><rect class="j" x="169.72" y="104.94" width="59.66" height="21.61" rx="5.42" ry="5.42"/><circle class="j" cx="229.38" cy="115.74" r="1.89"/><circle class="j" cx="169.72" cy="115.74" r="1.89"/><circle class="d" cx="179.99" cy="115.74" r="5.82"/><rect class="d" x="190.44" y="111.59" width="28.97" height="3.93" rx="1.96" ry="1.96"/><rect class="d" x="190.44" y="118.24" width="20.9" height="1.66" rx=".83" ry=".83"/><rect class="d" x="213.28" y="118.24" width="6.14" height="1.66" rx=".83" ry=".83"/><rect class="i" x="229.38" y="148.86" width="59.66" height="21.61" rx="5.42" ry="5.42"/><circle class="i" cx="229.38" cy="159.67" r="1.89"/><circle class="d" cx="239.65" cy="159.67" r="5.82"/><rect class="d" x="250.1" y="155.51" width="28.97" height="3.93" rx="1.96" ry="1.96"/><rect class="d" x="250.1" y="162.17" width="20.9" height="1.66" rx=".83" ry=".83"/><rect class="d" x="272.94" y="162.17" width="6.14" height="1.66" rx=".83" ry=".83"/><rect class="j" x="130.03" y="192.33" width="59.66" height="21.61" rx="5.42" ry="5.42"/><circle class="j" cx="189.69" cy="203.14" r="1.89"/><circle class="j" cx="130.03" cy="203.14" r="1.89"/><circle class="d" cx="140.3" cy="203.14" r="5.82"/><rect class="d" x="150.75" y="198.98" width="28.97" height="3.93" rx="1.96" ry="1.96"/><rect class="d" x="150.75" y="205.64" width="20.9" height="1.66" rx=".83" ry=".83"/><rect class="d" x="173.59" y="205.64" width="6.14" height="1.66" rx=".83" ry=".83"/><rect class="c" x="90.34" y="150.75" width="59.66" height="21.61" rx="5.42" ry="5.42"/><circle class="c" cx="150" cy="161.55" r="1.89"/><circle class="c" cx="90.34" cy="161.55" r="1.89"/><circle class="f" cx="100.61" cy="161.55" r="5.82"/><rect class="f" x="111.05" y="157.4" width="28.97" height="3.93" rx="1.96" ry="1.96"/><rect class="f" x="111.05" y="164.05" width="20.9" height="1.66" rx=".83" ry=".83"/><rect class="f" x="133.89" y="164.05" width="6.14" height="1.66" rx=".83" ry=".83"/><circle class="f" cx="21.22" cy="138.65" r="5.82"/><rect class="f" x="31.67" y="134.49" width="28.97" height="3.93" rx="1.96" ry="1.96"/><rect class="f" x="31.67" y="141.15" width="20.9" height="1.66" rx=".83" ry=".83"/><rect class="f" x="54.51" y="141.15" width="6.14" height="1.66" rx=".83" ry=".83"/></svg>