<svg id="a" xmlns="http://www.w3.org/2000/svg" viewBox="0 0 300 300"><defs><style>.b{stroke-linejoin:round;}.b,.c{stroke-linecap:round;}.b,.c,.d,.e,.f,.g{stroke:#31333a;}.b,.h,.e{fill:#90bcde;}.c{fill:none;stroke-dasharray:0 2;}.c,.d,.e,.f,.g{stroke-miterlimit:10;}.h{opacity:.25;stroke-width:0px;}.d,.i{fill:#fff;}.f{fill:#247aba;}.g,.j{fill:#4e9ad4;}.j,.i{font-family:HONORSansCN-ExtraBold, 'HONOR Sans CN';font-size:12.13px;font-weight:700;}</style></defs><rect class="h" x="25" y="27.09" width="250" height="250" rx="125" ry="125"/><circle class="d" cx="106.75" cy="103.37" r="5.63"/><path class="d" d="m106.75,107c-2,0-3.63-1.63-3.63-3.63s1.63-3.63,3.63-3.63,3.63,1.63,3.63,3.63-1.63,3.63-3.63,3.63Z"/><circle class="e" cx="106.75" cy="138.76" r="5.63"/><path class="e" d="m106.75,142.39c-2,0-3.63-1.63-3.63-3.63s1.63-3.63,3.63-3.63,3.63,1.63,3.63,3.63-1.63,3.63-3.63,3.63Z"/><circle class="g" cx="106.75" cy="174.15" r="5.63"/><path class="g" d="m106.75,177.78c-2,0-3.63-1.63-3.63-3.63s1.63-3.63,3.63-3.63,3.63,1.63,3.63,3.63-1.63,3.63-3.63,3.63Z"/><circle class="f" cx="106.75" cy="209.53" r="5.63"/><path class="f" d="m106.75,213.17c-2,0-3.63-1.63-3.63-3.63s1.63-3.63,3.63-3.63,3.63,1.63,3.63,3.63-1.63,3.63-3.63,3.63Z"/><line class="b" x1="106.76" y1="112.48" x2="106.76" y2="129.64"/><line class="c" x1="106.76" y1="77.09" x2="106.76" y2="94.25"/><line class="b" x1="106.76" y1="147.87" x2="106.76" y2="165.03"/><line class="b" x1="106.75" y1="183.26" x2="106.75" y2="200.42"/><rect class="d" x="125.56" y="90" width="73.31" height="26.74" rx="13.37" ry="13.37"/><text class="j" transform="translate(149.2 108.22)"><tspan x="0" y="0">V1.0</tspan></text><rect class="e" x="125.56" y="125.38" width="73.31" height="26.74" rx="13.37" ry="13.37"/><text class="i" transform="translate(149.2 143.61)"><tspan x="0" y="0">V2.0</tspan></text><rect class="g" x="125.56" y="160.77" width="73.31" height="26.74" rx="13.37" ry="13.37"/><text class="i" transform="translate(149.2 179)"><tspan x="0" y="0">V3.0</tspan></text><rect class="f" x="125.56" y="196.16" width="73.31" height="26.74" rx="13.37" ry="13.37"/><text class="i" transform="translate(149.2 214.39)"><tspan x="0" y="0">V4.0</tspan></text></svg>