<svg id="a" xmlns="http://www.w3.org/2000/svg" viewBox="0 0 300 300"><defs><style>.b{stroke-linejoin:round;}.b,.c{stroke-linecap:round;}.b,.c,.d,.e,.f,.g{stroke:#31333a;}.b,.h,.e{fill:#90bcde;}.c{fill:none;stroke-dasharray:0 2;}.c,.d,.e,.f,.g{stroke-miterlimit:10;}.h{opacity:.25;}.h,.i{stroke-width:0px;}.d,.j{fill:#fff;}.f,.i,.k{fill:#247aba;}.g{fill:#4e9ad4;}.k,.j{font-family:HONORSansCN-ExtraBold, 'HONOR Sans CN';font-size:12.13px;font-weight:700;}</style></defs><rect class="h" x="25" y="27.09" width="250" height="250" rx="125" ry="125"/><circle class="d" cx="106.75" cy="91.43" r="5.63"/><path class="d" d="m106.75,95.06c-2,0-3.63-1.63-3.63-3.63s1.63-3.63,3.63-3.63,3.63,1.63,3.63,3.63-1.63,3.63-3.63,3.63Z"/><circle class="e" cx="106.75" cy="126.81" r="5.63"/><path class="e" d="m106.75,130.45c-2,0-3.63-1.63-3.63-3.63s1.63-3.63,3.63-3.63,3.63,1.63,3.63,3.63-1.63,3.63-3.63,3.63Z"/><circle class="g" cx="106.75" cy="162.2" r="5.63"/><path class="g" d="m106.75,165.84c-2,0-3.63-1.63-3.63-3.63s1.63-3.63,3.63-3.63,3.63,1.63,3.63,3.63-1.63,3.63-3.63,3.63Z"/><circle class="f" cx="106.75" cy="197.59" r="5.63"/><path class="f" d="m106.75,201.22c-2,0-3.63-1.63-3.63-3.63s1.63-3.63,3.63-3.63,3.63,1.63,3.63,3.63-1.63,3.63-3.63,3.63Z"/><line class="b" x1="106.76" y1="100.54" x2="106.76" y2="117.7"/><line class="c" x1="106.76" y1="208.96" x2="106.76" y2="238.44"/><line class="b" x1="106.76" y1="135.93" x2="106.76" y2="153.09"/><line class="b" x1="106.75" y1="171.32" x2="106.75" y2="188.48"/><rect class="d" x="125.56" y="78.05" width="73.31" height="26.74" rx="13.37" ry="13.37"/><text class="k" transform="translate(149.2 96.28)"><tspan x="0" y="0">V4.0</tspan></text><rect class="e" x="125.56" y="113.44" width="73.31" height="26.74" rx="13.37" ry="13.37"/><text class="j" transform="translate(149.2 131.67)"><tspan x="0" y="0">V3.0</tspan></text><rect class="g" x="125.56" y="148.83" width="73.31" height="26.74" rx="13.37" ry="13.37"/><text class="j" transform="translate(149.2 167.06)"><tspan x="0" y="0">V2.0</tspan></text><rect class="f" x="125.56" y="184.22" width="73.31" height="26.74" rx="13.37" ry="13.37"/><text class="j" transform="translate(149.2 202.45)"><tspan x="0" y="0">V1.0</tspan></text><path class="i" d="m207.47,70.35l-2.19,4.83-4.83,2.19,4.83,2.19,2.19,4.83,2.19-4.83,4.83-2.19-4.83-2.19"/><path class="i" d="m214.49,85.79l-1.61,3.55-3.55,1.61,3.55,1.61,1.61,3.55,1.61-3.55,3.55-1.61-3.55-1.61"/></svg>