<svg id="a" xmlns="http://www.w3.org/2000/svg" xmlns:xlink="http://www.w3.org/1999/xlink" viewBox="0 0 300 300"><defs><style>.g{fill:none;}.g,.h,.i,.j,.k{stroke-width:0px;}.h{fill:#90bcde;opacity:.25;}.l{fill:#007fe6;stroke:#000;}.l,.m{stroke-miterlimit:10;}.m{fill:url(#f);stroke:#31333a;stroke-width:1.02px;}.n{clip-path:url(#e);}.o{clip-path:url(#d);}.p{clip-path:url(#b);}.q{clip-path:url(#c);}.r{isolation:isolate;}.s{font-family:HONORSansCN-Heavy, 'HONOR Sans CN';font-size:11px;font-weight:800;}.s,.k{fill:#fff;}.j{fill:#dcdddd;}</style><clipPath id="b"><rect class="g" x="127.55" y="60.2" width="44.9" height="33.08"/></clipPath><clipPath id="c"><polygon class="g" points="119.21 116.41 122.08 74.7 177.92 74.7 180.79 116.41 119.21 116.41"/></clipPath><clipPath id="d"><polygon class="g" points="96.25 157.56 110.04 98.03 189.96 98.03 203.75 157.56 96.25 157.56"/></clipPath><clipPath id="e"><polygon class="g" points="52.91 240.71 98.37 163.65 201.63 163.65 247.09 240.71 52.91 240.71"/></clipPath><linearGradient id="f" x1="66.87" y1="150" x2="233.13" y2="150" gradientUnits="userSpaceOnUse"><stop offset="0" stop-color="#fff"/><stop offset=".38" stop-color="#90bcde"/><stop offset="1" stop-color="#007fe6"/></linearGradient></defs><rect class="h" x="25" y="25" width="250" height="250" rx="125" ry="125"/><g class="r"><g class="p"><path class="k" d="m144.64,72.22c-.09,0-.17-.02-.25-.05s-.15-.08-.2-.13-.1-.12-.14-.2-.05-.16-.05-.25.02-.17.05-.25.08-.15.14-.2.13-.1.2-.14.16-.05.25-.05h14.8c.09,0,.17.02.25.05s.15.08.2.14.1.13.14.2.05.16.05.25-.02.17-.05.25-.08.14-.14.2-.13.1-.2.13-.16.05-.25.05h-14.8m17.58,0c-.09,0-.17-.02-.25-.05s-.14-.08-.2-.13-.1-.12-.13-.2-.05-.16-.05-.25.02-.17.05-.25.08-.15.13-.2.12-.1.2-.14.16-.05.25-.05h3.45c.09,0,.17.02.25.05s.15.08.2.14.1.13.14.2.05.16.05.25-.02.17-.05.25-.08.14-.14.2-.13.1-.2.13-.16.05-.25.05h-3.45m-16.7-3.37c-.21,0-.41-.04-.59-.12s-.34-.19-.48-.33-.25-.3-.33-.48-.12-.38-.12-.59.04-.41.12-.59.19-.35.33-.48.3-.25.48-.33.38-.12.59-.12h19.28c.21,0,.41.04.59.12s.34.19.48.33.25.3.32.48.12.38.12.59-.04.41-.12.59-.19.34-.32.48-.3.25-.48.33-.38.12-.59.12h-19.28m-9.56,4.64c-.62,0-1.2-.12-1.74-.35s-1.02-.55-1.42-.96-.73-.89-.96-1.42-.35-1.12-.35-1.74.13-1.21.35-1.74.55-1.02.96-1.42.89-.73,1.42-.96,1.12-.35,1.74-.35,1.21.13,1.74.35,1.02.56,1.42.96.73.89.96,1.42.35,1.13.35,1.74-.13,1.21-.35,1.74-.56,1.02-.96,1.42-.89.73-1.42.96-1.13.35-1.74.35m30.34-12.29h-32.57c-.71,0-1.39.15-2.01.41s-1.17.64-1.64,1.11-.85,1.02-1.11,1.64-.41,1.3-.41,2.01v20.75c0,.71.14,1.39.41,2.01s.64,1.17,1.11,1.64,1.02.85,1.64,1.11,1.3.41,2.01.41h32.57c.71,0,1.39-.15,2.01-.41s1.17-.64,1.64-1.11.85-1.02,1.11-1.64.41-1.3.41-2.01v-20.75c0-.71-.15-1.39-.41-2.01s-.64-1.17-1.11-1.64-1.02-.85-1.64-1.11-1.3-.41-2.01-.41"/><path class="j" d="m133.72,92.29c-.71,0-1.39-.15-2.01-.41s-1.17-.64-1.64-1.11-.85-1.02-1.11-1.64-.41-1.3-.41-2.01v-20.75c0-.71.14-1.39.41-2.01s.64-1.17,1.11-1.64,1.02-.85,1.64-1.11,1.3-.41,2.01-.41h32.57c.71,0,1.39.15,2.01.41s1.17.64,1.64,1.11.85,1.02,1.11,1.64.41,1.3.41,2.01v20.75c0,.71-.15,1.39-.41,2.01s-.64,1.17-1.11,1.64-1.02.85-1.64,1.11-1.3.41-2.01.41h-32.57m32.57-32.08h-32.57c-.85,0-1.66.17-2.4.48s-1.4.76-1.96,1.32-1.01,1.22-1.32,1.96-.48,1.55-.48,2.4v20.75c0,.85.17,1.66.48,2.4s.76,1.4,1.32,1.96,1.22,1.01,1.96,1.32,1.55.48,2.4.48h32.57c.85,0,1.66-.17,2.39-.48s1.4-.76,1.96-1.32,1.01-1.22,1.32-1.96.49-1.55.49-2.4v-20.75c0-.85-.17-1.66-.49-2.4s-.77-1.4-1.32-1.96-1.22-1.01-1.96-1.32-1.55-.48-2.39-.48"/><path class="j" d="m135.95,64.54c-.62,0-1.2.13-1.74.35s-1.02.56-1.42.96-.73.89-.96,1.42-.35,1.13-.35,1.74.13,1.21.35,1.74.55,1.02.96,1.42.89.73,1.42.96,1.12.35,1.74.35,1.21-.12,1.74-.35,1.02-.55,1.42-.96.73-.89.96-1.42.35-1.12.35-1.74-.13-1.21-.35-1.74-.56-1.02-.96-1.42-.89-.73-1.42-.96-1.13-.35-1.74-.35"/><path class="j" d="m164.79,65.82h-19.28c-.21,0-.41.04-.59.12s-.34.19-.48.33-.25.3-.33.48-.12.38-.12.59.04.41.12.59.19.34.33.48.3.25.48.33.38.12.59.12h19.28c.21,0,.41-.04.59-.12s.34-.19.48-.33.25-.3.32-.48.12-.38.12-.59-.04-.41-.12-.59-.19-.35-.32-.48-.3-.25-.48-.33-.38-.12-.59-.12"/><path class="j" d="m159.44,70.95h-14.8c-.09,0-.17.02-.25.05s-.15.08-.2.14-.1.13-.14.2-.05.16-.05.25.02.17.05.25.08.14.14.2.13.1.2.13.16.05.25.05h14.8c.09,0,.17-.02.25-.05s.15-.08.2-.13.1-.12.14-.2.05-.16.05-.25-.02-.17-.05-.25-.08-.15-.14-.2-.13-.1-.2-.14-.16-.05-.25-.05"/><path class="j" d="m165.66,70.95h-3.45c-.09,0-.17.02-.25.05s-.14.08-.2.14-.1.13-.13.2-.05.16-.05.25.02.17.05.25.08.14.13.2.12.1.2.13.16.05.25.05h3.45c.09,0,.17-.02.25-.05s.15-.08.2-.13.1-.12.14-.2.05-.16.05-.25-.02-.17-.05-.25-.08-.15-.14-.2-.13-.1-.2-.14-.16-.05-.25-.05"/></g></g><g class="r"><g class="q"><path class="k" d="m143.05,88.88c-.11,0-.22-.02-.32-.06s-.19-.1-.26-.17-.13-.16-.17-.25-.06-.2-.06-.3.03-.21.07-.3.11-.18.18-.25.17-.13.26-.17.21-.06.32-.06h19.09c.11,0,.22.02.32.06s.19.1.27.17.14.16.18.25.07.2.07.3-.02.21-.06.3-.1.18-.17.25-.16.13-.26.17-.21.06-.32.06h-19.16m22.75,0c-.11,0-.22-.02-.32-.06s-.19-.1-.27-.17-.14-.16-.19-.25-.07-.2-.08-.3.02-.21.05-.3.1-.18.17-.25.16-.13.26-.17.2-.06.32-.06h4.44c.11,0,.22.02.32.06s.19.1.27.17.14.16.19.25.08.2.08.3-.01.21-.05.3-.09.18-.17.25-.16.13-.25.17-.2.06-.32.06h-4.46m-21.56-4.12c-.27,0-.52-.05-.75-.14s-.44-.23-.61-.39-.31-.36-.41-.58-.14-.45-.14-.7.06-.49.16-.7.25-.41.42-.58.39-.3.62-.39.49-.14.75-.14h24.49c.26,0,.52.05.75.14s.45.22.63.39.33.36.44.58.17.45.19.7-.03.49-.12.7-.22.41-.39.58-.37.3-.6.39-.48.14-.74.14h-24.7m-12.5,5.7c-.8,0-1.56-.16-2.24-.44s-1.28-.69-1.78-1.19-.89-1.09-1.14-1.75-.38-1.37-.33-2.12.24-1.46.57-2.1.77-1.22,1.31-1.7,1.17-.87,1.86-1.14,1.44-.42,2.22-.42,1.52.15,2.19.42,1.27.66,1.77,1.14.9,1.06,1.17,1.7.41,1.35.39,2.1-.2,1.47-.52,2.12-.75,1.25-1.3,1.75-1.18.91-1.89,1.19-1.48.44-2.28.44m38.65-14.88h-40.82c-.91,0-1.79.17-2.6.48s-1.55.76-2.19,1.32-1.17,1.23-1.56,1.97-.63,1.57-.69,2.43l-1.75,26.31c-.07.98.07,1.93.38,2.79s.79,1.65,1.4,2.31,1.37,1.2,2.21,1.57,1.79.58,2.79.58h44.8c1,0,1.95-.21,2.8-.58s1.6-.91,2.21-1.57,1.09-1.44,1.4-2.31.45-1.8.38-2.79l-1.75-26.31c-.06-.87-.3-1.69-.69-2.43s-.92-1.41-1.55-1.97-1.38-1.01-2.19-1.32-1.69-.48-2.6-.48"/><path class="j" d="m127.6,115.34c-1,0-1.94-.21-2.79-.58s-1.6-.91-2.21-1.57-1.09-1.44-1.4-2.31-.45-1.8-.38-2.79l1.75-26.31c.06-.87.3-1.69.69-2.43s.92-1.41,1.56-1.97,1.38-1.01,2.19-1.32,1.69-.48,2.6-.48h40.82c.91,0,1.79.17,2.6.48s1.55.76,2.19,1.32,1.17,1.23,1.55,1.97.63,1.57.69,2.43l1.75,26.31c.07.98-.07,1.93-.38,2.79s-.79,1.65-1.4,2.31-1.36,1.2-2.21,1.57-1.79.58-2.8.58h-44.8m42.76-40.64h-40.73c-1.04,0-2.05.2-2.97.55s-1.77.87-2.5,1.5-1.34,1.4-1.78,2.25-.72,1.79-.79,2.78l-1.81,26.31c-.08,1.13.08,2.21.43,3.19s.9,1.89,1.6,2.65,1.56,1.38,2.53,1.8,2.05.66,3.2.66h44.9c1.15,0,2.23-.24,3.2-.66s1.83-1.04,2.53-1.8,1.25-1.65,1.6-2.65.51-2.07.43-3.19l-1.81-26.31c-.07-.99-.35-1.93-.79-2.78s-1.05-1.61-1.78-2.25-1.58-1.15-2.5-1.5-1.93-.55-2.97-.55"/><path class="j" d="m132.22,79.62c-.78,0-1.53.15-2.22.42s-1.32.66-1.86,1.14-.99,1.06-1.31,1.7-.53,1.35-.57,2.1.08,1.47.33,2.12.65,1.25,1.14,1.75,1.1.91,1.78,1.19,1.44.44,2.24.44,1.58-.16,2.28-.44,1.35-.69,1.89-1.19.98-1.09,1.3-1.75.49-1.37.52-2.12-.12-1.46-.39-2.1-.67-1.22-1.17-1.7-1.1-.87-1.77-1.14-1.41-.42-2.19-.42"/><path class="j" d="m168.78,81.13h-24.49c-.27,0-.52.05-.75.14s-.44.22-.62.39-.32.36-.42.58-.16.45-.16.7.05.49.14.7.23.41.41.58.38.3.61.39.49.14.75.14h24.7c.27,0,.52-.05.74-.14s.43-.23.6-.39.3-.36.39-.58.13-.45.12-.7-.08-.49-.19-.7-.26-.41-.44-.58-.4-.3-.63-.39-.49-.14-.75-.14"/><path class="j" d="m162.17,87.31h-19.09c-.11,0-.22.02-.32.06s-.19.1-.26.17-.14.16-.18.25-.07.2-.07.3.02.21.06.3.1.18.17.25.16.13.26.17.21.06.32.06h19.16c.11,0,.22-.02.32-.06s.18-.1.26-.17.13-.16.17-.25.06-.2.06-.3-.03-.21-.07-.3-.11-.18-.18-.25-.17-.13-.27-.17-.21-.06-.32-.06"/><path class="j" d="m170.19,87.31h-4.44c-.11,0-.22.02-.32.06s-.18.1-.26.17-.13.16-.17.25-.06.2-.05.3.03.21.08.3.11.18.19.25.17.13.27.17.21.06.32.06h4.46c.11,0,.22-.02.32-.06s.18-.1.25-.17.13-.16.17-.25.06-.2.05-.3-.03-.21-.08-.3-.11-.18-.19-.25-.17-.13-.27-.17-.21-.06-.32-.06"/></g></g><g class="r"><g class="o"><path class="k" d="m139.36,115.64c-.18,0-.34-.03-.49-.08s-.28-.13-.39-.23-.2-.21-.25-.33-.08-.26-.07-.4.05-.28.12-.4.17-.23.29-.33.26-.17.41-.22.32-.08.49-.08h29.06c.17,0,.34.03.5.08s.3.13.42.22.23.2.3.33.13.26.14.4,0,.28-.06.4-.13.24-.23.33-.23.17-.38.23-.31.08-.48.08h-29.38m34.88,0c-.17,0-.34-.03-.5-.08s-.3-.13-.43-.23-.23-.21-.31-.33-.13-.26-.15-.4,0-.28.05-.4.13-.23.23-.33.23-.17.37-.22.3-.08.47-.08h6.76c.17,0,.34.03.5.08s.31.13.44.22.24.2.33.33.14.26.17.4.01.28-.03.4-.12.24-.22.33-.22.17-.37.23-.31.08-.48.08h-6.84m-32.9-5.41c-.4,0-.78-.07-1.12-.19s-.65-.29-.9-.5-.45-.46-.58-.74-.19-.58-.17-.9.12-.62.28-.89.39-.52.66-.72.59-.37.93-.48.72-.18,1.11-.18h36.24c.39,0,.77.06,1.13.18s.69.28.99.48.55.45.74.72.32.57.38.89.02.62-.08.9-.27.53-.5.74-.52.38-.85.5-.7.19-1.1.19h-37.16m-19.52,7.54c-1.24,0-2.39-.21-3.4-.59s-1.88-.93-2.56-1.6-1.18-1.45-1.46-2.32-.34-1.79-.16-2.76.6-1.87,1.19-2.69,1.34-1.53,2.21-2.14,1.85-1.08,2.91-1.41,2.18-.51,3.33-.51,2.22.18,3.17.51,1.8.81,2.49,1.41,1.24,1.33,1.58,2.14.5,1.72.4,2.69-.43,1.9-.97,2.76-1.27,1.65-2.14,2.32-1.91,1.22-3.03,1.6-2.33.59-3.57.59m57.61-19.08h-58.86c-1.35,0-2.68.21-3.92.59s-2.43.93-3.46,1.62-1.96,1.52-2.67,2.45-1.24,1.99-1.49,3.1l-8.48,37.44c-.37,1.64-.38,3.23-.07,4.69s.95,2.84,1.87,3.99,2.13,2.11,3.55,2.77,3.08,1.04,4.88,1.04h78.47c1.8,0,3.45-.37,4.88-1.04s2.63-1.61,3.55-2.77,1.56-2.51,1.87-3.99.3-3.05-.07-4.69l-8.48-37.44c-.25-1.11-.77-2.16-1.49-3.1s-1.63-1.76-2.68-2.45-2.22-1.24-3.47-1.62-2.57-.59-3.92-.59"/><path class="j" d="m110.76,156.38c-1.8,0-3.45-.37-4.88-1.04s-2.63-1.61-3.55-2.77-1.56-2.51-1.87-3.99-.3-3.05.07-4.69l8.48-37.44c.25-1.11.77-2.16,1.49-3.1s1.63-1.76,2.67-2.45,2.21-1.24,3.46-1.62,2.57-.59,3.92-.59h58.86c1.35,0,2.68.21,3.92.59s2.43.93,3.47,1.62,1.96,1.52,2.68,2.45,1.24,1.99,1.49,3.1l8.48,37.44c.37,1.64.38,3.23.07,4.69s-.96,2.84-1.87,3.99-2.13,2.11-3.55,2.77-3.08,1.04-4.88,1.04h-78.47m68.55-58.35h-58.64c-1.47,0-2.9.23-4.26.63s-2.64,1.01-3.77,1.75-2.14,1.65-2.92,2.66-1.36,2.16-1.64,3.37l-8.67,37.44c-.41,1.79-.43,3.52-.1,5.12s1.03,3.11,2.03,4.37,2.32,2.32,3.88,3.05,3.37,1.14,5.34,1.14h78.87c1.97,0,3.77-.41,5.34-1.14s2.87-1.77,3.88-3.05,1.69-2.74,2.03-4.37.31-3.33-.1-5.12l-8.67-37.44c-.28-1.21-.85-2.35-1.64-3.37s-1.78-1.91-2.92-2.66-2.41-1.34-3.77-1.75-2.79-.63-4.26-.63"/><path class="j" d="m123.87,103.75c-1.15,0-2.28.18-3.33.51s-2.04.81-2.91,1.41-1.63,1.33-2.21,2.14-1,1.72-1.19,2.69-.12,1.9.16,2.76.78,1.65,1.46,2.32,1.55,1.22,2.56,1.6,2.16.59,3.4.59,2.45-.21,3.57-.59,2.14-.93,3.03-1.6,1.61-1.45,2.14-2.32.87-1.79.97-2.76-.05-1.87-.4-2.69-.89-1.53-1.58-2.14-1.54-1.08-2.49-1.41-2.02-.51-3.17-.51"/><path class="j" d="m177.79,105.63h-36.24c-.39,0-.77.06-1.11.18s-.66.28-.93.48-.5.45-.66.72-.26.57-.28.89.04.62.17.9.33.53.58.74.56.38.9.5.72.19,1.12.19h37.16c.4,0,.77-.07,1.1-.19s.62-.29.85-.5.4-.46.5-.74.13-.58.08-.9-.19-.62-.38-.89-.44-.52-.74-.72-.63-.37-.99-.48-.74-.18-1.13-.18"/><path class="j" d="m168.53,113.56h-29.06c-.17,0-.34.03-.49.08s-.29.13-.41.22-.22.2-.29.33-.12.26-.12.4.02.28.07.4.14.24.25.33.24.17.39.23.31.08.49.08h29.38c.18,0,.34-.03.48-.08s.27-.13.38-.23.18-.21.23-.33.07-.26.06-.4-.06-.28-.14-.4-.18-.23-.3-.33-.26-.17-.42-.22-.32-.08-.5-.08"/><path class="j" d="m180.73,113.56h-6.76c-.17,0-.33.03-.47.08s-.27.13-.37.22-.18.2-.23.33-.07.26-.05.4.07.28.15.4.19.24.31.33.27.17.43.23.33.08.5.08h6.84c.18,0,.34-.03.48-.08s.27-.13.37-.23.17-.21.22-.33.06-.26.03-.4-.08-.28-.17-.4-.2-.23-.33-.33-.28-.17-.44-.22-.33-.08-.5-.08"/></g></g><g class="r"><g class="n"><path class="k" d="m134.51,184.28c-.25,0-.49-.03-.7-.1s-.39-.15-.54-.26-.26-.24-.33-.39-.1-.3-.07-.47.1-.32.22-.47.27-.27.45-.38.39-.19.61-.25.46-.09.71-.09h41.78c.25,0,.49.03.72.09s.45.15.64.25.36.24.49.38.22.3.27.47.04.32-.02.47-.15.28-.29.39-.31.2-.51.26-.43.1-.69.1h-42.73m50.72,0c-.25,0-.51-.03-.75-.1s-.47-.15-.67-.26-.38-.24-.51-.39-.24-.3-.29-.47-.05-.32,0-.47.14-.27.27-.38.3-.19.49-.25.42-.09.67-.09h9.73c.25,0,.5.03.74.09s.47.15.68.25.4.24.55.38.27.3.35.47.09.32.06.47-.11.28-.23.39-.28.2-.47.26-.42.1-.67.1h-9.95m-47.46-6.15c-.57,0-1.1-.07-1.57-.2s-.89-.32-1.22-.55-.59-.5-.75-.81-.22-.63-.16-.97.22-.66.47-.95.58-.55.97-.76.84-.39,1.32-.51,1.01-.19,1.55-.19h49.92c.54,0,1.08.07,1.59.19s1.01.29,1.46.51.85.48,1.18.76.58.61.73.95.18.67.1.97-.26.58-.53.81-.64.42-1.07.55-.95.2-1.51.2h-52.46m-29.25,8.67c-1.83,0-3.46-.25-4.85-.71s-2.5-1.1-3.31-1.88c-.8-.78-1.31-1.69-1.47-2.68s.01-2.02.54-3.1,1.34-2.04,2.38-2.92c1.02-.87,2.24-1.63,3.59-2.27s2.79-1.13,4.31-1.47,3.08-.53,4.65-.53,3,.19,4.25.53c1.26.34,2.34.84,3.2,1.47s1.52,1.4,1.89,2.27.46,1.87.19,2.92c-.28,1.08-.89,2.13-1.78,3.1s-2.09,1.9-3.47,2.68c-1.4.79-3.01,1.43-4.72,1.88-1.73.45-3.55.71-5.37.71m79.66-22.74h-76.39c-1.78,0-3.57.2-5.29.56s-3.42.89-4.97,1.55c-1.57.67-3,1.48-4.2,2.4-1.23.94-2.23,1.99-2.88,3.12l-27.03,46.5c-1.5,2.57-2.37,5.12-2.64,7.51-.28,2.47.09,4.77,1.08,6.75,1.01,2.04,2.66,3.72,4.88,4.91,2.26,1.21,5.09,1.88,8.39,1.88h141.72c3.3,0,6.13-.67,8.39-1.88s3.87-2.88,4.88-4.91c.98-1.98,1.35-4.28,1.08-6.75-.27-2.39-1.14-4.93-2.64-7.51l-27.03-46.5c-.66-1.13-1.65-2.18-2.88-3.12-1.2-.92-2.64-1.73-4.2-2.4-1.54-.66-3.23-1.19-4.97-1.55s-3.51-.56-5.29-.56"/><path class="j" d="m79.14,239.25c-3.3,0-6.13-.67-8.39-1.88-2.23-1.19-3.87-2.88-4.88-4.91-.98-1.98-1.35-4.28-1.08-6.75.27-2.39,1.14-4.93,2.64-7.51l27.03-46.5c.66-1.13,1.65-2.18,2.88-3.12,1.2-.92,2.64-1.73,4.2-2.4,1.54-.66,3.23-1.19,4.97-1.55s3.51-.56,5.29-.56h76.39c1.78,0,3.57.2,5.29.56s3.42.89,4.97,1.55c1.57.67,3,1.48,4.2,2.4,1.23.94,2.23,1.99,2.88,3.12l27.03,46.5c1.5,2.57,2.37,5.12,2.64,7.51.28,2.47-.09,4.77-1.08,6.75-1.01,2.04-2.66,3.72-4.88,4.91s-5.09,1.88-8.39,1.88H79.14m108.87-75.61h-76.03c-1.88,0-3.76.21-5.58.58s-3.61.94-5.25,1.63c-1.66.71-3.18,1.56-4.46,2.53-1.31.99-2.37,2.1-3.08,3.3l-27.43,46.5c-1.61,2.73-2.56,5.43-2.87,7.98s.05,5.09,1.08,7.22,2.8,4,5.16,5.28,5.42,2.03,8.95,2.03h142.98c3.53,0,6.55-.73,8.95-2.03s4.11-3.09,5.16-5.28c1.03-2.13,1.4-4.58,1.08-7.22-.31-2.55-1.26-5.25-2.87-7.98l-27.43-46.5c-.71-1.2-1.77-2.31-3.08-3.3-1.28-.97-2.8-1.83-4.46-2.53-1.63-.7-3.41-1.25-5.25-1.63s-3.71-.58-5.58-.58"/><path class="j" d="m114.36,171.24c-1.57,0-3.14.19-4.65.53s-2.98.84-4.31,1.47-2.57,1.4-3.59,2.27c-1.03.88-1.86,1.87-2.38,2.92s-.7,2.13-.54,3.1.67,1.9,1.47,2.68c.82.79,1.94,1.43,3.31,1.88s3.02.71,4.85.71,3.65-.25,5.37-.71c1.71-.45,3.32-1.1,4.72-1.88,1.38-.78,2.57-1.69,3.47-2.68s1.51-2.02,1.78-3.1c.27-1.06.19-2.04-.19-2.92s-1.01-1.63-1.89-2.27-1.94-1.13-3.2-1.47c-1.25-.34-2.68-.53-4.25-.53"/><path class="j" d="m188.29,173.19h-49.92c-.54,0-1.06.07-1.55.19s-.93.29-1.32.51-.72.48-.97.76-.41.61-.47.95,0,.67.16.97.42.58.75.81.75.42,1.22.55,1,.2,1.57.2h52.46c.56,0,1.07-.07,1.51-.2s.8-.32,1.07-.55.45-.5.53-.81.05-.63-.1-.97-.4-.66-.73-.95-.73-.55-1.18-.76-.94-.39-1.46-.51-1.06-.19-1.59-.19"/><path class="j" d="m176.64,181.87h-41.78c-.25,0-.49.03-.71.09s-.43.15-.61.25-.33.24-.45.38-.19.3-.22.47,0,.32.07.47.18.28.33.39.33.2.54.26.44.1.7.1h42.73c.25,0,.48-.03.69-.1s.38-.15.51-.26.24-.24.29-.39.06-.3.02-.47-.14-.32-.27-.47-.3-.27-.49-.38-.41-.19-.64-.25-.47-.09-.72-.09"/><path class="j" d="m194.18,181.87h-9.73c-.25,0-.47.03-.67.09s-.36.15-.49.25-.22.24-.27.38-.05.3,0,.47.15.32.29.47.31.28.51.39.43.2.67.26.49.1.75.1h9.95c.25,0,.48-.03.67-.1s.35-.15.47-.26.2-.24.23-.39.01-.3-.06-.47-.19-.32-.35-.47-.34-.27-.55-.38-.44-.19-.68-.25-.49-.09-.74-.09"/></g></g><rect class="m" x="66.87" y="136.68" width="166.26" height="26.63" rx="13.32" ry="13.32"/><text class="s" transform="translate(103.85 154.39)"><tspan x="0" y="0">Import to Dify NOW！</tspan></text><polygon class="l" points="89.86 124.88 75.48 151.79 86.88 151.54 81.1 175.12 99.21 145.28 86.25 145.28 89.86 124.88"/><path class="i" d="m234.06,186.6c-.08,0-.17-.01-.25-.04l-5.87-2.12c-.43-.16-.82-.43-1.12-.79-.43-.53-.63-1.2-.56-1.88.07-.68.4-1.29.93-1.73l.39-.32c.74-.61,1.74-.83,2.67-.6l2.31.57-5.16-6.33c-.52-.63-.76-1.43-.67-2.25s.48-1.55,1.11-2.06c1.31-1.07,3.25-.87,4.31.44l3.65,4.49c.07.08.17.14.27.15.11.02.21-.02.3-.09l.9-.73c1.11-.91,2.51-1.33,3.94-1.18,1.43.15,2.72.84,3.62,1.95l1.46,1.79c.26.32.21.79-.11,1.05-.32.26-.79.21-1.05-.11l-1.46-1.79c-.65-.8-1.58-1.3-2.61-1.41-1.03-.11-2.04.2-2.84.85l-.9.73c-.39.32-.9.47-1.4.42-.51-.05-.96-.3-1.28-.69l-3.65-4.49c-.26-.32-.64-.53-1.05-.57-.42-.05-.82.08-1.15.34-.32.26-.53.64-.57,1.05-.04.42.08.82.34,1.15l6.58,8.08c.2.25.23.6.05.88-.17.27-.5.41-.81.33l-4.49-1.12c-.47-.12-.98,0-1.37.31l-.39.32c-.22.18-.36.43-.39.72-.03.28.05.56.23.78.12.15.28.26.46.33l5.87,2.12c.39.14.59.57.45.96-.11.31-.4.5-.71.5Zm-9.83-8.41c-.22,0-.43-.09-.58-.28-.26-.32-.21-.79.11-1.05l.9-.73c.32-.26.79-.21,1.05.11.26.32.21.79-.11,1.05l-.9.73c-.14.11-.31.17-.47.17Zm-1.3-5.89s-.05,0-.08,0l-1.15-.12c-.41-.04-.71-.41-.67-.82s.41-.71.82-.67l1.15.12c.41.04.71.41.67.82-.04.39-.37.67-.75.67Zm12.96-3.61c-.22,0-.43-.09-.58-.28-.26-.32-.21-.79.11-1.06l.9-.73c.32-.26.79-.21,1.06.11.26.32.21.79-.11,1.06l-.9.73c-.14.11-.31.17-.47.17Zm-9.77-1c-.22,0-.43-.09-.58-.28l-.73-.9c-.26-.32-.21-.79.11-1.06.32-.26.79-.21,1.06.11l.73.9c.26.32.21.79-.11,1.06-.14.11-.31.17-.47.17Zm5.16-2.2s-.05,0-.08,0c-.41-.04-.71-.41-.67-.82l.12-1.15c.04-.41.42-.71.82-.67.41.04.71.41.67.82l-.12,1.15c-.04.39-.37.67-.75.67Z"/></svg>