<svg id="a" xmlns="http://www.w3.org/2000/svg" xmlns:xlink="http://www.w3.org/1999/xlink" viewBox="0 0 300 300"><defs><style>.c{fill:#fff;font-family:HONORSansCN-DemiBold, 'HONOR Sans CN';font-size:11.88px;font-weight:300;}.d{fill:#90bcde;opacity:.25;}.d,.e,.f{stroke-width:0px;}.g{fill:url(#b);stroke:#31333a;stroke-miterlimit:10;stroke-width:1.02px;}.f{fill:#247aba;}</style><linearGradient id="b" x1="66.87" y1="150" x2="233.13" y2="150" gradientUnits="userSpaceOnUse"><stop offset="0" stop-color="#fff"/><stop offset=".38" stop-color="#90bcde"/><stop offset="1" stop-color="#247aba"/></linearGradient></defs><rect class="d" x="25" y="25" width="250" height="250" rx="125" ry="125"/><rect class="g" x="66.87" y="136.68" width="166.26" height="26.63" rx="13.32" ry="13.32"/><text class="c" transform="translate(103.85 154.39)"><tspan x="0" y="0">Import to Dify NOW！</tspan></text><path class="f" d="m89.68,150l-3.24-3.24v2.43h-6.48v1.62h6.48v2.43m8.1,1.62v-9.72c0-.89-.73-1.62-1.62-1.62h-9.72c-.89,0-1.62.73-1.62,1.62v2.43h1.62v-2.43h9.72v9.72h-9.72v-2.43h-1.62v2.43c0,.89.73,1.62,1.62,1.62h9.72c.89,0,1.62-.73,1.62-1.62"/><path class="e" d="m234.06,186.6c-.08,0-.17-.01-.25-.04l-5.87-2.12c-.43-.16-.82-.43-1.12-.79-.43-.53-.63-1.2-.56-1.88.07-.68.4-1.29.93-1.73l.39-.32c.74-.61,1.74-.83,2.67-.6l2.31.57-5.16-6.33c-.52-.63-.76-1.43-.67-2.25s.48-1.55,1.11-2.06c1.31-1.07,3.25-.87,4.31.44l3.65,4.49c.07.08.17.14.27.15.11.02.21-.02.3-.09l.9-.73c1.11-.91,2.51-1.33,3.94-1.18,1.43.15,2.72.84,3.62,1.95l1.46,1.79c.26.32.21.79-.11,1.05-.32.26-.79.21-1.05-.11l-1.46-1.79c-.65-.8-1.58-1.3-2.61-1.41-1.03-.11-2.04.2-2.84.85l-.9.73c-.39.32-.9.47-1.4.42-.51-.05-.96-.3-1.28-.69l-3.65-4.49c-.26-.32-.64-.53-1.05-.57-.42-.05-.82.08-1.15.34-.32.26-.53.64-.57,1.05-.04.42.08.82.34,1.15l6.58,8.08c.2.25.23.6.05.88-.17.27-.5.41-.81.33l-4.49-1.12c-.47-.12-.98,0-1.37.31l-.39.32c-.22.18-.36.43-.39.72-.03.28.05.56.23.78.12.15.28.26.46.33l5.87,2.12c.39.14.59.57.45.96-.11.31-.4.5-.71.5Zm-9.83-8.41c-.22,0-.43-.09-.58-.28-.26-.32-.21-.79.11-1.05l.9-.73c.32-.26.79-.21,1.05.11.26.32.21.79-.11,1.05l-.9.73c-.14.11-.31.17-.47.17Zm-1.3-5.89s-.05,0-.08,0l-1.15-.12c-.41-.04-.71-.41-.67-.82s.41-.71.82-.67l1.15.12c.41.04.71.41.67.82-.04.39-.37.67-.75.67Zm12.96-3.61c-.22,0-.43-.09-.58-.28-.26-.32-.21-.79.11-1.06l.9-.73c.32-.26.79-.21,1.06.11.26.32.21.79-.11,1.06l-.9.73c-.14.11-.31.17-.47.17Zm-9.77-1c-.22,0-.43-.09-.58-.28l-.73-.9c-.26-.32-.21-.79.11-1.06.32-.26.79-.21,1.06.11l.73.9c.26.32.21.79-.11,1.06-.14.11-.31.17-.47.17Zm5.16-2.2s-.05,0-.08,0c-.41-.04-.71-.41-.67-.82l.12-1.15c.04-.41.42-.71.82-.67.41.04.71.41.67.82l-.12,1.15c-.04.39-.37.67-.75.67Z"/></svg>