<svg id="a" xmlns="http://www.w3.org/2000/svg" viewBox="0 0 300 300"><defs><style>.b,.c{stroke:#31333a;stroke-linecap:round;stroke-linejoin:round;}.b,.d{fill:#007fe6;}.c,.e{fill:#fff;}.f{fill:#90bcde;opacity:.25;}.f,.g,.d,.h{stroke-width:0px;}.e{stroke:#dcdddd;stroke-miterlimit:10;}.g{fill:#6ea4cc;}.h{fill:#dcdddd;}</style></defs><rect class="f" x="25" y="25" width="250" height="250" rx="125" ry="125"/><rect class="e" x="59.65" y="82.01" width="57.03" height="41.68" rx="7.36" ry="7.36"/><circle class="h" cx="69.92" cy="92.81" r="5.82"/><rect class="h" x="80.37" y="88.66" width="28.97" height="3.93" rx="1.96" ry="1.96"/><rect class="h" x="80.37" y="95.31" width="20.9" height="1.66" rx=".83" ry=".83"/><rect class="h" x="103.2" y="95.31" width="6.14" height="1.66" rx=".83" ry=".83"/><rect class="e" x="121.49" y="82.01" width="57.03" height="41.68" rx="7.36" ry="7.36"/><circle class="h" cx="131.75" cy="92.81" r="5.82"/><rect class="h" x="142.2" y="88.66" width="28.97" height="3.93" rx="1.96" ry="1.96"/><rect class="h" x="142.2" y="95.31" width="20.9" height="1.66" rx=".83" ry=".83"/><rect class="h" x="165.04" y="95.31" width="6.14" height="1.66" rx=".83" ry=".83"/><rect class="e" x="183.32" y="82.01" width="57.03" height="41.68" rx="7.36" ry="7.36"/><circle class="h" cx="193.59" cy="92.81" r="5.82"/><rect class="h" x="204.04" y="88.66" width="28.97" height="3.93" rx="1.96" ry="1.96"/><rect class="h" x="204.04" y="95.31" width="20.9" height="1.66" rx=".83" ry=".83"/><rect class="h" x="226.87" y="95.31" width="6.14" height="1.66" rx=".83" ry=".83"/><rect class="e" x="59.65" y="129.16" width="57.03" height="41.68" rx="7.36" ry="7.36"/><circle class="h" cx="69.92" cy="139.97" r="5.82"/><rect class="h" x="80.37" y="135.81" width="28.97" height="3.93" rx="1.96" ry="1.96"/><rect class="h" x="80.37" y="142.47" width="20.9" height="1.66" rx=".83" ry=".83"/><rect class="h" x="103.2" y="142.47" width="6.14" height="1.66" rx=".83" ry=".83"/><rect class="e" x="121.49" y="129.16" width="57.03" height="41.68" rx="7.36" ry="7.36"/><circle class="h" cx="131.75" cy="139.97" r="5.82"/><rect class="h" x="142.2" y="135.81" width="28.97" height="3.93" rx="1.96" ry="1.96"/><rect class="h" x="142.2" y="142.47" width="20.9" height="1.66" rx=".83" ry=".83"/><rect class="h" x="165.04" y="142.47" width="6.14" height="1.66" rx=".83" ry=".83"/><rect class="e" x="183.32" y="129.16" width="57.03" height="41.68" rx="7.36" ry="7.36"/><circle class="h" cx="193.59" cy="139.97" r="5.82"/><rect class="h" x="204.04" y="135.81" width="28.97" height="3.93" rx="1.96" ry="1.96"/><rect class="h" x="204.04" y="142.47" width="20.9" height="1.66" rx=".83" ry=".83"/><rect class="h" x="226.87" y="142.47" width="6.14" height="1.66" rx=".83" ry=".83"/><rect class="e" x="59.65" y="176.31" width="57.03" height="41.68" rx="7.36" ry="7.36"/><circle class="h" cx="69.92" cy="187.12" r="5.82"/><rect class="h" x="80.37" y="182.96" width="28.97" height="3.93" rx="1.96" ry="1.96"/><rect class="h" x="80.37" y="189.62" width="20.9" height="1.66" rx=".83" ry=".83"/><rect class="h" x="103.2" y="189.62" width="6.14" height="1.66" rx=".83" ry=".83"/><rect class="e" x="121.49" y="176.31" width="57.03" height="41.68" rx="7.36" ry="7.36"/><circle class="h" cx="131.75" cy="187.12" r="5.82"/><rect class="h" x="142.2" y="182.96" width="28.97" height="3.93" rx="1.96" ry="1.96"/><rect class="h" x="142.2" y="189.62" width="20.9" height="1.66" rx=".83" ry=".83"/><rect class="h" x="165.04" y="189.62" width="6.14" height="1.66" rx=".83" ry=".83"/><rect class="e" x="183.32" y="176.31" width="57.03" height="41.68" rx="7.36" ry="7.36"/><circle class="h" cx="193.59" cy="187.12" r="5.82"/><rect class="h" x="204.04" y="182.96" width="28.97" height="3.93" rx="1.96" ry="1.96"/><rect class="h" x="204.04" y="189.62" width="20.9" height="1.66" rx=".83" ry=".83"/><rect class="h" x="226.87" y="189.62" width="6.14" height="1.66" rx=".83" ry=".83"/><path class="g" d="m173.06,138.59v-14.85c0-12.43-10.34-22.53-23.06-22.53s-23.07,10.11-23.07,22.54v14.85h8.87v-14.48c0-7.66,6.38-13.9,14.22-13.9s14.21,6.23,14.21,13.9v14.47s-.01,0-.01,0h15.38s-6.54,0-6.54,0h0Z"/><path class="b" d="m135.8,138.59h-15.4c-3.1-.03-5.65,2.45-5.69,5.56v40.64c.04,3.11,2.58,5.6,5.69,5.57h59.2c.74,0,1.47-.13,2.16-.41,1.39-.56,2.49-1.64,3.08-3.02.29-.68.44-1.41.45-2.15v-40.64c-.02-2.28-1.42-4.31-3.53-5.16-.69-.27-1.42-.41-2.16-.4h-43.8,0Z"/><path class="c" d="m153.21,165.53v8.87c0,.41-.34.73-.75.73h-4.9c-.41,0-.74-.32-.75-.73v-8.87c-2.36-1.14-3.88-3.53-3.9-6.15.09-3.92,3.34-7.02,7.26-6.93,3.79.09,6.84,3.14,6.93,6.93-.02,2.63-1.53,5.01-3.9,6.15h0Z"/><path class="d" d="m208.73,109.02l-1.68,3.67-3.65,1.67,3.65,1.68,1.68,3.65,1.67-3.65,3.67-1.68-3.67-1.67m-14.99.33l-3.33,7.33-7.33,3.33,7.33,3.33,3.33,7.33,3.33-7.33,7.33-3.33-7.33-3.33m10,7.33l-1.68,3.65-3.65,1.68,3.65,1.67,1.68,3.67,1.67-3.67,3.67-1.67-3.67-1.68"/><path class="d" d="m98.76,186.49l-1.68,3.67-3.65,1.67,3.65,1.68,1.68,3.65,1.67-3.65,3.67-1.68-3.67-1.67m7.22,7l-1.68,3.65-3.65,1.68,3.65,1.67,1.68,3.67,1.67-3.67,3.67-1.67-3.67-1.68"/></svg>