<?xml version="1.0" encoding="utf-8"?>
<!-- Generator: Adobe Illustrator 28.0.0, SVG Export Plug-In . SVG Version: 6.00 Build 0)  -->
<svg version="1.1" id="a" xmlns="http://www.w3.org/2000/svg" xmlns:xlink="http://www.w3.org/1999/xlink" x="0px" y="0px"
	 viewBox="0 0 300 300" style="enable-background:new 0 0 300 300;" xml:space="preserve">
<style type="text/css">
	.st0{opacity:0.1;fill:#247ABA;enable-background:new    ;}
	.st1{fill:#007FE6;}
	.st2{fill:none;stroke:#31333A;stroke-linecap:round;stroke-linejoin:round;}
	.st3{fill:#FFFFFF;}
	.st4{fill:#FFFFFF;stroke:#31333A;stroke-linecap:round;stroke-linejoin:round;}
	.st5{fill:#31333A;}
	.st6{fill:#DCDDDD;stroke:#31333A;stroke-linecap:round;stroke-linejoin:round;}
	.st7{fill:#DCDDDD;}
	.st8{fill:#B5B5B6;}
	.st9{fill:none;stroke:#3a98e6;stroke-width:2;stroke-linecap:round;stroke-linejoin:round;}
</style>
<path class="st0" d="M145.2,262.6c67,0,121.3-54.3,121.3-121.3S212.2,20,145.2,20S23.9,74.3,23.9,141.3S78.2,262.6,145.2,262.6
	L145.2,262.6L145.2,262.6z"/>
<path class="st1" d="M152.2,70.2H16.7c-3.1,0-5.6,2.5-5.6,5.6l0,0V261c0,3.1,2.5,5.5,5.6,5.5h135.5c3.1,0,5.6-2.5,5.6-5.5l0,0V75.7
	C157.8,72.7,155.3,70.2,152.2,70.2L152.2,70.2L152.2,70.2L152.2,70.2z"/>
<path class="st2" d="M152.2,70.2H16.7c-3.1,0-5.6,2.5-5.6,5.6l0,0V261c0,3.1,2.5,5.5,5.6,5.5h135.5c3.1,0,5.6-2.5,5.6-5.5l0,0V75.7
	C157.8,72.7,155.3,70.2,152.2,70.2L152.2,70.2L152.2,70.2L152.2,70.2z"/>
<path class="st3" d="M142.4,86.3H26.5c-1.5,0-2.8,1.2-2.8,2.8l0,0v104.5c0,1.5,1.2,2.8,2.8,2.8h115.9c1.5,0,2.8-1.2,2.8-2.8l0,0
	V89.1C145.1,87.5,143.9,86.3,142.4,86.3C142.4,86.3,142.4,86.3,142.4,86.3z"/>
<path class="st2" d="M142.4,86.3H26.5c-1.5,0-2.8,1.2-2.8,2.8l0,0v104.5c0,1.5,1.2,2.8,2.8,2.8h115.9c1.5,0,2.8-1.2,2.8-2.8l0,0
	V89.1C145.1,87.5,143.9,86.3,142.4,86.3C142.4,86.3,142.4,86.3,142.4,86.3z"/>
<path class="st4" d="M127.1,215.9H38.3c-3.1,0-5.6,2.5-5.6,5.6c0,3.1,2.5,5.6,5.6,5.6h88.8c3.1,0,5.6-2.5,5.6-5.6
	S130.1,215.9,127.1,215.9L127.1,215.9L127.1,215.9z M99.8,232.9H38.3c-3.1,0-5.6,2.5-5.6,5.6c0,3.1,2.5,5.6,5.6,5.6h61.5
	c3.1,0,5.6-2.5,5.6-5.6S102.9,232.9,99.8,232.9L99.8,232.9L99.8,232.9z"/>
<path class="st5" d="M217.7,40.8c3-8.2-2.6-17.8-12.5-21.4s-20.4,0.1-23.4,8.3c-3,8.2,2.6,17.8,12.5,21.4S214.7,49,217.7,40.8
	L217.7,40.8z"/>
<path class="st6" d="M188.1,45c-0.9-0.9-1.6-1.8-2.3-2.9l-2.4,2.4c1.3,2.1,3.1,3.9,5.2,5.2l2.4-2.4C189.9,46.7,189,45.9,188.1,45
	L188.1,45z"/>
<path class="st3" d="M160,270.2l3.3-4.6c0,0-6.8,2.4,2.2-1.4c2.2-1,6.4-3.5,6.4-3.5s-2-17.4-3.5-19.9l15.1-1.1l0.3,28.8l-17.9,4.6
	L160,270.2L160,270.2L160,270.2z"/>
<path class="st7" d="M169.1,252.1l22.3,7.1l-9.2-18.3l-15,10.5"/>
<path class="st2" d="M160,270.2l3.3-4.6c0,0-6.8,2.4,2.2-1.4c2.2-1,6.4-3.5,6.4-3.5s-2-17.4-3.5-19.9l15.1-1.1l0.3,28.8l-17.9,4.6
	L160,270.2L160,270.2L160,270.2z"/>
<path class="st3" d="M185.5,271.1l-35.6,6.7c-2.4-8.2,14.8-13.5,14.8-13.5s4.2,5.5,4.1,8.6l16.4-3.7c0.3-0.1,0.6,0,0.8,0.2
	c0.1,0.1,0.2,0.2,0.3,0.3c0.1,0.1,0.1,0.3,0.1,0.4C186.2,270.6,185.9,271,185.5,271.1L185.5,271.1L185.5,271.1z"/>
<path class="st4" d="M150.9,282c5.2,0,9.5-3.4,9.5-7.5s-4.2-7.5-9.5-7.5s-9.5,3.4-9.5,7.5S145.6,282,150.9,282z"/>
<path class="st2" d="M185.5,271.1l-35.6,6.7c-2.4-8.2,14.8-13.5,14.8-13.5s4.2,5.5,4.1,8.6l16.4-3.7c0.3-0.1,0.6,0,0.8,0.2
	c0.1,0.1,0.2,0.2,0.3,0.3c0.1,0.1,0.1,0.3,0.1,0.4l0,0C186.2,270.6,185.9,271,185.5,271.1L185.5,271.1L185.5,271.1z"/>
<path class="st3" d="M270.6,253.7l-5.4-1.3c0,0,6.7-2.7-2.6,0.4c-2.3,0.8-7.1,1.7-7.1,1.7s-9.4-14.6-9.9-17.5l-12.2,9.3l17.9,22.1
	l16.5-8.5L270.6,253.7L270.6,253.7z"/>
<path class="st7" d="M249.8,244.2l-12.4,20.4l-4.5-20.1l18-2.1"/>
<path class="st2" d="M270.6,253.7l-5.4-1.3c0,0,6.7-2.7-2.6,0.4c-2.3,0.8-7.1,1.7-7.1,1.7s-9.4-14.6-9.9-17.5l-12.2,9.3l17.9,22.1
	l16.5-8.5L270.6,253.7L270.6,253.7z"/>
<path class="st3" d="M251.8,271.5l31.3-18.8c-3.3-7.9-19.7-0.3-19.7-0.3s0.3,7,2.3,9.3l-14.8,8.1c-0.2,0.1-0.4,0.4-0.5,0.7
	c-0.1,0.3,0,0.6,0.2,0.8C251,271.6,251.5,271.7,251.8,271.5L251.8,271.5L251.8,271.5z"/>
<path class="st4" d="M285.4,256.2c3.8-3.7,4.6-9.1,1.8-12s-8.3-2.3-12.1,1.4c-3.8,3.7-4.6,9.1-1.8,12
	C276.2,260.5,281.6,259.9,285.4,256.2z"/>
<path class="st2" d="M251.8,271.5l31.3-18.8c-3.3-7.9-19.7-0.3-19.7-0.3s0.3,7,2.3,9.3l-14.8,8.1c-0.2,0.1-0.4,0.4-0.5,0.7
	c-0.1,0.3,0,0.6,0.2,0.8l0,0C251,271.6,251.5,271.7,251.8,271.5L251.8,271.5L251.8,271.5z"/>
<path class="st3" d="M167.1,251.5c8.4,3.7,37.5-0.9,39.2-5.9l-26.9-63.3l6.8-67.4l-31.6,0.2l-0.9,68.2L167.1,251.5L167.1,251.5
	L167.1,251.5z"/>
<path class="st7" d="M194.3,168.3c0,0,3.5,33.9-7.8,25.6c-20-14.7-23.6-59.7-23.6-59.7"/>
<path class="st3" d="M158.7,243.5c25,10.1,48.7-5.4,48.7-5.4L158.7,243.5L158.7,243.5z"/>
<path class="st2" d="M158.7,243.5c25,10.1,48.7-5.4,48.7-5.4"/>
<path class="st2" d="M167.1,251.5c8.4,3.7,37.5-0.9,39.2-5.9l-26.9-63.3l6.8-67.4l-31.6,0.2l-0.9,68.2L167.1,251.5L167.1,251.5
	L167.1,251.5z"/>
<path class="st3" d="M163.4,139.4c8.6,20.4,21.4,47.9,21.4,47.9l40.7,64.1c33.2,0,31.1-16.9,31.1-16.9l-48.1-58
	c0,0-18.8-59.1-22.1-61.2c-3.2-2.1-29.1-2.3-30.4,2.6"/>
<path class="st7" d="M158.4,121.3c3.1,6.1,33.3,12.6,45.2,13.6c12,1.1-14.2-23.2-14.2-23.2"/>
<path class="st3" d="M217.9,245.8c14.2,3.2,29.1,1.6,38.7-17.6L217.9,245.8L217.9,245.8z"/>
<path class="st2" d="M217.9,245.8c14.2,3.2,29.1,1.6,38.7-17.6"/>
<path class="st2" d="M185.9,123.7l17.7,55.5l49.4,57.4"/>
<path class="st2" d="M183.2,127.6c1.4,18.9,8.9,12.7,8.9,12.7"/>
<path class="st2" d="M163.4,139.4c8.6,20.4,21.4,47.9,21.4,47.9l40.7,64.1c33.2,0,31.1-16.9,31.1-16.9l-48.1-58
	c0,0-18.8-59.1-22.1-61.2c-3.2-2.1-29.1-2.3-30.4,2.6"/>
<path class="st3" d="M137.9,94.9l-10.7,11.3c0,0-21.8-23.9-22.8-24.2c-2.1-0.6-7.1-0.8-7.5-1.2c0,0-1.5,2.3,3,3.2c0,0-2.8,1-2.9,1.1
	c-1.2,0.3-7.1-2.9-7.4-0.3l2.5,1.3c0,0-5.9-1.1-4.8,1.1c0,0,6.4,2.4,7.2,2.4c0.8,0,9-1.3,9-1.3l20.6,32.8c5.2,7.2,15.6-4.7,15.6-4.7
	L137.9,94.9L137.9,94.9L137.9,94.9z"/>
<path class="st7" d="M131.3,100.9c-4.1,5.3,1.7,33.4,1.7,33.4l8.3-14.4l-3-7.2"/>
<path class="st2" d="M137.9,94.9l-10.7,11.3c0,0-21.8-23.9-22.8-24.2c-2.1-0.6-7.1-0.8-7.5-1.2c0,0-1.5,2.3,3,3.2c0,0-2.8,1-2.9,1.1
	c-1.2,0.3-7.1-2.9-7.4-0.3l2.5,1.3c0,0-5.9-1.1-4.8,1.1c0,0,6.4,2.4,7.2,2.4c0.8,0,9-1.3,9-1.3l20.6,32.8c5.2,7.2,15.6-4.7,15.6-4.7
	L137.9,94.9L137.9,94.9L137.9,94.9z"/>
<path class="st8" d="M130.4,101.9c0,0-3.7,8.7,11.6,22l36.3-32.2l-12.8-21.3H162c-2.4,0-4.8,1.1-6.4,2.9L130.4,101.9L130.4,101.9z"
	/>
<path class="st5" d="M157.8,89.5c0,0-6.9,12.5-7.7,37.7s19.1-14.5,19.1-14.5"/>
<path class="st2" d="M130.4,101.9c0,0-3.7,8.7,11.6,22l36.3-32.2l-12.8-21.3H162c-2.4,0-4.8,1.1-6.4,2.9L130.4,101.9L130.4,101.9z"
	/>
<path class="st8" d="M157.3,85.3c-2.4,7.4-4.1,18-3.4,32.7c21.5,16,39.1,6.1,39.1,6.1s-4.9-29.7,8.6-41.1c0,0-11.1-12.6-36.1-12.6"
	/>
<path class="st4" d="M184.3,77.8c6.1-2.7,9.8-7.7,8.3-11.2c-1.5-3.4-7.7-4-13.9-1.2c-6.1,2.7-9.8,7.7-8.3,11.2
	C171.9,80,178.1,80.5,184.3,77.8z"/>
<path class="st5" d="M186,98.8c0,0,4.7,20.6,8.3,25.1c3.6,4.5,1.6-17.5,1.6-17.5"/>
<path class="st2" d="M157.3,85.3c-2.4,7.4-4.1,18-3.4,32.7c21.5,16,39.1,6.1,39.1,6.1s-4.9-29.7,8.6-41.1c0,0-11.1-12.6-36.1-12.6"
	/>
<path class="st3" d="M185.2,74.2l-0.7-16.9l-10.2,2.2c1.3,2.5-0.9,8.8-2,12"/>
<path class="st7" d="M179,63.5l-6.3,6.9l-0.1-7.5l3-0.5"/>
<path class="st2" d="M185.2,74.2l-0.7-16.9l-10.2,2.2c1.3,2.5-0.9,8.8-2,12"/>
<path class="st5" d="M190.8,57c1.8-5-1.6-10.8-7.7-13c-6.1-2.2-12.4,0-14.3,5s1.6,10.8,7.7,13S188.9,61.9,190.8,57z"/>
<path class="st4" d="M174.5,46.4c-14.1,14.8-2.4,22.9,4.5,17.2l4-8L174.5,46.4L174.5,46.4z"/>
<path class="st5" d="M179,45.3l-4.3-1.6c0,0-7.9,10.2,6.9,15.6l4.1-4.3L179,45.3L179,45.3L179,45.3z"/>
<path class="st3" d="M178.4,58.1c10.5-2.3,6.9,6.9-1,5.2L178.4,58.1z"/>
<path class="st2" d="M178.4,58.1c10.5-2.3,6.9,6.9-1,5.2"/>
<path class="st4" d="M182,65.7c1,0,1.9-0.8,1.9-1.9s-0.8-1.9-1.9-1.9l0,0c-1,0-1.9,0.8-1.9,1.9C180.1,64.8,181,65.7,182,65.7z"/>
<path class="st3" d="M171.5,54.4c0,0.1-1.2,2-1.2,2c-2.3-0.2-0.4,1.6-0.4,1.6"/>
<path class="st2" d="M171.5,54.4c0,0.1-1.2,2-1.2,2c-2.3-0.2-0.4,1.6-0.4,1.6"/>
<path class="st5" d="M169.2,55.2c-0.3-0.1-0.4-0.5-0.3-0.8l0.2-0.5c0.1-0.1,0.2-0.2,0.3-0.3c0.1,0,0.3,0,0.4,0
	c0.3,0.1,0.4,0.5,0.3,0.8L170,55c-0.1,0.1-0.2,0.2-0.3,0.3C169.5,55.3,169.4,55.3,169.2,55.2z"/>
<path class="st3" d="M168.7,52.1c0.9,0.2,1.7,0.6,2.5,1.1L168.7,52.1z"/>
<path class="st2" d="M168.7,52.1c0.9,0.2,1.7,0.6,2.5,1.1"/>
<path class="st5" d="M172.6,56.6c-0.3-0.1-0.4-0.5-0.3-0.8l0.2-0.5c0.1-0.1,0.2-0.2,0.3-0.3c0.1,0,0.3,0,0.4,0
	c0.3,0.1,0.4,0.5,0.3,0.8l-0.2,0.5c-0.1,0.1-0.2,0.2-0.3,0.3C172.9,56.7,172.7,56.7,172.6,56.6z"/>
<path class="st3" d="M172.9,53.7c0.9,0.2,1.8,0.5,2.5,1.1L172.9,53.7z"/>
<path class="st2" d="M172.9,53.7c0.9,0.2,1.8,0.5,2.5,1.1 M183,59.6l-2.7,0.6 M182.3,60.9l-0.4-1"/>
<path class="st3" d="M205.3,98.3l8.2,13.6c0,0,27.3-18,28.4-18c2.2-0.1,7.4,0.9,7.9,0.7c0,0,1,2.6-3.8,2.3c0,0,2.6,1.7,2.7,1.7
	c1.2,0.6,7.8-1.2,7.5,1.4l-2.8,0.6c0,0,6.3,0.3,4.6,2.3c0,0-7,0.8-7.8,0.6c-0.9-0.2-8.8-3.5-8.8-3.5l-28.7,25.8
	c-6.9,5.7-14.1-7.2-14.1-7.2L205.3,98.3L205.3,98.3z"/>
<path class="st7" d="M212.1,109.1c-0.1,8-7.6,23.2-7.6,23.2l-4.5-10.3"/>
<path class="st2" d="M205.3,98.3l8.2,13.6c0,0,27.3-18,28.4-18c2.2-0.1,7.4,0.9,7.9,0.7c0,0,1,2.6-3.8,2.3c0,0,2.6,1.7,2.7,1.7
	c1.2,0.6,7.8-1.2,7.5,1.4l-2.8,0.6c0,0,6.3,0.3,4.6,2.3c0,0-7,0.8-7.8,0.6c-0.9-0.2-8.8-3.5-8.8-3.5l-28.7,25.8
	c-6.9,5.7-14.1-7.2-14.1-7.2L205.3,98.3L205.3,98.3z"/>
<path class="st8" d="M200.9,82.4c2.6,2,12.2,27.9,12.2,27.9s-6.5,16.6-14,17.7l-14.1-27.5"/>
<path class="st2" d="M200.9,82.4c2.6,2,12.2,27.9,12.2,27.9s-6.5,16.6-14,17.7l-14.1-27.5 M104,86.3l-0.5,1.9 M95.6,86.7L92.1,86
	 M250.8,100.7h2.6 M241.5,98.5l-0.1,1.6"/>
<path class="st3" d="M171.3,59.6c0,0,0.5-1.6,2.8-0.9L171.3,59.6z"/>
<path class="st2" d="M171.3,59.6c0,0,0.5-1.6,2.8-0.9"/>
<path class="st9" d="M132.1,60.4c3,0,5.4-2.3,5.5-5.3c0-3-2.3-5.4-5.3-5.5c-0.1,0-0.1,0-0.1,0c-3,0-5.3,2.5-5.3,5.5
	C126.8,58,129.2,60.3,132.1,60.4L132.1,60.4z M226.2,170.5l9.1-3.3 M221.6,178.4l9.1-3.3"/>
<g>
	<path class="st1" d="M58.6,161.6c-0.2-0.1-0.5-0.2-0.7-0.3v-10c2-2,5.1-3.6,9.1-4.5c3.8-0.8,7.6-1,11.6-1.1c1,0,2.1-0.1,3.2-0.1
		c-2.4,9.1-5.5,14.8-13.1,16.4C63.5,163,60.3,162.3,58.6,161.6z"/>
	<path class="st1" d="M65.7,140.6c-3,0.6-5.6,1.6-7.8,2.9v-34.1h21.2c4.3,0,8.4,0.9,12.2,2.4c-4.1,7.5-5.8,16.1-7.4,24.2
		c-0.2,1.1-0.4,2.1-0.6,3.1c-1.6,0.1-3.3,0.2-4.9,0.3C74.2,139.5,70,139.7,65.7,140.6z"/>
	<path class="st1" d="M90.1,137.2c1.6-7.8,3.1-15.8,6.7-22.4c4.7,3.1,8.5,7.5,11,12.6c-6,6.7-11.9,9.5-17.7,10.8
		c-0.1,0-0.2,0-0.2,0.1C89.9,137.9,90,137.5,90.1,137.2z"/>
	<path class="st1" d="M111,141.3c0,17.6-14.3,31.9-31.9,31.9H57.9V168c3.4,1,7.6,1,12.1,0c11.8-2.5,15.8-12.3,18.4-23.2
		c6.9-1,14.3-3.6,21.7-10.8C110.7,136.3,111,138.8,111,141.3z"/>
</g>
</svg>
