<svg id="a" xmlns="http://www.w3.org/2000/svg" viewBox="0 0 300 300"><defs><style>.b,.c,.d{stroke:#31333a;}.b,.c,.d,.e{stroke-linecap:round;stroke-linejoin:round;}.b,.f{fill:#dcdddd;}.c,.g{fill:#fff;}.d,.e{fill:none;}.h{isolation:isolate;opacity:.1;}.h,.i,.j,.f,.k,.g{stroke-width:0px;}.h,.j{fill:#247aba;}.e{stroke:#6ea4cc;stroke-width:2px;}.i{fill:#31333a;}.k{fill:#b5b5b6;}</style></defs><path class="h" d="m145.23,262.59c67,0,121.32-54.32,121.32-121.32S212.23,19.96,145.23,19.96,23.91,74.27,23.91,141.28s54.32,121.32,121.32,121.32h0Z"/><path class="j" d="m152.21,70.17H16.68c-3.07,0-5.55,2.49-5.55,5.55h0v185.23c0,3.07,2.49,5.55,5.55,5.55h135.52c3.07,0,5.55-2.49,5.55-5.55h0V75.72c0-3.07-2.48-5.55-5.55-5.55h0,0Z"/><path class="d" d="m152.21,70.17H16.68c-3.07,0-5.55,2.49-5.55,5.55h0v185.23c0,3.07,2.49,5.55,5.55,5.55h135.52c3.07,0,5.55-2.49,5.55-5.55h0V75.72c0-3.07-2.48-5.55-5.55-5.55h0,0Z"/><path class="g" d="m142.38,86.3H26.51c-1.52,0-2.75,1.23-2.75,2.75h0v104.46c0,1.52,1.23,2.75,2.75,2.75h115.87c1.52,0,2.75-1.23,2.75-2.75h0v-104.46c0-1.52-1.23-2.75-2.75-2.75h0Z"/><path class="d" d="m142.38,86.3H26.51c-1.52,0-2.75,1.23-2.75,2.75h0v104.46c0,1.52,1.23,2.75,2.75,2.75h115.87c1.52,0,2.75-1.23,2.75-2.75h0v-104.46c0-1.52-1.23-2.75-2.75-2.75h0Z"/><path class="c" d="m127.06,215.9H38.31c-3.08,0-5.57,2.5-5.57,5.58,0,3.07,2.5,5.57,5.57,5.57h88.75c3.08,0,5.58-2.5,5.58-5.58s-2.5-5.58-5.58-5.58h0Zm-27.24,17.04h-61.5c-3.08,0-5.57,2.5-5.57,5.58,0,3.07,2.5,5.57,5.57,5.57h61.5c3.08,0,5.58-2.5,5.58-5.58s-2.5-5.58-5.58-5.58h0Z"/><path class="i" d="m217.67,40.8c3-8.22-2.62-17.81-12.54-21.43-9.92-3.62-20.39.11-23.39,8.32-3,8.22,2.62,17.81,12.54,21.43,9.92,3.62,20.39-.11,23.39-8.32h0Z"/><path class="b" d="m188.1,45.04c-.88-.87-1.65-1.84-2.29-2.9l-2.36,2.36c1.3,2.11,3.08,3.89,5.19,5.19l2.36-2.36c-1.06-.64-2.03-1.41-2.9-2.29Z"/><path class="g" d="m160.01,270.21l3.3-4.64s-6.78,2.4,2.19-1.43c2.24-.96,6.45-3.45,6.45-3.45,0,0-2.02-17.38-3.49-19.94l15.11-1.08.32,28.85-17.9,4.61-5.98-2.92h0Z"/><path class="f" d="m169.12,252.15l22.27,7.12-9.25-18.27-15.03,10.51"/><path class="d" d="m160.01,270.21l3.3-4.64s-6.78,2.4,2.19-1.43c2.24-.96,6.45-3.45,6.45-3.45,0,0-2.02-17.38-3.49-19.94l15.11-1.08.32,28.85-17.9,4.61-5.98-2.92h0Z"/><path class="g" d="m185.46,271.1l-35.64,6.74c-2.42-8.2,14.79-13.51,14.79-13.51,0,0,4.19,5.55,4.1,8.62l16.37-3.74c.28-.06.57.01.8.2.11.09.2.2.26.33.06.13.09.27.09.41,0,.46-.31.85-.76.95h0Z"/><path class="c" d="m150.88,282.01c5.24,0,9.49-3.37,9.49-7.52s-4.25-7.52-9.49-7.52-9.49,3.37-9.49,7.52,4.25,7.52,9.49,7.52Z"/><path class="d" d="m185.46,271.1l-35.64,6.74c-2.42-8.2,14.79-13.51,14.79-13.51,0,0,4.19,5.55,4.1,8.62l16.37-3.74c.28-.06.57.01.8.2.11.09.2.2.26.33.06.13.09.27.09.41h0c0,.46-.31.85-.76.95h0Z"/><path class="g" d="m270.62,253.72l-5.43-1.31s6.66-2.74-2.56.38c-2.3.78-7.07,1.71-7.07,1.71,0,0-9.41-14.56-9.9-17.49l-12.16,9.33,17.92,22.13,16.49-8.52,2.7-6.23Z"/><path class="f" d="m249.78,244.2l-12.44,20.37-4.48-20.09,18.04-2.11"/><path class="d" d="m270.62,253.72l-5.43-1.31s6.66-2.74-2.56.38c-2.3.78-7.07,1.71-7.07,1.71,0,0-9.41-14.56-9.9-17.49l-12.16,9.33,17.92,22.13,16.49-8.52,2.7-6.23Z"/><path class="g" d="m251.84,271.49l31.32-18.82c-3.32-7.86-19.74-.33-19.74-.33,0,0,.31,7.03,2.31,9.3l-14.79,8.15c-.25.15-.43.39-.48.68-.05.29.02.58.21.8.28.35.78.44,1.17.21h0Z"/><path class="c" d="m285.41,256.16c3.82-3.71,4.6-9.09,1.75-12.03-2.85-2.94-8.26-2.31-12.08,1.39-3.82,3.71-4.6,9.09-1.75,12.03,2.85,2.94,8.26,2.31,12.08-1.39Z"/><path class="d" d="m251.84,271.49l31.32-18.82c-3.32-7.86-19.74-.33-19.74-.33,0,0,.31,7.03,2.31,9.3l-14.79,8.15c-.25.15-.43.39-.48.68-.05.29.02.58.21.8h0c.28.35.78.44,1.17.21h0Z"/><path class="g" d="m167.11,251.51c8.36,3.68,37.49-.92,39.18-5.9l-26.9-63.26,6.83-67.4-31.56.15-.92,68.2,13.38,68.2h0Z"/><path class="f" d="m194.26,168.27s3.54,33.93-7.8,25.62c-20.03-14.67-23.64-59.65-23.64-59.65"/><path class="g" d="m158.73,243.5c24.97,10.07,48.73-5.37,48.73-5.37l-48.73,5.37h0Z"/><path class="d" d="m158.73,243.5c24.97,10.07,48.73-5.37,48.73-5.37"/><path class="d" d="m167.11,251.51c8.36,3.68,37.49-.92,39.18-5.9l-26.9-63.26,6.83-67.4-31.56.15-.92,68.2,13.38,68.2h0Z"/><path class="g" d="m163.41,139.44c8.55,20.45,21.39,47.93,21.39,47.93l40.71,64.13c33.19,0,31.08-16.95,31.08-16.95l-48.11-58.01s-18.81-59.07-22.06-61.19c-3.24-2.12-29.07-2.34-30.41,2.6"/><path class="f" d="m158.4,121.3c3.08,6.06,33.27,12.57,45.24,13.65,11.96,1.07-14.22-23.15-14.22-23.15"/><path class="g" d="m217.86,245.83c14.22,3.23,29.12,1.62,38.75-17.55l-38.75,17.55Z"/><path class="d" d="m217.86,245.83c14.22,3.23,29.12,1.62,38.75-17.55"/><path class="d" d="m185.92,123.65l17.73,55.49,49.42,57.38"/><path class="d" d="m183.21,127.62c1.4,18.92,8.86,12.68,8.86,12.68"/><path class="d" d="m163.41,139.44c8.55,20.45,21.39,47.93,21.39,47.93l40.71,64.13c33.19,0,31.08-16.95,31.08-16.95l-48.11-58.01s-18.81-59.07-22.06-61.19c-3.24-2.12-29.07-2.34-30.41,2.6"/><path class="g" d="m137.85,94.94l-10.68,11.27s-21.76-23.87-22.77-24.17c-2.05-.62-7.11-.83-7.53-1.16,0,0-1.48,2.27,3.04,3.15,0,0-2.83,1.03-2.95,1.05-1.24.28-7.07-2.94-7.36-.35l2.5,1.27s-5.94-1.13-4.83,1.14c0,0,6.4,2.36,7.24,2.4.83.04,9.04-1.32,9.04-1.32l20.59,32.78c5.2,7.16,15.59-4.71,15.59-4.71l-1.88-21.36h0Z"/><path class="f" d="m131.29,100.88c-4.12,5.33,1.72,33.4,1.72,33.4l8.32-14.45-3.01-7.17"/><path class="d" d="m137.85,94.94l-10.68,11.27s-21.76-23.87-22.77-24.17c-2.05-.62-7.11-.83-7.53-1.16,0,0-1.48,2.27,3.04,3.15,0,0-2.83,1.03-2.95,1.05-1.24.28-7.07-2.94-7.36-.35l2.5,1.27s-5.94-1.13-4.83,1.14c0,0,6.4,2.36,7.24,2.4.83.04,9.04-1.32,9.04-1.32l20.59,32.78c5.2,7.16,15.59-4.71,15.59-4.71l-1.88-21.36h0Z"/><path class="k" d="m130.41,101.88s-3.66,8.7,11.57,21.99l36.29-32.17-12.76-21.29h-3.49c-2.44,0-4.76,1.05-6.38,2.88l-25.22,28.6Z"/><path class="i" d="m157.76,89.48s-6.9,12.51-7.73,37.68c-.83,25.17,19.08-14.53,19.08-14.53"/><path class="d" d="m130.41,101.88s-3.66,8.7,11.57,21.99l36.29-32.17-12.76-21.29h-3.49c-2.44,0-4.76,1.05-6.38,2.88l-25.22,28.6Z"/><path class="k" d="m157.27,85.35c-2.35,7.41-4.11,18.01-3.37,32.7,21.47,15.99,39.05,6.09,39.05,6.09,0,0-4.86-29.73,8.6-41.13,0,0-11.15-12.62-36.05-12.59"/><path class="c" d="m184.26,77.78c6.12-2.74,9.84-7.74,8.31-11.16-1.53-3.43-7.74-3.99-13.86-1.25-6.12,2.74-9.84,7.74-8.31,11.16,1.53,3.43,7.74,3.99,13.86,1.25Z"/><path class="i" d="m186.01,98.79s4.69,20.61,8.27,25.09c3.58,4.48,1.65-17.49,1.65-17.49"/><path class="d" d="m157.27,85.35c-2.35,7.41-4.11,18.01-3.37,32.7,21.47,15.99,39.05,6.09,39.05,6.09,0,0-4.86-29.73,8.6-41.13,0,0-11.15-12.62-36.05-12.59"/><path class="g" d="m185.17,74.21l-.74-16.87-10.18,2.16c1.31,2.52-.87,8.77-2.01,12.04"/><path class="f" d="m179.02,63.55l-6.3,6.86-.14-7.54,3.01-.54"/><path class="d" d="m185.17,74.21l-.74-16.87-10.18,2.16c1.31,2.52-.87,8.77-2.01,12.04"/><path class="i" d="m190.76,56.95c1.82-4.99-1.62-10.83-7.68-13.04-6.06-2.21-12.45.04-14.27,5.03-1.82,4.99,1.62,10.83,7.68,13.04,6.06,2.21,12.45-.04,14.27-5.03Z"/><path class="c" d="m174.48,46.39c-14.09,14.81-2.43,22.89,4.54,17.16l4-8-8.54-9.16h0Z"/><path class="i" d="m179.01,45.34l-4.33-1.58s-7.87,10.2,6.85,15.61l4.05-4.28-6.57-9.76h0Z"/><path class="g" d="m178.44,58.14c10.5-2.32,6.92,6.95-1.04,5.22l1.04-5.22Z"/><path class="d" d="m178.44,58.14c10.5-2.32,6.92,6.95-1.04,5.22"/><path class="c" d="m182.02,65.67c1.04,0,1.89-.84,1.89-1.89s-.84-1.89-1.89-1.89h0c-1.04,0-1.89.84-1.89,1.89s.84,1.89,1.89,1.89Z"/><path class="g" d="m171.49,54.39c-.02.1-1.25,1.96-1.25,1.96-2.27-.23-.39,1.59-.39,1.59"/><path class="d" d="m171.49,54.39c-.02.1-1.25,1.96-1.25,1.96-2.27-.23-.39,1.59-.39,1.59"/><path class="i" d="m169.23,55.23c-.28-.14-.4-.47-.28-.76l.22-.48c.06-.13.18-.24.32-.28.14-.05.29-.04.42.03.28.14.4.47.28.76l-.22.48c-.06.13-.18.24-.32.28-.14.05-.29.04-.42-.03Z"/><path class="g" d="m168.72,52.11c.88.24,1.71.62,2.47,1.12l-2.47-1.12Z"/><path class="d" d="m168.72,52.11c.88.24,1.71.62,2.47,1.12"/><path class="i" d="m172.57,56.6c-.28-.14-.4-.47-.28-.76l.22-.48c.06-.13.18-.24.32-.28.14-.05.29-.04.42.03.28.14.4.47.28.76l-.22.48c-.06.13-.17.24-.32.28-.14.05-.29.04-.42-.03Z"/><path class="g" d="m172.9,53.7c.91.15,1.76.53,2.47,1.12l-2.47-1.12Z"/><path class="d" d="m172.9,53.7c.91.15,1.76.53,2.47,1.12m7.65,4.76l-2.66.61m1.98.75l-.38-.98"/><path class="g" d="m205.29,98.3l8.23,13.58s27.31-17.99,28.4-18.04c2.21-.1,7.36.91,7.85.69,0,0,.99,2.57-3.77,2.34,0,0,2.63,1.69,2.73,1.74,1.18.57,7.79-1.15,7.51,1.44l-2.8.63s6.25.34,4.61,2.28c0,0-6.98.75-7.84.59-.85-.16-8.82-3.48-8.82-3.48l-28.66,25.81c-6.86,5.72-14.15-7.21-14.15-7.21l6.7-20.37Z"/><path class="f" d="m212.08,109.08c-.12,7.98-7.63,23.24-7.63,23.24l-4.51-10.29"/><path class="d" d="m205.29,98.3l8.23,13.58s27.31-17.99,28.4-18.04c2.21-.1,7.36.91,7.85.69,0,0,.99,2.57-3.77,2.34,0,0,2.63,1.69,2.73,1.74,1.18.57,7.79-1.15,7.51,1.44l-2.8.63s6.25.34,4.61,2.28c0,0-6.98.75-7.84.59-.85-.16-8.82-3.48-8.82-3.48l-28.66,25.81c-6.86,5.72-14.15-7.21-14.15-7.21l6.7-20.37Z"/><path class="k" d="m200.93,82.38c2.55,1.97,12.23,27.91,12.23,27.91,0,0-6.5,16.56-14.01,17.69l-14.06-27.51"/><path class="d" d="m200.93,82.38c2.55,1.97,12.23,27.91,12.23,27.91,0,0-6.5,16.56-14.01,17.69l-14.06-27.51m-81.07-14.17l-.47,1.94m-7.95-1.59l-3.5-.63m158.74,14.68h2.6m-11.97-2.21l-.08,1.6"/><path class="g" d="m171.33,59.58s.46-1.64,2.81-.93l-2.81.93Z"/><path class="d" d="m171.33,59.58s.46-1.64,2.81-.93"/><path class="e" d="m132.07,60.36c2.97.04,5.42-2.34,5.46-5.31.04-2.97-2.34-5.42-5.31-5.46-.05,0-.1,0-.15,0-2.97.04-5.35,2.49-5.31,5.46.04,2.92,2.4,5.27,5.31,5.31Zm94.12,110.1l9.09-3.31m-13.63,11.28l9.09-3.31"/><path class="j" d="m116.23,141.27c0,21.45-12.72,36.2-37.03,36.2h-26.54v-72.39h28.12c23.3,0,35.45,14.75,35.45,36.19Z"/><path class="g" d="m73.83,165.68c-7.87,0-14.26-6.39-14.26-14.25s6.39-14.25,14.25-14.25h6.07v-6.07c0-7.86,6.39-14.25,14.25-14.25h5.3v8.19h-5.3c-3.34,0-6.07,2.72-6.07,6.07v6.07h11.37v8.19h-11.37v6.07c0,7.86-6.39,14.25-14.25,14.25Zm0-20.32c-3.34,0-6.07,2.72-6.07,6.07s2.72,6.07,6.07,6.07,6.07-2.72,6.07-6.07v-6.07h-6.07Z"/></svg>