<svg id="a" xmlns="http://www.w3.org/2000/svg" viewBox="0 0 300 300"><defs><style>.b,.c,.d,.e,.f{stroke-linecap:round;stroke-linejoin:round;}.b,.c,.d,.f{stroke:#31333a;}.b,.d,.g{fill:#fff;}.h{isolation:isolate;opacity:.1;}.h,.c{fill:#007fe6;}.h,.i,.j,.k,.l,.g{stroke-width:0px;}.c,.d,.f{stroke-width:1px;}.e{stroke:#3a98e6;stroke-width:2px;}.e,.f{fill:none;}.i{fill:#31333a;}.j{fill:#3a98e6;}.k{fill:#dcdddd;}.l{fill:#b5b5b6;}</style></defs><path class="h" d="m150.57,271.32c66.76,0,120.88-54.32,120.88-121.32S217.33,28.68,150.57,28.68,29.69,83,29.69,150s54.12,121.32,120.88,121.32Z"/><path class="g" d="m241.13,77.16H56.25c-1.5,0-2.72,1.22-2.72,2.72h0v133.48c0,1.5,1.22,2.72,2.72,2.72h184.88c1.5,0,2.72-1.22,2.72-2.72h0V79.88c0-1.5-1.22-2.72-2.72-2.72h0Z"/><path class="k" d="m256.2,72.05H44.39v24.66h211.8v-24.66h0Z"/><path class="f" d="m241.13,77.16H56.25c-1.5,0-2.72,1.22-2.72,2.72h0v133.48c0,1.5,1.22,2.72,2.72,2.72h184.88c1.5,0,2.72-1.22,2.72-2.72h0V79.88c0-1.5-1.22-2.72-2.72-2.72h0Z"/><path class="d" d="m64.9,89.79c1.93,0,3.49-1.57,3.48-3.5,0-1.93-1.56-3.49-3.48-3.5-1.93,0-3.49,1.57-3.48,3.5,0,1.93,1.56,3.49,3.48,3.5Zm10.54,0c1.93,0,3.49-1.57,3.48-3.5,0-1.93-1.56-3.49-3.48-3.5-1.93,0-3.49,1.57-3.48,3.5,0,1.93,1.56,3.49,3.48,3.5h0Zm10.54,0c1.93,0,3.49-1.57,3.48-3.5,0-1.93-1.56-3.49-3.48-3.5-1.93,0-3.49,1.57-3.48,3.5,0,1.93,1.56,3.49,3.48,3.5Z"/><path class="g" d="m221.44,107.01H75.95c-4.4,0-7.96,3.56-7.96,7.96v78.03c0,4.4,3.56,7.96,7.96,7.96h145.49c4.4,0,7.96-3.56,7.96-7.96h0v-78.04c0-4.4-3.56-7.96-7.96-7.96h0Z"/><path class="f" d="m221.44,107.01H75.95c-4.4,0-7.96,3.56-7.96,7.96v78.03c0,4.4,3.56,7.96,7.96,7.96h145.49c4.4,0,7.96-3.56,7.96-7.96h0v-78.04c0-4.4-3.56-7.96-7.96-7.96h0Z"/><path class="g" d="m100.39,180.54c1.53,1.41,3.33,2.5,5.29,3.22,1.96.72,4.04,1.04,6.12.95"/><path class="i" d="m99.33,181.6c3.39,3.11,7.87,4.77,12.47,4.61.82-.02,1.48-.68,1.5-1.5,0-.82-.67-1.49-1.5-1.5-3.81.17-7.53-1.17-10.35-3.73-.59-.57-1.53-.57-2.12,0-.58.59-.58,1.53,0,2.12Z"/><path class="c" d="m209.02,159.67c30.65,0,55.49-24.93,55.49-55.69s-24.84-55.69-55.49-55.69-55.49,24.93-55.49,55.69,24.85,55.69,55.49,55.69Z"/><path class="k" d="m161.38,211.33l-5.23-41.15c-1.02-6.39-7.07-16.3-14.37-18.56l-18.22,25.98-5.44,36.71,43.25-2.98h0s0,0,0,0Z"/><path class="f" d="m161.38,211.33l-5.23-41.15c-1.02-6.39-7.07-16.3-14.37-18.56l-18.22,25.98-5.44,36.71,43.25-2.98h0s0,0,0,0Z"/><path class="k" d="m138.52,165.98l-15.16,49.57-62.88.74,18.35-72.92s42.22-.8,63.97,8.63"/><path class="d" d="m119.08,160.36c4.88-4.57,3.66-13.81-2.73-20.64-6.39-6.83-15.53-8.67-20.42-4.1-4.88,4.57-3.66,13.81,2.73,20.64,6.39,6.83,15.53,8.67,20.41,4.1h0Z"/><path class="d" d="m116.43,158.27c5.13-3.82,4.9-12.81-.51-20.09-5.41-7.28-13.96-10.08-19.1-6.26-5.13,3.82-4.9,12.81.51,20.09,5.41,7.28,13.96,10.08,19.1,6.26Z"/><path class="f" d="m138.52,165.98l-15.16,49.57-62.88.74,18.35-72.92s42.22-.8,63.97,8.63"/><path class="g" d="m99.93,144.91l5.81-17.53,10.69,8.07,1.71,1-.57,10.48"/><path class="k" d="m121.79,151.28c-13.04-9.69-9.92-17.15-14.47-22.26-4.54-5.1,14.5,4.89,14.5,4.89l.04,12.59"/><path class="f" d="m99.93,144.91l5.81-17.53,10.69,8.07,1.71,1-.57,10.48"/><path class="g" d="m107.32,129.02l.24-5.26,6-7.61,11.88,3.99c1.6,17.93-5.71,25.04-15.85,15.16"/><path class="f" d="m107.32,129.02l.24-5.26,6-7.61,11.88,3.99c1.6,17.93-5.71,25.04-15.85,15.16"/><path class="i" d="m108.89,128.87c7.28-4.4,5.18-8.81,5.18-8.81,27.16,12.11,23.28-16.09,4.78-8.75,0,0-11.69-4.86-12.49,4.12-12.48,2.79.89,19.4,2.53,13.44h0Z"/><path class="g" d="m112.49,126.46c-6.89-6.65-11.79,2.63-2.01,5.71,0,0,2.01-5.71,2.01-5.71Z"/><path class="f" d="m112.49,126.46c-6.89-6.65-11.79,2.63-2.01,5.71"/><path class="g" d="m120.9,125.7c0,.12.89,2.67.89,2.67,2.73.4,0,1.99,0,1.99"/><path class="f" d="m120.9,125.7c0,.12.89,2.67.89,2.67,2.73.4,0,1.99,0,1.99"/><path class="i" d="m123.3,127.35c.37-.08.61-.44.54-.81l-.12-.63c-.03-.18-.13-.33-.29-.43-.15-.1-.33-.13-.51-.09-.37.08-.61.44-.55.81l.12.63c.07.35.41.59.76.52,0,0,.02,0,.03,0h0Z"/><path class="f" d="m124.81,123.83l-3.22.59"/><path class="i" d="m118.99,127.98c.37-.08.61-.44.54-.81l-.12-.63c-.07-.36-.41-.59-.77-.52,0,0-.01,0-.02,0-.37.08-.61.44-.54.81l.12.63c.03.18.13.33.28.43.15.1.33.13.51.09Z"/><path class="f" d="m119.44,124.47l-3.22.59"/><path class="l" d="m121.99,132.62l-4.47-1.18c-2.12,4.44,4.35,5.32,4.47,1.18Z"/><path class="f" d="m109.49,127.82l-1.51-1.47m.59,2.04l.07-1.31"/><path class="k" d="m122.08,216.29h65.88l15.91-39.45c.68-1.68-.31-3.04-2.21-3.04h-59.01c-2,.07-3.79,1.24-4.66,3.04l-15.91,39.45Z"/><path class="d" d="m95.81,213.2h94.18l-1.59,3.09h-97.61l.37-.71c.52-.75,1.22-1.35,2.03-1.77.81-.42,1.71-.62,2.62-.61h0Z"/><path class="g" d="m123.56,216.29h65.88l15.91-39.45c.68-1.68-.31-3.04-2.21-3.04h-59.01c-2,.07-3.79,1.24-4.66,3.04l-15.91,39.45h0Z"/><path class="k" d="m197.14,203.44c-3.55,8.46-49.27,14.52-49.27,14.52l43.19,4.49"/><path class="f" d="m123.56,216.29h65.88l15.91-39.45c.68-1.68-.31-3.04-2.21-3.04h-59.01c-2,.07-3.79,1.24-4.66,3.04l-15.91,39.45h0Z"/><path class="j" d="m169.03,197.55c3.18-1.88,4.72-5.14,3.46-7.28s-4.87-2.34-8.05-.46c-3.18,1.88-4.72,5.15-3.46,7.28,1.27,2.14,4.87,2.34,8.05.46Z"/><path class="k" d="m84.99,171.81l-20.37,30.26-26.34-.99,16.3-43.04c5.9-14.8,24.93-14.68,24.93-14.68"/><path class="f" d="m84.99,171.81l-20.37,30.26-26.34-.99,16.3-43.04c5.9-14.8,24.93-14.68,24.93-14.68"/><path class="g" d="m117.26,198.67s-.84,4.32-10.94-3.91c0,0,3.06,7.28-1.71,7.76,0,0-2.85,1.51-4.43,1.02,0,0-3.92,1.76-5.66,1.62,0,0-1.38-2.15,2.25-3.19l-1.1-1.92s-10.04.3-11.54.17l-34.68,14.48c-4.68,1.95-10.06-.27-12.01-4.95-.08-.2-.16-.4-.23-.6-1.64-4.82.94-10.07,5.76-11.71.38-.13.76-.23,1.15-.31,13.65-2.71,36.62-7.04,41.53-6.94,5.38.11,16.07-2,19.45-1.36,2.83.53,12.16,9.83,12.16,9.83h0Z"/><path class="f" d="m117.26,198.67s-.84,4.32-10.94-3.91c0,0,3.06,7.28-1.71,7.76,0,0-2.85,1.51-4.43,1.02,0,0-3.92,1.76-5.66,1.62,0,0-1.38-2.15,2.25-3.19l-1.1-1.92s-10.04.3-11.54.17l-34.68,14.48c-4.68,1.95-10.06-.27-12.01-4.95-.08-.2-.16-.4-.23-.6h0c-1.64-4.82.94-10.07,5.76-11.71.38-.13.76-.23,1.15-.31,13.65-2.71,36.62-7.04,41.53-6.94,5.38.11,16.07-2,19.45-1.36,2.83.53,12.16,9.83,12.16,9.83h0Z"/><path class="g" d="m103.59,195.37s1.85,5.29,1.01,7.16l-1.01-7.16Z"/><path class="f" d="m103.59,195.37s1.85,5.29,1.01,7.16m-10.41-5.07l1.46,2.6"/><path class="d" d="m101.9,174.03s-9.89.12-14-1.07c0,0-5.97,12.25,4.57,12.83,10.55.58,9.43-11.76,9.43-11.76h0Z"/><path class="e" d="m33.92,122.35c2.96,0,5.37-2.41,5.37-5.39s-2.4-5.39-5.37-5.39-5.37,2.41-5.37,5.39,2.4,5.39,5.37,5.39Zm197.46,54l9.06-3.31m-13.59,11.28l9.06-3.31"/><path class="b" d="m194.21,98.77l12.26-12.26v24.19c0,1.41,1.14,2.55,2.55,2.55s2.55-1.14,2.55-2.55v-24.19l12.26,12.26c.5.5,1.15.75,1.8.75s1.31-.25,1.8-.75c1-1,1-2.61,0-3.61l-16.61-16.61c-.96-.96-2.65-.96-3.61,0l-16.61,16.61c-1,1-1,2.61,0,3.61,1,1,2.61,1,3.61,0Z"/><path class="b" d="m228.83,108.82c-1.41,0-2.55,1.14-2.55,2.55v9.5c0,2.29-1.86,4.14-4.14,4.14h-26.22c-2.29,0-4.14-1.86-4.14-4.14v-9.5c0-1.41-1.14-2.55-2.55-2.55s-2.55,1.14-2.55,2.55v9.5c0,5.1,4.15,9.25,9.25,9.25h26.22c5.1,0,9.25-4.15,9.25-9.25v-9.5c0-1.41-1.14-2.55-2.55-2.55Z"/></svg>