<?xml version="1.0" encoding="utf-8"?>
<!-- Generator: Adobe Illustrator 28.0.0, SVG Export Plug-In . SVG Version: 6.00 Build 0)  -->
<svg version="1.1" id="图层_1" xmlns="http://www.w3.org/2000/svg" xmlns:xlink="http://www.w3.org/1999/xlink" x="0px" y="0px"
	 viewBox="0 0 400 300" style="enable-background:new 0 0 400 300;" xml:space="preserve">
<style type="text/css">
	.st0{opacity:0.1;fill:#5578EC;enable-background:new    ;}
	.st1{fill:#FFFFFF;}
	.st2{fill:#DCDDDD;}
	.st3{fill:none;stroke:#31333A;stroke-width:0.998;stroke-linecap:round;stroke-linejoin:round;}
	.st4{fill:#FFFFFF;stroke:#31333A;stroke-width:0.998;stroke-linecap:round;stroke-linejoin:round;}
	.st5{fill:#31333A;}
	.st6{fill:#5578EC;stroke:#31333A;stroke-width:0.998;stroke-linecap:round;stroke-linejoin:round;}
	.st7{fill:#B5B5B6;}
	.st8{fill:#3351E5;}
	.st9{fill:none;stroke:#3351E5;stroke-width:1.996;stroke-linecap:round;stroke-linejoin:round;}
	.st10{fill:none;stroke:#FFFFFF;stroke-width:5;stroke-linecap:round;stroke-linejoin:round;}
</style>
<path class="st0" d="M201.1,271.3c66.8,0,120.9-54.3,120.9-121.3S267.8,28.7,201.1,28.7C134.3,28.7,80.2,83,80.2,150
	S134.3,271.3,201.1,271.3z"/>
<path class="st1" d="M291.6,77.2H106.8c-1.5,0-2.7,1.2-2.7,2.7c0,0,0,0,0,0v133.5c0,1.5,1.2,2.7,2.7,2.7c0,0,0,0,0,0h184.9
	c1.5,0,2.7-1.2,2.7-2.7c0,0,0,0,0,0V79.9C294.4,78.4,293.1,77.2,291.6,77.2C291.6,77.2,291.6,77.2,291.6,77.2z"/>
<path class="st2" d="M306.7,72H94.9v24.7h211.8V72L306.7,72z"/>
<path class="st3" d="M291.6,77.2H106.8c-1.5,0-2.7,1.2-2.7,2.7c0,0,0,0,0,0v133.5c0,1.5,1.2,2.7,2.7,2.7c0,0,0,0,0,0h184.9
	c1.5,0,2.7-1.2,2.7-2.7c0,0,0,0,0,0V79.9C294.4,78.4,293.1,77.2,291.6,77.2C291.6,77.2,291.6,77.2,291.6,77.2z"/>
<path class="st4" d="M115.4,89.8c1.9,0,3.5-1.6,3.5-3.5c0-1.9-1.6-3.5-3.5-3.5c-1.9,0-3.5,1.6-3.5,3.5
	C111.9,88.2,113.5,89.8,115.4,89.8z M125.9,89.8c1.9,0,3.5-1.6,3.5-3.5c0-1.9-1.6-3.5-3.5-3.5c-1.9,0-3.5,1.6-3.5,3.5
	C122.4,88.2,124,89.8,125.9,89.8C125.9,89.8,125.9,89.8,125.9,89.8z M136.5,89.8c1.9,0,3.5-1.6,3.5-3.5c0-1.9-1.6-3.5-3.5-3.5
	c-1.9,0-3.5,1.6-3.5,3.5C133,88.2,134.5,89.8,136.5,89.8z"/>
<path class="st1" d="M271.9,107H126.4c-4.4,0-8,3.6-8,8v78c0,4.4,3.6,8,8,8h0h145.5c4.4,0,8-3.6,8-8c0,0,0,0,0,0v-78
	C279.9,110.6,276.3,107,271.9,107C271.9,107,271.9,107,271.9,107z"/>
<path class="st3" d="M271.9,107H126.4c-4.4,0-8,3.6-8,8v78c0,4.4,3.6,8,8,8h0h145.5c4.4,0,8-3.6,8-8c0,0,0,0,0,0v-78
	C279.9,110.6,276.3,107,271.9,107C271.9,107,271.9,107,271.9,107z"/>
<path class="st1" d="M150.9,180.5c1.5,1.4,3.3,2.5,5.3,3.2c2,0.7,4,1,6.1,0.9"/>
<path class="st5" d="M149.8,181.6c3.4,3.1,7.9,4.8,12.5,4.6c0.8,0,1.5-0.7,1.5-1.5c0-0.8-0.7-1.5-1.5-1.5c-3.8,0.2-7.5-1.2-10.3-3.7
	c-0.6-0.6-1.5-0.6-2.1,0C149.3,180.1,149.3,181,149.8,181.6z"/>
<path class="st6" d="M259.5,159.7c30.6,0,55.5-24.9,55.5-55.7s-24.8-55.7-55.5-55.7S204,73.2,204,104
	C204,134.7,228.9,159.7,259.5,159.7z"/>
<path class="st2" d="M211.9,211.3l-5.2-41.2c-1-6.4-7.1-16.3-14.4-18.6l-18.2,26l-5.4,36.7L211.9,211.3L211.9,211.3L211.9,211.3z"/>
<path class="st3" d="M211.9,211.3l-5.2-41.2c-1-6.4-7.1-16.3-14.4-18.6l-18.2,26l-5.4,36.7L211.9,211.3L211.9,211.3L211.9,211.3z"/>
<path class="st2" d="M189,166l-15.2,49.6l-62.9,0.7l18.4-72.9c0,0,42.2-0.8,64,8.6"/>
<path class="st4" d="M169.6,160.4c4.9-4.6,3.7-13.8-2.7-20.6c-6.4-6.8-15.5-8.7-20.4-4.1s-3.7,13.8,2.7,20.6
	C155.6,163.1,164.7,164.9,169.6,160.4L169.6,160.4z"/>
<path class="st4" d="M166.9,158.3c5.1-3.8,4.9-12.8-0.5-20.1c-5.4-7.3-14-10.1-19.1-6.3c-5.1,3.8-4.9,12.8,0.5,20.1
	C153.2,159.3,161.8,162.1,166.9,158.3z"/>
<path class="st3" d="M189,166l-15.2,49.6l-62.9,0.7l18.4-72.9c0,0,42.2-0.8,64,8.6"/>
<path class="st1" d="M150.4,144.9l5.8-17.5l10.7,8.1l1.7,1l-0.6,10.5"/>
<path class="st2" d="M172.3,151.3c-13-9.7-9.9-17.2-14.5-22.3c-4.5-5.1,14.5,4.9,14.5,4.9l0,12.6"/>
<path class="st3" d="M150.4,144.9l5.8-17.5l10.7,8.1l1.7,1l-0.6,10.5"/>
<path class="st1" d="M157.8,129l0.2-5.3l6-7.6l11.9,4c1.6,17.9-5.7,25-15.9,15.2"/>
<path class="st3" d="M157.8,129l0.2-5.3l6-7.6l11.9,4c1.6,17.9-5.7,25-15.9,15.2"/>
<path class="st5" d="M159.4,128.9c7.3-4.4,5.2-8.8,5.2-8.8c27.2,12.1,23.3-16.1,4.8-8.7c0,0-11.7-4.9-12.5,4.1
	C144.4,118.2,157.7,134.8,159.4,128.9L159.4,128.9z"/>
<path class="st1" d="M163,126.5c-6.9-6.6-11.8,2.6-2,5.7C161,132.2,163,126.5,163,126.5z"/>
<path class="st3" d="M163,126.5c-6.9-6.6-11.8,2.6-2,5.7"/>
<path class="st1" d="M171.4,125.7c0,0.1,0.9,2.7,0.9,2.7c2.7,0.4,0,2,0,2"/>
<path class="st3" d="M171.4,125.7c0,0.1,0.9,2.7,0.9,2.7c2.7,0.4,0,2,0,2"/>
<path class="st5" d="M173.8,127.3c0.4-0.1,0.6-0.4,0.5-0.8l-0.1-0.6c0-0.2-0.1-0.3-0.3-0.4c-0.1-0.1-0.3-0.1-0.5-0.1
	c-0.4,0.1-0.6,0.4-0.5,0.8l0.1,0.6C173.1,127.2,173.4,127.4,173.8,127.3C173.8,127.3,173.8,127.3,173.8,127.3L173.8,127.3z"/>
<path class="st3" d="M175.3,123.8l-3.2,0.6"/>
<path class="st5" d="M169.5,128c0.4-0.1,0.6-0.4,0.5-0.8l-0.1-0.6c-0.1-0.4-0.4-0.6-0.8-0.5c0,0,0,0,0,0c-0.4,0.1-0.6,0.4-0.5,0.8
	l0.1,0.6c0,0.2,0.1,0.3,0.3,0.4C169.1,128,169.3,128,169.5,128z"/>
<path class="st3" d="M169.9,124.5l-3.2,0.6"/>
<path class="st7" d="M172.5,132.6l-4.5-1.2C165.9,135.9,172.4,136.8,172.5,132.6z"/>
<path class="st3" d="M160,127.8l-1.5-1.5 M159.1,128.4l0.1-1.3"/>
<path class="st2" d="M172.6,216.3h65.9l15.9-39.5c0.7-1.7-0.3-3-2.2-3h-59c-2,0.1-3.8,1.2-4.7,3L172.6,216.3z"/>
<path class="st4" d="M146.3,213.2h94.2l-1.6,3.1h-97.6l0.4-0.7c0.5-0.7,1.2-1.4,2-1.8C144.5,213.4,145.4,213.2,146.3,213.2
	L146.3,213.2z"/>
<path class="st1" d="M174.1,216.3h65.9l15.9-39.5c0.7-1.7-0.3-3-2.2-3h-59c-2,0.1-3.8,1.2-4.7,3L174.1,216.3L174.1,216.3z"/>
<path class="st2" d="M247.6,203.4c-3.6,8.5-49.3,14.5-49.3,14.5l43.2,4.5"/>
<path class="st3" d="M174.1,216.3h65.9l15.9-39.5c0.7-1.7-0.3-3-2.2-3h-59c-2,0.1-3.8,1.2-4.7,3L174.1,216.3L174.1,216.3z"/>
<path class="st8" d="M219.5,197.6c3.2-1.9,4.7-5.1,3.5-7.3s-4.9-2.3-8-0.5c-3.2,1.9-4.7,5.1-3.5,7.3
	C212.7,199.2,216.3,199.4,219.5,197.6z"/>
<path class="st2" d="M135.5,171.8l-20.4,30.3l-26.3-1l16.3-43c5.9-14.8,24.9-14.7,24.9-14.7"/>
<path class="st3" d="M135.5,171.8l-20.4,30.3l-26.3-1l16.3-43c5.9-14.8,24.9-14.7,24.9-14.7"/>
<path class="st1" d="M167.8,198.7c0,0-0.8,4.3-10.9-3.9c0,0,3.1,7.3-1.7,7.8c0,0-2.8,1.5-4.4,1c0,0-3.9,1.8-5.7,1.6
	c0,0-1.4-2.2,2.2-3.2l-1.1-1.9c0,0-10,0.3-11.5,0.2l-34.7,14.5c-4.7,2-10.1-0.3-12-5c-0.1-0.2-0.2-0.4-0.2-0.6
	c-1.6-4.8,0.9-10.1,5.8-11.7c0.4-0.1,0.8-0.2,1.2-0.3c13.7-2.7,36.6-7,41.5-6.9c5.4,0.1,16.1-2,19.4-1.4
	C158.4,189.4,167.8,198.7,167.8,198.7L167.8,198.7z"/>
<path class="st3" d="M167.8,198.7c0,0-0.8,4.3-10.9-3.9c0,0,3.1,7.3-1.7,7.8c0,0-2.8,1.5-4.4,1c0,0-3.9,1.8-5.7,1.6
	c0,0-1.4-2.2,2.2-3.2l-1.1-1.9c0,0-10,0.3-11.5,0.2l-34.7,14.5c-4.7,2-10.1-0.3-12-5c-0.1-0.2-0.2-0.4-0.2-0.6l0,0
	c-1.6-4.8,0.9-10.1,5.8-11.7c0.4-0.1,0.8-0.2,1.2-0.3c13.7-2.7,36.6-7,41.5-6.9c5.4,0.1,16.1-2,19.4-1.4
	C158.4,189.4,167.8,198.7,167.8,198.7L167.8,198.7z"/>
<path class="st1" d="M154.1,195.4c0,0,1.9,5.3,1,7.2L154.1,195.4z"/>
<path class="st3" d="M154.1,195.4c0,0,1.9,5.3,1,7.2 M144.7,197.5l1.5,2.6"/>
<path class="st4" d="M152.4,174c0,0-9.9,0.1-14-1.1c0,0-6,12.2,4.6,12.8C153.5,186.4,152.4,174,152.4,174L152.4,174z"/>
<path class="st9" d="M84.4,122.3c3,0,5.4-2.4,5.4-5.4c0-3-2.4-5.4-5.4-5.4S79,114,79,117C79,119.9,81.5,122.3,84.4,122.3z
	 M281.9,176.3l9.1-3.3 M277.3,184.3l9.1-3.3"/>
<polyline class="st10" points="277.3,91.7 259.5,74.2 241.7,91.7 "/>
<line class="st10" x1="259.5" y1="77.2" x2="259.5" y2="105.6"/>
<path class="st10" d="M279.9,106.4v9.1c0,4.1-3.4,7.5-7.5,7.5h-25.8c-4.1,0-7.5-3.4-7.5-7.5v-9.1"/>
</svg>
