<?xml version="1.0" encoding="UTF-8"?><svg id="b" xmlns="http://www.w3.org/2000/svg" xmlns:xlink="http://www.w3.org/1999/xlink" viewBox="0 0 147.82 39.69"><defs><style>.h{fill:#007fe6;}.h,.i,.j,.k,.l{stroke-width:0px;}.i{fill:url(#e);}.j{fill:url(#f);}.k{fill:url(#d);}.l{fill:url(#g);}</style><linearGradient id="d" x1="25.75" y1="45.55" x2="-26.2" y2="-6.4" gradientUnits="userSpaceOnUse"><stop offset="0" stop-color="#68c7f9"/><stop offset=".37" stop-color="#0080fc"/><stop offset=".7" stop-color="#0043d4"/><stop offset="1" stop-color="#00006a"/></linearGradient><linearGradient id="e" x1="35.16" y1="36.13" x2="-16.79" y2="-15.82" xlink:href="#d"/><linearGradient id="f" x1="41.44" y1="29.85" x2="-10.5" y2="-22.1" xlink:href="#d"/><linearGradient id="g" x1="30.05" y1="41.24" x2="-21.9" y2="-10.7" xlink:href="#d"/></defs><g id="c"><path class="h" d="m68.58,29.82v-15.3h3.73v15.3h-3.73Zm1.84-17.77c-1.38,0-2.24-.87-2.24-2.27s.84-2.27,2.24-2.27,2.3.87,2.3,2.27-.88,2.27-2.3,2.27Z"/><path class="h" d="m76.38,29.82v-11.81h-2.18v-3.49h2.18v-1.26c0-3.43,1.78-5.32,5.02-5.32,1,0,1.96.13,2.67.36v3.46c-.55-.2-1.11-.36-1.73-.36-1.36,0-2.23.85-2.23,2.15v.97h3.86v3.49h-3.86v11.81h-3.73Z"/><path class="h" d="m89.38,29.88c-2.38,0-3.64-1.16-3.64-3.35V9.42h3.73v15.67c0,.82.47,1.29,1.29,1.29h.46v3.49h-1.84Z"/><path class="h" d="m99.66,30.2c-4.53,0-7.34-3.08-7.34-8.04s2.81-8.01,7.34-8.01,7.34,3.07,7.34,8.01-2.81,8.04-7.34,8.04Zm0-12.57c-2.14,0-3.53,1.78-3.53,4.53s1.39,4.58,3.53,4.58,3.53-1.8,3.53-4.58-1.39-4.53-3.53-4.53Z"/><polygon class="h" points="122.05 29.82 119.24 19.36 118.59 19.36 115.81 29.82 111.79 29.82 107 14.52 111.01 14.52 113.62 25.15 114.28 25.15 116.93 14.52 120.91 14.52 123.57 25.15 124.24 25.15 126.83 14.52 130.83 14.52 126.04 29.82 122.05 29.82"/><polygon class="h" points="133.91 39.69 137.9 30.14 131.68 14.52 135.84 14.52 139.56 25.23 140.18 25.23 143.69 14.52 147.82 14.52 137.99 39.69 133.91 39.69"/><path class="h" d="m56.5,9.42h-6.77v20.4h6.77c5.63,0,10.2-4.57,10.2-10.2s-4.57-10.2-10.2-10.2Zm0,16.65h-3.02v-12.9h3.02c3.56,0,6.45,2.89,6.45,6.45s-2.89,6.45-6.45,6.45Z"/><path class="k" d="m.42,32.25c-.14-.06-.29-.14-.42-.21v-6.17c1.23-1.21,3.13-2.23,5.62-2.77,2.34-.5,4.68-.6,7.17-.7.65-.02,1.3-.06,1.97-.09-1.46,5.61-3.4,9.12-8.08,10.13-3.22.7-5.18.29-6.26-.19Z"/><path class="i" d="m4.8,19.3c-1.86.4-3.45,1.01-4.8,1.77V0h13.08c2.66,0,5.21.53,7.52,1.49-2.51,4.62-3.57,9.97-4.56,14.92-.14.66-.26,1.31-.39,1.94-1.01.07-2.02.11-3.03.16-2.54.1-5.17.22-7.83.79Z"/><path class="j" d="m19.87,17.18c.96-4.83,1.94-9.77,4.17-13.86,2.9,1.94,5.25,4.63,6.8,7.8-3.73,4.14-7.32,5.88-10.94,6.66-.05.02-.1.02-.15.03.04-.21.09-.42.13-.63Z"/><path class="l" d="m32.8,19.72c0,10.89-8.83,19.72-19.72,19.72H0v-3.19c2.12.61,4.68.62,7.5,0,7.27-1.58,9.79-7.61,11.37-14.34,4.29-.63,8.83-2.22,13.41-6.69.34,1.44.52,2.94.52,4.49Z"/></g></svg>