<?xml version="1.0" encoding="UTF-8"?><svg id="b" xmlns="http://www.w3.org/2000/svg" viewBox="0 0 262.69 70.53"><defs><style>.d{fill:#fff;stroke-width:0px;}</style></defs><g id="c"><path class="d" d="m121.87,53v-27.19h6.63v27.19h-6.63Zm3.27-31.58c-2.46,0-3.99-1.55-3.99-4.03s1.49-4.03,3.99-4.03,4.08,1.54,4.08,4.03-1.56,4.03-4.08,4.03Z"/><path class="d" d="m135.74,53v-20.99h-3.88v-6.2h3.88v-2.25c0-6.09,3.17-9.45,8.92-9.45,1.78,0,3.48.23,4.75.65v6.15c-.98-.36-1.97-.65-3.08-.65-2.41,0-3.97,1.5-3.97,3.83v1.72h6.85v6.2h-6.85v20.99h-6.63Z"/><path class="d" d="m158.84,53.09c-4.24,0-6.48-2.06-6.48-5.95v-30.39h6.63v27.85c0,1.46.84,2.29,2.29,2.29h.82v6.2h-3.27Z"/><path class="d" d="m177.1,53.67c-8.05,0-13.04-5.48-13.04-14.29s5-14.24,13.04-14.24,13.04,5.46,13.04,14.24-5,14.29-13.04,14.29Zm0-22.33c-3.81,0-6.27,3.16-6.27,8.04s2.46,8.14,6.27,8.14,6.27-3.2,6.27-8.14-2.46-8.04-6.27-8.04Z"/><polygon class="d" points="216.89 53 211.9 34.4 210.75 34.4 205.81 53 198.66 53 190.15 25.81 197.27 25.81 201.92 44.69 203.09 44.69 207.79 25.81 214.86 25.81 219.61 44.69 220.78 44.69 225.38 25.81 232.51 25.81 223.99 53 216.89 53"/><polygon class="d" points="237.97 70.53 245.05 53.57 234.01 25.81 241.4 25.81 248.02 44.83 249.12 44.83 255.35 25.81 262.69 25.81 245.22 70.53 237.97 70.53"/><path class="d" d="m100.4,16.75h-12.03v36.25h12.03c10.01,0,18.12-8.11,18.12-18.12s-8.11-18.12-18.12-18.12Zm0,29.59h-5.37v-22.93h5.37c6.32,0,11.46,5.14,11.46,11.46s-5.14,11.46-11.46,11.46Z"/><path class="d" d="m.74,57.31c-.26-.11-.51-.24-.74-.37v-10.96c2.19-2.15,5.56-3.96,9.99-4.93,4.15-.9,8.31-1.07,12.73-1.25,1.15-.04,2.32-.1,3.5-.16-2.59,9.98-6.04,16.2-14.35,18.01-5.73,1.25-9.21.51-11.13-.34Z"/><path class="d" d="m8.53,34.29c-3.3.71-6.12,1.79-8.53,3.14V0h23.25c4.73,0,9.25.94,13.37,2.64-4.46,8.21-6.35,17.72-8.1,26.52-.24,1.18-.47,2.33-.7,3.44-1.79.13-3.58.2-5.39.28-4.52.18-9.19.38-13.91,1.41Z"/><path class="d" d="m35.31,30.53c1.71-8.58,3.45-17.37,7.4-24.63,5.16,3.45,9.34,8.23,12.08,13.86-6.62,7.36-13.02,10.45-19.44,11.84-.09.03-.18.04-.27.06.07-.37.16-.75.23-1.12Z"/><path class="d" d="m58.29,35.04c0,19.36-15.69,35.04-35.04,35.04H0v-5.67c3.77,1.08,8.31,1.09,13.33.01,12.92-2.8,17.39-13.53,20.21-25.48,7.63-1.12,15.69-3.95,23.83-11.88.61,2.56.92,5.23.92,7.97Z"/></g></svg>