<?xml version="1.0" encoding="UTF-8"?><svg id="b" xmlns="http://www.w3.org/2000/svg" viewBox="0 0 281.65 70.75"><defs><style>.d{fill:#fff;stroke-width:0px;}</style></defs><g id="c"><path class="d" d="m109.48,15.84h-14.52v37.38h13.71c12.56,0,19.12-7.62,19.12-18.69s-6.28-18.69-18.31-18.69Zm-.76,29.9h-5.75v-22.43h6.13c7.19,0,10.5,4.41,10.5,11.22s-3.45,11.21-10.88,11.21Z"/><path class="d" d="m132.47,24.89v28.33h7.76v-28.33h-7.76Zm3.83-12.46c-2.83,0-4.55,1.78-4.55,4.6s1.72,4.61,4.55,4.61,4.65-1.83,4.65-4.61-1.82-4.6-4.65-4.6Z"/><path class="d" d="m158.71,20.49c1.25,0,2.35.38,3.65.91v-7.39c-1.39-.52-3.31-.81-5.32-.81-6.09,0-9.49,3.59-9.49,10.02v1.67h-3.89v7.34h3.89v20.99h7.76v-20.99h6.85v-7.34h-6.85v-1.15c0-2.25,1.53-3.25,3.4-3.25Z"/><path class="d" d="m174.79,45.98c-1.15,0-1.72-.57-1.72-1.72V15.84h-7.76v30.96c0,4.22,2.49,6.52,7.04,6.52h3.83v-7.34h-1.39Z"/><path class="d" d="m191.79,24.22c-8.39,0-13.62,5.75-13.62,14.81s5.23,14.86,13.62,14.86,13.61-5.7,13.61-14.86-5.27-14.81-13.61-14.81Zm0,22.39c-3.5,0-5.71-2.93-5.71-7.58s2.21-7.47,5.71-7.47,5.7,2.87,5.7,7.47-2.21,7.58-5.7,7.58Z"/><path class="d" d="m241.45,24.89l-4.6,18.89h-.29l-4.74-18.89h-7.96l-4.7,18.89h-.28l-4.65-18.89h-8.34l8.86,28.33h8.01l4.94-18.6h.28l4.99,18.6h7.95l8.87-28.33h-8.34Z"/><path class="d" d="m273.07,24.89l-6.23,19.03h-.29l-6.61-19.03h-8.63l11.27,28.33-7.32,17.53h8.48l17.91-45.86h-8.58Z"/><path class="d" d="m20.68,39.38h5.94v5.92c0,3.27-2.66,5.93-5.94,5.93s-5.93-2.66-5.93-5.93,2.66-5.92,5.93-5.92Z"/><path class="d" d="m27.48,0H0v70.75h25.94c23.76,0,36.19-14.42,36.19-35.38S50.25,0,27.48,0Zm18.25,19.52h-5.19c-3.26,0-5.92,2.66-5.92,5.93v5.93h11.11v8h-11.11v5.92c0,7.68-6.25,13.93-13.93,13.93s-13.94-6.25-13.94-13.93,6.25-13.92,13.93-13.92h5.94v-5.93c0-7.68,6.24-13.93,13.92-13.93h5.19v8Z"/></g></svg>