<?xml version="1.0" encoding="UTF-8"?><svg id="b" xmlns="http://www.w3.org/2000/svg" viewBox="0 0 281.65 70.75"><defs><style>.d{fill:#fff;stroke-width:0px;}</style></defs><g id="c"><path class="d" d="m94.96,53.22V15.83h14.52c12.03,0,18.31,7.62,18.31,18.69s-6.57,18.69-19.12,18.69h-13.71Zm13.76-7.48c7.43,0,10.88-4.41,10.88-11.21s-3.31-11.21-10.5-11.21h-6.13v22.43h5.75Z"/><path class="d" d="m136.3,21.63c-2.83,0-4.55-1.82-4.55-4.6s1.73-4.6,4.55-4.6,4.65,1.77,4.65,4.6-1.82,4.6-4.65,4.6Zm3.93,31.58h-7.76v-28.33h7.76v28.33Z"/><path class="d" d="m155.31,23.74v1.15h6.85v7.33h-6.85v20.99h-7.76v-20.99h-3.88v-7.33h3.88v-1.68c0-6.42,3.4-10.02,9.49-10.02,2.01,0,3.93.29,5.32.81v7.38c-1.29-.53-2.4-.91-3.64-.91-1.87,0-3.4,1.01-3.4,3.26Z"/><path class="d" d="m165.31,15.83h7.76v28.42c0,1.15.58,1.72,1.73,1.72h1.39v7.33h-3.83c-4.55,0-7.04-2.3-7.04-6.52V15.83Z"/><path class="d" d="m178.18,39.03c0-9.06,5.22-14.81,13.61-14.81s13.61,5.75,13.61,14.81-5.27,14.86-13.61,14.86-13.61-5.7-13.61-14.86Zm19.31,0c0-4.6-2.2-7.48-5.7-7.48s-5.7,2.88-5.7,7.48,2.2,7.57,5.7,7.57,5.7-2.92,5.7-7.57Z"/><path class="d" d="m205.89,24.89h8.34l4.65,18.88h.29l4.7-18.88h7.96l4.74,18.88h.29l4.6-18.88h8.34l-8.87,28.33h-7.96l-4.98-18.6h-.29l-4.94,18.6h-8l-8.87-28.33Z"/><path class="d" d="m251.31,24.89h8.63l6.61,19.03h.29l6.23-19.03h8.58l-17.91,45.86h-8.48l7.32-17.53-11.26-28.33Z"/><path class="d" d="m27.48,0H0v70.75h25.94c23.76,0,36.19-14.42,36.19-35.37S50.25,0,27.48,0Zm14.82,18.29c-.41,0-1.22-.05-1.62-.05-3.91,0-5.23,1.78-5.83,5.07h5.53l-1.78,7.86h-5.48l-4.11,18.92c-2.13,9.69-7.97,12.58-17.35,12.48-1.06,0-2.49,0-3.4-.05l1.62-7.41c.41,0,1.22.05,1.62.05,3.91,0,5.07-1.78,5.78-5.07l4.16-18.92h-4.06l1.83-7.86h3.91c2.13-9.69,7.97-12.58,17.35-12.48,1.06,0,2.54,0,3.45.05l-1.62,7.41Z"/></g></svg>